<?xml version="1.0" encoding="utf-8"?>
<COLLADA xmlns="http://www.collada.org/2005/11/COLLADASchema" version="1.4.1" xmlns:xsi="http://www.w3.org/2001/XMLSchema-instance">
  <asset>
    <contributor>
      <author>Blender User</author>
      <authoring_tool>Blender 3.4.1 commit date:2022-12-19, commit time:17:00, hash:55485cb379f7</authoring_tool>
    </contributor>
    <created>2023-01-27T13:41:13</created>
    <modified>2023-01-27T13:41:13</modified>
    <unit name="meter" meter="1"/>
    <up_axis>Z_UP</up_axis>
  </asset>
  <library_effects>
    <effect id="Metal-effect">
      <profile_COMMON>
        <technique sid="common">
          <lambert>
            <emission>
              <color sid="emission">0 0 0 1</color>
            </emission>
            <diffuse>
              <color sid="diffuse">0.5704694 0.5704694 0.5704694 1</color>
            </diffuse>
            <index_of_refraction>
              <float sid="ior">1.45</float>
            </index_of_refraction>
          </lambert>
        </technique>
      </profile_COMMON>
    </effect>
    <effect id="Black-effect">
      <profile_COMMON>
        <technique sid="common">
          <lambert>
            <emission>
              <color sid="emission">0 0 0 1</color>
            </emission>
            <diffuse>
              <color sid="diffuse">0 0 0 1</color>
            </diffuse>
            <index_of_refraction>
              <float sid="ior">1.45</float>
            </index_of_refraction>
          </lambert>
        </technique>
      </profile_COMMON>
    </effect>
  </library_effects>
  <library_images/>
  <library_materials>
    <material id="Metal-material" name="Metal">
      <instance_effect url="#Metal-effect"/>
    </material>
    <material id="Black-material" name="Black">
      <instance_effect url="#Black-effect"/>
    </material>
  </library_materials>
  <library_geometries>
    <geometry id="Cylinder-mesh" name="Cylinder">
      <mesh>
        <source id="Cylinder-mesh-positions">
          <float_array id="Cylinder-mesh-positions-array" count="1152">0 0.7500001 -0.6924244 0 0.7500001 0.7575759 0.1463177 0.735589 -0.6924244 0.1463177 0.735589 0.7575759 0.2870126 0.6929097 -0.6924244 0.2870126 0.6929097 0.7575759 0.4166777 0.6236023 -0.6924244 0.4166777 0.6236023 0.7575759 0.5303301 0.5303301 -0.6924244 0.5303301 0.5303301 0.7575759 0.6236023 0.4166777 -0.6924244 0.6236023 0.4166777 0.7575759 0.6929097 0.2870126 -0.6924244 0.6929097 0.2870126 0.7575759 0.735589 0.1463177 -0.6924244 0.735589 0.1463177 0.7575759 0.7500001 0 -0.6924244 0.7500001 0 0.7575759 0.735589 -0.1463177 -0.6924244 0.735589 -0.1463177 0.7575759 0.6929097 -0.2870126 -0.6924244 0.6929097 -0.2870126 0.7575759 0.6236023 -0.4166777 -0.6924244 0.6236023 -0.4166777 0.7575759 0.5303301 -0.5303301 -0.6924244 0.5303301 -0.5303301 0.7575759 0.4166777 -0.6236023 -0.6924244 0.4166777 -0.6236023 0.7575759 0.2870126 -0.6929097 -0.6924244 0.2870126 -0.6929097 0.7575759 0.1463177 -0.735589 -0.6924244 0.1463177 -0.735589 0.7575759 0 -0.7500001 -0.6924244 0 -0.7500001 0.7575759 -0.1463177 -0.735589 -0.6924244 -0.1463177 -0.735589 0.7575759 -0.2870126 -0.6929097 -0.6924244 -0.2870126 -0.6929097 0.7575759 -0.4166777 -0.6236023 -0.6924244 -0.4166777 -0.6236023 0.7575759 -0.5303301 -0.5303301 -0.6924244 -0.5303301 -0.5303301 0.7575759 -0.6236023 -0.4166777 -0.6924244 -0.6236023 -0.4166777 0.7575759 -0.6929097 -0.2870126 -0.6924244 -0.6929097 -0.2870126 0.7575759 -0.735589 -0.1463177 -0.6924244 -0.735589 -0.1463177 0.7575759 -0.7500001 0 -0.6924244 -0.7500001 0 0.7575759 -0.735589 0.1463177 -0.6924244 -0.735589 0.1463177 0.7575759 -0.6929097 0.2870126 -0.6924244 -0.6929097 0.2870126 0.7575759 -0.6236023 0.4166777 -0.6924244 -0.6236023 0.4166777 0.7575759 -0.5303301 0.5303301 -0.6924244 -0.5303301 0.5303301 0.7575759 -0.4166777 0.6236023 -0.6924244 -0.4166777 0.6236023 0.7575759 -0.2870126 0.6929097 -0.6924244 -0.2870126 0.6929097 0.7575759 -0.1463177 0.735589 -0.6924244 -0.1463177 0.735589 0.7575759 0 0.7500001 -0.7424244 0.1463177 0.735589 -0.7424244 0.1463177 0.735589 0.7575759 0 0.7500001 0.7575759 0.2870126 0.6929097 -0.7424244 0.2870126 0.6929097 0.7575759 0.4166777 0.6236023 -0.7424244 0.4166777 0.6236023 0.7575759 0.5303301 0.5303301 -0.7424244 0.5303301 0.5303301 0.7575759 0.6236023 0.4166777 -0.7424244 0.6236023 0.4166777 0.7575759 0.6929097 0.2870126 -0.7424244 0.6929097 0.2870126 0.7575759 0.735589 0.1463177 -0.7424244 0.735589 0.1463177 0.7575759 0.7500001 0 -0.7424244 0.7500001 0 0.7575759 0.735589 -0.1463177 -0.7424244 0.735589 -0.1463177 0.7575759 0.6929097 -0.2870126 -0.7424244 0.6929097 -0.2870126 0.7575759 0.6236023 -0.4166777 -0.7424244 0.6236023 -0.4166777 0.7575759 0.5303301 -0.5303301 -0.7424244 0.5303301 -0.5303301 0.7575759 0.4166777 -0.6236023 -0.7424244 0.4166777 -0.6236023 0.7575759 0.2870126 -0.6929097 -0.7424244 0.2870126 -0.6929097 0.7575759 0.1463177 -0.735589 -0.7424244 0.1463177 -0.735589 0.7575759 0 -0.7500001 -0.7424244 0 -0.7500001 0.7575759 -0.1463177 -0.735589 -0.7424244 -0.1463177 -0.735589 0.7575759 -0.2870126 -0.6929097 -0.7424244 -0.2870126 -0.6929097 0.7575759 -0.4166777 -0.6236023 -0.7424244 -0.4166777 -0.6236023 0.7575759 -0.5303301 -0.5303301 -0.7424244 -0.5303301 -0.5303301 0.7575759 -0.6236023 -0.4166777 -0.7424244 -0.6236023 -0.4166777 0.7575759 -0.6929097 -0.2870126 -0.7424244 -0.6929097 -0.2870126 0.7575759 -0.735589 -0.1463177 -0.7424244 -0.735589 -0.1463177 0.7575759 -0.7500001 0 -0.7424244 -0.7500001 0 0.7575759 -0.735589 0.1463177 -0.7424244 -0.735589 0.1463177 0.7575759 -0.6929097 0.2870126 -0.7424244 -0.6929097 0.2870126 0.7575759 -0.6236023 0.4166777 -0.7424244 -0.6236023 0.4166777 0.7575759 -0.5303301 0.5303301 -0.7424244 -0.5303301 0.5303301 0.7575759 -0.4166777 0.6236023 -0.7424244 -0.4166777 0.6236023 0.7575759 -0.2870126 0.6929097 -0.7424244 -0.2870126 0.6929097 0.7575759 -0.1463177 0.735589 -0.7424244 -0.1463177 0.735589 0.7575759 0 0.7500001 -0.7424244 0.1463177 0.735589 -0.7424244 0.1463177 0.735589 0.7575759 0 0.7500001 0.7575759 0.2870126 0.6929097 -0.7424244 0.2870126 0.6929097 0.7575759 0.4166777 0.6236023 -0.7424244 0.4166777 0.6236023 0.7575759 0.5303301 0.5303301 -0.7424244 0.5303301 0.5303301 0.7575759 0.6236023 0.4166777 -0.7424244 0.6236023 0.4166777 0.7575759 0.6929097 0.2870126 -0.7424244 0.6929097 0.2870126 0.7575759 0.735589 0.1463177 -0.7424244 0.735589 0.1463177 0.7575759 0.7500001 0 -0.7424244 0.7500001 0 0.7575759 0.735589 -0.1463177 -0.7424244 0.735589 -0.1463177 0.7575759 0.6929097 -0.2870126 -0.7424244 0.6929097 -0.2870126 0.7575759 0.6236023 -0.4166777 -0.7424244 0.6236023 -0.4166777 0.7575759 0.5303301 -0.5303301 -0.7424244 0.5303301 -0.5303301 0.7575759 0.4166777 -0.6236023 -0.7424244 0.4166777 -0.6236023 0.7575759 0.2870126 -0.6929097 -0.7424244 0.2870126 -0.6929097 0.7575759 0.1463177 -0.735589 -0.7424244 0.1463177 -0.735589 0.7575759 0 -0.7500001 -0.7424244 0 -0.7500001 0.7575759 -0.1463177 -0.735589 -0.7424244 -0.1463177 -0.735589 0.7575759 -0.2870126 -0.6929097 -0.7424244 -0.2870126 -0.6929097 0.7575759 -0.4166777 -0.6236023 -0.7424244 -0.4166777 -0.6236023 0.7575759 -0.5303301 -0.5303301 -0.7424244 -0.5303301 -0.5303301 0.7575759 -0.6236023 -0.4166777 -0.7424244 -0.6236023 -0.4166777 0.7575759 -0.6929097 -0.2870126 -0.7424244 -0.6929097 -0.2870126 0.7575759 -0.735589 -0.1463177 -0.7424244 -0.735589 -0.1463177 0.7575759 -0.7500001 0 -0.7424244 -0.7500001 0 0.7575759 -0.735589 0.1463177 -0.7424244 -0.735589 0.1463177 0.7575759 -0.6929097 0.2870126 -0.7424244 -0.6929097 0.2870126 0.7575759 -0.6236023 0.4166777 -0.7424244 -0.6236023 0.4166777 0.7575759 -0.5303301 0.5303301 -0.7424244 -0.5303301 0.5303301 0.7575759 -0.4166777 0.6236023 -0.7424244 -0.4166777 0.6236023 0.7575759 -0.2870126 0.6929097 -0.7424244 -0.2870126 0.6929097 0.7575759 -0.1463177 0.735589 -0.7424244 -0.1463177 0.735589 0.7575759 0 0.9000001 -0.7424244 0.1755813 0.8827068 -0.7424244 0.1755813 0.8827068 0.7575759 0 0.9000001 0.7575759 0.3444151 0.8314917 -0.7424244 0.3444151 0.8314917 0.7575759 0.5000133 0.7483227 -0.7424244 0.5000133 0.7483227 0.7575759 0.6363962 0.6363962 -0.7424244 0.6363962 0.6363962 0.7575759 0.7483227 0.5000133 -0.7424244 0.7483227 0.5000133 0.7575759 0.8314917 0.3444151 -0.7424244 0.8314917 0.3444151 0.7575759 0.8827068 0.1755813 -0.7424244 0.8827068 0.1755813 0.7575759 0.9000001 0 -0.7424244 0.9000001 0 0.7575759 0.8827068 -0.1755813 -0.7424244 0.8827068 -0.1755813 0.7575759 0.8314917 -0.3444151 -0.7424244 0.8314917 -0.3444151 0.7575759 0.7483227 -0.5000133 -0.7424244 0.7483227 -0.5000133 0.7575759 0.6363962 -0.6363962 -0.7424244 0.6363962 -0.6363962 0.7575759 0.5000133 -0.7483227 -0.7424244 0.5000133 -0.7483227 0.7575759 0.3444151 -0.8314917 -0.7424244 0.3444151 -0.8314917 0.7575759 0.1755813 -0.8827068 -0.7424244 0.1755813 -0.8827068 0.7575759 0 -0.9000001 -0.7424244 0 -0.9000001 0.7575759 -0.1755813 -0.8827068 -0.7424244 -0.1755813 -0.8827068 0.7575759 -0.3444151 -0.8314917 -0.7424244 -0.3444151 -0.8314917 0.7575759 -0.5000133 -0.7483227 -0.7424244 -0.5000133 -0.7483227 0.7575759 -0.6363962 -0.6363962 -0.7424244 -0.6363962 -0.6363962 0.7575759 -0.7483227 -0.5000133 -0.7424244 -0.7483227 -0.5000133 0.7575759 -0.8314917 -0.3444151 -0.7424244 -0.8314917 -0.3444151 0.7575759 -0.8827068 -0.1755813 -0.7424244 -0.8827068 -0.1755813 0.7575759 -0.9000001 0 -0.7424244 -0.9000001 0 0.7575759 -0.8827068 0.1755813 -0.7424244 -0.8827068 0.1755813 0.7575759 -0.8314917 0.3444151 -0.7424244 -0.8314917 0.3444151 0.7575759 -0.7483227 0.5000133 -0.7424244 -0.7483227 0.5000133 0.7575759 -0.6363962 0.6363962 -0.7424244 -0.6363962 0.6363962 0.7575759 -0.5000133 0.7483227 -0.7424244 -0.5000133 0.7483227 0.7575759 -0.3444151 0.8314917 -0.7424244 -0.3444151 0.8314917 0.7575759 -0.1755813 0.8827068 -0.7424244 -0.1755813 0.8827068 0.7575759 0.1463177 0.735589 0.7575759 0 0.7500001 0.7575759 0.2870126 0.6929097 0.7575759 0.4166777 0.6236023 0.7575759 0.5303301 0.5303301 0.7575759 0.6236023 0.4166777 0.7575759 0.6929097 0.2870126 0.7575759 0.735589 0.1463177 0.7575759 0.7500001 0 0.7575759 0.735589 -0.1463177 0.7575759 0.6929097 -0.2870126 0.7575759 0.6236023 -0.4166777 0.7575759 0.5303301 -0.5303301 0.7575759 0.4166777 -0.6236023 0.7575759 0.2870126 -0.6929097 0.7575759 0.1463177 -0.735589 0.7575759 0 -0.7500001 0.7575759 -0.1463177 -0.735589 0.7575759 -0.2870126 -0.6929097 0.7575759 -0.4166777 -0.6236023 0.7575759 -0.5303301 -0.5303301 0.7575759 -0.6236023 -0.4166777 0.7575759 -0.6929097 -0.2870126 0.7575759 -0.735589 -0.1463177 0.7575759 -0.7500001 0 0.7575759 -0.735589 0.1463177 0.7575759 -0.6929097 0.2870126 0.7575759 -0.6236023 0.4166777 0.7575759 -0.5303301 0.5303301 0.7575759 -0.4166777 0.6236023 0.7575759 -0.2870126 0.6929097 0.7575759 -0.1463177 0.735589 0.7575759 0.1463175 0.735589 -0.4924244 -2.18561e-7 0.7500001 -0.4924244 0.2870124 0.6929097 -0.4924244 0.4166775 0.6236023 -0.4924244 0.5303299 0.5303301 -0.4924244 0.623602 0.4166777 -0.4924244 0.6929095 0.2870126 -0.4924244 0.7355888 0.1463177 -0.4924244 0.7499998 0 -0.4924244 0.7355888 -0.1463177 -0.4924244 0.6929095 -0.2870126 -0.4924244 0.623602 -0.4166777 -0.4924244 0.5303299 -0.5303301 -0.4924244 0.4166775 -0.6236023 -0.4924244 0.2870124 -0.6929097 -0.4924244 0.1463175 -0.735589 -0.4924244 -2.18561e-7 -0.7500001 -0.4924244 -0.146318 -0.735589 -0.4924244 -0.2870128 -0.6929097 -0.4924244 -0.416678 -0.6236023 -0.4924244 -0.5303304 -0.5303301 -0.4924244 -0.6236025 -0.4166777 -0.4924244 -0.6929099 -0.2870126 -0.4924244 -0.7355892 -0.1463177 -0.4924244 -0.7500002 0 -0.4924244 -0.7355892 0.1463177 -0.4924244 -0.6929099 0.2870126 -0.4924244 -0.6236025 0.4166777 -0.4924244 -0.5303304 0.5303301 -0.4924244 -0.416678 0.6236023 -0.4924244 -0.2870128 0.6929097 -0.4924244 -0.146318 0.735589 -0.4924244 0 1.046191 -0.3106201 0 1.046191 -0.5282472 0.2041016 1.026088 -0.5282472 0.2041016 1.026088 -0.3106201 0.4003598 0.9665542 -0.5282472 0.4003598 0.9665542 -0.3106201 0.5812324 0.8698757 -0.5282472 0.5812324 0.8698757 -0.3106201 0.7397686 0.7397686 -0.5282472 0.7397686 0.7397686 -0.3106201 0.8698758 0.5812325 -0.5282472 0.8698758 0.5812325 -0.3106201 0.9665542 0.4003599 -0.5282472 0.9665542 0.4003599 -0.3106201 1.026088 0.2041017 -0.5282472 1.026088 0.2041017 -0.3106201 1.046191 0 -0.5282472 1.046191 0 -0.3106201 1.026088 -0.2041016 -0.5282472 1.026088 -0.2041016 -0.3106201 0.9665542 -0.4003598 -0.5282472 0.9665542 -0.4003598 -0.3106201 0.8698758 -0.5812324 -0.5282472 0.8698758 -0.5812324 -0.3106201 0.7397686 -0.7397685 -0.5282472 0.7397686 -0.7397685 -0.3106201 0.5812324 -0.8698756 -0.5282472 0.5812324 -0.8698756 -0.3106201 0.4003598 -0.9665541 -0.5282472 0.4003598 -0.9665541 -0.3106201 0.2041016 -1.026088 -0.5282472 0.2041016 -1.026088 -0.3106201 0 -1.046191 -0.5282472 0 -1.046191 -0.3106201 -0.2041017 -1.026088 -0.5282472 -0.2041017 -1.026088 -0.3106201 -0.4003599 -0.9665541 -0.5282472 -0.4003599 -0.9665541 -0.3106201 -0.5812324 -0.8698756 -0.5282472 -0.5812324 -0.8698756 -0.3106201 -0.7397685 -0.7397685 -0.5282472 -0.7397685 -0.7397685 -0.3106201 -0.8698757 -0.5812324 -0.5282472 -0.8698757 -0.5812324 -0.3106201 -0.9665542 -0.4003598 -0.5282472 -0.9665542 -0.4003598 -0.3106201 -1.026088 -0.2041016 -0.5282472 -1.026088 -0.2041016 -0.3106201 -1.046191 0 -0.5282472 -1.046191 0 -0.3106201 -1.026088 0.2041017 -0.5282472 -1.026088 0.2041017 -0.3106201 -0.9665542 0.4003599 -0.5282472 -0.9665542 0.4003599 -0.3106201 -0.8698757 0.5812325 -0.5282472 -0.8698757 0.5812325 -0.3106201 -0.7397685 0.7397686 -0.5282472 -0.7397685 0.7397686 -0.3106201 -0.5812324 0.8698757 -0.5282472 -0.5812324 0.8698757 -0.3106201 -0.4003599 0.9665542 -0.5282472 -0.4003599 0.9665542 -0.3106201 -0.2041017 1.026088 -0.5282472 -0.2041017 1.026088 -0.3106201</float_array>
          <technique_common>
            <accessor source="#Cylinder-mesh-positions-array" count="384" stride="3">
              <param name="X" type="float"/>
              <param name="Y" type="float"/>
              <param name="Z" type="float"/>
            </accessor>
          </technique_common>
        </source>
        <source id="Cylinder-mesh-normals">
          <float_array id="Cylinder-mesh-normals-array" count="1206">0 0 1 -0.5555703 -0.8314696 0 -0.707107 -0.7071067 0 -0.7071071 -0.7071065 0 0.5555705 -0.8314695 0 0.3826835 -0.9238796 0 0.3826838 -0.9238795 0 0.7071071 0.7071065 0 0.8314698 0.55557 0 0.8314699 0.55557 0 -0.8314696 0.5555703 0 -0.7071068 0.7071068 0 -0.7071071 0.7071065 0 -0.3826836 -0.9238795 0 -0.5555701 -0.8314697 0 0.7071071 -0.7071065 0 0.5555703 -0.8314696 0 0.5555703 0.8314696 0 0.707107 0.7071067 0 -0.9238798 0.3826828 0 -0.8314695 0.5555705 0 -0.1950906 -0.9807853 0 -0.3826835 -0.9238796 0 0.8314696 -0.5555703 0 0.7071068 -0.7071068 0 0.3826836 0.9238795 0 0.5555701 0.8314697 0 -0.9807853 0.1950908 0 -0.9238798 0.3826829 0 0.9238796 -0.3826833 0 0.8314695 -0.5555705 0 2.07327e-7 -1 0 -0.1950905 -0.9807853 0 0.1950906 0.9807853 0 0.3826835 0.9238796 0 -1 4.02739e-7 0 -0.9807852 0.1950909 0 0 0 -1 0 0 -1 0 0 -1 -1.31159e-7 0 1 -1.74879e-7 0 1 1.34555e-7 0 1 0 0 1 0 0 1 1.74879e-7 0 1 0 0 1 0 0 1 0 0 1 0 0 1 -1.74869e-7 0 1 0 0 1 -0.5555703 0.8314696 0 -0.5555705 0.8314695 0 0.9238796 0.3826834 0 0.9238796 0.3826833 0 0.1950905 -0.9807853 0 0.1950907 -0.9807853 0 -0.8314698 -0.55557 0 -0.8314699 -0.55557 0 -0.3826835 0.9238796 0 -0.3826838 0.9238795 0 0.9807853 0.1950907 0 0.9807854 0.1950904 0 2.00178e-7 -1 0 -0.9238796 -0.3826834 0 -0.9238796 -0.3826833 0 -0.1950905 0.9807853 0 -0.1950906 0.9807853 0 1 0 0 1 1.28686e-7 0 -0.9807853 -0.1950907 0 -0.9807853 -0.1950904 0 -1.93029e-7 1 0 -2.02561e-7 1 0 0.9807853 -0.1950904 0 0.9807853 -0.1950907 0 -1 2.12093e-7 0 0.1950905 0.9807853 0 0.9238796 -0.3826834 0 0 0 -1 0 0 -1 0 0 -1 0 0 -1 0 0 -1 0 0 1 -1.25732e-7 0 1 -1.34556e-7 0 1 0 0 1 0 0 -1 5.23873e-7 0 -1 1.43189e-7 0 1 1.43189e-7 0 -1 0 0 1 0 0 1 2.45541e-7 0 -1 -1.69735e-7 0 -1 0 0 -1 0 0 1 0 0 -1 0 0 -1 0 0 1 1.56548e-7 0 -1 0 0 1 0 0 -1 0 0 -1 -1.43189e-7 0 1 -1.43189e-7 0 -1 -2.45541e-7 0 -1 -5.09205e-7 0 -1 1.39702e-7 0 -1 0 0 1 -2.82892e-7 0 -1 0 0 1 -1.56548e-7 0 -1 0 0 -1 0 0 -1 0 0 1 1.31159e-7 0 1 -1.31159e-7 0 1 0 0 1 1.31159e-7 0 1 1.74869e-7 0 1 -1.34556e-7 0 1 0 0 1 -0.1611326 0.8100687 -0.5637598 0 0.8259388 -0.5637598 0 0.8259389 -0.5637597 0.3160731 0.7630679 -0.5637601 0.458867 0.6867429 -0.5637601 0.4588668 0.686743 -0.56376 0.5840268 0.5840269 -0.5637599 0.6867428 0.4588671 -0.5637601 0.686743 0.4588669 -0.5637601 0.7630679 0.3160728 -0.5637602 0.7630679 0.3160729 -0.5637599 0.8100687 0.1611323 -0.5637599 0.8100687 0.1611329 -0.5637598 0.8259388 0 -0.5637599 0.8259388 3.33287e-7 -0.5637599 0.8100687 -0.1611323 -0.5637598 0.8100687 -0.1611327 -0.5637598 0.763068 -0.3160731 -0.5637599 0.7630678 -0.3160732 -0.56376 0.6867429 -0.458867 -0.5637601 0.686743 -0.458867 -0.5637599 0.5840268 -0.584027 -0.56376 0.5840269 -0.5840272 -0.5637597 0.4588671 -0.686743 -0.5637598 0.4588671 -0.686743 -0.5637598 0.3160732 -0.763068 -0.5637598 0.3160732 -0.7630681 -0.5637596 0.1611327 -0.8100686 -0.5637599 0.1611327 -0.8100686 -0.5637598 0 -0.8259388 -0.5637598 0 -0.8259388 -0.5637598 -0.1611326 -0.8100687 -0.5637597 -0.1611327 -0.8100686 -0.5637598 -0.316073 -0.763068 -0.5637599 -0.3160732 -0.7630679 -0.5637599 -0.4588671 -0.6867431 -0.5637597 -0.4588672 -0.6867429 -0.5637598 -0.5840269 -0.5840271 -0.5637597 -0.686743 -0.4588671 -0.5637598 -0.6867431 -0.4588672 -0.5637596 -0.7630679 -0.3160732 -0.5637599 -0.763068 -0.3160731 -0.5637599 -0.8100687 -0.1611327 -0.5637598 -0.8100688 -0.1611323 -0.5637598 -0.8259388 3.40182e-7 -0.5637599 -0.8259388 0 -0.5637599 -0.8100687 0.1611329 -0.5637598 -0.8100686 0.1611322 -0.5637599 -0.7630679 0.3160729 -0.5637601 -0.7630679 0.3160728 -0.5637601 -0.6867427 0.4588671 -0.5637602 -0.6867429 0.4588672 -0.5637599 -0.5840269 0.5840271 -0.5637598 -0.584027 0.584027 -0.5637598 -0.458867 0.6867429 -0.5637599 -0.458867 0.6867429 -0.56376 -0.3160731 0.7630679 -0.5637601 -0.1611325 0.8100686 -0.56376 0.1611327 0.8100687 -0.5637598 0 0 -1 0 0 -1 0 0 1 -1.25732e-7 0 1 0 0 -1 0 0 -1 1.25732e-7 0 1 0 0 -1 1.69735e-7 0 -1 0 0 1 -5.23873e-7 0 -1 0 0 -1 -1.43189e-7 0 -1 0 0 1 0 0 1 0 0 -1 5.09205e-7 0 -1 -1.56548e-7 0 -1 -1.39702e-7 0 -1 2.82892e-7 0 -1 1.43189e-7 0 -1 1.56548e-7 0 -1 0.7071067 0.7071068 0 0.8314697 0.5555701 -1.22209e-7 0.8314696 0.5555703 -1.43522e-7 0 0 1 0 0 1 0 0 1 -0.9807853 -0.1950906 1.64536e-7 -1 5.95767e-7 1.69157e-7 -1 -5.76703e-7 1.69006e-7 0.9238796 0.3826832 -1.54479e-7 0.9238796 0.3826833 -1.73647e-7 -0.9807853 0.1950906 1.59905e-7 -0.9807853 0.19509 1.43173e-7 0.9807853 0.1950904 -1.86959e-7 0.9807853 0.1950903 -1.6242e-7 -0.9238795 0.3826835 1.27721e-7 -0.9238796 0.3826833 1.5494e-7 1 0 -1.64962e-7 1 0 -1.64761e-7 -0.8314695 0.5555706 1.23982e-7 -0.8314697 0.5555701 1.63727e-7 0.9807853 -0.1950903 -1.69824e-7 0.9807854 -0.1950904 -1.84822e-7 -0.7071067 0.7071069 0 -0.7071069 0.7071067 1.62946e-7 0.9238796 -0.3826833 -1.77643e-7 0.9238796 -0.3826833 -1.51618e-7 -0.5555703 0.8314697 0 -0.5555703 0.8314697 0 0.8314696 -0.5555703 -1.20692e-7 0.8314697 -0.5555702 -1.38442e-7 -0.3826833 0.9238796 0 -0.3826833 0.9238796 0 0 -1 0 -0.1950904 -0.9807854 0 -0.1950904 -0.9807853 0 0.7071067 -0.7071068 -1.25156e-7 0.707107 -0.7071067 -1.2236e-7 -0.1950904 0.9807853 0 -0.1950904 0.9807854 0 -0.3826833 -0.9238796 0 -0.3826833 -0.9238796 0 0.5555702 -0.8314697 0 0.5555702 -0.8314697 0 0 1 0 0 1 0 -0.5555703 -0.8314697 0 -0.5555703 -0.8314697 0 0.3826832 -0.9238796 0 0.3826833 -0.9238796 0 0.1950904 0.9807853 0 0.1950904 0.9807853 0 -0.707107 -0.7071067 0 -0.7071068 -0.7071068 1.51565e-7 0.1950904 -0.9807853 0 0.1950904 -0.9807853 0 0.3826833 0.9238796 0 0.3826832 0.9238796 0 -0.8314695 -0.5555704 1.61933e-7 -0.8314696 -0.5555703 1.34713e-7 0 -1 0 0.5555702 0.8314697 0 0.5555702 0.8314697 0 -0.9238795 -0.3826835 1.46491e-7 -0.9238796 -0.3826833 1.36126e-7 0.7071069 0.7071067 -1.42578e-7 -0.9807854 -0.19509 1.38466e-7 0.1611325 0.8100686 -0.5637599 -0.3791491 0.915347 0.1355935 -0.1946429 0.9785373 0.06766813 -0.3818063 0.921762 0.06766819 -0.5504394 0.8237907 0.1355935 -0.5542969 0.8295639 0.06766813 -0.7054859 0.7054861 0.06766808 -0.8295639 0.5542969 0.06766813 -0.7005763 0.7005765 0.1355935 -0.9153472 0.3791492 0.1355935 -0.921762 0.3818061 0.06766813 -0.9785373 0.194643 0.06766808 -0.9977079 0 0.06766808 -0.9717273 0.1932885 0.1355934 -0.9785373 -0.194643 0.06766813 -0.9907646 0 0.1355935 -0.9153472 -0.3791489 0.1355934 -0.9217619 -0.3818062 0.06766813 -0.8237906 -0.5504394 0.1355934 -0.8295638 -0.554297 0.06766808 -0.7005763 -0.7005764 0.1355934 -0.705486 -0.7054861 0.06766808 -0.5504394 -0.8237906 0.1355935 -0.5542969 -0.8295639 0.06766808 -0.3791494 -0.9153471 0.1355935 -0.3818064 -0.9217619 0.06766813 -0.1932886 -0.9717273 0.1355935 -0.1946431 -0.9785373 0.06766808 0 -0.9907646 0.1355935 0 -0.997708 0.06766813 0.1932886 -0.9717274 0.1355935 0.1946431 -0.9785373 0.06766813 0.3791493 -0.9153472 0.1355935 0.3818064 -0.9217619 0.06766808 0.5504392 -0.8237908 0.1355934 0.5542969 -0.8295639 0.06766813 0.7005761 -0.7005767 0.1355934 0.705486 -0.705486 0.06766813 0.8237905 -0.5504397 0.1355935 0.8295639 -0.5542967 0.06766813 0.915347 -0.3791495 0.1355935 0.9217621 -0.381806 0.06766813 0.9717273 -0.1932889 0.1355935 0.9785374 -0.1946429 0.06766808 0.9907646 0 0.1355935 0.9977079 0 0.06766808 0.9717273 0.1932885 0.1355934 0.9785374 0.1946429 0.06766808 0.9153472 0.379149 0.1355935 0.9217619 0.3818061 0.06766813 0.8237908 0.5504392 0.1355935 0.8295639 0.5542968 0.06766813 0.7005765 0.7005762 0.1355935 0.7054857 0.7054863 0.06766813 0.5504395 0.8237905 0.1355936 0.5542966 0.829564 0.06766813 0.3791494 0.915347 0.1355936 0.3818061 0.9217621 0.06766813 0.1932886 0.9717273 0.1355935 0.1946429 0.9785373 0.06766808 0 0.9907646 0.1355935 0 0.997708 0.06766813 -0.19509 0.9807854 0 -0.3826833 0.9238796 0 -0.5555704 0.8314695 0 -0.7071068 0.7071068 0 -0.8314695 0.5555704 0 -0.9238796 0.3826833 0 -0.9807853 0.1950902 0 -1 0 0 -0.9807853 -0.1950902 0 -0.8314697 -0.5555703 0 -0.7071067 -0.7071069 0 -0.5555704 -0.8314696 0 -0.3826836 -0.9238795 0 -0.1950902 -0.9807853 0 0 -1 0 0.1950903 -0.9807854 0 0.3826836 -0.9238795 0 0.55557 -0.8314698 0 0.7071065 -0.7071071 0 0.8314698 -0.55557 0 0.9238798 -0.3826831 0 0.9807853 -0.1950902 0 1 0 0 0.9807853 0.1950902 0 0.9238796 0.3826833 0 0.8314698 0.55557 0 0.7071067 0.7071069 0 0.5555702 0.8314697 0 0.3826833 0.9238796 0 0.19509 0.9807853 0 0 1 0 -0.1932886 0.9717273 0.1355934 0 0 -1 3.53346e-6 0 -1 -7.45968e-7 0 -1 2.27075e-6 0 -1 0 0 -1 1.91363e-7 0 -1 -4.31875e-7 0 -1 1.05583e-6 0 -1 -1.06499e-6 0 -1 2.65009e-6 0 -1 0 0 -1 -3.53342e-6 0 -1 7.45972e-7 0 -1 -2.27075e-6 0 -1 -1.91363e-7 0 -1 5.53522e-7 0 -1 0.316073 0.763068 -0.56376 0.5840268 0.5840268 -0.5637601 -0.5840269 -0.584027 -0.5637599 -0.3160731 0.7630679 -0.5637601 -6.62516e-7 0 1 2.66248e-7 0 1 0 0 1 0 0 1 0 0 1 2.04655e-7 0 1 0 0 1 6.62521e-7 0 1 -2.66246e-7 0 1 0 0 1 4.24389e-7 0 1 -5.53522e-7 0 1 0 0 1 -0.8237905 0.5504396 0.1355935 -0.9717274 -0.1932886 0.1355934</float_array>
          <technique_common>
            <accessor source="#Cylinder-mesh-normals-array" count="402" stride="3">
              <param name="X" type="float"/>
              <param name="Y" type="float"/>
              <param name="Z" type="float"/>
            </accessor>
          </technique_common>
        </source>
        <source id="Cylinder-mesh-map-0">
          <float_array id="Cylinder-mesh-map-0-array" count="4584">0.1581559 0.4717311 0.1166631 0.4495527 0.1166631 0.4495527 0.8833369 0.4495527 0.9197056 0.4197056 0.9197056 0.4197056 0.05044728 0.1166631 0.08029437 0.08029437 0.08029437 0.08029437 0.6166632 0.4495527 0.658156 0.4717311 0.658156 0.4717311 0.4197056 0.08029437 0.4495527 0.1166631 0.4495527 0.1166631 0.5802944 0.08029437 0.5504473 0.1166631 0.5504473 0.1166631 0.3833369 0.4495527 0.341844 0.4717311 0.341844 0.4717311 0.9495527 0.1166631 0.9197056 0.08029437 0.9197056 0.08029437 0.1166631 0.4495527 0.08029437 0.4197056 0.08029437 0.4197056 0.841844 0.4717311 0.8833369 0.4495527 0.8833369 0.4495527 0.08029437 0.08029437 0.1166631 0.05044728 0.1166631 0.05044728 0.5802944 0.4197056 0.6166632 0.4495527 0.6166632 0.4495527 0.4495527 0.1166631 0.4717311 0.1581559 0.4717311 0.1581559 0.6166632 0.05044728 0.5802944 0.08029437 0.5802944 0.08029437 0.341844 0.4717311 0.2968217 0.4853885 0.2968217 0.4853885 0.9717311 0.1581559 0.9495527 0.1166631 0.9495527 0.1166631 0.08029437 0.4197056 0.05044728 0.3833369 0.05044728 0.3833369 0.7968217 0.4853885 0.841844 0.4717311 0.841844 0.4717311 0.1166631 0.05044728 0.1581559 0.02826887 0.1581559 0.02826887 0.5504473 0.3833369 0.5802944 0.4197056 0.5802944 0.4197056 0.4717311 0.1581559 0.4853885 0.2031783 0.4853885 0.2031783 0.658156 0.02826887 0.6166632 0.05044728 0.6166632 0.05044728 0.9853885 0.2031783 0.9717311 0.1581559 0.9717311 0.1581559 0.05044728 0.3833369 0.02826887 0.341844 0.02826887 0.341844 0.2968217 0.4853885 0.25 0.49 0.25 0.49 0.1581559 0.02826887 0.2031783 0.01461154 0.2031783 0.01461154 0.5282689 0.341844 0.5504473 0.3833369 0.5504473 0.3833369 0.75 0.49 0.7968217 0.4853885 0.7968217 0.4853885 0.4853885 0.2031783 0.49 0.25 0.49 0.25 0.7031784 0.01461154 0.658156 0.02826887 0.658156 0.02826887 0.01461154 0.2031783 0.00999999 0.25 0.00999999 0.25 0.99 0.25 0.9853885 0.2031783 0.9853885 0.2031783 0.02826887 0.341844 0.01461154 0.2968217 0.01461154 0.2968217 0.7968217 0.01461154 0.5146116 0.2031783 0.7031784 0.4853885 0.9717311 0.341844 0.9853885 0.2968217 0.9853885 0.2968217 0.00999999 0.25 0.01461154 0.2031783 0.01461154 0.2031783 0.2968217 0.01461154 0.341844 0.02826887 0.341844 0.02826887 0.5146116 0.2031783 0.51 0.25 0.51 0.25 0.4717311 0.341844 0.4495527 0.3833369 0.4495527 0.3833369 0.841844 0.02826887 0.7968217 0.01461154 0.7968217 0.01461154 0.25 0.49 0.2031783 0.4853885 0.2031783 0.4853885 0.9495527 0.3833369 0.9717311 0.341844 0.9717311 0.341844 0.01461154 0.2031783 0.02826887 0.1581559 0.02826887 0.1581559 0.7031784 0.4853885 0.75 0.49 0.75 0.49 0.341844 0.02826887 0.3833369 0.05044728 0.3833369 0.05044728 0.5282689 0.1581559 0.5146116 0.2031783 0.5146116 0.2031783 0.4495527 0.3833369 0.4197056 0.4197056 0.4197056 0.4197056 0.8833369 0.05044728 0.841844 0.02826887 0.841844 0.02826887 0.2031783 0.4853885 0.1581559 0.4717311 0.1581559 0.4717311 0.9197056 0.4197056 0.9495527 0.3833369 0.9495527 0.3833369 0.02826887 0.1581559 0.05044728 0.1166631 0.05044728 0.1166631 0.658156 0.4717311 0.7031784 0.4853885 0.7031784 0.4853885 0.3833369 0.05044728 0.4197056 0.08029437 0.4197056 0.08029437 0.5504473 0.1166631 0.5282689 0.1581559 0.5282689 0.1581559 0.4197056 0.4197056 0.3833369 0.4495527 0.3833369 0.4495527 0.9197056 0.08029437 0.8833369 0.05044728 0.8833369 0.05044728 0.1581559 0.4717311 0.1166631 0.4495527 0.1166631 0.4495527 0.8833369 0.4495527 0.9197056 0.4197056 0.9197056 0.4197056 0.05044728 0.1166631 0.08029437 0.08029437 0.08029437 0.08029437 0.6166632 0.4495527 0.658156 0.4717311 0.658156 0.4717311 0.4197056 0.08029437 0.4495527 0.1166631 0.4495527 0.1166631 0.5802944 0.08029437 0.5504473 0.1166631 0.5504473 0.1166631 0.3833369 0.4495527 0.341844 0.4717311 0.341844 0.4717311 0.9495527 0.1166631 0.9197056 0.08029437 0.9197056 0.08029437 0.1166631 0.4495527 0.08029437 0.4197056 0.08029437 0.4197056 0.841844 0.4717311 0.8833369 0.4495527 0.8833369 0.4495527 0.9197056 0.08029437 0.8833369 0.05044728 0.8833369 0.05044728 0.4197056 0.4197056 0.3833369 0.4495527 0.3833369 0.4495527 0.5504473 0.1166631 0.5282689 0.1581559 0.5282689 0.1581559 0.3833369 0.05044728 0.4197056 0.08029437 0.4197056 0.08029437 0.658156 0.4717311 0.7031784 0.4853885 0.7031784 0.4853885 0.02826887 0.1581559 0.05044728 0.1166631 0.05044728 0.1166631 0.9197056 0.4197056 0.9495527 0.3833369 0.9495527 0.3833369 0.2031783 0.4853885 0.1581559 0.4717311 0.1581559 0.4717311 0.8833369 0.05044728 0.841844 0.02826887 0.841844 0.02826887 0.4495527 0.3833369 0.4197056 0.4197056 0.4197056 0.4197056 0.5282689 0.1581559 0.5146116 0.2031783 0.5146116 0.2031783 0.341844 0.02826887 0.3833369 0.05044728 0.3833369 0.05044728 0.7031784 0.4853885 0.75 0.49 0.75 0.49 0.01461154 0.2031783 0.02826887 0.1581559 0.02826887 0.1581559 0.9495527 0.3833369 0.9717311 0.341844 0.9717311 0.341844 0.25 0.49 0.2031783 0.4853885 0.2031783 0.4853885 0.841844 0.02826887 0.7968217 0.01461154 0.7968217 0.01461154 0.4717311 0.341844 0.4495527 0.3833369 0.4495527 0.3833369 0.5146116 0.2031783 0.51 0.25 0.51 0.25 0.2968217 0.01461154 0.341844 0.02826887 0.341844 0.02826887 0.00999999 0.25 0.01461154 0.2031783 0.01461154 0.2031783 0.9717311 0.341844 0.9853885 0.2968217 0.9853885 0.2968217 0.7968217 0.01461154 0.75 0.00999999 0.75 0.00999999 0.4853885 0.2968217 0.4717311 0.341844 0.4717311 0.341844 0.5146116 0.2968217 0.51 0.25 0.5146116 0.2968217 0.25 0.00999999 0.2968217 0.01461154 0.2968217 0.01461154 0.01461154 0.2968217 0.00999999 0.25 0.00999999 0.25 0.9853885 0.2968217 0.99 0.25 0.99 0.25 0.75 0.00999999 0.7031784 0.01461154 0.7031784 0.01461154 0.49 0.25 0.4853885 0.2968217 0.4853885 0.2968217 0.5282689 0.341844 0.5146116 0.2968217 0.5282689 0.341844 0.2031783 0.01461154 0.25 0.00999999 0.25 0.00999999 0.75 0.00999999 0.7968217 0.01461154 0.75 0.00999999 0.9853885 0.2968217 0.9717311 0.341844 0.9853885 0.2968217 0.00999999 0.25 0.01461154 0.2031783 0.01461154 0.2031783 0.2968217 0.01461154 0.341844 0.02826887 0.341844 0.02826887 0.51 0.25 0.5146116 0.2031783 0.51 0.25 0.4495527 0.3833369 0.4717311 0.341844 0.4495527 0.3833369 0.7968217 0.01461154 0.841844 0.02826887 0.7968217 0.01461154 0.25 0.49 0.2031783 0.4853885 0.2031783 0.4853885 0.9495527 0.3833369 0.9717311 0.341844 0.9717311 0.341844 0.01461154 0.2031783 0.02826887 0.1581559 0.02826887 0.1581559 0.75 0.49 0.7031784 0.4853885 0.75 0.49 0.3833369 0.05044728 0.341844 0.02826887 0.3833369 0.05044728 0.5146116 0.2031783 0.5282689 0.1581559 0.5146116 0.2031783 0.4197056 0.4197056 0.4495527 0.3833369 0.4197056 0.4197056 0.8833369 0.05044728 0.841844 0.02826887 0.841844 0.02826887 0.2031783 0.4853885 0.1581559 0.4717311 0.1581559 0.4717311 0.9197056 0.4197056 0.9495527 0.3833369 0.9495527 0.3833369 0.05044728 0.1166631 0.02826887 0.1581559 0.05044728 0.1166631 0.7031784 0.4853885 0.658156 0.4717311 0.7031784 0.4853885 0.4197056 0.08029437 0.3833369 0.05044728 0.4197056 0.08029437 0.5504473 0.1166631 0.5282689 0.1581559 0.5282689 0.1581559 0.4197056 0.4197056 0.3833369 0.4495527 0.3833369 0.4495527 0.9197056 0.08029437 0.8833369 0.05044728 0.8833369 0.05044728 0.1166631 0.4495527 0.1581559 0.4717311 0.1166631 0.4495527 0.9197056 0.4197056 0.8833369 0.4495527 0.9197056 0.4197056 0.08029437 0.08029437 0.05044728 0.1166631 0.08029437 0.08029437 0.6166632 0.4495527 0.658156 0.4717311 0.658156 0.4717311 0.4197056 0.08029437 0.4495527 0.1166631 0.4495527 0.1166631 0.5802944 0.08029437 0.5504473 0.1166631 0.5504473 0.1166631 0.3833369 0.4495527 0.341844 0.4717311 0.341844 0.4717311 0.9197056 0.08029437 0.9495527 0.1166631 0.9197056 0.08029437 0.08029437 0.4197056 0.1166631 0.4495527 0.08029437 0.4197056 0.7968217 0.01461154 0.75 0.00999999 0.75 0.00999999 0.4853885 0.2968217 0.4717311 0.341844 0.4717311 0.341844 0.51 0.25 0.5146116 0.2968217 0.5146116 0.2968217 0.25 0.00999999 0.2968217 0.01461154 0.2968217 0.01461154 0.01461154 0.2968217 0.00999999 0.25 0.00999999 0.25 0.9853885 0.2968217 0.99 0.25 0.99 0.25 0.75 0.00999999 0.7031784 0.01461154 0.7031784 0.01461154 0.49 0.25 0.4853885 0.2968217 0.4853885 0.2968217 0.5146116 0.2968217 0.5282689 0.341844 0.5282689 0.341844 0.2031783 0.01461154 0.25 0.00999999 0.25 0.00999999 0.02826887 0.341844 0.01461154 0.2968217 0.01461154 0.2968217 0.99 0.25 0.9853885 0.2031783 0.9853885 0.2031783 0.7031784 0.01461154 0.658156 0.02826887 0.658156 0.02826887 0.4853885 0.2031783 0.49 0.25 0.49 0.25 0.75 0.49 0.7968217 0.4853885 0.7968217 0.4853885 0.5282689 0.341844 0.5504473 0.3833369 0.5504473 0.3833369 0.1581559 0.02826887 0.2031783 0.01461154 0.2031783 0.01461154 0.2968217 0.4853885 0.25 0.49 0.25 0.49 0.05044728 0.3833369 0.02826887 0.341844 0.02826887 0.341844 0.9853885 0.2031783 0.9717311 0.1581559 0.9717311 0.1581559 0.658156 0.02826887 0.6166632 0.05044728 0.6166632 0.05044728 0.4717311 0.1581559 0.4853885 0.2031783 0.4853885 0.2031783 0.5504473 0.3833369 0.5802944 0.4197056 0.5802944 0.4197056 0.1166631 0.05044728 0.1581559 0.02826887 0.1581559 0.02826887 0.7968217 0.4853885 0.841844 0.4717311 0.841844 0.4717311 0.08029437 0.4197056 0.05044728 0.3833369 0.05044728 0.3833369 0.9717311 0.1581559 0.9495527 0.1166631 0.9495527 0.1166631 0.341844 0.4717311 0.2968217 0.4853885 0.2968217 0.4853885 0.6166632 0.05044728 0.5802944 0.08029437 0.5802944 0.08029437 0.4495527 0.1166631 0.4717311 0.1581559 0.4717311 0.1581559 0.5802944 0.4197056 0.6166632 0.4495527 0.6166632 0.4495527 0.08029437 0.08029437 0.1166631 0.05044728 0.1166631 0.05044728 0.03125 0.5 0 0.7137289 0 0.5 0.9375 0.5 0.90625 0.7137289 0.90625 0.5 0.90625 0.7137289 0.875 0.5 0.90625 0.5 0.875 0.5 0.84375 0.7137289 0.84375 0.5 0.84375 0.5 0.8125 0.7137289 0.8125 0.5 0.8125 0.5 0.78125 0.7137289 0.78125 0.5 0.78125 0.5 0.75 0.7137289 0.75 0.5 0.75 0.5 0.71875 0.7137289 0.71875 0.5 0.71875 0.5 0.6875 0.7137289 0.6875 0.5 0.6875 0.5 0.65625 0.7137289 0.65625 0.5 0.65625 0.5 0.625 0.7137289 0.625 0.5 0.625 0.5 0.59375 0.7137289 0.59375 0.5 0.59375 0.7137289 0.5625 0.5 0.59375 0.5 0.5625 0.7137289 0.53125 0.5 0.5625 0.5 0.53125 0.7137289 0.5 0.5 0.53125 0.5 0.5 0.7137288 0.46875 0.5 0.5 0.5 0.46875 0.7137289 0.4375 0.5 0.46875 0.5 0.4375 0.7137289 0.40625 0.5 0.4375 0.5 0.40625 0.7137289 0.375 0.5 0.40625 0.5 0.375 0.5 0.34375 0.7137289 0.34375 0.5 0.34375 0.7137289 0.3125 0.5 0.34375 0.5 0.3125 0.7137289 0.28125 0.5 0.3125 0.5 0.28125 0.7137289 0.25 0.5 0.28125 0.5 0.25 0.7137289 0.21875 0.5 0.25 0.5 0.21875 0.7137289 0.1875 0.5 0.21875 0.5 0.1875 0.7137289 0.15625 0.5 0.1875 0.5 0.15625 0.7137288 0.125 0.5 0.15625 0.5 0.125 0.7137289 0.09375 0.5 0.125 0.5 0.09375 0.7137289 0.0625 0.5 0.09375 0.5 0.0625 0.5 0.03125 0.7137289 0.03125 0.5 1 0.7137289 0.96875 0.5 1 0.5 0.4853885 0.2968217 0.4717311 0.341844 0.4717311 0.341844 0.51 0.25 0.5146116 0.2968217 0.5146116 0.2968217 0.25 0.00999999 0.2968217 0.01461154 0.2968217 0.01461154 0.00999999 0.25 0.01461154 0.2968217 0.00999999 0.25 0.99 0.25 0.9853885 0.2968217 0.99 0.25 0.75 0.00999999 0.7031784 0.01461154 0.7031784 0.01461154 0.49 0.25 0.4853885 0.2968217 0.4853885 0.2968217 0.5146116 0.2968217 0.5282689 0.341844 0.5282689 0.341844 0.25 0.00999999 0.2031783 0.01461154 0.25 0.00999999 0.01461154 0.2968217 0.02826887 0.341844 0.01461154 0.2968217 0.99 0.25 0.9853885 0.2031783 0.9853885 0.2031783 0.7031784 0.01461154 0.658156 0.02826887 0.658156 0.02826887 0.49 0.25 0.4853885 0.2031783 0.49 0.25 0.75 0.49 0.7968217 0.4853885 0.7968217 0.4853885 0.5504473 0.3833369 0.5282689 0.341844 0.5504473 0.3833369 0.2031783 0.01461154 0.1581559 0.02826887 0.2031783 0.01461154 0.25 0.49 0.2968217 0.4853885 0.25 0.49 0.05044728 0.3833369 0.02826887 0.341844 0.02826887 0.341844 0.9853885 0.2031783 0.9717311 0.1581559 0.9717311 0.1581559 0.6166632 0.05044728 0.658156 0.02826887 0.6166632 0.05044728 0.4853885 0.2031783 0.4717311 0.1581559 0.4853885 0.2031783 0.5802944 0.4197056 0.5504473 0.3833369 0.5802944 0.4197056 0.1166631 0.05044728 0.1581559 0.02826887 0.1581559 0.02826887 0.7968217 0.4853885 0.841844 0.4717311 0.841844 0.4717311 0.08029437 0.4197056 0.05044728 0.3833369 0.05044728 0.3833369 0.9495527 0.1166631 0.9717311 0.1581559 0.9495527 0.1166631 0.2968217 0.4853885 0.341844 0.4717311 0.2968217 0.4853885 0.5802944 0.08029437 0.6166632 0.05044728 0.5802944 0.08029437 0.4495527 0.1166631 0.4717311 0.1581559 0.4717311 0.1581559 0.5802944 0.4197056 0.6166632 0.4495527 0.6166632 0.4495527 0.08029437 0.08029437 0.1166631 0.05044728 0.1166631 0.05044728 0.8833369 0.4495527 0.841844 0.4717311 0.8833369 0.4495527 0.08029437 0.08029437 0.05044728 0.1166631 0.05044728 0.1166631 0.2968217 0.4853885 0.341844 0.4717311 0.341844 0.4717311 0.4717311 0.1581559 0.4495527 0.1166631 0.4495527 0.1166631 0.1166631 0.05044728 0.08029437 0.08029437 0.08029437 0.08029437 0.08029437 0.4197056 0.1166631 0.4495527 0.1166631 0.4495527 0.4717311 0.341844 0.4853885 0.2968217 0.4853885 0.2968217 0.2968217 0.01461154 0.25 0.00999999 0.25 0.00999999 0.00999999 0.25 0.01461154 0.2968217 0.01461154 0.2968217 0.341844 0.4717311 0.3833369 0.4495527 0.3833369 0.4495527 0.4495527 0.1166631 0.4197056 0.08029437 0.4197056 0.08029437 0.08029437 0.08029437 0.05044728 0.1166631 0.05044728 0.1166631 0.1166631 0.4495527 0.1581559 0.4717311 0.1581559 0.4717311 0.4853885 0.2968217 0.49 0.25 0.49 0.25 0.25 0.00999999 0.2031783 0.01461154 0.2031783 0.01461154 0.01461154 0.2968217 0.02826887 0.341844 0.02826887 0.341844 0.3833369 0.4495527 0.4197056 0.4197056 0.4197056 0.4197056 0.4197056 0.08029437 0.3833369 0.05044728 0.3833369 0.05044728 0.05044728 0.1166631 0.02826887 0.1581559 0.02826887 0.1581559 0.1581559 0.4717311 0.2031783 0.4853885 0.2031783 0.4853885 0.49 0.25 0.4853885 0.2031783 0.4853885 0.2031783 0.2031783 0.01461154 0.1581559 0.02826887 0.1581559 0.02826887 0.02826887 0.341844 0.05044728 0.3833369 0.05044728 0.3833369 0.4197056 0.4197056 0.4495527 0.3833369 0.4495527 0.3833369 0.3833369 0.05044728 0.341844 0.02826887 0.341844 0.02826887 0.02826887 0.1581559 0.01461154 0.2031783 0.01461154 0.2031783 0.25 0.49 0.2968217 0.4853885 0.2968217 0.4853885 0.2031783 0.4853885 0.25 0.49 0.25 0.49 0.4853885 0.2031783 0.4717311 0.1581559 0.4717311 0.1581559 0.1581559 0.02826887 0.1166631 0.05044728 0.1166631 0.05044728 0.05044728 0.3833369 0.08029437 0.4197056 0.08029437 0.4197056 0.4495527 0.3833369 0.4717311 0.341844 0.4717311 0.341844 0.341844 0.02826887 0.2968217 0.01461154 0.2968217 0.01461154 0.341844 0.02826887 0.4717311 0.1581559 0.341844 0.4717311 0.4853885 0.2968217 0.49 0.25 0.49 0.25 0.05044728 0.1166631 0.02826887 0.1581559 0.02826887 0.1581559 0.49 0.25 0.4853885 0.2031783 0.4853885 0.2031783 0.02826887 0.1581559 0.01461154 0.2031783 0.01461154 0.2031783 0.4853885 0.2031783 0.4717311 0.1581559 0.4717311 0.1581559 0.01461154 0.2031783 0.00999999 0.25 0.00999999 0.25 0.4717311 0.1581559 0.4495527 0.1166631 0.4495527 0.1166631 0.00999999 0.25 0.01461154 0.2968217 0.01461154 0.2968217 0.4495527 0.1166631 0.4197056 0.08029437 0.4197056 0.08029437 0.01461154 0.2968217 0.02826887 0.341844 0.02826887 0.341844 0.3833369 0.05044728 0.4197056 0.08029437 0.3833369 0.05044728 0.02826887 0.341844 0.05044728 0.3833369 0.05044728 0.3833369 0.341844 0.02826887 0.3833369 0.05044728 0.341844 0.02826887 0.25 0.49 0.2968217 0.4853885 0.2968217 0.4853885 0.05044728 0.3833369 0.08029437 0.4197056 0.08029437 0.4197056 0.2968217 0.01461154 0.341844 0.02826887 0.2968217 0.01461154 0.2968217 0.4853885 0.341844 0.4717311 0.341844 0.4717311 0.08029437 0.4197056 0.1166631 0.4495527 0.1166631 0.4495527 0.25 0.00999999 0.2968217 0.01461154 0.25 0.00999999 0.341844 0.4717311 0.3833369 0.4495527 0.3833369 0.4495527 0.1166631 0.4495527 0.1581559 0.4717311 0.1581559 0.4717311 0.2031783 0.01461154 0.25 0.00999999 0.2031783 0.01461154 0.3833369 0.4495527 0.4197056 0.4197056 0.4197056 0.4197056 0.1581559 0.4717311 0.2031783 0.4853885 0.2031783 0.4853885 0.1581559 0.02826887 0.2031783 0.01461154 0.1581559 0.02826887 0.4197056 0.4197056 0.4495527 0.3833369 0.4495527 0.3833369 0.2031783 0.4853885 0.25 0.49 0.25 0.49 0.1166631 0.05044728 0.1581559 0.02826887 0.1166631 0.05044728 0.4495527 0.3833369 0.4717311 0.341844 0.4717311 0.341844 0.08029437 0.08029437 0.1166631 0.05044728 0.08029437 0.08029437 0.4717311 0.341844 0.4853885 0.2968217 0.4853885 0.2968217 0.96875 0.7137289 0.9375 0.5 0.96875 0.5 0.0625 1 0.03125 0.7862712 0.0625 0.7862712 0.09375 1 0.0625 0.7862712 0.09375 0.7862712 0.125 0.7862712 0.09375 1 0.09375 0.7862712 0.15625 0.7862712 0.125 1 0.125 0.7862712 0.1875 1 0.15625 0.7862712 0.1875 0.7862712 0.21875 0.7862712 0.1875 1 0.1875 0.7862712 0.25 0.7862712 0.21875 1 0.21875 0.7862712 0.28125 0.7862712 0.25 1 0.25 0.7862712 0.3125 1 0.28125 0.7862712 0.3125 0.7862712 0.34375 1 0.3125 0.7862712 0.34375 0.7862712 0.375 1 0.34375 0.7862712 0.375 0.7862712 0.40625 1 0.375 0.7862712 0.40625 0.7862712 0.4375 1 0.40625 0.7862712 0.4375 0.7862712 0.46875 1 0.4375 0.7862712 0.46875 0.7862712 0.5 1 0.46875 0.7862712 0.5 0.7862712 0.53125 1 0.5 0.7862712 0.53125 0.7862712 0.5625 1 0.53125 0.7862712 0.5625 0.7862712 0.59375 1 0.5625 0.7862712 0.59375 0.7862712 0.625 1 0.59375 0.7862712 0.625 0.7862712 0.65625 1 0.625 0.7862712 0.65625 0.7862712 0.6875 1 0.65625 0.7862712 0.6875 0.7862712 0.71875 1 0.6875 0.7862712 0.71875 0.7862712 0.75 1 0.71875 0.7862712 0.75 0.7862712 0.78125 1 0.75 0.7862712 0.78125 0.7862712 0.8125 1 0.78125 0.7862712 0.8125 0.7862712 0.84375 1 0.8125 0.7862712 0.84375 0.7862712 0.875 1 0.84375 0.7862712 0.875 0.7862712 0.90625 1 0.875 0.7862712 0.90625 0.7862712 0.9375 1 0.90625 0.7862712 0.9375 0.7862712 0.96875 1 0.9375 0.7862712 0.96875 0.7862712 1 1 0.96875 0.7862712 1 0.7862712 0 0.7862712 0.03125 0.7137288 0.03125 0.7862712 0.03125 0.7862712 0.0625 0.7137289 0.0625 0.7862712 0.0625 0.7862712 0.09375 0.7137289 0.09375 0.7862712 0.09375 0.7862712 0.125 0.7137289 0.125 0.7862712 0.125 0.7862712 0.15625 0.7137288 0.15625 0.7862712 0.15625 0.7862712 0.1875 0.7137289 0.1875 0.7862712 0.1875 0.7862712 0.21875 0.7137289 0.21875 0.7862712 0.21875 0.7862712 0.25 0.7137289 0.25 0.7862712 0.25 0.7862712 0.28125 0.7137289 0.28125 0.7862712 0.28125 0.7862712 0.3125 0.7137289 0.3125 0.7862712 0.3125 0.7862712 0.34375 0.7137289 0.34375 0.7862712 0.34375 0.7862712 0.375 0.7137288 0.375 0.7862712 0.375 0.7862712 0.40625 0.7137289 0.40625 0.7862712 0.40625 0.7862712 0.4375 0.7137289 0.4375 0.7862712 0.4375 0.7862712 0.46875 0.7137289 0.46875 0.7862712 0.46875 0.7862712 0.5 0.7137288 0.5 0.7862712 0.5 0.7862712 0.53125 0.7137289 0.53125 0.7862712 0.53125 0.7862712 0.5625 0.7137289 0.5625 0.7862712 0.5625 0.7862712 0.59375 0.7137289 0.59375 0.7862712 0.59375 0.7862712 0.625 0.7137289 0.625 0.7862712 0.625 0.7862712 0.65625 0.7137289 0.65625 0.7862712 0.65625 0.7862712 0.6875 0.7137288 0.6875 0.7862712 0.6875 0.7862712 0.71875 0.7137289 0.71875 0.7862712 0.71875 0.7862712 0.75 0.7137289 0.75 0.7862712 0.75 0.7862712 0.78125 0.7137289 0.78125 0.7862712 0.78125 0.7862712 0.8125 0.7137289 0.8125 0.7862712 0.8125 0.7862712 0.84375 0.7137288 0.84375 0.7862712 0.84375 0.7862712 0.875 0.7137288 0.875 0.7862712 0.875 0.7862712 0.90625 0.7137289 0.90625 0.7862712 0.90625 0.7862712 0.9375 0.7137289 0.9375 0.7862712 0.9375 0.7862712 0.96875 0.7137289 0.96875 0.7862712 0.96875 0.7862712 1 0.7137289 1 0.7862712 0.03125 1 0 0.7862712 0.03125 0.7862712 0.1581559 0.4717311 0.1581559 0.4717311 0.1166631 0.4495527 0.8833369 0.4495527 0.8833369 0.4495527 0.9197056 0.4197056 0.05044728 0.1166631 0.05044728 0.1166631 0.08029437 0.08029437 0.6166632 0.4495527 0.6166632 0.4495527 0.658156 0.4717311 0.4197056 0.08029437 0.4197056 0.08029437 0.4495527 0.1166631 0.5802944 0.08029437 0.5802944 0.08029437 0.5504473 0.1166631 0.3833369 0.4495527 0.3833369 0.4495527 0.341844 0.4717311 0.9495527 0.1166631 0.9495527 0.1166631 0.9197056 0.08029437 0.1166631 0.4495527 0.1166631 0.4495527 0.08029437 0.4197056 0.841844 0.4717311 0.841844 0.4717311 0.8833369 0.4495527 0.08029437 0.08029437 0.08029437 0.08029437 0.1166631 0.05044728 0.5802944 0.4197056 0.5802944 0.4197056 0.6166632 0.4495527 0.4495527 0.1166631 0.4495527 0.1166631 0.4717311 0.1581559 0.6166632 0.05044728 0.6166632 0.05044728 0.5802944 0.08029437 0.341844 0.4717311 0.341844 0.4717311 0.2968217 0.4853885 0.9717311 0.1581559 0.9717311 0.1581559 0.9495527 0.1166631 0.08029437 0.4197056 0.08029437 0.4197056 0.05044728 0.3833369 0.7968217 0.4853885 0.7968217 0.4853885 0.841844 0.4717311 0.1166631 0.05044728 0.1166631 0.05044728 0.1581559 0.02826887 0.5504473 0.3833369 0.5504473 0.3833369 0.5802944 0.4197056 0.4717311 0.1581559 0.4717311 0.1581559 0.4853885 0.2031783 0.658156 0.02826887 0.658156 0.02826887 0.6166632 0.05044728 0.9853885 0.2031783 0.9853885 0.2031783 0.9717311 0.1581559 0.05044728 0.3833369 0.05044728 0.3833369 0.02826887 0.341844 0.2968217 0.4853885 0.2968217 0.4853885 0.25 0.49 0.1581559 0.02826887 0.1581559 0.02826887 0.2031783 0.01461154 0.5282689 0.341844 0.5282689 0.341844 0.5504473 0.3833369 0.75 0.49 0.75 0.49 0.7968217 0.4853885 0.4853885 0.2031783 0.4853885 0.2031783 0.49 0.25 0.7031784 0.01461154 0.7031784 0.01461154 0.658156 0.02826887 0.01461154 0.2031783 0.01461154 0.2031783 0.00999999 0.25 0.99 0.25 0.99 0.25 0.9853885 0.2031783 0.02826887 0.341844 0.02826887 0.341844 0.01461154 0.2968217 0.7031784 0.4853885 0.75 0.49 0.7968217 0.4853885 0.7968217 0.4853885 0.841844 0.4717311 0.8833369 0.4495527 0.8833369 0.4495527 0.9197056 0.4197056 0.9853885 0.2968217 0.9197056 0.4197056 0.9495527 0.3833369 0.9853885 0.2968217 0.9495527 0.3833369 0.9717311 0.341844 0.9853885 0.2968217 0.9853885 0.2968217 0.99 0.25 0.9853885 0.2031783 0.9853885 0.2031783 0.9717311 0.1581559 0.9495527 0.1166631 0.9495527 0.1166631 0.9197056 0.08029437 0.7968217 0.01461154 0.9197056 0.08029437 0.8833369 0.05044728 0.7968217 0.01461154 0.8833369 0.05044728 0.841844 0.02826887 0.7968217 0.01461154 0.7968217 0.01461154 0.75 0.00999999 0.7031784 0.01461154 0.7031784 0.01461154 0.658156 0.02826887 0.6166632 0.05044728 0.6166632 0.05044728 0.5802944 0.08029437 0.5146116 0.2031783 0.5802944 0.08029437 0.5504473 0.1166631 0.5146116 0.2031783 0.5504473 0.1166631 0.5282689 0.1581559 0.5146116 0.2031783 0.5146116 0.2031783 0.51 0.25 0.5146116 0.2968217 0.5146116 0.2968217 0.5282689 0.341844 0.5504473 0.3833369 0.5504473 0.3833369 0.5802944 0.4197056 0.6166632 0.4495527 0.6166632 0.4495527 0.658156 0.4717311 0.5504473 0.3833369 0.658156 0.4717311 0.7031784 0.4853885 0.5504473 0.3833369 0.7031784 0.4853885 0.7968217 0.4853885 0.9853885 0.2968217 0.7968217 0.4853885 0.8833369 0.4495527 0.9853885 0.2968217 0.9853885 0.2968217 0.9853885 0.2031783 0.7968217 0.01461154 0.9853885 0.2031783 0.9495527 0.1166631 0.7968217 0.01461154 0.7968217 0.01461154 0.7031784 0.01461154 0.5146116 0.2031783 0.7031784 0.01461154 0.6166632 0.05044728 0.5146116 0.2031783 0.5146116 0.2031783 0.5146116 0.2968217 0.7031784 0.4853885 0.5146116 0.2968217 0.5504473 0.3833369 0.7031784 0.4853885 0.7031784 0.4853885 0.9853885 0.2968217 0.7968217 0.01461154 0.9717311 0.341844 0.9717311 0.341844 0.9853885 0.2968217 0.00999999 0.25 0.00999999 0.25 0.01461154 0.2031783 0.2968217 0.01461154 0.2968217 0.01461154 0.341844 0.02826887 0.5146116 0.2031783 0.5146116 0.2031783 0.51 0.25 0.4717311 0.341844 0.4717311 0.341844 0.4495527 0.3833369 0.841844 0.02826887 0.841844 0.02826887 0.7968217 0.01461154 0.25 0.49 0.25 0.49 0.2031783 0.4853885 0.9495527 0.3833369 0.9495527 0.3833369 0.9717311 0.341844 0.01461154 0.2031783 0.01461154 0.2031783 0.02826887 0.1581559 0.7031784 0.4853885 0.7031784 0.4853885 0.75 0.49 0.341844 0.02826887 0.341844 0.02826887 0.3833369 0.05044728 0.5282689 0.1581559 0.5282689 0.1581559 0.5146116 0.2031783 0.4495527 0.3833369 0.4495527 0.3833369 0.4197056 0.4197056 0.8833369 0.05044728 0.8833369 0.05044728 0.841844 0.02826887 0.2031783 0.4853885 0.2031783 0.4853885 0.1581559 0.4717311 0.9197056 0.4197056 0.9197056 0.4197056 0.9495527 0.3833369 0.02826887 0.1581559 0.02826887 0.1581559 0.05044728 0.1166631 0.658156 0.4717311 0.658156 0.4717311 0.7031784 0.4853885 0.3833369 0.05044728 0.3833369 0.05044728 0.4197056 0.08029437 0.5504473 0.1166631 0.5504473 0.1166631 0.5282689 0.1581559 0.4197056 0.4197056 0.4197056 0.4197056 0.3833369 0.4495527 0.9197056 0.08029437 0.9197056 0.08029437 0.8833369 0.05044728 0.1581559 0.4717311 0.1581559 0.4717311 0.1166631 0.4495527 0.8833369 0.4495527 0.8833369 0.4495527 0.9197056 0.4197056 0.05044728 0.1166631 0.05044728 0.1166631 0.08029437 0.08029437 0.6166632 0.4495527 0.6166632 0.4495527 0.658156 0.4717311 0.4197056 0.08029437 0.4197056 0.08029437 0.4495527 0.1166631 0.5802944 0.08029437 0.5802944 0.08029437 0.5504473 0.1166631 0.3833369 0.4495527 0.3833369 0.4495527 0.341844 0.4717311 0.9495527 0.1166631 0.9495527 0.1166631 0.9197056 0.08029437 0.1166631 0.4495527 0.1166631 0.4495527 0.08029437 0.4197056 0.841844 0.4717311 0.841844 0.4717311 0.8833369 0.4495527 0.9197056 0.08029437 0.9197056 0.08029437 0.8833369 0.05044728 0.4197056 0.4197056 0.4197056 0.4197056 0.3833369 0.4495527 0.5504473 0.1166631 0.5504473 0.1166631 0.5282689 0.1581559 0.3833369 0.05044728 0.3833369 0.05044728 0.4197056 0.08029437 0.658156 0.4717311 0.658156 0.4717311 0.7031784 0.4853885 0.02826887 0.1581559 0.02826887 0.1581559 0.05044728 0.1166631 0.9197056 0.4197056 0.9197056 0.4197056 0.9495527 0.3833369 0.2031783 0.4853885 0.2031783 0.4853885 0.1581559 0.4717311 0.8833369 0.05044728 0.8833369 0.05044728 0.841844 0.02826887 0.4495527 0.3833369 0.4495527 0.3833369 0.4197056 0.4197056 0.5282689 0.1581559 0.5282689 0.1581559 0.5146116 0.2031783 0.341844 0.02826887 0.341844 0.02826887 0.3833369 0.05044728 0.7031784 0.4853885 0.7031784 0.4853885 0.75 0.49 0.01461154 0.2031783 0.01461154 0.2031783 0.02826887 0.1581559 0.9495527 0.3833369 0.9495527 0.3833369 0.9717311 0.341844 0.25 0.49 0.25 0.49 0.2031783 0.4853885 0.841844 0.02826887 0.841844 0.02826887 0.7968217 0.01461154 0.4717311 0.341844 0.4717311 0.341844 0.4495527 0.3833369 0.5146116 0.2031783 0.5146116 0.2031783 0.51 0.25 0.2968217 0.01461154 0.2968217 0.01461154 0.341844 0.02826887 0.00999999 0.25 0.00999999 0.25 0.01461154 0.2031783 0.9717311 0.341844 0.9717311 0.341844 0.9853885 0.2968217 0.7968217 0.01461154 0.7968217 0.01461154 0.75 0.00999999 0.4853885 0.2968217 0.4853885 0.2968217 0.4717311 0.341844 0.5146116 0.2968217 0.51 0.25 0.51 0.25 0.25 0.00999999 0.25 0.00999999 0.2968217 0.01461154 0.01461154 0.2968217 0.01461154 0.2968217 0.00999999 0.25 0.9853885 0.2968217 0.9853885 0.2968217 0.99 0.25 0.75 0.00999999 0.75 0.00999999 0.7031784 0.01461154 0.49 0.25 0.49 0.25 0.4853885 0.2968217 0.5282689 0.341844 0.5146116 0.2968217 0.5146116 0.2968217 0.2031783 0.01461154 0.2031783 0.01461154 0.25 0.00999999 0.75 0.00999999 0.7968217 0.01461154 0.7968217 0.01461154 0.9853885 0.2968217 0.9717311 0.341844 0.9717311 0.341844 0.00999999 0.25 0.00999999 0.25 0.01461154 0.2031783 0.2968217 0.01461154 0.2968217 0.01461154 0.341844 0.02826887 0.51 0.25 0.5146116 0.2031783 0.5146116 0.2031783 0.4495527 0.3833369 0.4717311 0.341844 0.4717311 0.341844 0.7968217 0.01461154 0.841844 0.02826887 0.841844 0.02826887 0.25 0.49 0.25 0.49 0.2031783 0.4853885 0.9495527 0.3833369 0.9495527 0.3833369 0.9717311 0.341844 0.01461154 0.2031783 0.01461154 0.2031783 0.02826887 0.1581559 0.75 0.49 0.7031784 0.4853885 0.7031784 0.4853885 0.3833369 0.05044728 0.341844 0.02826887 0.341844 0.02826887 0.5146116 0.2031783 0.5282689 0.1581559 0.5282689 0.1581559 0.4197056 0.4197056 0.4495527 0.3833369 0.4495527 0.3833369 0.8833369 0.05044728 0.8833369 0.05044728 0.841844 0.02826887 0.2031783 0.4853885 0.2031783 0.4853885 0.1581559 0.4717311 0.9197056 0.4197056 0.9197056 0.4197056 0.9495527 0.3833369 0.05044728 0.1166631 0.02826887 0.1581559 0.02826887 0.1581559 0.7031784 0.4853885 0.658156 0.4717311 0.658156 0.4717311 0.4197056 0.08029437 0.3833369 0.05044728 0.3833369 0.05044728 0.5504473 0.1166631 0.5504473 0.1166631 0.5282689 0.1581559 0.4197056 0.4197056 0.4197056 0.4197056 0.3833369 0.4495527 0.9197056 0.08029437 0.9197056 0.08029437 0.8833369 0.05044728 0.1166631 0.4495527 0.1581559 0.4717311 0.1581559 0.4717311 0.9197056 0.4197056 0.8833369 0.4495527 0.8833369 0.4495527 0.08029437 0.08029437 0.05044728 0.1166631 0.05044728 0.1166631 0.6166632 0.4495527 0.6166632 0.4495527 0.658156 0.4717311 0.4197056 0.08029437 0.4197056 0.08029437 0.4495527 0.1166631 0.5802944 0.08029437 0.5802944 0.08029437 0.5504473 0.1166631 0.3833369 0.4495527 0.3833369 0.4495527 0.341844 0.4717311 0.9197056 0.08029437 0.9495527 0.1166631 0.9495527 0.1166631 0.08029437 0.4197056 0.1166631 0.4495527 0.1166631 0.4495527 0.7968217 0.01461154 0.7968217 0.01461154 0.75 0.00999999 0.4853885 0.2968217 0.4853885 0.2968217 0.4717311 0.341844 0.51 0.25 0.51 0.25 0.5146116 0.2968217 0.25 0.00999999 0.25 0.00999999 0.2968217 0.01461154 0.01461154 0.2968217 0.01461154 0.2968217 0.00999999 0.25 0.9853885 0.2968217 0.9853885 0.2968217 0.99 0.25 0.75 0.00999999 0.75 0.00999999 0.7031784 0.01461154 0.49 0.25 0.49 0.25 0.4853885 0.2968217 0.5146116 0.2968217 0.5146116 0.2968217 0.5282689 0.341844 0.2031783 0.01461154 0.2031783 0.01461154 0.25 0.00999999 0.02826887 0.341844 0.02826887 0.341844 0.01461154 0.2968217 0.99 0.25 0.99 0.25 0.9853885 0.2031783 0.7031784 0.01461154 0.7031784 0.01461154 0.658156 0.02826887 0.4853885 0.2031783 0.4853885 0.2031783 0.49 0.25 0.75 0.49 0.75 0.49 0.7968217 0.4853885 0.5282689 0.341844 0.5282689 0.341844 0.5504473 0.3833369 0.1581559 0.02826887 0.1581559 0.02826887 0.2031783 0.01461154 0.2968217 0.4853885 0.2968217 0.4853885 0.25 0.49 0.05044728 0.3833369 0.05044728 0.3833369 0.02826887 0.341844 0.9853885 0.2031783 0.9853885 0.2031783 0.9717311 0.1581559 0.658156 0.02826887 0.658156 0.02826887 0.6166632 0.05044728 0.4717311 0.1581559 0.4717311 0.1581559 0.4853885 0.2031783 0.5504473 0.3833369 0.5504473 0.3833369 0.5802944 0.4197056 0.1166631 0.05044728 0.1166631 0.05044728 0.1581559 0.02826887 0.7968217 0.4853885 0.7968217 0.4853885 0.841844 0.4717311 0.08029437 0.4197056 0.08029437 0.4197056 0.05044728 0.3833369 0.9717311 0.1581559 0.9717311 0.1581559 0.9495527 0.1166631 0.341844 0.4717311 0.341844 0.4717311 0.2968217 0.4853885 0.6166632 0.05044728 0.6166632 0.05044728 0.5802944 0.08029437 0.4495527 0.1166631 0.4495527 0.1166631 0.4717311 0.1581559 0.5802944 0.4197056 0.5802944 0.4197056 0.6166632 0.4495527 0.08029437 0.08029437 0.08029437 0.08029437 0.1166631 0.05044728 0.03125 0.5 0.03125 0.7137288 0 0.7137289 0.9375 0.5 0.9375 0.7137289 0.90625 0.7137289 0.90625 0.7137289 0.875 0.7137289 0.875 0.5 0.875 0.5 0.875 0.7137288 0.84375 0.7137289 0.84375 0.5 0.84375 0.7137288 0.8125 0.7137289 0.8125 0.5 0.8125 0.7137289 0.78125 0.7137289 0.78125 0.5 0.78125 0.7137289 0.75 0.7137289 0.75 0.5 0.75 0.7137289 0.71875 0.7137289 0.71875 0.5 0.71875 0.7137289 0.6875 0.7137289 0.6875 0.5 0.6875 0.7137288 0.65625 0.7137289 0.65625 0.5 0.65625 0.7137289 0.625 0.7137289 0.625 0.5 0.625 0.7137289 0.59375 0.7137289 0.59375 0.7137289 0.5625 0.7137289 0.5625 0.5 0.5625 0.7137289 0.53125 0.7137289 0.53125 0.5 0.53125 0.7137289 0.5 0.7137289 0.5 0.5 0.5 0.7137288 0.46875 0.7137289 0.46875 0.5 0.46875 0.7137289 0.4375 0.7137289 0.4375 0.5 0.4375 0.7137289 0.40625 0.7137289 0.40625 0.5 0.40625 0.7137289 0.375 0.7137288 0.375 0.5 0.375 0.5 0.375 0.7137288 0.34375 0.7137289 0.34375 0.7137289 0.3125 0.7137289 0.3125 0.5 0.3125 0.7137289 0.28125 0.7137289 0.28125 0.5 0.28125 0.7137289 0.25 0.7137289 0.25 0.5 0.25 0.7137289 0.21875 0.7137289 0.21875 0.5 0.21875 0.7137289 0.1875 0.7137289 0.1875 0.5 0.1875 0.7137289 0.15625 0.7137289 0.15625 0.5 0.15625 0.7137288 0.125 0.7137289 0.125 0.5 0.125 0.7137289 0.09375 0.7137289 0.09375 0.5 0.09375 0.7137289 0.0625 0.7137289 0.0625 0.5 0.0625 0.5 0.0625 0.7137289 0.03125 0.7137289 1 0.7137289 0.96875 0.7137289 0.96875 0.5 0.4853885 0.2968217 0.4853885 0.2968217 0.4717311 0.341844 0.51 0.25 0.51 0.25 0.5146116 0.2968217 0.25 0.00999999 0.25 0.00999999 0.2968217 0.01461154 0.00999999 0.25 0.01461154 0.2968217 0.01461154 0.2968217 0.99 0.25 0.9853885 0.2968217 0.9853885 0.2968217 0.75 0.00999999 0.75 0.00999999 0.7031784 0.01461154 0.49 0.25 0.49 0.25 0.4853885 0.2968217 0.5146116 0.2968217 0.5146116 0.2968217 0.5282689 0.341844 0.25 0.00999999 0.2031783 0.01461154 0.2031783 0.01461154 0.01461154 0.2968217 0.02826887 0.341844 0.02826887 0.341844 0.99 0.25 0.99 0.25 0.9853885 0.2031783 0.7031784 0.01461154 0.7031784 0.01461154 0.658156 0.02826887 0.49 0.25 0.4853885 0.2031783 0.4853885 0.2031783 0.75 0.49 0.75 0.49 0.7968217 0.4853885 0.5504473 0.3833369 0.5282689 0.341844 0.5282689 0.341844 0.2031783 0.01461154 0.1581559 0.02826887 0.1581559 0.02826887 0.25 0.49 0.2968217 0.4853885 0.2968217 0.4853885 0.05044728 0.3833369 0.05044728 0.3833369 0.02826887 0.341844 0.9853885 0.2031783 0.9853885 0.2031783 0.9717311 0.1581559 0.6166632 0.05044728 0.658156 0.02826887 0.658156 0.02826887 0.4853885 0.2031783 0.4717311 0.1581559 0.4717311 0.1581559 0.5802944 0.4197056 0.5504473 0.3833369 0.5504473 0.3833369 0.1166631 0.05044728 0.1166631 0.05044728 0.1581559 0.02826887 0.7968217 0.4853885 0.7968217 0.4853885 0.841844 0.4717311 0.08029437 0.4197056 0.08029437 0.4197056 0.05044728 0.3833369 0.9495527 0.1166631 0.9717311 0.1581559 0.9717311 0.1581559 0.2968217 0.4853885 0.341844 0.4717311 0.341844 0.4717311 0.5802944 0.08029437 0.6166632 0.05044728 0.6166632 0.05044728 0.4495527 0.1166631 0.4495527 0.1166631 0.4717311 0.1581559 0.5802944 0.4197056 0.5802944 0.4197056 0.6166632 0.4495527 0.08029437 0.08029437 0.08029437 0.08029437 0.1166631 0.05044728 0.8833369 0.4495527 0.841844 0.4717311 0.841844 0.4717311 0.08029437 0.08029437 0.08029437 0.08029437 0.05044728 0.1166631 0.2968217 0.4853885 0.2968217 0.4853885 0.341844 0.4717311 0.4717311 0.1581559 0.4717311 0.1581559 0.4495527 0.1166631 0.1166631 0.05044728 0.1166631 0.05044728 0.08029437 0.08029437 0.08029437 0.4197056 0.08029437 0.4197056 0.1166631 0.4495527 0.4717311 0.341844 0.4717311 0.341844 0.4853885 0.2968217 0.2968217 0.01461154 0.2968217 0.01461154 0.25 0.00999999 0.00999999 0.25 0.00999999 0.25 0.01461154 0.2968217 0.341844 0.4717311 0.341844 0.4717311 0.3833369 0.4495527 0.4495527 0.1166631 0.4495527 0.1166631 0.4197056 0.08029437 0.08029437 0.08029437 0.08029437 0.08029437 0.05044728 0.1166631 0.1166631 0.4495527 0.1166631 0.4495527 0.1581559 0.4717311 0.4853885 0.2968217 0.4853885 0.2968217 0.49 0.25 0.25 0.00999999 0.25 0.00999999 0.2031783 0.01461154 0.01461154 0.2968217 0.01461154 0.2968217 0.02826887 0.341844 0.3833369 0.4495527 0.3833369 0.4495527 0.4197056 0.4197056 0.4197056 0.08029437 0.4197056 0.08029437 0.3833369 0.05044728 0.05044728 0.1166631 0.05044728 0.1166631 0.02826887 0.1581559 0.1581559 0.4717311 0.1581559 0.4717311 0.2031783 0.4853885 0.49 0.25 0.49 0.25 0.4853885 0.2031783 0.2031783 0.01461154 0.2031783 0.01461154 0.1581559 0.02826887 0.02826887 0.341844 0.02826887 0.341844 0.05044728 0.3833369 0.4197056 0.4197056 0.4197056 0.4197056 0.4495527 0.3833369 0.3833369 0.05044728 0.3833369 0.05044728 0.341844 0.02826887 0.02826887 0.1581559 0.02826887 0.1581559 0.01461154 0.2031783 0.25 0.49 0.25 0.49 0.2968217 0.4853885 0.2031783 0.4853885 0.2031783 0.4853885 0.25 0.49 0.4853885 0.2031783 0.4853885 0.2031783 0.4717311 0.1581559 0.1581559 0.02826887 0.1581559 0.02826887 0.1166631 0.05044728 0.05044728 0.3833369 0.05044728 0.3833369 0.08029437 0.4197056 0.4495527 0.3833369 0.4495527 0.3833369 0.4717311 0.341844 0.341844 0.02826887 0.341844 0.02826887 0.2968217 0.01461154 0.341844 0.4717311 0.2968217 0.4853885 0.25 0.49 0.25 0.49 0.2031783 0.4853885 0.341844 0.4717311 0.2031783 0.4853885 0.1581559 0.4717311 0.341844 0.4717311 0.1581559 0.4717311 0.1166631 0.4495527 0.08029437 0.4197056 0.08029437 0.4197056 0.05044728 0.3833369 0.1581559 0.4717311 0.05044728 0.3833369 0.02826887 0.341844 0.1581559 0.4717311 0.02826887 0.341844 0.01461154 0.2968217 0.00999999 0.25 0.00999999 0.25 0.01461154 0.2031783 0.02826887 0.1581559 0.02826887 0.1581559 0.05044728 0.1166631 0.1581559 0.02826887 0.05044728 0.1166631 0.08029437 0.08029437 0.1581559 0.02826887 0.08029437 0.08029437 0.1166631 0.05044728 0.1581559 0.02826887 0.1581559 0.02826887 0.2031783 0.01461154 0.25 0.00999999 0.25 0.00999999 0.2968217 0.01461154 0.1581559 0.02826887 0.2968217 0.01461154 0.341844 0.02826887 0.1581559 0.02826887 0.341844 0.02826887 0.3833369 0.05044728 0.4197056 0.08029437 0.4197056 0.08029437 0.4495527 0.1166631 0.4717311 0.1581559 0.4717311 0.1581559 0.4853885 0.2031783 0.49 0.25 0.49 0.25 0.4853885 0.2968217 0.4717311 0.341844 0.4717311 0.341844 0.4495527 0.3833369 0.4197056 0.4197056 0.4197056 0.4197056 0.3833369 0.4495527 0.341844 0.4717311 0.02826887 0.341844 0.00999999 0.25 0.02826887 0.1581559 0.341844 0.02826887 0.4197056 0.08029437 0.4717311 0.1581559 0.4717311 0.1581559 0.49 0.25 0.4717311 0.341844 0.4717311 0.341844 0.4197056 0.4197056 0.4717311 0.1581559 0.4197056 0.4197056 0.341844 0.4717311 0.4717311 0.1581559 0.341844 0.4717311 0.1581559 0.4717311 0.1581559 0.02826887 0.1581559 0.4717311 0.02826887 0.341844 0.1581559 0.02826887 0.02826887 0.341844 0.02826887 0.1581559 0.1581559 0.02826887 0.1581559 0.02826887 0.341844 0.02826887 0.341844 0.4717311 0.4853885 0.2968217 0.4853885 0.2968217 0.49 0.25 0.05044728 0.1166631 0.05044728 0.1166631 0.02826887 0.1581559 0.49 0.25 0.49 0.25 0.4853885 0.2031783 0.02826887 0.1581559 0.02826887 0.1581559 0.01461154 0.2031783 0.4853885 0.2031783 0.4853885 0.2031783 0.4717311 0.1581559 0.01461154 0.2031783 0.01461154 0.2031783 0.00999999 0.25 0.4717311 0.1581559 0.4717311 0.1581559 0.4495527 0.1166631 0.00999999 0.25 0.00999999 0.25 0.01461154 0.2968217 0.4495527 0.1166631 0.4495527 0.1166631 0.4197056 0.08029437 0.01461154 0.2968217 0.01461154 0.2968217 0.02826887 0.341844 0.3833369 0.05044728 0.4197056 0.08029437 0.4197056 0.08029437 0.02826887 0.341844 0.02826887 0.341844 0.05044728 0.3833369 0.341844 0.02826887 0.3833369 0.05044728 0.3833369 0.05044728 0.25 0.49 0.25 0.49 0.2968217 0.4853885 0.05044728 0.3833369 0.05044728 0.3833369 0.08029437 0.4197056 0.2968217 0.01461154 0.341844 0.02826887 0.341844 0.02826887 0.2968217 0.4853885 0.2968217 0.4853885 0.341844 0.4717311 0.08029437 0.4197056 0.08029437 0.4197056 0.1166631 0.4495527 0.25 0.00999999 0.2968217 0.01461154 0.2968217 0.01461154 0.341844 0.4717311 0.341844 0.4717311 0.3833369 0.4495527 0.1166631 0.4495527 0.1166631 0.4495527 0.1581559 0.4717311 0.2031783 0.01461154 0.25 0.00999999 0.25 0.00999999 0.3833369 0.4495527 0.3833369 0.4495527 0.4197056 0.4197056 0.1581559 0.4717311 0.1581559 0.4717311 0.2031783 0.4853885 0.1581559 0.02826887 0.2031783 0.01461154 0.2031783 0.01461154 0.4197056 0.4197056 0.4197056 0.4197056 0.4495527 0.3833369 0.2031783 0.4853885 0.2031783 0.4853885 0.25 0.49 0.1166631 0.05044728 0.1581559 0.02826887 0.1581559 0.02826887 0.4495527 0.3833369 0.4495527 0.3833369 0.4717311 0.341844 0.08029437 0.08029437 0.1166631 0.05044728 0.1166631 0.05044728 0.4717311 0.341844 0.4717311 0.341844 0.4853885 0.2968217 0.96875 0.7137289 0.9375 0.7137289 0.9375 0.5 0.0625 1 0.03125 1 0.03125 0.7862712 0.09375 1 0.0625 1 0.0625 0.7862712 0.125 0.7862712 0.125 1 0.09375 1 0.15625 0.7862712 0.15625 1 0.125 1 0.1875 1 0.15625 1 0.15625 0.7862712 0.21875 0.7862712 0.21875 1 0.1875 1 0.25 0.7862712 0.25 1 0.21875 1 0.28125 0.7862712 0.28125 1 0.25 1 0.3125 1 0.28125 1 0.28125 0.7862712 0.34375 1 0.3125 1 0.3125 0.7862712 0.375 1 0.34375 1 0.34375 0.7862712 0.40625 1 0.375 1 0.375 0.7862712 0.4375 1 0.40625 1 0.40625 0.7862712 0.46875 1 0.4375 1 0.4375 0.7862712 0.5 1 0.46875 1 0.46875 0.7862712 0.53125 1 0.5 1 0.5 0.7862712 0.5625 1 0.53125 1 0.53125 0.7862712 0.59375 1 0.5625 1 0.5625 0.7862712 0.625 1 0.59375 1 0.59375 0.7862712 0.65625 1 0.625 1 0.625 0.7862712 0.6875 1 0.65625 1 0.65625 0.7862712 0.71875 1 0.6875 1 0.6875 0.7862712 0.75 1 0.71875 1 0.71875 0.7862712 0.78125 1 0.75 1 0.75 0.7862712 0.8125 1 0.78125 1 0.78125 0.7862712 0.84375 1 0.8125 1 0.8125 0.7862712 0.875 1 0.84375 1 0.84375 0.7862712 0.90625 1 0.875 1 0.875 0.7862712 0.9375 1 0.90625 1 0.90625 0.7862712 0.96875 1 0.9375 1 0.9375 0.7862712 1 1 0.96875 1 0.96875 0.7862712 0 0.7862712 0 0.7137289 0.03125 0.7137288 0.03125 0.7862712 0.03125 0.7137289 0.0625 0.7137289 0.0625 0.7862712 0.0625 0.7137289 0.09375 0.7137289 0.09375 0.7862712 0.09375 0.7137289 0.125 0.7137289 0.125 0.7862712 0.125 0.7137289 0.15625 0.7137288 0.15625 0.7862712 0.15625 0.7137289 0.1875 0.7137289 0.1875 0.7862712 0.1875 0.7137289 0.21875 0.7137289 0.21875 0.7862712 0.21875 0.7137289 0.25 0.7137289 0.25 0.7862712 0.25 0.7137289 0.28125 0.7137289 0.28125 0.7862712 0.28125 0.7137289 0.3125 0.7137289 0.3125 0.7862712 0.3125 0.7137289 0.34375 0.7137289 0.34375 0.7862712 0.34375 0.7137289 0.375 0.7137288 0.375 0.7862712 0.375 0.7137288 0.40625 0.7137289 0.40625 0.7862712 0.40625 0.7137289 0.4375 0.7137289 0.4375 0.7862712 0.4375 0.7137289 0.46875 0.7137289 0.46875 0.7862712 0.46875 0.7137289 0.5 0.7137288 0.5 0.7862712 0.5 0.7137289 0.53125 0.7137289 0.53125 0.7862712 0.53125 0.7137289 0.5625 0.7137289 0.5625 0.7862712 0.5625 0.7137289 0.59375 0.7137289 0.59375 0.7862712 0.59375 0.7137289 0.625 0.7137289 0.625 0.7862712 0.625 0.7137289 0.65625 0.7137289 0.65625 0.7862712 0.65625 0.7137289 0.6875 0.7137288 0.6875 0.7862712 0.6875 0.7137289 0.71875 0.7137289 0.71875 0.7862712 0.71875 0.7137289 0.75 0.7137289 0.75 0.7862712 0.75 0.7137289 0.78125 0.7137289 0.78125 0.7862712 0.78125 0.7137289 0.8125 0.7137289 0.8125 0.7862712 0.8125 0.7137289 0.84375 0.7137288 0.84375 0.7862712 0.84375 0.7137289 0.875 0.7137288 0.875 0.7862712 0.875 0.7137289 0.90625 0.7137289 0.90625 0.7862712 0.90625 0.7137289 0.9375 0.7137289 0.9375 0.7862712 0.9375 0.7137289 0.96875 0.7137289 0.96875 0.7862712 0.96875 0.7137289 1 0.7137289 0.03125 1 0 1 0 0.7862712</float_array>
          <technique_common>
            <accessor source="#Cylinder-mesh-map-0-array" count="2292" stride="2">
              <param name="S" type="float"/>
              <param name="T" type="float"/>
            </accessor>
          </technique_common>
        </source>
        <vertices id="Cylinder-mesh-vertices">
          <input semantic="POSITION" source="#Cylinder-mesh-positions"/>
        </vertices>
        <triangles material="Metal-material" count="542">
          <input semantic="VERTEX" source="#Cylinder-mesh-vertices" offset="0"/>
          <input semantic="NORMAL" source="#Cylinder-mesh-normals" offset="1"/>
          <input semantic="TEXCOORD" source="#Cylinder-mesh-map-0" offset="2" set="0"/>
          <p>61 0 0 123 0 1 59 0 2 6 1 3 72 2 4 8 3 5 43 0 6 105 0 7 41 0 8 58 4 9 124 5 10 60 6 11 25 0 12 87 0 13 23 0 14 7 0 18 69 0 19 5 0 20 22 10 21 88 11 22 24 12 23 59 0 24 121 0 25 57 0 26 41 0 30 103 0 31 39 0 32 23 0 36 85 0 37 21 0 38 38 17 39 104 18 40 40 7 41 5 0 42 66 0 43 3 0 44 57 0 48 119 0 49 55 0 50 2 21 51 68 22 52 4 13 53 39 0 54 101 0 55 37 0 56 54 23 57 120 24 58 56 15 59 21 0 60 83 0 61 19 0 62 18 27 66 84 28 67 20 19 68 55 0 69 117 0 70 53 0 71 3 0 72 67 0 73 1 0 74 37 0 75 99 0 76 35 0 77 19 0 84 81 0 85 17 0 86 34 33 87 100 34 88 36 25 89 47 0 90 280 0 91 49 0 92 53 0 96 115 0 97 51 0 98 30 37 99 46 38 100 62 39 101 76 0 102 142 0 103 78 0 104 113 0 105 175 40 106 111 0 107 95 0 108 157 41 109 93 0 110 110 0 111 176 0 112 112 0 113 77 0 114 139 0 115 75 0 116 92 0 117 158 0 118 94 0 119 67 0 120 191 42 121 127 0 122 74 0 123 140 0 124 76 0 125 111 0 126 173 0 127 109 0 128 126 0 129 128 0 130 64 0 131 93 0 132 155 43 133 91 0 134 108 0 135 174 0 136 110 0 137 75 0 138 137 44 139 73 0 140 90 0 141 156 0 142 92 0 143 127 0 144 189 45 145 125 0 146 72 0 147 138 0 148 74 0 149 109 0 150 171 0 151 107 0 152 124 0 153 190 0 154 126 0 155 91 0 156 153 46 157 89 0 158 106 0 159 172 0 160 108 0 161 73 0 162 135 47 163 71 0 164 88 0 165 154 0 166 90 0 167 125 0 168 187 48 169 123 0 170 70 0 171 136 0 172 72 0 173 107 0 174 169 49 175 105 0 176 122 0 177 188 0 178 124 0 179 89 0 180 151 0 181 87 0 182 104 0 183 170 0 184 106 0 185 71 0 186 133 50 187 69 0 188 86 0 189 152 0 190 88 0 191 123 0 192 185 51 193 121 0 194 68 0 195 134 0 196 70 0 197 9 0 201 71 0 202 7 0 203 42 9 204 108 54 205 44 55 206 27 0 207 89 0 208 25 0 209 45 0 213 107 0 214 43 0 215 63 0 219 125 0 220 61 0 221 26 53 222 92 60 223 28 61 224 11 0 225 73 0 226 9 0 227 29 0 231 91 0 232 27 0 233 62 57 234 64 64 235 0 31 236 47 0 237 109 0 238 45 0 239 10 59 240 76 65 241 12 66 242 1 0 243 127 0 244 63 0 245 13 0 249 75 0 250 11 0 251 46 63 252 112 69 253 48 70 254 31 0 255 93 0 256 29 0 257 49 0 258 111 0 259 47 0 260 30 68 264 96 73 265 32 74 266 15 0 267 77 0 268 13 0 269 33 0 273 95 0 274 31 0 275 51 0 276 113 0 277 49 0 278 14 72 279 80 77 280 16 35 281 17 0 285 79 0 286 15 0 287 52 29 288 114 76 289 116 79 290 35 0 291 97 0 292 33 0 293 160 80 294 222 81 295 224 80 296 177 85 300 239 86 301 175 40 302 159 87 303 221 88 304 157 41 305 176 89 306 238 90 307 240 80 308 139 0 309 205 0 310 203 91 311 131 93 315 255 94 316 191 42 317 138 95 318 204 83 319 140 96 320 175 40 321 237 0 322 173 0 323 128 80 324 254 97 325 192 80 326 155 43 327 221 88 328 219 98 329 137 44 333 203 91 334 201 101 335 154 102 336 220 92 337 156 80 338 191 42 339 253 103 340 189 45 341 171 0 345 237 0 346 235 106 347 153 46 351 219 98 352 217 101 353 170 108 354 236 100 355 172 109 356 137 44 357 199 98 358 135 47 359 187 48 363 253 103 364 251 111 365 136 104 366 198 110 367 200 112 368 169 49 369 235 106 370 233 113 371 186 114 372 252 107 373 188 80 374 153 46 375 215 91 376 151 0 377 135 47 381 197 117 382 133 50 383 152 104 384 214 105 385 216 112 386 185 51 387 251 111 388 249 113 389 94 0 390 160 0 391 96 0 392 79 0 393 141 0 394 77 0 395 112 0 396 178 0 397 114 0 398 97 0 399 159 87 400 95 0 401 115 0 402 177 85 403 113 0 404 78 0 405 144 0 406 80 0 407 96 0 408 162 0 409 98 0 410 81 0 411 143 118 412 79 0 413 114 0 414 180 0 415 116 0 416 99 0 417 161 93 418 97 0 419 117 0 420 179 119 421 115 0 422 80 0 423 146 0 424 82 0 425 98 0 426 164 0 427 100 0 428 83 0 429 145 120 430 81 0 431 64 0 432 129 0 433 65 0 434 116 0 435 182 0 436 118 0 437 101 0 438 163 42 439 99 0 440 66 0 441 131 93 442 67 0 443 119 0 444 181 0 445 117 0 446 82 0 447 148 0 448 84 0 449 100 0 450 166 0 451 102 0 452 85 0 453 147 121 454 83 0 455 118 0 456 184 0 457 120 0 458 103 0 459 165 122 460 101 0 461 65 0 462 132 0 463 68 0 464 121 0 465 183 0 466 119 0 467 84 0 468 150 0 469 86 0 470 69 0 471 130 123 472 66 0 473 102 0 474 168 0 475 104 0 476 87 0 477 149 0 478 85 0 479 120 0 480 186 0 481 122 0 482 105 0 483 167 124 484 103 0 485 254 125 486 321 126 487 192 127 488 196 128 489 326 129 490 198 130 491 326 129 492 200 131 493 198 130 494 200 131 495 330 132 496 202 133 497 202 133 498 332 134 499 204 135 500 204 135 501 334 136 502 206 137 503 206 137 504 336 138 505 208 139 506 208 139 507 338 140 508 210 141 509 210 141 510 340 142 511 212 143 512 212 143 513 342 144 514 214 145 515 214 145 516 344 146 517 216 147 518 216 147 519 346 148 520 218 149 521 346 148 522 220 150 523 218 149 524 348 151 525 222 152 526 220 150 527 350 153 528 224 154 529 222 152 530 352 155 531 226 156 532 224 154 533 354 157 534 228 158 535 226 156 536 356 159 537 230 160 538 228 158 539 358 161 540 232 162 541 230 160 542 232 162 543 362 163 544 234 164 545 362 163 546 236 165 547 234 164 548 364 166 549 238 167 550 236 165 551 366 168 552 240 169 553 238 167 554 368 170 555 242 171 556 240 169 557 370 172 558 244 173 559 242 171 560 372 174 561 246 175 562 244 173 563 374 176 564 248 177 565 246 175 566 376 178 567 250 179 568 248 177 569 378 180 570 252 181 571 250 179 572 252 181 573 382 182 574 254 125 575 321 126 576 193 183 577 192 127 578 143 118 579 205 0 580 141 0 581 161 93 585 223 186 586 159 87 587 177 85 588 243 187 589 241 0 590 144 188 591 206 84 592 208 80 593 145 120 597 207 190 598 143 118 599 178 185 600 244 191 601 180 192 602 161 93 603 227 193 604 225 0 605 179 119 606 245 0 607 243 187 608 162 80 612 228 196 613 164 80 614 145 120 615 211 190 616 209 0 617 163 42 624 229 197 625 227 193 626 131 93 627 194 198 628 195 0 629 183 0 630 245 0 631 181 0 632 146 195 633 212 199 634 148 200 635 147 121 639 213 0 640 211 190 641 184 115 642 246 116 643 248 203 644 167 124 645 229 197 646 165 122 647 129 80 648 196 204 649 132 80 650 185 51 651 247 106 652 183 0 653 130 123 657 197 117 658 194 198 659 168 115 660 230 202 661 232 203 662 151 0 663 213 0 664 149 0 665 169 49 669 231 111 670 167 124 671 3 0 678 258 0 679 5 0 680 21 0 681 267 0 682 23 0 683 39 0 684 276 0 685 41 0 686 57 0 687 285 0 688 59 0 689 13 0 690 263 0 691 15 0 692 31 0 693 272 0 694 33 0 695 49 0 696 281 0 697 51 0 698 5 0 699 259 0 700 7 0 701 23 0 702 268 0 703 25 0 704 41 0 705 277 0 706 43 0 707 59 0 708 286 0 709 61 0 710 15 0 711 264 0 712 17 0 713 33 0 714 273 0 715 35 0 716 51 0 717 282 0 718 53 0 719 7 0 720 260 0 721 9 0 722 25 0 723 269 0 724 27 0 725 43 0 726 278 0 727 45 0 728 61 0 729 287 0 730 63 0 731 17 0 732 265 0 733 19 0 734 35 0 735 274 0 736 37 0 737 53 0 738 283 0 739 55 0 740 9 0 741 261 0 742 11 0 743 27 0 744 270 0 745 29 0 746 45 0 747 279 0 748 47 0 749 1 0 750 256 0 751 3 0 752 63 0 753 257 0 754 1 0 755 19 0 756 266 0 757 21 0 758 37 0 759 275 0 760 39 0 761 55 0 762 284 0 763 57 0 764 11 0 765 262 0 766 13 0 767 29 0 768 271 0 769 31 0 770 322 273 867 196 128 868 193 183 869 253 274 870 383 275 871 381 276 872 251 277 873 381 276 874 379 278 875 377 279 876 251 277 877 379 278 878 375 280 879 249 281 880 377 279 881 245 282 882 375 280 883 373 283 884 371 284 885 245 282 886 373 283 887 369 285 888 243 286 889 371 284 890 367 287 891 241 288 892 369 285 893 237 289 894 367 287 895 365 290 896 235 291 897 365 290 898 363 292 899 233 293 900 363 292 901 361 294 902 231 295 903 361 294 904 359 296 905 229 297 906 359 296 907 357 298 908 227 299 909 357 298 910 355 300 911 225 301 912 355 300 913 353 302 914 223 303 915 353 302 916 351 304 917 221 305 918 351 304 919 349 306 920 219 307 921 349 306 922 347 308 923 217 309 924 347 308 925 345 310 926 215 311 927 345 310 928 343 312 929 213 313 930 343 312 931 341 314 932 211 315 933 341 314 934 339 316 935 209 317 936 339 316 937 337 318 938 207 319 939 337 318 940 335 320 941 205 321 942 335 320 943 333 322 944 203 323 945 333 322 946 331 324 947 201 325 948 331 324 949 329 326 950 199 327 951 329 326 952 327 328 953 197 329 954 327 328 955 325 330 956 194 331 957 325 330 958 323 332 959 195 333 960 323 332 961 320 334 962 255 366 1059 320 334 1060 383 275 1061 61 0 1062 125 0 1063 123 0 1064 6 1 1065 70 14 1066 72 2 1067 43 0 1068 107 0 1069 105 0 1070 58 4 1071 122 16 1072 124 5 1073 25 0 1074 89 0 1075 87 0 1076 7 0 1080 71 0 1081 69 0 1082 22 10 1083 86 20 1084 88 11 1085 59 0 1086 123 0 1087 121 0 1088 41 0 1092 105 0 1093 103 0 1094 23 0 1098 87 0 1099 85 0 1100 38 17 1101 102 26 1102 104 18 1103 5 0 1104 69 0 1105 66 0 1106 57 0 1110 121 0 1111 119 0 1112 2 21 1113 65 32 1114 68 22 1115 39 0 1116 103 0 1117 101 0 1118 54 23 1119 118 30 1120 120 24 1121 21 0 1122 85 0 1123 83 0 1124 18 27 1128 82 36 1129 84 28 1130 55 0 1131 119 0 1132 117 0 1133 3 0 1134 66 0 1135 67 0 1136 37 0 1137 101 0 1138 99 0 1139 19 0 1146 83 0 1147 81 0 1148 34 33 1149 98 78 1150 100 34 1151 47 0 1152 279 0 1153 280 0 1154 53 0 1158 117 0 1159 115 0 1160 62 39 1161 0 80 1162 2 367 1163 2 367 1164 4 368 1165 6 369 1166 6 369 1167 8 370 1168 14 371 1169 8 370 1170 10 80 1171 14 371 1172 10 80 1173 12 80 1174 14 371 1175 14 371 1176 16 80 1177 18 372 1178 18 372 1179 20 80 1180 22 373 1181 22 373 1182 24 374 1183 30 37 1184 24 374 1185 26 375 1186 30 37 1187 26 375 1188 28 376 1189 30 37 1190 30 37 1191 32 80 1192 34 377 1193 34 377 1194 36 378 1195 38 379 1196 38 379 1197 40 380 1198 46 38 1199 40 380 1200 42 80 1201 46 38 1202 42 80 1203 44 80 1204 46 38 1205 46 38 1206 48 80 1207 50 381 1208 50 381 1209 52 80 1210 54 382 1211 54 382 1212 56 80 1213 58 80 1214 58 80 1215 60 80 1216 54 382 1217 60 80 1218 62 39 1219 54 382 1220 62 39 1221 2 367 1222 14 371 1223 2 367 1224 6 369 1225 14 371 1226 14 371 1227 18 372 1228 30 37 1229 18 372 1230 22 373 1231 30 37 1232 30 37 1233 34 377 1234 46 38 1235 34 377 1236 38 379 1237 46 38 1238 46 38 1239 50 381 1240 62 39 1241 50 381 1242 54 382 1243 62 39 1244 62 39 1245 14 371 1246 30 37 1247 76 0 1248 140 0 1249 142 0 1250 113 0 1251 177 85 1252 175 40 1253 95 0 1254 159 87 1255 157 41 1256 110 0 1257 174 0 1258 176 0 1259 77 0 1260 141 0 1261 139 0 1262 92 0 1263 156 0 1264 158 0 1265 67 0 1266 131 93 1267 191 42 1268 74 0 1269 138 0 1270 140 0 1271 111 0 1272 175 40 1273 173 0 1274 126 0 1275 190 0 1276 128 0 1277 93 0 1278 157 41 1279 155 43 1280 108 0 1281 172 0 1282 174 0 1283 75 0 1284 139 0 1285 137 44 1286 90 0 1287 154 0 1288 156 0 1289 127 0 1290 191 42 1291 189 45 1292 72 0 1293 136 0 1294 138 0 1295 109 0 1296 173 0 1297 171 0 1298 124 0 1299 188 0 1300 190 0 1301 91 0 1302 155 43 1303 153 46 1304 106 0 1305 170 0 1306 172 0 1307 73 0 1308 137 44 1309 135 47 1310 88 0 1311 152 0 1312 154 0 1313 125 0 1314 189 45 1315 187 48 1316 70 0 1317 134 0 1318 136 0 1319 107 0 1320 171 0 1321 169 49 1322 122 0 1323 186 0 1324 188 0 1325 89 0 1326 153 46 1327 151 0 1328 104 0 1329 168 0 1330 170 0 1331 71 0 1332 135 47 1333 133 50 1334 86 0 1335 150 0 1336 152 0 1337 123 0 1338 187 48 1339 185 51 1340 68 0 1341 132 0 1342 134 0 1343 9 0 1347 73 0 1348 71 0 1349 42 9 1350 106 8 1351 108 54 1352 27 0 1353 91 0 1354 89 0 1355 45 0 1359 109 0 1360 107 0 1361 63 0 1365 127 0 1366 125 0 1367 26 53 1368 90 52 1369 92 60 1370 11 0 1371 75 0 1372 73 0 1373 29 0 1377 93 0 1378 91 0 1379 62 57 1380 126 56 1381 64 64 1382 47 0 1383 111 0 1384 109 0 1385 10 59 1386 74 58 1387 76 65 1388 1 0 1389 67 0 1390 127 0 1391 13 0 1395 77 0 1396 75 0 1397 46 63 1398 110 62 1399 112 69 1400 31 0 1401 95 0 1402 93 0 1403 49 0 1404 113 0 1405 111 0 1406 30 68 1410 94 67 1411 96 73 1412 15 0 1413 79 0 1414 77 0 1415 33 0 1419 97 0 1420 95 0 1421 51 0 1422 115 0 1423 113 0 1424 14 72 1425 78 71 1426 80 77 1427 17 0 1431 81 0 1432 79 0 1433 52 29 1434 50 75 1435 114 76 1436 35 0 1437 99 0 1438 97 0 1439 160 80 1440 158 80 1441 222 81 1442 177 85 1446 241 0 1447 239 86 1448 159 87 1449 223 186 1450 221 88 1451 176 89 1452 174 99 1453 238 90 1454 139 0 1455 141 0 1456 205 0 1457 131 93 1461 195 0 1462 255 94 1463 138 95 1464 202 105 1465 204 83 1466 175 40 1467 239 86 1468 237 0 1469 128 80 1470 190 80 1471 254 97 1472 155 43 1473 157 41 1474 221 88 1475 137 44 1479 139 0 1480 203 91 1481 154 102 1482 218 110 1483 220 92 1484 191 42 1485 255 94 1486 253 103 1487 171 0 1491 173 0 1492 237 0 1493 153 46 1497 155 43 1498 219 98 1499 170 108 1500 234 116 1501 236 100 1502 137 44 1503 201 101 1504 199 98 1505 187 48 1509 189 45 1510 253 103 1511 136 104 1512 134 205 1513 198 110 1514 169 49 1515 171 0 1516 235 106 1517 186 114 1518 250 202 1519 252 107 1520 153 46 1521 217 101 1522 215 91 1523 135 47 1527 199 98 1528 197 117 1529 152 104 1530 150 95 1531 214 105 1532 185 51 1533 187 48 1534 251 111 1535 94 0 1536 158 0 1537 160 0 1538 79 0 1539 143 118 1540 141 0 1541 112 0 1542 176 0 1543 178 0 1544 97 0 1545 161 93 1546 159 87 1547 115 0 1548 179 119 1549 177 85 1550 78 0 1551 142 0 1552 144 0 1553 96 0 1554 160 0 1555 162 0 1556 81 0 1557 145 120 1558 143 118 1559 114 0 1560 178 0 1561 180 0 1562 99 0 1563 163 42 1564 161 93 1565 117 0 1566 181 0 1567 179 119 1568 80 0 1569 144 0 1570 146 0 1571 98 0 1572 162 0 1573 164 0 1574 83 0 1575 147 121 1576 145 120 1577 64 0 1578 128 0 1579 129 0 1580 116 0 1581 180 0 1582 182 0 1583 101 0 1584 165 122 1585 163 42 1586 66 0 1587 130 123 1588 131 93 1589 119 0 1590 183 0 1591 181 0 1592 82 0 1593 146 0 1594 148 0 1595 100 0 1596 164 0 1597 166 0 1598 85 0 1599 149 0 1600 147 121 1601 118 0 1602 182 0 1603 184 0 1604 103 0 1605 167 124 1606 165 122 1607 65 0 1608 129 0 1609 132 0 1610 121 0 1611 185 51 1612 183 0 1613 84 0 1614 148 0 1615 150 0 1616 69 0 1617 133 50 1618 130 123 1619 102 0 1620 166 0 1621 168 0 1622 87 0 1623 151 0 1624 149 0 1625 120 0 1626 184 0 1627 186 0 1628 105 0 1629 169 49 1630 167 124 1631 254 125 1632 382 182 1633 321 126 1634 196 128 1635 324 383 1636 326 129 1637 326 129 1638 328 384 1639 200 131 1640 200 131 1641 328 384 1642 330 132 1643 202 133 1644 330 132 1645 332 134 1646 204 135 1647 332 134 1648 334 136 1649 206 137 1650 334 136 1651 336 138 1652 208 139 1653 336 138 1654 338 140 1655 210 141 1656 338 140 1657 340 142 1658 212 143 1659 340 142 1660 342 144 1661 214 145 1662 342 144 1663 344 146 1664 216 147 1665 344 146 1666 346 148 1667 346 148 1668 348 151 1669 220 150 1670 348 151 1671 350 153 1672 222 152 1673 350 153 1674 352 155 1675 224 154 1676 352 155 1677 354 157 1678 226 156 1679 354 157 1680 356 159 1681 228 158 1682 356 159 1683 358 161 1684 230 160 1685 358 161 1686 360 385 1687 232 162 1688 232 162 1689 360 385 1690 362 163 1691 362 163 1692 364 166 1693 236 165 1694 364 166 1695 366 168 1696 238 167 1697 366 168 1698 368 170 1699 240 169 1700 368 170 1701 370 172 1702 242 171 1703 370 172 1704 372 174 1705 244 173 1706 372 174 1707 374 176 1708 246 175 1709 374 176 1710 376 178 1711 248 177 1712 376 178 1713 378 180 1714 250 179 1715 378 180 1716 380 386 1717 252 181 1718 252 181 1719 380 386 1720 382 182 1721 321 126 1722 322 273 1723 193 183 1724 143 118 1725 207 190 1726 205 0 1727 161 93 1731 225 0 1732 223 186 1733 177 85 1734 179 119 1735 243 187 1736 144 188 1737 142 82 1738 206 84 1739 145 120 1743 209 0 1744 207 190 1745 178 185 1746 242 184 1747 244 191 1748 161 93 1749 163 42 1750 227 193 1751 179 119 1752 181 0 1753 245 0 1754 162 80 1758 226 189 1759 228 196 1760 145 120 1761 147 121 1762 211 190 1763 163 42 1770 165 122 1771 229 197 1772 131 93 1773 130 123 1774 194 198 1775 183 0 1776 247 106 1777 245 0 1778 146 195 1779 210 194 1780 212 199 1781 147 121 1785 149 0 1786 213 0 1787 184 115 1788 182 108 1789 246 116 1790 167 124 1791 231 111 1792 229 197 1793 129 80 1794 193 81 1795 196 204 1796 185 51 1797 249 113 1798 247 106 1799 130 123 1803 133 50 1804 197 117 1805 168 115 1806 166 201 1807 230 202 1808 151 0 1809 215 91 1810 213 0 1811 169 49 1815 233 113 1816 231 111 1817 3 0 1824 256 0 1825 258 0 1826 21 0 1827 266 0 1828 267 0 1829 39 0 1830 275 0 1831 276 0 1832 57 0 1833 284 0 1834 285 0 1835 13 0 1836 262 0 1837 263 0 1838 31 0 1839 271 0 1840 272 0 1841 49 0 1842 280 0 1843 281 0 1844 5 0 1845 258 0 1846 259 0 1847 23 0 1848 267 0 1849 268 0 1850 41 0 1851 276 0 1852 277 0 1853 59 0 1854 285 0 1855 286 0 1856 15 0 1857 263 0 1858 264 0 1859 33 0 1860 272 0 1861 273 0 1862 51 0 1863 281 0 1864 282 0 1865 7 0 1866 259 0 1867 260 0 1868 25 0 1869 268 0 1870 269 0 1871 43 0 1872 277 0 1873 278 0 1874 61 0 1875 286 0 1876 287 0 1877 17 0 1878 264 0 1879 265 0 1880 35 0 1881 273 0 1882 274 0 1883 53 0 1884 282 0 1885 283 0 1886 9 0 1887 260 0 1888 261 0 1889 27 0 1890 269 0 1891 270 0 1892 45 0 1893 278 0 1894 279 0 1895 1 0 1896 257 0 1897 256 0 1898 63 0 1899 287 0 1900 257 0 1901 19 0 1902 265 0 1903 266 0 1904 37 0 1905 274 0 1906 275 0 1907 55 0 1908 283 0 1909 284 0 1910 11 0 1911 261 0 1912 262 0 1913 29 0 1914 270 0 1915 271 0 1916 322 273 2097 324 383 2098 196 128 2099 253 274 2100 255 366 2101 383 275 2102 251 277 2103 253 274 2104 381 276 2105 377 279 2106 249 281 2107 251 277 2108 375 280 2109 247 400 2110 249 281 2111 245 282 2112 247 400 2113 375 280 2114 371 284 2115 243 286 2116 245 282 2117 369 285 2118 241 288 2119 243 286 2120 367 287 2121 239 401 2122 241 288 2123 237 289 2124 239 401 2125 367 287 2126 235 291 2127 237 289 2128 365 290 2129 233 293 2130 235 291 2131 363 292 2132 231 295 2133 233 293 2134 361 294 2135 229 297 2136 231 295 2137 359 296 2138 227 299 2139 229 297 2140 357 298 2141 225 301 2142 227 299 2143 355 300 2144 223 303 2145 225 301 2146 353 302 2147 221 305 2148 223 303 2149 351 304 2150 219 307 2151 221 305 2152 349 306 2153 217 309 2154 219 307 2155 347 308 2156 215 311 2157 217 309 2158 345 310 2159 213 313 2160 215 311 2161 343 312 2162 211 315 2163 213 313 2164 341 314 2165 209 317 2166 211 315 2167 339 316 2168 207 319 2169 209 317 2170 337 318 2171 205 321 2172 207 319 2173 335 320 2174 203 323 2175 205 321 2176 333 322 2177 201 325 2178 203 323 2179 331 324 2180 199 327 2181 201 325 2182 329 326 2183 197 329 2184 199 327 2185 327 328 2186 194 331 2187 197 329 2188 325 330 2189 195 333 2190 194 331 2191 323 332 2192 255 366 2289 195 333 2290 320 334 2291</p>
        </triangles>
        <triangles material="Black-material" count="222">
          <input semantic="VERTEX" source="#Cylinder-mesh-vertices" offset="0"/>
          <input semantic="NORMAL" source="#Cylinder-mesh-normals" offset="1"/>
          <input semantic="TEXCOORD" source="#Cylinder-mesh-map-0" offset="2" set="0"/>
          <p>40 7 15 106 8 16 42 9 17 4 13 27 70 14 28 6 1 29 56 15 33 122 16 34 58 4 35 20 19 45 86 20 46 22 10 47 36 25 63 102 26 64 38 17 65 52 29 78 118 30 79 54 23 80 0 31 81 65 32 82 2 21 83 16 35 93 82 36 94 18 27 95 24 12 198 90 52 199 26 53 200 60 6 210 126 56 211 62 57 212 8 3 216 74 58 217 10 59 218 44 55 228 110 62 229 46 63 230 28 61 246 94 67 247 30 68 248 12 66 261 78 71 262 14 72 263 50 75 270 112 69 271 114 76 272 32 74 282 98 78 283 34 33 284 142 82 297 204 83 298 206 84 299 158 80 312 220 92 313 222 81 314 174 99 330 236 100 331 238 90 332 136 104 342 202 105 343 138 95 344 190 80 348 252 107 349 254 97 350 152 104 360 218 110 361 154 102 362 168 115 378 234 116 379 170 108 380 176 89 582 242 184 583 178 185 584 160 80 594 226 189 595 162 80 596 144 188 609 210 194 610 146 195 611 128 80 618 193 81 619 129 80 620 182 108 621 244 191 622 246 116 623 166 201 636 228 196 637 230 202 638 150 95 654 212 199 655 214 105 656 184 115 666 250 202 667 186 114 668 134 205 672 196 204 673 198 110 674 276 206 675 309 207 676 277 208 677 302 209 771 298 210 772 290 211 773 263 212 774 296 213 775 264 214 776 277 208 777 310 215 778 278 216 779 264 214 780 297 217 781 265 218 782 278 216 783 311 219 784 279 220 785 265 218 786 298 221 787 266 222 788 279 220 789 312 223 790 280 224 791 266 222 792 299 225 793 267 226 794 280 224 795 313 227 796 281 228 797 267 226 798 300 229 799 268 230 800 281 228 801 314 231 802 282 232 803 269 233 804 300 229 805 301 234 806 282 232 807 315 235 808 283 236 809 270 237 810 301 234 811 302 238 812 257 239 813 288 240 814 256 241 815 283 236 816 316 242 817 284 243 818 271 244 819 302 238 820 303 245 821 256 241 822 290 246 823 258 247 824 284 243 825 317 248 826 285 249 827 272 250 828 303 245 829 304 251 830 258 247 831 291 252 832 259 253 833 285 249 834 318 254 835 286 255 836 273 256 837 304 251 838 305 257 839 259 253 840 292 258 841 260 259 842 286 255 843 319 260 844 287 261 845 274 262 846 305 257 847 306 263 848 260 259 849 293 264 850 261 265 851 287 261 852 289 266 853 257 239 854 275 267 855 306 263 856 307 268 857 261 265 858 294 269 859 262 270 860 276 206 861 307 268 862 308 271 863 262 270 864 295 272 865 263 212 866 320 334 963 382 335 964 383 275 965 383 275 966 380 336 967 381 276 968 381 276 969 378 337 970 379 278 971 379 278 972 376 338 973 377 279 974 377 279 975 374 339 976 375 280 977 375 280 978 372 340 979 373 283 980 373 283 981 370 341 982 371 284 983 371 284 984 368 342 985 369 285 986 369 285 987 366 343 988 367 287 989 367 287 990 364 66 991 365 290 992 365 290 993 362 344 994 363 292 995 363 292 996 360 345 997 361 294 998 361 294 999 358 346 1000 359 296 1001 359 296 1002 356 347 1003 357 298 1004 357 298 1005 354 348 1006 355 300 1007 355 300 1008 352 349 1009 353 302 1010 353 302 1011 350 350 1012 351 304 1013 351 304 1014 348 351 1015 349 306 1016 349 306 1017 346 352 1018 347 308 1019 347 308 1020 344 353 1021 345 310 1022 345 310 1023 342 354 1024 343 312 1025 343 312 1026 340 355 1027 341 314 1028 341 314 1029 338 356 1030 339 316 1031 339 316 1032 336 357 1033 337 318 1034 337 318 1035 334 358 1036 335 320 1037 335 320 1038 332 359 1039 333 322 1040 333 322 1041 330 360 1042 331 324 1043 331 324 1044 328 361 1045 329 326 1046 329 326 1047 326 362 1048 327 328 1049 327 328 1050 324 363 1051 325 330 1052 325 330 1053 322 364 1054 323 332 1055 323 332 1056 321 365 1057 320 334 1058 40 7 1077 104 18 1078 106 8 1079 4 13 1089 68 22 1090 70 14 1091 56 15 1095 120 24 1096 122 16 1097 20 19 1107 84 28 1108 86 20 1109 36 25 1125 100 34 1126 102 26 1127 52 29 1140 116 79 1141 118 30 1142 0 31 1143 64 64 1144 65 32 1145 16 35 1155 80 77 1156 82 36 1157 24 12 1344 88 11 1345 90 52 1346 60 6 1356 124 5 1357 126 56 1358 8 3 1362 72 2 1363 74 58 1364 44 55 1374 108 54 1375 110 62 1376 28 61 1392 92 60 1393 94 67 1394 12 66 1407 76 65 1408 78 71 1409 50 75 1416 48 70 1417 112 69 1418 32 74 1428 96 73 1429 98 78 1430 142 82 1443 140 96 1444 204 83 1445 158 80 1458 156 80 1459 220 92 1460 174 99 1476 172 109 1477 236 100 1478 136 104 1488 200 112 1489 202 105 1490 190 80 1494 188 80 1495 252 107 1496 152 104 1506 216 112 1507 218 110 1508 168 115 1524 232 203 1525 234 116 1526 176 89 1728 240 80 1729 242 184 1730 160 80 1740 224 80 1741 226 189 1742 144 188 1755 208 80 1756 210 194 1757 128 80 1764 192 80 1765 193 81 1766 182 108 1767 180 192 1768 244 191 1769 166 201 1782 164 80 1783 228 196 1784 150 95 1800 148 200 1801 212 199 1802 184 115 1812 248 203 1813 250 202 1814 134 205 1818 132 80 1819 196 204 1820 276 206 1821 308 271 1822 309 207 1823 290 211 1917 288 387 1918 289 388 1919 289 388 1920 319 389 1921 290 211 1922 319 389 1923 318 390 1924 290 211 1925 318 390 1926 317 0 1927 316 0 1928 316 0 1929 315 0 1930 318 390 1931 315 0 1932 314 391 1933 318 390 1934 314 391 1935 313 0 1936 312 0 1937 312 0 1938 311 0 1939 310 392 1940 310 392 1941 309 0 1942 306 393 1943 309 0 1944 308 0 1945 306 393 1946 308 0 1947 307 0 1948 306 393 1949 306 393 1950 305 394 1951 304 395 1952 304 395 1953 303 396 1954 306 393 1955 303 396 1956 302 209 1957 306 393 1958 302 209 1959 301 0 1960 300 397 1961 300 397 1962 299 0 1963 298 210 1964 298 210 1965 297 0 1966 296 0 1967 296 0 1968 295 0 1969 294 398 1970 294 398 1971 293 0 1972 292 399 1973 292 399 1974 291 0 1975 290 211 1976 314 391 1977 312 0 1978 310 392 1979 302 209 1980 300 397 1981 298 210 1982 298 210 1983 296 0 1984 294 398 1985 294 398 1986 292 399 1987 298 210 1988 292 399 1989 290 211 1990 298 210 1991 290 211 1992 318 390 1993 306 393 1994 318 390 1995 314 391 1996 306 393 1997 314 391 1998 310 392 1999 306 393 2000 306 393 2001 302 209 2002 290 211 2003 263 212 2004 295 272 2005 296 213 2006 277 208 2007 309 207 2008 310 215 2009 264 214 2010 296 213 2011 297 217 2012 278 216 2013 310 215 2014 311 219 2015 265 218 2016 297 217 2017 298 221 2018 279 220 2019 311 219 2020 312 223 2021 266 222 2022 298 221 2023 299 225 2024 280 224 2025 312 223 2026 313 227 2027 267 226 2028 299 225 2029 300 229 2030 281 228 2031 313 227 2032 314 231 2033 269 233 2034 268 230 2035 300 229 2036 282 232 2037 314 231 2038 315 235 2039 270 237 2040 269 233 2041 301 234 2042 257 239 2043 289 266 2044 288 240 2045 283 236 2046 315 235 2047 316 242 2048 271 244 2049 270 237 2050 302 238 2051 256 241 2052 288 240 2053 290 246 2054 284 243 2055 316 242 2056 317 248 2057 272 250 2058 271 244 2059 303 245 2060 258 247 2061 290 246 2062 291 252 2063 285 249 2064 317 248 2065 318 254 2066 273 256 2067 272 250 2068 304 251 2069 259 253 2070 291 252 2071 292 258 2072 286 255 2073 318 254 2074 319 260 2075 274 262 2076 273 256 2077 305 257 2078 260 259 2079 292 258 2080 293 264 2081 287 261 2082 319 260 2083 289 266 2084 275 267 2085 274 262 2086 306 263 2087 261 265 2088 293 264 2089 294 269 2090 276 206 2091 275 267 2092 307 268 2093 262 270 2094 294 269 2095 295 272 2096 320 334 2193 321 365 2194 382 335 2195 383 275 2196 382 335 2197 380 336 2198 381 276 2199 380 336 2200 378 337 2201 379 278 2202 378 337 2203 376 338 2204 377 279 2205 376 338 2206 374 339 2207 375 280 2208 374 339 2209 372 340 2210 373 283 2211 372 340 2212 370 341 2213 371 284 2214 370 341 2215 368 342 2216 369 285 2217 368 342 2218 366 343 2219 367 287 2220 366 343 2221 364 66 2222 365 290 2223 364 66 2224 362 344 2225 363 292 2226 362 344 2227 360 345 2228 361 294 2229 360 345 2230 358 346 2231 359 296 2232 358 346 2233 356 347 2234 357 298 2235 356 347 2236 354 348 2237 355 300 2238 354 348 2239 352 349 2240 353 302 2241 352 349 2242 350 350 2243 351 304 2244 350 350 2245 348 351 2246 349 306 2247 348 351 2248 346 352 2249 347 308 2250 346 352 2251 344 353 2252 345 310 2253 344 353 2254 342 354 2255 343 312 2256 342 354 2257 340 355 2258 341 314 2259 340 355 2260 338 356 2261 339 316 2262 338 356 2263 336 357 2264 337 318 2265 336 357 2266 334 358 2267 335 320 2268 334 358 2269 332 359 2270 333 322 2271 332 359 2272 330 360 2273 331 324 2274 330 360 2275 328 361 2276 329 326 2277 328 361 2278 326 362 2279 327 328 2280 326 362 2281 324 363 2282 325 330 2283 324 363 2284 322 364 2285 323 332 2286 322 364 2287 321 365 2288</p>
        </triangles>
      </mesh>
    </geometry>
  </library_geometries>
  <library_visual_scenes>
    <visual_scene id="Scene" name="Scene">
      <node id="Cylinder" name="Cylinder" type="NODE">
        <matrix sid="transform">1.94707e-7 1 1.31134e-7 0 0 -4.37114e-8 3 0 1 -1.94707e-7 -2.55328e-14 0 0 0 0 1</matrix>
        <instance_geometry url="#Cylinder-mesh" name="Cylinder">
          <bind_material>
            <technique_common>
              <instance_material symbol="Metal-material" target="#Metal-material">
                <bind_vertex_input semantic="UVMap" input_semantic="TEXCOORD" input_set="0"/>
              </instance_material>
              <instance_material symbol="Black-material" target="#Black-material">
                <bind_vertex_input semantic="UVMap" input_semantic="TEXCOORD" input_set="0"/>
              </instance_material>
            </technique_common>
          </bind_material>
        </instance_geometry>
      </node>
    </visual_scene>
  </library_visual_scenes>
  <scene>
    <instance_visual_scene url="#Scene"/>
  </scene>
</COLLADA>