<?xml version="1.0"?>
<COLLADA version="1.4.0" xmlns="http://www.collada.org/2005/11/COLLADASchema">
<asset>
<contributor>
<author>Wings3D Collada Exporter</author>
<authoring_tool>Wings3D 2.2.5 Collada Exporter</authoring_tool>
<comments/>
<copyright/>
<source_data/>
</contributor>
<created>2020-06-22T12:12:42</created>
<modified>2020-06-22T12:12:42</modified>
<unit meter="1.0" name="meter"/>
<up_axis>Y_UP</up_axis>
</asset>
<library_effects><effect id="white-fx" name="white-fx"><profile_COMMON><technique sid="wings3d"><phong><emission><color>0.000000 0.000000 0.000000 1.000000
</color></emission><ambient><color>0.000000 0.000000 0.000000 0.000000
</color></ambient><diffuse><color>1.000000 1.000000 1.000000 1.000000
</color></diffuse><specular><color>0.100000 0.100000 0.100000 1.000000
</color></specular><shininess><float>0.000000</float></shininess></phong></technique></profile_COMMON></effect></library_effects>

<library_materials><material id="white" name="white"><instance_effect url="#white-fx"/></material></library_materials>
<library_geometries><geometry name="F3:GeoDome1-0" id="F3:GeoDome1-0"><mesh><source id="F3:GeoDome1-0-Pos"><float_array id="F3:GeoDome1-0-Pos-array" count="276">-10.856429 -5.590170 -3.517359 -12.500000 -2.145491 -1.349952 -12.500000 2.145491 1.349952 -10.856429 5.590170 3.517359 -10.908475 -6.436474 0.834316 -10.908475 -2.145491 -6.234126 -11.922373 -2.344906 3.862712 -11.922373 2.344906 -3.862712 -10.908475 2.145491 6.234126 -10.908475 6.436474 -0.834316 -9.316950 -6.436474 5.718490 -9.316950 -2.145491 8.418395 -9.316950 2.145491 -8.418395 -9.316950 6.436474 -5.718490 -8.333333 -9.088447 -2.699905 -8.333333 -6.436474 -7.068442 -8.333333 6.436474 7.068442 -8.333333 9.088447 2.699905 -6.709642 -5.590170 9.208565 -6.709642 5.590170 -9.208565 -7.368432 -9.933181 2.387288 -7.368432 -2.344906 -10.112712 -7.368432 2.344906 10.112712 -7.368432 9.933181 -2.387288 -5.150283 -9.088447 7.068442 -5.150283 -2.145491 11.436980 -5.150283 2.145491 -11.436980 -5.150283 9.088447 -7.068442 -4.166667 -11.740420 -1.349952 -4.553941 -9.933181 -6.250000 -4.166667 -6.436474 -10.087027 -4.166667 6.436474 10.087027 -4.553941 9.933181 6.250000 -4.166667 11.740420 1.349952 -2.575142 -11.740420 3.534221 -2.575142 -6.436474 10.602663 -2.575142 -2.145491 -12.271296 -2.575142 2.145491 12.271296 -2.575142 6.436474 -10.602663 -2.575142 11.740420 -3.534221 0.000000 -12.500000 0.000000 0.000000 -11.740420 -4.368538 0.000000 -9.088447 -8.737075 0.000000 -9.933181 7.725425 0.000000 -5.590170 -11.382412 0.000000 -2.344906 12.500000 0.000000 2.344906 -12.500000 0.000000 5.590170 11.382412 0.000000 9.933181 -7.725425 0.000000 9.088447 8.737075 0.000000 11.740420 4.368538 0.000000 12.500000 0.000000 2.575142 -11.740420 3.534221 2.575142 -6.436474 10.602663 2.575142 -2.145491 -12.271296 2.575142 2.145491 12.271296 2.575142 6.436474 -10.602663 2.575142 11.740420 -3.534221 4.166667 -11.740420 -1.349952 4.553941 -9.933181 -6.250000 4.166667 -6.436474 -10.087027 4.166667 6.436474 10.087027 4.553941 9.933181 6.250000 4.166667 11.740420 1.349952 5.150283 -9.088447 7.068442 5.150283 -2.145491 11.436980 5.150283 2.145491 -11.436980 5.150283 9.088447 -7.068442 7.368432 -9.933181 2.387288 7.368432 -2.344906 -10.112712 7.368432 2.344906 10.112712 7.368432 9.933181 -2.387288 6.709642 -5.590170 9.208565 6.709642 5.590170 -9.208565 8.333333 -9.088447 -2.699905 8.333333 -6.436474 -7.068442 8.333333 6.436474 7.068442 8.333333 9.088447 2.699905 9.316950 -6.436474 5.718490 9.316950 -2.145491 8.418395 9.316950 2.145491 -8.418395 9.316950 6.436474 -5.718490 10.908475 -6.436474 0.834316 10.908475 -2.145491 -6.234126 11.922373 -2.344906 3.862712 11.922373 2.344906 -3.862712 10.908475 2.145491 6.234126 10.908475 6.436474 -0.834316 10.856429 -5.590170 -3.517359 12.500000 -2.145491 -1.349952 12.500000 2.145491 1.349952 10.856429 5.590170 3.517359</float_array><technique_common><accessor count="92" source="#F3:GeoDome1-0-Pos-array" stride="3"><param name="X" type="float"/><param name="Y" type="float"/><param name="Z" type="float"/></accessor></technique_common></source><source id="F3:GeoDome1-0-Normal"><float_array id="F3:GeoDome1-0-Normal-array" count="276">0.847055 0.454239 0.275980 0.980103 0.169620 0.103083 0.980103 -0.169620 -0.103083 0.847055 -0.454239 -0.275980 0.849329 0.522988 -0.071580 0.852809 0.169505 0.493948 0.933283 0.191123 -0.304065 0.933283 -0.191123 0.304065 0.852809 -0.169505 -0.493948 0.849329 -0.522988 0.071580 0.728700 0.522718 -0.442451 0.731650 0.169429 -0.660289 0.731650 -0.169429 0.660289 0.728700 -0.522718 0.442451 0.641621 0.737987 0.209040 0.644620 0.522558 0.558031 0.644620 -0.522558 -0.558031 0.641621 -0.737987 -0.209040 0.522872 0.453687 -0.721646 0.522872 -0.453687 0.721646 0.570135 0.800277 -0.185751 0.575958 0.190845 0.794890 0.575958 -0.190845 -0.794890 0.570135 -0.800277 0.185751 0.396274 0.737472 -0.546902 0.399771 0.169243 -0.900855 0.399771 -0.169243 0.900855 0.396274 -0.737472 0.546902 0.326336 0.939255 0.106321 0.352170 0.799840 0.486037 0.329792 0.522123 0.786528 0.329792 -0.522123 -0.786528 0.352170 -0.799840 -0.486037 0.326336 -0.939255 -0.106321 0.201653 0.939086 -0.278305 0.194200 0.522024 -0.830529 0.204588 0.169197 0.964114 0.204588 -0.169197 -0.964114 0.194200 -0.522024 0.830529 0.201653 -0.939086 0.278305 -0.000000 1.000000 -0.000000 0.000000 0.938981 0.343968 -0.000000 0.737154 0.675725 0.000000 0.799571 -0.600572 0.000000 0.453347 0.891334 0.000000 0.190674 -0.981653 0.000000 -0.190674 0.981653 0.000000 -0.453347 -0.891334 0.000000 -0.799571 0.600572 0.000000 -0.737154 -0.675725 -0.000000 -0.938981 -0.343968 0.000000 -1.000000 0.000000 -0.201653 0.939086 -0.278305 -0.194200 0.522024 -0.830529 -0.204588 0.169197 0.964114 -0.204588 -0.169197 -0.964114 -0.194200 -0.522024 0.830529 -0.201653 -0.939086 0.278305 -0.326336 0.939255 0.106321 -0.352170 0.799840 0.486037 -0.329792 0.522123 0.786528 -0.329792 -0.522123 -0.786528 -0.352170 -0.799840 -0.486037 -0.326336 -0.939255 -0.106321 -0.396274 0.737472 -0.546902 -0.399771 0.169243 -0.900855 -0.399771 -0.169243 0.900855 -0.396274 -0.737472 0.546902 -0.570135 0.800277 -0.185751 -0.575958 0.190845 0.794890 -0.575958 -0.190845 -0.794890 -0.570135 -0.800277 0.185751 -0.522872 0.453687 -0.721646 -0.522872 -0.453687 0.721646 -0.641621 0.737987 0.209040 -0.644620 0.522558 0.558031 -0.644620 -0.522558 -0.558031 -0.641621 -0.737987 -0.209040 -0.728700 0.522718 -0.442451 -0.731650 0.169429 -0.660289 -0.731650 -0.169429 0.660289 -0.728700 -0.522718 0.442451 -0.849329 0.522988 -0.071580 -0.852809 0.169505 0.493948 -0.933283 0.191123 -0.304065 -0.933283 -0.191123 0.304065 -0.852809 -0.169505 -0.493948 -0.849329 -0.522988 0.071580 -0.847055 0.454239 0.275980 -0.980103 0.169620 0.103083 -0.980103 -0.169620 -0.103083 -0.847055 -0.454239 -0.275980</float_array><technique_common><accessor count="92" source="#F3:GeoDome1-0-Normal-array" stride="3"><param name="X" type="float"/><param name="Y" type="float"/><param name="Z" type="float"/></accessor></technique_common></source><source id="F3:GeoDome1-0-VC"><float_array id="F3:GeoDome1-0-VC-array" count="36">0.000000 0.419608 0.407843 0.000000 0.431373 0.435294 0.211765 0.462745 0.462745 0.219608 0.149020 0.674510 0.270588 0.196078 0.690196 0.384314 0.317647 0.725490 0.435294 0.380392 0.713726 0.458824 0.560784 0.564706 0.486275 0.556863 0.596078 0.505882 0.494118 0.678431 1.000000 1.000000 1.000000 1.000000 1.000000 1.000000</float_array><technique_common><accessor count="12" source="#F3:GeoDome1-0-VC-array" stride="3"><param name="R" type="float"/><param name="B" type="float"/><param name="G" type="float"/></accessor></technique_common></source><vertices id="F3:GeoDome1-0-Vtx"><input semantic="POSITION" source="#F3:GeoDome1-0-Pos"/></vertices><polylist count="180" material="white"><input offset="0" semantic="VERTEX" source="#F3:GeoDome1-0-Vtx"/><input offset="1" semantic="NORMAL" source="#F3:GeoDome1-0-Normal"/><input offset="2" semantic="COLOR" source="#F3:GeoDome1-0-VC"/><vcount>3 3 3 3 3 3 3 3 3 3 3 3 3 3 3 3 3 3 3 3 3 3 3 3 3 3 3 3 3 3 3 3 3 3 3 3 3 3 3 3 3 3 3 3 3 3 3 3 3 3 3 3 3 3 3 3 3 3 3 3 3 3 3 3 3 3 3 3 3 3 3 3 3 3 3 3 3 3 3 3 3 3 3 3 3 3 3 3 3 3 3 3 3 3 3 3 3 3 3 3 3 3 3 3 3 3 3 3 3 3 3 3 3 3 3 3 3 3 3 3 3 3 3 3 3 3 3 3 3 3 3 3 3 3 3 3 3 3 3 3 3 3 3 3 3 3 3 3 3 3 3 3 3 3 3 3 3 3 3 3 3 3 3 3 3 3 3 3 3 3 3 3 3 3 3 3 3 3 3 3</vcount><p>14 14 2 29 29 2 15 15 7 29 29 2 42 42 2 30 30 7 28 28 1 41 41 1 29 29 2 14 14 2 15 15 7 0 0 7 29 29 2 30 30 7 15 15 7 42 42 2 44 44 7 30 30 7 28 28 1 29 29 2 14 14 2 41 41 1 42 42 2 29 29 2 40 40 0 41 41 1 28 28 1 10 10 7 24 24 2 20 20 2 4 4 7 20 20 2 14 14 2 20 20 2 34 34 1 28 28 1 18 18 7 24 24 2 10 10 7 10 10 7 20 20 2 4 4 7 4 4 7 14 14 2 0 0 7 24 24 2 34 34 1 20 20 2 20 20 2 28 28 1 14 14 2 34 34 1 40 40 0 28 28 1 53 53 7 64 64 2 43 43 2 35 35 7 43 43 2 24 24 2 43 43 2 52 52 1 34 34 1 53 53 7 72 72 7 64 64 2 35 35 7 53 53 7 43 43 2 18 18 7 35 35 7 24 24 2 43 43 2 64 64 2 52 52 1 24 24 2 43 43 2 34 34 1 34 34 1 52 52 1 40 40 0 68 68 2 82 82 7 74 74 2 64 64 2 78 78 7 68 68 2 52 52 1 68 68 2 58 58 1 82 82 7 88 88 7 74 74 2 78 78 7 82 82 7 68 68 2 72 72 7 78 78 7 64 64 2 68 68 2 74 74 2 58 58 1 64 64 2 68 68 2 52 52 1 52 52 1 58 58 1 40 40 0 59 59 2 60 60 7 42 42 2 74 74 2 75 75 7 59 59 2 58 58 1 59 59 2 41 41 1 42 42 2 60 60 7 44 44 7 59 59 2 75 75 7 60 60 7 74 74 2 88 88 7 75 75 7 41 41 1 59 59 2 42 42 2 58 58 1 74 74 2 59 59 2 40 40 0 58 58 1 41 41 1 7 7 9 9 9 6 2 2 9 12 12 9 13 13 6 7 7 9 5 5 8 7 7 9 1 1 8 2 2 9 9 9 6 3 3 6 7 7 9 13 13 6 9 9 6 12 12 9 19 19 6 13 13 6 1 1 8 7 7 9 2 2 9 5 5 8 12 12 9 7 7 9 0 0 7 5 5 8 1 1 8 31 31 6 37 37 9 22 22 9 16 16 6 22 22 9 8 8 9 22 22 9 25 25 8 11 11 8 31 31 6 47 47 6 37 37 9 16 16 6 31 31 6 22 22 9 3 3 6 16 16 6 8 8 9 22 22 9 37 37 9 25 25 8 8 8 9 22 22 9 11 11 8 11 11 8 25 25 8 18 18 7 61 61 6 70 70 9 55 55 9 70 70 9 79 79 8 65 65 8 76 76 6 86 86 9 70 70 9 47 47 6 61 61 6 55 55 9 55 55 9 70 70 9 65 65 8 65 65 8 79 79 8 72 72 7 61 61 6 76 76 6 70 70 9 70 70 9 86 86 9 79 79 8 76 76 6 91 91 6 86 86 9 80 80 9 85 85 9 81 81 6 85 85 9 90 90 9 87 87 6 83 83 8 89 89 8 85 85 9 80 80 9 81 81 6 73 73 6 85 85 9 87 87 6 81 81 6 90 90 9 91 91 6 87 87 6 83 83 8 85 85 9 80 80 9 89 89 8 90 90 9 85 85 9 88 88 7 89 89 8 83 83 8 26 26 9 46 46 9 38 38 6 46 46 9 66 66 9 56 56 6 36 36 8 54 54 8 46 46 9 26 26 9 38 38 6 19 19 6 46 46 9 56 56 6 38 38 6 66 66 9 73 73 6 56 56 6 36 36 8 46 46 9 26 26 9 54 54 8 66 66 9 46 46 9 44 44 7 54 54 8 36 36 8 79 79 8 84 84 8 78 78 7 84 84 8 89 89 8 82 82 7 86 86 9 90 90 9 84 84 8 72 72 7 79 79 8 78 78 7 78 78 7 84 84 8 82 82 7 82 82 7 89 89 8 88 88 7 79 79 8 86 86 9 84 84 8 84 84 8 90 90 9 89 89 8 86 86 9 91 91 6 90 90 9 75 75 7 83 83 8 69 69 8 60 60 7 69 69 8 54 54 8 69 69 8 80 80 9 66 66 9 75 75 7 88 88 7 83 83 8 60 60 7 75 75 7 69 69 8 44 44 7 60 60 7 54 54 8 69 69 8 83 83 8 80 80 9 54 54 8 69 69 8 66 66 9 66 66 9 80 80 9 73 73 6 30 30 7 36 36 8 21 21 8 15 15 7 21 21 8 5 5 8 21 21 8 26 26 9 12 12 9 30 30 7 44 44 7 36 36 8 15 15 7 30 30 7 21 21 8 0 0 7 15 15 7 5 5 8 21 21 8 36 36 8 26 26 9 5 5 8 21 21 8 12 12 9 12 12 9 26 26 9 19 19 6 1 1 8 6 6 8 4 4 7 6 6 8 11 11 8 10 10 7 2 2 9 8 8 9 6 6 8 1 1 8 4 4 7 0 0 7 6 6 8 10 10 7 4 4 7 11 11 8 18 18 7 10 10 7 2 2 9 6 6 8 1 1 8 8 8 9 11 11 8 6 6 8 3 3 6 8 8 9 2 2 9 25 25 8 45 45 8 35 35 7 45 45 8 65 65 8 53 53 7 37 37 9 55 55 9 45 45 8 25 25 8 35 35 7 18 18 7 45 45 8 53 53 7 35 35 7 65 65 8 72 72 7 53 53 7 37 37 9 45 45 8 25 25 8 55 55 9 65 65 8 45 45 8 47 47 6 55 55 9 37 37 9 71 71 5 87 87 6 77 77 5 67 67 5 81 81 6 71 71 5 57 57 4 71 71 5 63 63 4 87 87 6 91 91 6 77 77 5 81 81 6 87 87 6 71 71 5 73 73 6 81 81 6 67 67 5 71 71 5 77 77 5 63 63 4 67 67 5 71 71 5 57 57 4 57 57 4 63 63 4 51 51 3 56 56 6 67 67 5 48 48 5 38 38 6 48 48 5 27 27 5 48 48 5 57 57 4 39 39 4 56 56 6 73 73 6 67 67 5 38 38 6 56 56 6 48 48 5 19 19 6 38 38 6 27 27 5 48 48 5 67 67 5 57 57 4 27 27 5 48 48 5 39 39 4 39 39 4 57 57 4 51 51 3 13 13 6 27 27 5 23 23 5 9 9 6 23 23 5 17 17 5 23 23 5 39 39 4 33 33 4 19 19 6 27 27 5 13 13 6 13 13 6 23 23 5 9 9 6 9 9 6 17 17 5 3 3 6 27 27 5 39 39 4 23 23 5 23 23 5 33 33 4 17 17 5 39 39 4 51 51 3 33 33 4 32 32 5 49 49 5 31 31 6 33 33 4 50 50 4 32 32 5 17 17 5 32 32 5 16 16 6 31 31 6 49 49 5 47 47 6 32 32 5 50 50 4 49 49 5 33 33 4 51 51 3 50 50 4 16 16 6 32 32 5 31 31 6 17 17 5 33 33 4 32 32 5 3 3 6 17 17 5 16 16 6 49 49 5 62 62 5 61 61 6 62 62 5 77 77 5 76 76 6 50 50 4 63 63 4 62 62 5 49 49 5 61 61 6 47 47 6 62 62 5 76 76 6 61 61 6 77 77 5 91 91 6 76 76 6 50 50 4 62 62 5 49 49 5 63 63 4 77 77 5 62 62 5 51 51 3 63 63 4 50 50 4</p></polylist></mesh></geometry></library_geometries>
<library_visual_scenes><visual_scene id="Scene" name="Scene"><node layer="L1" id="F3:GeoDome1-0L1" name="F3:GeoDome1-0"><translate sid="translate">0.00000 0.00000 0.00000</translate>
<rotate sid="rotateZ">0 0 1 0.00000</rotate><rotate sid="rotateY">0 1 0 0.00000</rotate><rotate sid="rotateX">1 0 0 0.00000</rotate><scale sid="scale">1.0000 1.0000 1.0000</scale><instance_geometry url="#F3:GeoDome1-0"><bind_material><technique_common><instance_material symbol="white" target="#white"><bind_vertex_input input_semantic="TEXCOORD" input_set="1" semantic="CHANNEL1"/></instance_material></technique_common></bind_material></instance_geometry></node></visual_scene></library_visual_scenes>
<scene><instance_visual_scene url="#Scene"/></scene>
</COLLADA>