<?xml version="1.0"?>
<COLLADA version="1.4.0" xmlns="http://www.collada.org/2005/11/COLLADASchema">
<asset>
<contributor>
<author>Wings3D Collada Exporter</author>
<authoring_tool>Wings3D 2.2.5 Collada Exporter</authoring_tool>
<comments/>
<copyright/>
<source_data/>
</contributor>
<created>2020-06-22T13:52:12</created>
<modified>2020-06-22T13:52:12</modified>
<unit meter="1.0" name="meter"/>
<up_axis>Y_UP</up_axis>
</asset>
<library_effects><effect id="white-fx" name="white-fx"><profile_COMMON><technique sid="wings3d"><phong><emission><color>0.000000 0.000000 0.000000 1.000000
</color></emission><ambient><color>0.000000 0.000000 0.000000 0.000000
</color></ambient><diffuse><color>1.000000 1.000000 1.000000 1.000000
</color></diffuse><specular><color>0.100000 0.100000 0.100000 1.000000
</color></specular><shininess><float>0.000000</float></shininess></phong></technique></profile_COMMON></effect></library_effects>

<library_materials><material id="white" name="white"><instance_effect url="#white-fx"/></material></library_materials>
<library_geometries><geometry name="F3:GeoDome1-0" id="F3:GeoDome1-0"><mesh><source id="F3:GeoDome1-0-Pos"><float_array id="F3:GeoDome1-0-Pos-array" count="276">-10.856429 -5.590170 -3.517359 -12.500000 -2.145491 -1.349952 -12.500000 2.145491 1.349952 -10.856429 5.590170 3.517359 -10.908475 -6.436474 0.834316 -10.908475 -2.145491 -6.234126 -11.922373 -2.344906 3.862712 -11.922373 2.344906 -3.862712 -10.908475 2.145491 6.234126 -10.908475 6.436474 -0.834316 -9.316950 -6.436474 5.718490 -9.316950 -2.145491 8.418395 -9.316950 2.145491 -8.418395 -9.316950 6.436474 -5.718490 -8.333333 -9.088447 -2.699905 -8.333333 -6.436474 -7.068442 -8.333333 6.436474 7.068442 -8.333333 9.088447 2.699905 -6.709642 -5.590170 9.208565 -6.709642 5.590170 -9.208565 -7.368432 -9.933181 2.387288 -7.368432 -2.344906 -10.112712 -7.368432 2.344906 10.112712 -7.368432 9.933181 -2.387288 -5.150283 -9.088447 7.068442 -5.150283 -2.145491 11.436980 -5.150283 2.145491 -11.436980 -5.150283 9.088447 -7.068442 -4.166667 -11.740420 -1.349952 -4.553941 -9.933181 -6.250000 -4.166667 -6.436474 -10.087027 -4.166667 6.436474 10.087027 -4.553941 9.933181 6.250000 -4.166667 11.740420 1.349952 -2.575142 -11.740420 3.534221 -2.575142 -6.436474 10.602663 -2.575142 -2.145491 -12.271296 -2.575142 2.145491 12.271296 -2.575142 6.436474 -10.602663 -2.575142 11.740420 -3.534221 0.000000 -12.500000 0.000000 0.000000 -11.740420 -4.368538 0.000000 -9.088447 -8.737075 0.000000 -9.933181 7.725425 0.000000 -5.590170 -11.382412 0.000000 -2.344906 12.500000 0.000000 2.344906 -12.500000 0.000000 5.590170 11.382412 0.000000 9.933181 -7.725425 0.000000 9.088447 8.737075 0.000000 11.740420 4.368538 0.000000 12.500000 0.000000 2.575142 -11.740420 3.534221 2.575142 -6.436474 10.602663 2.575142 -2.145491 -12.271296 2.575142 2.145491 12.271296 2.575142 6.436474 -10.602663 2.575142 11.740420 -3.534221 4.166667 -11.740420 -1.349952 4.553941 -9.933181 -6.250000 4.166667 -6.436474 -10.087027 4.166667 6.436474 10.087027 4.553941 9.933181 6.250000 4.166667 11.740420 1.349952 5.150283 -9.088447 7.068442 5.150283 -2.145491 11.436980 5.150283 2.145491 -11.436980 5.150283 9.088447 -7.068442 7.368432 -9.933181 2.387288 7.368432 -2.344906 -10.112712 7.368432 2.344906 10.112712 7.368432 9.933181 -2.387288 6.709642 -5.590170 9.208565 6.709642 5.590170 -9.208565 8.333333 -9.088447 -2.699905 8.333333 -6.436474 -7.068442 8.333333 6.436474 7.068442 8.333333 9.088447 2.699905 9.316950 -6.436474 5.718490 9.316950 -2.145491 8.418395 9.316950 2.145491 -8.418395 9.316950 6.436474 -5.718490 10.908475 -6.436474 0.834316 10.908475 -2.145491 -6.234126 11.922373 -2.344906 3.862712 11.922373 2.344906 -3.862712 10.908475 2.145491 6.234126 10.908475 6.436474 -0.834316 10.856429 -5.590170 -3.517359 12.500000 -2.145491 -1.349952 12.500000 2.145491 1.349952 10.856429 5.590170 3.517359</float_array><technique_common><accessor count="92" source="#F3:GeoDome1-0-Pos-array" stride="3"><param name="X" type="float"/><param name="Y" type="float"/><param name="Z" type="float"/></accessor></technique_common></source><source id="F3:GeoDome1-0-Normal"><float_array id="F3:GeoDome1-0-Normal-array" count="276">0.847055 0.454239 0.275980 0.980103 0.169620 0.103083 0.980103 -0.169620 -0.103083 0.847055 -0.454239 -0.275980 0.849329 0.522988 -0.071580 0.852809 0.169505 0.493948 0.933283 0.191123 -0.304065 0.933283 -0.191123 0.304065 0.852809 -0.169505 -0.493948 0.849329 -0.522988 0.071580 0.728700 0.522718 -0.442451 0.731650 0.169429 -0.660289 0.731650 -0.169429 0.660289 0.728700 -0.522718 0.442451 0.641621 0.737987 0.209040 0.644620 0.522558 0.558031 0.644620 -0.522558 -0.558031 0.641621 -0.737987 -0.209040 0.522872 0.453687 -0.721646 0.522872 -0.453687 0.721646 0.570135 0.800277 -0.185751 0.575958 0.190845 0.794890 0.575958 -0.190845 -0.794890 0.570135 -0.800277 0.185751 0.396274 0.737472 -0.546902 0.399771 0.169243 -0.900855 0.399771 -0.169243 0.900855 0.396274 -0.737472 0.546902 0.326336 0.939255 0.106321 0.352170 0.799840 0.486037 0.329792 0.522123 0.786528 0.329792 -0.522123 -0.786528 0.352170 -0.799840 -0.486037 0.326336 -0.939255 -0.106321 0.201653 0.939086 -0.278305 0.194200 0.522024 -0.830529 0.204588 0.169197 0.964114 0.204588 -0.169197 -0.964114 0.194200 -0.522024 0.830529 0.201653 -0.939086 0.278305 -0.000000 1.000000 -0.000000 0.000000 0.938981 0.343968 -0.000000 0.737154 0.675725 0.000000 0.799571 -0.600572 0.000000 0.453347 0.891334 0.000000 0.190674 -0.981653 0.000000 -0.190674 0.981653 0.000000 -0.453347 -0.891334 0.000000 -0.799571 0.600572 0.000000 -0.737154 -0.675725 -0.000000 -0.938981 -0.343968 0.000000 -1.000000 0.000000 -0.201653 0.939086 -0.278305 -0.194200 0.522024 -0.830529 -0.204588 0.169197 0.964114 -0.204588 -0.169197 -0.964114 -0.194200 -0.522024 0.830529 -0.201653 -0.939086 0.278305 -0.326336 0.939255 0.106321 -0.352170 0.799840 0.486037 -0.329792 0.522123 0.786528 -0.329792 -0.522123 -0.786528 -0.352170 -0.799840 -0.486037 -0.326336 -0.939255 -0.106321 -0.396274 0.737472 -0.546902 -0.399771 0.169243 -0.900855 -0.399771 -0.169243 0.900855 -0.396274 -0.737472 0.546902 -0.570135 0.800277 -0.185751 -0.575958 0.190845 0.794890 -0.575958 -0.190845 -0.794890 -0.570135 -0.800277 0.185751 -0.522872 0.453687 -0.721646 -0.522872 -0.453687 0.721646 -0.641621 0.737987 0.209040 -0.644620 0.522558 0.558031 -0.644620 -0.522558 -0.558031 -0.641621 -0.737987 -0.209040 -0.728700 0.522718 -0.442451 -0.731650 0.169429 -0.660289 -0.731650 -0.169429 0.660289 -0.728700 -0.522718 0.442451 -0.849329 0.522988 -0.071580 -0.852809 0.169505 0.493948 -0.933283 0.191123 -0.304065 -0.933283 -0.191123 0.304065 -0.852809 -0.169505 -0.493948 -0.849329 -0.522988 0.071580 -0.847055 0.454239 0.275980 -0.980103 0.169620 0.103083 -0.980103 -0.169620 -0.103083 -0.847055 -0.454239 -0.275980</float_array><technique_common><accessor count="92" source="#F3:GeoDome1-0-Normal-array" stride="3"><param name="X" type="float"/><param name="Y" type="float"/><param name="Z" type="float"/></accessor></technique_common></source><source id="F3:GeoDome1-0-VC"><float_array id="F3:GeoDome1-0-VC-array" count="39">0.215686 0.066667 0.407843 0.250980 0.560784 0.576471 0.250980 0.580392 0.486275 0.258824 0.082353 0.454902 0.258824 0.552941 0.627451 0.266667 0.603922 0.560784 0.274510 0.529412 0.647059 0.309804 0.101961 0.509804 0.368627 0.145098 0.564706 0.490196 0.258824 0.674510 0.537255 0.415686 0.721569 1.000000 1.000000 1.000000 1.000000 1.000000 1.000000</float_array><technique_common><accessor count="13" source="#F3:GeoDome1-0-VC-array" stride="3"><param name="R" type="float"/><param name="B" type="float"/><param name="G" type="float"/></accessor></technique_common></source><vertices id="F3:GeoDome1-0-Vtx"><input semantic="POSITION" source="#F3:GeoDome1-0-Pos"/></vertices><polylist count="180" material="white"><input offset="0" semantic="VERTEX" source="#F3:GeoDome1-0-Vtx"/><input offset="1" semantic="NORMAL" source="#F3:GeoDome1-0-Normal"/><input offset="2" semantic="COLOR" source="#F3:GeoDome1-0-VC"/><vcount>3 3 3 3 3 3 3 3 3 3 3 3 3 3 3 3 3 3 3 3 3 3 3 3 3 3 3 3 3 3 3 3 3 3 3 3 3 3 3 3 3 3 3 3 3 3 3 3 3 3 3 3 3 3 3 3 3 3 3 3 3 3 3 3 3 3 3 3 3 3 3 3 3 3 3 3 3 3 3 3 3 3 3 3 3 3 3 3 3 3 3 3 3 3 3 3 3 3 3 3 3 3 3 3 3 3 3 3 3 3 3 3 3 3 3 3 3 3 3 3 3 3 3 3 3 3 3 3 3 3 3 3 3 3 3 3 3 3 3 3 3 3 3 3 3 3 3 3 3 3 3 3 3 3 3 3 3 3 3 3 3 3 3 3 3 3 3 3 3 3 3 3 3 3 3 3 3 3 3 3</vcount><p>14 14 4 29 29 4 15 15 6 29 29 4 42 42 4 30 30 6 28 28 5 41 41 5 29 29 4 14 14 4 15 15 6 0 0 1 29 29 4 30 30 6 15 15 6 42 42 4 44 44 6 30 30 6 28 28 5 29 29 4 14 14 4 41 41 5 42 42 4 29 29 4 40 40 2 41 41 5 28 28 5 10 10 6 24 24 4 20 20 4 4 4 6 20 20 4 14 14 4 20 20 4 34 34 5 28 28 5 18 18 6 24 24 4 10 10 6 10 10 6 20 20 4 4 4 6 4 4 6 14 14 4 0 0 1 24 24 4 34 34 5 20 20 4 20 20 4 28 28 5 14 14 4 34 34 5 40 40 2 28 28 5 53 53 6 64 64 4 43 43 4 35 35 6 43 43 4 24 24 4 43 43 4 52 52 5 34 34 5 53 53 6 72 72 6 64 64 4 35 35 6 53 53 6 43 43 4 18 18 6 35 35 6 24 24 4 43 43 4 64 64 4 52 52 5 24 24 4 43 43 4 34 34 5 34 34 5 52 52 5 40 40 2 68 68 4 82 82 6 74 74 4 64 64 4 78 78 6 68 68 4 52 52 5 68 68 4 58 58 5 82 82 6 88 88 6 74 74 4 78 78 6 82 82 6 68 68 4 72 72 6 78 78 6 64 64 4 68 68 4 74 74 4 58 58 5 64 64 4 68 68 4 52 52 5 52 52 5 58 58 5 40 40 2 59 59 4 60 60 6 42 42 4 74 74 4 75 75 6 59 59 4 58 58 5 59 59 4 41 41 5 42 42 4 60 60 6 44 44 6 59 59 4 75 75 6 60 60 6 74 74 4 88 88 6 75 75 6 41 41 5 59 59 4 42 42 4 58 58 5 74 74 4 59 59 4 40 40 2 58 58 5 41 41 5 7 7 9 9 9 8 2 2 9 12 12 9 13 13 8 7 7 9 5 5 10 7 7 9 1 1 10 2 2 9 9 9 8 3 3 8 7 7 9 13 13 8 9 9 8 12 12 9 19 19 8 13 13 8 1 1 10 7 7 9 2 2 9 5 5 10 12 12 9 7 7 9 0 0 1 5 5 10 1 1 10 31 31 8 37 37 9 22 22 9 16 16 8 22 22 9 8 8 9 22 22 9 25 25 10 11 11 10 31 31 8 47 47 8 37 37 9 16 16 8 31 31 8 22 22 9 3 3 8 16 16 8 8 8 9 22 22 9 37 37 9 25 25 10 8 8 9 22 22 9 11 11 10 11 11 10 25 25 10 18 18 6 61 61 8 70 70 9 55 55 9 70 70 9 79 79 10 65 65 10 76 76 8 86 86 9 70 70 9 47 47 8 61 61 8 55 55 9 55 55 9 70 70 9 65 65 10 65 65 10 79 79 10 72 72 6 61 61 8 76 76 8 70 70 9 70 70 9 86 86 9 79 79 10 76 76 8 91 91 8 86 86 9 80 80 9 85 85 9 81 81 8 85 85 9 90 90 9 87 87 8 83 83 10 89 89 10 85 85 9 80 80 9 81 81 8 73 73 8 85 85 9 87 87 8 81 81 8 90 90 9 91 91 8 87 87 8 83 83 10 85 85 9 80 80 9 89 89 10 90 90 9 85 85 9 88 88 6 89 89 10 83 83 10 26 26 9 46 46 9 38 38 8 46 46 9 66 66 9 56 56 8 36 36 10 54 54 10 46 46 9 26 26 9 38 38 8 19 19 8 46 46 9 56 56 8 38 38 8 66 66 9 73 73 8 56 56 8 36 36 10 46 46 9 26 26 9 54 54 10 66 66 9 46 46 9 44 44 6 54 54 10 36 36 10 79 79 10 84 84 10 78 78 6 84 84 10 89 89 10 82 82 6 86 86 9 90 90 9 84 84 10 72 72 6 79 79 10 78 78 6 78 78 6 84 84 10 82 82 6 82 82 6 89 89 10 88 88 6 79 79 10 86 86 9 84 84 10 84 84 10 90 90 9 89 89 10 86 86 9 91 91 8 90 90 9 75 75 6 83 83 10 69 69 10 60 60 6 69 69 10 54 54 10 69 69 10 80 80 9 66 66 9 75 75 6 88 88 6 83 83 10 60 60 6 75 75 6 69 69 10 44 44 6 60 60 6 54 54 10 69 69 10 83 83 10 80 80 9 54 54 10 69 69 10 66 66 9 66 66 9 80 80 9 73 73 8 30 30 6 36 36 10 21 21 10 15 15 6 21 21 10 5 5 10 21 21 10 26 26 9 12 12 9 30 30 6 44 44 6 36 36 10 15 15 6 30 30 6 21 21 10 0 0 1 15 15 6 5 5 10 21 21 10 36 36 10 26 26 9 5 5 10 21 21 10 12 12 9 12 12 9 26 26 9 19 19 8 1 1 10 6 6 10 4 4 6 6 6 10 11 11 10 10 10 6 2 2 9 8 8 9 6 6 10 1 1 10 4 4 6 0 0 1 6 6 10 10 10 6 4 4 6 11 11 10 18 18 6 10 10 6 2 2 9 6 6 10 1 1 10 8 8 9 11 11 10 6 6 10 3 3 8 8 8 9 2 2 9 25 25 10 45 45 10 35 35 6 45 45 10 65 65 10 53 53 6 37 37 9 55 55 9 45 45 10 25 25 10 35 35 6 18 18 6 45 45 10 53 53 6 35 35 6 65 65 10 72 72 6 53 53 6 37 37 9 45 45 10 25 25 10 55 55 9 65 65 10 45 45 10 47 47 8 55 55 9 37 37 9 71 71 7 87 87 8 77 77 7 67 67 7 81 81 8 71 71 7 57 57 3 71 71 7 63 63 3 87 87 8 91 91 8 77 77 7 81 81 8 87 87 8 71 71 7 73 73 8 81 81 8 67 67 7 71 71 7 77 77 7 63 63 3 67 67 7 71 71 7 57 57 3 57 57 3 63 63 3 51 51 0 56 56 8 67 67 7 48 48 7 38 38 8 48 48 7 27 27 7 48 48 7 57 57 3 39 39 3 56 56 8 73 73 8 67 67 7 38 38 8 56 56 8 48 48 7 19 19 8 38 38 8 27 27 7 48 48 7 67 67 7 57 57 3 27 27 7 48 48 7 39 39 3 39 39 3 57 57 3 51 51 0 13 13 8 27 27 7 23 23 7 9 9 8 23 23 7 17 17 7 23 23 7 39 39 3 33 33 3 19 19 8 27 27 7 13 13 8 13 13 8 23 23 7 9 9 8 9 9 8 17 17 7 3 3 8 27 27 7 39 39 3 23 23 7 23 23 7 33 33 3 17 17 7 39 39 3 51 51 0 33 33 3 32 32 7 49 49 7 31 31 8 33 33 3 50 50 3 32 32 7 17 17 7 32 32 7 16 16 8 31 31 8 49 49 7 47 47 8 32 32 7 50 50 3 49 49 7 33 33 3 51 51 0 50 50 3 16 16 8 32 32 7 31 31 8 17 17 7 33 33 3 32 32 7 3 3 8 17 17 7 16 16 8 49 49 7 62 62 7 61 61 8 62 62 7 77 77 7 76 76 8 50 50 3 63 63 3 62 62 7 49 49 7 61 61 8 47 47 8 62 62 7 76 76 8 61 61 8 77 77 7 91 91 8 76 76 8 50 50 3 62 62 7 49 49 7 63 63 3 77 77 7 62 62 7 51 51 0 63 63 3 50 50 3</p></polylist></mesh></geometry></library_geometries>
<library_visual_scenes><visual_scene id="Scene" name="Scene"><node layer="L1" id="F3:GeoDome1-0L1" name="F3:GeoDome1-0"><translate sid="translate">0.00000 0.00000 0.00000</translate>
<rotate sid="rotateZ">0 0 1 0.00000</rotate><rotate sid="rotateY">0 1 0 0.00000</rotate><rotate sid="rotateX">1 0 0 0.00000</rotate><scale sid="scale">1.0000 1.0000 1.0000</scale><instance_geometry url="#F3:GeoDome1-0"><bind_material><technique_common><instance_material symbol="white" target="#white"><bind_vertex_input input_semantic="TEXCOORD" input_set="1" semantic="CHANNEL1"/></instance_material></technique_common></bind_material></instance_geometry></node></visual_scene></library_visual_scenes>
<scene><instance_visual_scene url="#Scene"/></scene>
</COLLADA>