<?xml version="1.0"?>
<COLLADA version="1.4.0" xmlns="http://www.collada.org/2005/11/COLLADASchema">
<asset>
<contributor>
<author>Wings3D Collada Exporter</author>
<authoring_tool>Wings3D 2.2.5 Collada Exporter</authoring_tool>
<comments/>
<copyright/>
<source_data/>
</contributor>
<created>2020-06-22T08:37:27</created>
<modified>2020-06-22T08:37:27</modified>
<unit meter="1.0" name="meter"/>
<up_axis>Y_UP</up_axis>
</asset>
<library_effects><effect id="white-fx" name="white-fx"><profile_COMMON><technique sid="wings3d"><phong><emission><color>0.000000 0.000000 0.000000 1.000000
</color></emission><ambient><color>0.000000 0.000000 0.000000 0.000000
</color></ambient><diffuse><color>1.000000 1.000000 1.000000 1.000000
</color></diffuse><specular><color>0.100000 0.100000 0.100000 1.000000
</color></specular><shininess><float>0.000000</float></shininess></phong></technique></profile_COMMON></effect></library_effects>

<library_materials><material id="white" name="white"><instance_effect url="#white-fx"/></material></library_materials>
<library_geometries><geometry name="F3:GeoDome1-0" id="F3:GeoDome1-0"><mesh><source id="F3:GeoDome1-0-Pos"><float_array id="F3:GeoDome1-0-Pos-array" count="276">-10.856429 -5.590170 -3.517359 -12.500000 -2.145491 -1.349952 -12.500000 2.145491 1.349952 -10.856429 5.590170 3.517359 -10.908475 -6.436474 0.834316 -10.908475 -2.145491 -6.234126 -11.922373 -2.344906 3.862712 -11.922373 2.344906 -3.862712 -10.908475 2.145491 6.234126 -10.908475 6.436474 -0.834316 -9.316950 -6.436474 5.718490 -9.316950 -2.145491 8.418395 -9.316950 2.145491 -8.418395 -9.316950 6.436474 -5.718490 -8.333333 -9.088447 -2.699905 -8.333333 -6.436474 -7.068442 -8.333333 6.436474 7.068442 -8.333333 9.088447 2.699905 -6.709642 -5.590170 9.208565 -6.709642 5.590170 -9.208565 -7.368432 -9.933181 2.387288 -7.368432 -2.344906 -10.112712 -7.368432 2.344906 10.112712 -7.368432 9.933181 -2.387288 -5.150283 -9.088447 7.068442 -5.150283 -2.145491 11.436980 -5.150283 2.145491 -11.436980 -5.150283 9.088447 -7.068442 -4.166667 -11.740420 -1.349952 -4.553941 -9.933181 -6.250000 -4.166667 -6.436474 -10.087027 -4.166667 6.436474 10.087027 -4.553941 9.933181 6.250000 -4.166667 11.740420 1.349952 -2.575142 -11.740420 3.534221 -2.575142 -6.436474 10.602663 -2.575142 -2.145491 -12.271296 -2.575142 2.145491 12.271296 -2.575142 6.436474 -10.602663 -2.575142 11.740420 -3.534221 0.000000 -12.500000 0.000000 0.000000 -11.740420 -4.368538 0.000000 -9.088447 -8.737075 0.000000 -9.933181 7.725425 0.000000 -5.590170 -11.382412 0.000000 -2.344906 12.500000 0.000000 2.344906 -12.500000 0.000000 5.590170 11.382412 0.000000 9.933181 -7.725425 0.000000 9.088447 8.737075 0.000000 11.740420 4.368538 0.000000 12.500000 0.000000 2.575142 -11.740420 3.534221 2.575142 -6.436474 10.602663 2.575142 -2.145491 -12.271296 2.575142 2.145491 12.271296 2.575142 6.436474 -10.602663 2.575142 11.740420 -3.534221 4.166667 -11.740420 -1.349952 4.553941 -9.933181 -6.250000 4.166667 -6.436474 -10.087027 4.166667 6.436474 10.087027 4.553941 9.933181 6.250000 4.166667 11.740420 1.349952 5.150283 -9.088447 7.068442 5.150283 -2.145491 11.436980 5.150283 2.145491 -11.436980 5.150283 9.088447 -7.068442 7.368432 -9.933181 2.387288 7.368432 -2.344906 -10.112712 7.368432 2.344906 10.112712 7.368432 9.933181 -2.387288 6.709642 -5.590170 9.208565 6.709642 5.590170 -9.208565 8.333333 -9.088447 -2.699905 8.333333 -6.436474 -7.068442 8.333333 6.436474 7.068442 8.333333 9.088447 2.699905 9.316950 -6.436474 5.718490 9.316950 -2.145491 8.418395 9.316950 2.145491 -8.418395 9.316950 6.436474 -5.718490 10.908475 -6.436474 0.834316 10.908475 -2.145491 -6.234126 11.922373 -2.344906 3.862712 11.922373 2.344906 -3.862712 10.908475 2.145491 6.234126 10.908475 6.436474 -0.834316 10.856429 -5.590170 -3.517359 12.500000 -2.145491 -1.349952 12.500000 2.145491 1.349952 10.856429 5.590170 3.517359</float_array><technique_common><accessor count="92" source="#F3:GeoDome1-0-Pos-array" stride="3"><param name="X" type="float"/><param name="Y" type="float"/><param name="Z" type="float"/></accessor></technique_common></source><source id="F3:GeoDome1-0-Normal"><float_array id="F3:GeoDome1-0-Normal-array" count="276">0.847055 0.454239 0.275980 0.980103 0.169620 0.103083 0.980103 -0.169620 -0.103083 0.847055 -0.454239 -0.275980 0.849329 0.522988 -0.071580 0.852809 0.169505 0.493948 0.933283 0.191123 -0.304065 0.933283 -0.191123 0.304065 0.852809 -0.169505 -0.493948 0.849329 -0.522988 0.071580 0.728700 0.522718 -0.442451 0.731650 0.169429 -0.660289 0.731650 -0.169429 0.660289 0.728700 -0.522718 0.442451 0.641621 0.737987 0.209040 0.644620 0.522558 0.558031 0.644620 -0.522558 -0.558031 0.641621 -0.737987 -0.209040 0.522872 0.453687 -0.721646 0.522872 -0.453687 0.721646 0.570135 0.800277 -0.185751 0.575958 0.190845 0.794890 0.575958 -0.190845 -0.794890 0.570135 -0.800277 0.185751 0.396274 0.737472 -0.546902 0.399771 0.169243 -0.900855 0.399771 -0.169243 0.900855 0.396274 -0.737472 0.546902 0.326336 0.939255 0.106321 0.352170 0.799840 0.486037 0.329792 0.522123 0.786528 0.329792 -0.522123 -0.786528 0.352170 -0.799840 -0.486037 0.326336 -0.939255 -0.106321 0.201653 0.939086 -0.278305 0.194200 0.522024 -0.830529 0.204588 0.169197 0.964114 0.204588 -0.169197 -0.964114 0.194200 -0.522024 0.830529 0.201653 -0.939086 0.278305 -0.000000 1.000000 -0.000000 0.000000 0.938981 0.343968 -0.000000 0.737154 0.675725 0.000000 0.799571 -0.600572 0.000000 0.453347 0.891334 0.000000 0.190674 -0.981653 0.000000 -0.190674 0.981653 0.000000 -0.453347 -0.891334 0.000000 -0.799571 0.600572 0.000000 -0.737154 -0.675725 -0.000000 -0.938981 -0.343968 0.000000 -1.000000 0.000000 -0.201653 0.939086 -0.278305 -0.194200 0.522024 -0.830529 -0.204588 0.169197 0.964114 -0.204588 -0.169197 -0.964114 -0.194200 -0.522024 0.830529 -0.201653 -0.939086 0.278305 -0.326336 0.939255 0.106321 -0.352170 0.799840 0.486037 -0.329792 0.522123 0.786528 -0.329792 -0.522123 -0.786528 -0.352170 -0.799840 -0.486037 -0.326336 -0.939255 -0.106321 -0.396274 0.737472 -0.546902 -0.399771 0.169243 -0.900855 -0.399771 -0.169243 0.900855 -0.396274 -0.737472 0.546902 -0.570135 0.800277 -0.185751 -0.575958 0.190845 0.794890 -0.575958 -0.190845 -0.794890 -0.570135 -0.800277 0.185751 -0.522872 0.453687 -0.721646 -0.522872 -0.453687 0.721646 -0.641621 0.737987 0.209040 -0.644620 0.522558 0.558031 -0.644620 -0.522558 -0.558031 -0.641621 -0.737987 -0.209040 -0.728700 0.522718 -0.442451 -0.731650 0.169429 -0.660289 -0.731650 -0.169429 0.660289 -0.728700 -0.522718 0.442451 -0.849329 0.522988 -0.071580 -0.852809 0.169505 0.493948 -0.933283 0.191123 -0.304065 -0.933283 -0.191123 0.304065 -0.852809 -0.169505 -0.493948 -0.849329 -0.522988 0.071580 -0.847055 0.454239 0.275980 -0.980103 0.169620 0.103083 -0.980103 -0.169620 -0.103083 -0.847055 -0.454239 -0.275980</float_array><technique_common><accessor count="92" source="#F3:GeoDome1-0-Normal-array" stride="3"><param name="X" type="float"/><param name="Y" type="float"/><param name="Z" type="float"/></accessor></technique_common></source><source id="F3:GeoDome1-0-VC"><float_array id="F3:GeoDome1-0-VC-array" count="33">0.278431 0.168627 0.400000 0.294118 0.180392 0.407843 0.380392 0.239216 0.478431 0.517647 0.333333 0.498039 0.768627 0.470588 0.470588 0.788235 0.274510 0.164706 0.901961 0.552941 0.490196 0.933333 0.356863 0.188235 1.000000 0.509804 0.298039 1.000000 1.000000 1.000000 1.000000 1.000000 1.000000</float_array><technique_common><accessor count="11" source="#F3:GeoDome1-0-VC-array" stride="3"><param name="R" type="float"/><param name="B" type="float"/><param name="G" type="float"/></accessor></technique_common></source><vertices id="F3:GeoDome1-0-Vtx"><input semantic="POSITION" source="#F3:GeoDome1-0-Pos"/></vertices><polylist count="180" material="white"><input offset="0" semantic="VERTEX" source="#F3:GeoDome1-0-Vtx"/><input offset="1" semantic="NORMAL" source="#F3:GeoDome1-0-Normal"/><input offset="2" semantic="COLOR" source="#F3:GeoDome1-0-VC"/><vcount>3 3 3 3 3 3 3 3 3 3 3 3 3 3 3 3 3 3 3 3 3 3 3 3 3 3 3 3 3 3 3 3 3 3 3 3 3 3 3 3 3 3 3 3 3 3 3 3 3 3 3 3 3 3 3 3 3 3 3 3 3 3 3 3 3 3 3 3 3 3 3 3 3 3 3 3 3 3 3 3 3 3 3 3 3 3 3 3 3 3 3 3 3 3 3 3 3 3 3 3 3 3 3 3 3 3 3 3 3 3 3 3 3 3 3 3 3 3 3 3 3 3 3 3 3 3 3 3 3 3 3 3 3 3 3 3 3 3 3 3 3 3 3 3 3 3 3 3 3 3 3 3 3 3 3 3 3 3 3 3 3 3 3 3 3 3 3 3 3 3 3 3 3 3 3 3 3 3 3 3</vcount><p>14 14 7 29 29 7 15 15 8 29 29 7 42 42 7 30 30 8 28 28 5 41 41 5 29 29 7 14 14 7 15 15 8 0 0 8 29 29 7 30 30 8 15 15 8 42 42 7 44 44 8 30 30 8 28 28 5 29 29 7 14 14 7 41 41 5 42 42 7 29 29 7 40 40 5 41 41 5 28 28 5 10 10 8 24 24 7 20 20 7 4 4 8 20 20 7 14 14 7 20 20 7 34 34 5 28 28 5 18 18 8 24 24 7 10 10 8 10 10 8 20 20 7 4 4 8 4 4 8 14 14 7 0 0 8 24 24 7 34 34 5 20 20 7 20 20 7 28 28 5 14 14 7 34 34 5 40 40 5 28 28 5 53 53 8 64 64 7 43 43 7 35 35 8 43 43 7 24 24 7 43 43 7 52 52 5 34 34 5 53 53 8 72 72 8 64 64 7 35 35 8 53 53 8 43 43 7 18 18 8 35 35 8 24 24 7 43 43 7 64 64 7 52 52 5 24 24 7 43 43 7 34 34 5 34 34 5 52 52 5 40 40 5 68 68 7 82 82 8 74 74 7 64 64 7 78 78 8 68 68 7 52 52 5 68 68 7 58 58 5 82 82 8 88 88 8 74 74 7 78 78 8 82 82 8 68 68 7 72 72 8 78 78 8 64 64 7 68 68 7 74 74 7 58 58 5 64 64 7 68 68 7 52 52 5 52 52 5 58 58 5 40 40 5 59 59 7 60 60 8 42 42 7 74 74 7 75 75 8 59 59 7 58 58 5 59 59 7 41 41 5 42 42 7 60 60 8 44 44 8 59 59 7 75 75 8 60 60 8 74 74 7 88 88 8 75 75 8 41 41 5 59 59 7 42 42 7 58 58 5 74 74 7 59 59 7 40 40 5 58 58 5 41 41 5 7 7 4 9 9 3 2 2 4 12 12 4 13 13 3 7 7 4 5 5 6 7 7 4 1 1 6 2 2 4 9 9 3 3 3 3 7 7 4 13 13 3 9 9 3 12 12 4 19 19 3 13 13 3 1 1 6 7 7 4 2 2 4 5 5 6 12 12 4 7 7 4 0 0 8 5 5 6 1 1 6 31 31 3 37 37 4 22 22 4 16 16 3 22 22 4 8 8 4 22 22 4 25 25 6 11 11 6 31 31 3 47 47 3 37 37 4 16 16 3 31 31 3 22 22 4 3 3 3 16 16 3 8 8 4 22 22 4 37 37 4 25 25 6 8 8 4 22 22 4 11 11 6 11 11 6 25 25 6 18 18 8 61 61 3 70 70 4 55 55 4 70 70 4 79 79 6 65 65 6 76 76 3 86 86 4 70 70 4 47 47 3 61 61 3 55 55 4 55 55 4 70 70 4 65 65 6 65 65 6 79 79 6 72 72 8 61 61 3 76 76 3 70 70 4 70 70 4 86 86 4 79 79 6 76 76 3 91 91 3 86 86 4 80 80 4 85 85 4 81 81 3 85 85 4 90 90 4 87 87 3 83 83 6 89 89 6 85 85 4 80 80 4 81 81 3 73 73 3 85 85 4 87 87 3 81 81 3 90 90 4 91 91 3 87 87 3 83 83 6 85 85 4 80 80 4 89 89 6 90 90 4 85 85 4 88 88 8 89 89 6 83 83 6 26 26 4 46 46 4 38 38 3 46 46 4 66 66 4 56 56 3 36 36 6 54 54 6 46 46 4 26 26 4 38 38 3 19 19 3 46 46 4 56 56 3 38 38 3 66 66 4 73 73 3 56 56 3 36 36 6 46 46 4 26 26 4 54 54 6 66 66 4 46 46 4 44 44 8 54 54 6 36 36 6 79 79 6 84 84 6 78 78 8 84 84 6 89 89 6 82 82 8 86 86 4 90 90 4 84 84 6 72 72 8 79 79 6 78 78 8 78 78 8 84 84 6 82 82 8 82 82 8 89 89 6 88 88 8 79 79 6 86 86 4 84 84 6 84 84 6 90 90 4 89 89 6 86 86 4 91 91 3 90 90 4 75 75 8 83 83 6 69 69 6 60 60 8 69 69 6 54 54 6 69 69 6 80 80 4 66 66 4 75 75 8 88 88 8 83 83 6 60 60 8 75 75 8 69 69 6 44 44 8 60 60 8 54 54 6 69 69 6 83 83 6 80 80 4 54 54 6 69 69 6 66 66 4 66 66 4 80 80 4 73 73 3 30 30 8 36 36 6 21 21 6 15 15 8 21 21 6 5 5 6 21 21 6 26 26 4 12 12 4 30 30 8 44 44 8 36 36 6 15 15 8 30 30 8 21 21 6 0 0 8 15 15 8 5 5 6 21 21 6 36 36 6 26 26 4 5 5 6 21 21 6 12 12 4 12 12 4 26 26 4 19 19 3 1 1 6 6 6 6 4 4 8 6 6 6 11 11 6 10 10 8 2 2 4 8 8 4 6 6 6 1 1 6 4 4 8 0 0 8 6 6 6 10 10 8 4 4 8 11 11 6 18 18 8 10 10 8 2 2 4 6 6 6 1 1 6 8 8 4 11 11 6 6 6 6 3 3 3 8 8 4 2 2 4 25 25 6 45 45 6 35 35 8 45 45 6 65 65 6 53 53 8 37 37 4 55 55 4 45 45 6 25 25 6 35 35 8 18 18 8 45 45 6 53 53 8 35 35 8 65 65 6 72 72 8 53 53 8 37 37 4 45 45 6 25 25 6 55 55 4 65 65 6 45 45 6 47 47 3 55 55 4 37 37 4 71 71 2 87 87 3 77 77 2 67 67 2 81 81 3 71 71 2 57 57 0 71 71 2 63 63 0 87 87 3 91 91 3 77 77 2 81 81 3 87 87 3 71 71 2 73 73 3 81 81 3 67 67 2 71 71 2 77 77 2 63 63 0 67 67 2 71 71 2 57 57 0 57 57 0 63 63 0 51 51 1 56 56 3 67 67 2 48 48 2 38 38 3 48 48 2 27 27 2 48 48 2 57 57 0 39 39 0 56 56 3 73 73 3 67 67 2 38 38 3 56 56 3 48 48 2 19 19 3 38 38 3 27 27 2 48 48 2 67 67 2 57 57 0 27 27 2 48 48 2 39 39 0 39 39 0 57 57 0 51 51 1 13 13 3 27 27 2 23 23 2 9 9 3 23 23 2 17 17 2 23 23 2 39 39 0 33 33 0 19 19 3 27 27 2 13 13 3 13 13 3 23 23 2 9 9 3 9 9 3 17 17 2 3 3 3 27 27 2 39 39 0 23 23 2 23 23 2 33 33 0 17 17 2 39 39 0 51 51 1 33 33 0 32 32 2 49 49 2 31 31 3 33 33 0 50 50 0 32 32 2 17 17 2 32 32 2 16 16 3 31 31 3 49 49 2 47 47 3 32 32 2 50 50 0 49 49 2 33 33 0 51 51 1 50 50 0 16 16 3 32 32 2 31 31 3 17 17 2 33 33 0 32 32 2 3 3 3 17 17 2 16 16 3 49 49 2 62 62 2 61 61 3 62 62 2 77 77 2 76 76 3 50 50 0 63 63 0 62 62 2 49 49 2 61 61 3 47 47 3 62 62 2 76 76 3 61 61 3 77 77 2 91 91 3 76 76 3 50 50 0 62 62 2 49 49 2 63 63 0 77 77 2 62 62 2 51 51 1 63 63 0 50 50 0</p></polylist></mesh></geometry></library_geometries>
<library_visual_scenes><visual_scene id="Scene" name="Scene"><node layer="L1" id="F3:GeoDome1-0L1" name="F3:GeoDome1-0"><translate sid="translate">0.00000 0.00000 0.00000</translate>
<rotate sid="rotateZ">0 0 1 0.00000</rotate><rotate sid="rotateY">0 1 0 0.00000</rotate><rotate sid="rotateX">1 0 0 0.00000</rotate><scale sid="scale">1.0000 1.0000 1.0000</scale><instance_geometry url="#F3:GeoDome1-0"><bind_material><technique_common><instance_material symbol="white" target="#white"><bind_vertex_input input_semantic="TEXCOORD" input_set="1" semantic="CHANNEL1"/></instance_material></technique_common></bind_material></instance_geometry></node></visual_scene></library_visual_scenes>
<scene><instance_visual_scene url="#Scene"/></scene>
</COLLADA>