<?xml version="1.0"?>
<COLLADA version="1.4.0" xmlns="http://www.collada.org/2005/11/COLLADASchema">
<asset>
<contributor>
<author>Wings3D Collada Exporter</author>
<authoring_tool>Wings3D 2.2.5 Collada Exporter</authoring_tool>
<comments/>
<copyright/>
<source_data/>
</contributor>
<created>2020-06-22T12:12:20</created>
<modified>2020-06-22T12:12:20</modified>
<unit meter="1.0" name="meter"/>
<up_axis>Y_UP</up_axis>
</asset>
<library_effects><effect id="white-fx" name="white-fx"><profile_COMMON><technique sid="wings3d"><phong><emission><color>0.000000 0.000000 0.000000 1.000000
</color></emission><ambient><color>0.000000 0.000000 0.000000 0.000000
</color></ambient><diffuse><color>1.000000 1.000000 1.000000 1.000000
</color></diffuse><specular><color>0.100000 0.100000 0.100000 1.000000
</color></specular><shininess><float>0.000000</float></shininess></phong></technique></profile_COMMON></effect></library_effects>

<library_materials><material id="white" name="white"><instance_effect url="#white-fx"/></material></library_materials>
<library_geometries><geometry name="F3:GeoDome1-0" id="F3:GeoDome1-0"><mesh><source id="F3:GeoDome1-0-Pos"><float_array id="F3:GeoDome1-0-Pos-array" count="276">-10.856429 -5.590170 -3.517359 -12.500000 -2.145491 -1.349952 -12.500000 2.145491 1.349952 -10.856429 5.590170 3.517359 -10.908475 -6.436474 0.834316 -10.908475 -2.145491 -6.234126 -11.922373 -2.344906 3.862712 -11.922373 2.344906 -3.862712 -10.908475 2.145491 6.234126 -10.908475 6.436474 -0.834316 -9.316950 -6.436474 5.718490 -9.316950 -2.145491 8.418395 -9.316950 2.145491 -8.418395 -9.316950 6.436474 -5.718490 -8.333333 -9.088447 -2.699905 -8.333333 -6.436474 -7.068442 -8.333333 6.436474 7.068442 -8.333333 9.088447 2.699905 -6.709642 -5.590170 9.208565 -6.709642 5.590170 -9.208565 -7.368432 -9.933181 2.387288 -7.368432 -2.344906 -10.112712 -7.368432 2.344906 10.112712 -7.368432 9.933181 -2.387288 -5.150283 -9.088447 7.068442 -5.150283 -2.145491 11.436980 -5.150283 2.145491 -11.436980 -5.150283 9.088447 -7.068442 -4.166667 -11.740420 -1.349952 -4.553941 -9.933181 -6.250000 -4.166667 -6.436474 -10.087027 -4.166667 6.436474 10.087027 -4.553941 9.933181 6.250000 -4.166667 11.740420 1.349952 -2.575142 -11.740420 3.534221 -2.575142 -6.436474 10.602663 -2.575142 -2.145491 -12.271296 -2.575142 2.145491 12.271296 -2.575142 6.436474 -10.602663 -2.575142 11.740420 -3.534221 0.000000 -12.500000 0.000000 0.000000 -11.740420 -4.368538 0.000000 -9.088447 -8.737075 0.000000 -9.933181 7.725425 0.000000 -5.590170 -11.382412 0.000000 -2.344906 12.500000 0.000000 2.344906 -12.500000 0.000000 5.590170 11.382412 0.000000 9.933181 -7.725425 0.000000 9.088447 8.737075 0.000000 11.740420 4.368538 0.000000 12.500000 0.000000 2.575142 -11.740420 3.534221 2.575142 -6.436474 10.602663 2.575142 -2.145491 -12.271296 2.575142 2.145491 12.271296 2.575142 6.436474 -10.602663 2.575142 11.740420 -3.534221 4.166667 -11.740420 -1.349952 4.553941 -9.933181 -6.250000 4.166667 -6.436474 -10.087027 4.166667 6.436474 10.087027 4.553941 9.933181 6.250000 4.166667 11.740420 1.349952 5.150283 -9.088447 7.068442 5.150283 -2.145491 11.436980 5.150283 2.145491 -11.436980 5.150283 9.088447 -7.068442 7.368432 -9.933181 2.387288 7.368432 -2.344906 -10.112712 7.368432 2.344906 10.112712 7.368432 9.933181 -2.387288 6.709642 -5.590170 9.208565 6.709642 5.590170 -9.208565 8.333333 -9.088447 -2.699905 8.333333 -6.436474 -7.068442 8.333333 6.436474 7.068442 8.333333 9.088447 2.699905 9.316950 -6.436474 5.718490 9.316950 -2.145491 8.418395 9.316950 2.145491 -8.418395 9.316950 6.436474 -5.718490 10.908475 -6.436474 0.834316 10.908475 -2.145491 -6.234126 11.922373 -2.344906 3.862712 11.922373 2.344906 -3.862712 10.908475 2.145491 6.234126 10.908475 6.436474 -0.834316 10.856429 -5.590170 -3.517359 12.500000 -2.145491 -1.349952 12.500000 2.145491 1.349952 10.856429 5.590170 3.517359</float_array><technique_common><accessor count="92" source="#F3:GeoDome1-0-Pos-array" stride="3"><param name="X" type="float"/><param name="Y" type="float"/><param name="Z" type="float"/></accessor></technique_common></source><source id="F3:GeoDome1-0-Normal"><float_array id="F3:GeoDome1-0-Normal-array" count="276">0.847055 0.454239 0.275980 0.980103 0.169620 0.103083 0.980103 -0.169620 -0.103083 0.847055 -0.454239 -0.275980 0.849329 0.522988 -0.071580 0.852809 0.169505 0.493948 0.933283 0.191123 -0.304065 0.933283 -0.191123 0.304065 0.852809 -0.169505 -0.493948 0.849329 -0.522988 0.071580 0.728700 0.522718 -0.442451 0.731650 0.169429 -0.660289 0.731650 -0.169429 0.660289 0.728700 -0.522718 0.442451 0.641621 0.737987 0.209040 0.644620 0.522558 0.558031 0.644620 -0.522558 -0.558031 0.641621 -0.737987 -0.209040 0.522872 0.453687 -0.721646 0.522872 -0.453687 0.721646 0.570135 0.800277 -0.185751 0.575958 0.190845 0.794890 0.575958 -0.190845 -0.794890 0.570135 -0.800277 0.185751 0.396274 0.737472 -0.546902 0.399771 0.169243 -0.900855 0.399771 -0.169243 0.900855 0.396274 -0.737472 0.546902 0.326336 0.939255 0.106321 0.352170 0.799840 0.486037 0.329792 0.522123 0.786528 0.329792 -0.522123 -0.786528 0.352170 -0.799840 -0.486037 0.326336 -0.939255 -0.106321 0.201653 0.939086 -0.278305 0.194200 0.522024 -0.830529 0.204588 0.169197 0.964114 0.204588 -0.169197 -0.964114 0.194200 -0.522024 0.830529 0.201653 -0.939086 0.278305 -0.000000 1.000000 -0.000000 0.000000 0.938981 0.343968 -0.000000 0.737154 0.675725 0.000000 0.799571 -0.600572 0.000000 0.453347 0.891334 0.000000 0.190674 -0.981653 0.000000 -0.190674 0.981653 0.000000 -0.453347 -0.891334 0.000000 -0.799571 0.600572 0.000000 -0.737154 -0.675725 -0.000000 -0.938981 -0.343968 0.000000 -1.000000 0.000000 -0.201653 0.939086 -0.278305 -0.194200 0.522024 -0.830529 -0.204588 0.169197 0.964114 -0.204588 -0.169197 -0.964114 -0.194200 -0.522024 0.830529 -0.201653 -0.939086 0.278305 -0.326336 0.939255 0.106321 -0.352170 0.799840 0.486037 -0.329792 0.522123 0.786528 -0.329792 -0.522123 -0.786528 -0.352170 -0.799840 -0.486037 -0.326336 -0.939255 -0.106321 -0.396274 0.737472 -0.546902 -0.399771 0.169243 -0.900855 -0.399771 -0.169243 0.900855 -0.396274 -0.737472 0.546902 -0.570135 0.800277 -0.185751 -0.575958 0.190845 0.794890 -0.575958 -0.190845 -0.794890 -0.570135 -0.800277 0.185751 -0.522872 0.453687 -0.721646 -0.522872 -0.453687 0.721646 -0.641621 0.737987 0.209040 -0.644620 0.522558 0.558031 -0.644620 -0.522558 -0.558031 -0.641621 -0.737987 -0.209040 -0.728700 0.522718 -0.442451 -0.731650 0.169429 -0.660289 -0.731650 -0.169429 0.660289 -0.728700 -0.522718 0.442451 -0.849329 0.522988 -0.071580 -0.852809 0.169505 0.493948 -0.933283 0.191123 -0.304065 -0.933283 -0.191123 0.304065 -0.852809 -0.169505 -0.493948 -0.849329 -0.522988 0.071580 -0.847055 0.454239 0.275980 -0.980103 0.169620 0.103083 -0.980103 -0.169620 -0.103083 -0.847055 -0.454239 -0.275980</float_array><technique_common><accessor count="92" source="#F3:GeoDome1-0-Normal-array" stride="3"><param name="X" type="float"/><param name="Y" type="float"/><param name="Z" type="float"/></accessor></technique_common></source><source id="F3:GeoDome1-0-VC"><float_array id="F3:GeoDome1-0-VC-array" count="36">0.000000 0.556863 0.745098 0.066667 0.121569 0.258824 0.090196 0.168627 0.313726 0.137255 0.203922 0.372549 0.156863 0.321569 0.509804 0.309804 0.737255 0.819608 0.529412 0.341176 0.294118 0.713726 0.474510 0.360784 0.850980 0.686275 0.529412 0.866667 0.784314 0.662745 1.000000 1.000000 1.000000 1.000000 1.000000 1.000000</float_array><technique_common><accessor count="12" source="#F3:GeoDome1-0-VC-array" stride="3"><param name="R" type="float"/><param name="B" type="float"/><param name="G" type="float"/></accessor></technique_common></source><vertices id="F3:GeoDome1-0-Vtx"><input semantic="POSITION" source="#F3:GeoDome1-0-Pos"/></vertices><polylist count="180" material="white"><input offset="0" semantic="VERTEX" source="#F3:GeoDome1-0-Vtx"/><input offset="1" semantic="NORMAL" source="#F3:GeoDome1-0-Normal"/><input offset="2" semantic="COLOR" source="#F3:GeoDome1-0-VC"/><vcount>3 3 3 3 3 3 3 3 3 3 3 3 3 3 3 3 3 3 3 3 3 3 3 3 3 3 3 3 3 3 3 3 3 3 3 3 3 3 3 3 3 3 3 3 3 3 3 3 3 3 3 3 3 3 3 3 3 3 3 3 3 3 3 3 3 3 3 3 3 3 3 3 3 3 3 3 3 3 3 3 3 3 3 3 3 3 3 3 3 3 3 3 3 3 3 3 3 3 3 3 3 3 3 3 3 3 3 3 3 3 3 3 3 3 3 3 3 3 3 3 3 3 3 3 3 3 3 3 3 3 3 3 3 3 3 3 3 3 3 3 3 3 3 3 3 3 3 3 3 3 3 3 3 3 3 3 3 3 3 3 3 3 3 3 3 3 3 3 3 3 3 3 3 3 3 3 3 3 3 3</vcount><p>14 14 8 29 29 8 15 15 9 29 29 8 42 42 8 30 30 9 28 28 7 41 41 7 29 29 8 14 14 8 15 15 9 0 0 9 29 29 8 30 30 9 15 15 9 42 42 8 44 44 9 30 30 9 28 28 7 29 29 8 14 14 8 41 41 7 42 42 8 29 29 8 40 40 6 41 41 7 28 28 7 10 10 9 24 24 8 20 20 8 4 4 9 20 20 8 14 14 8 20 20 8 34 34 7 28 28 7 18 18 9 24 24 8 10 10 9 10 10 9 20 20 8 4 4 9 4 4 9 14 14 8 0 0 9 24 24 8 34 34 7 20 20 8 20 20 8 28 28 7 14 14 8 34 34 7 40 40 6 28 28 7 53 53 9 64 64 8 43 43 8 35 35 9 43 43 8 24 24 8 43 43 8 52 52 7 34 34 7 53 53 9 72 72 9 64 64 8 35 35 9 53 53 9 43 43 8 18 18 9 35 35 9 24 24 8 43 43 8 64 64 8 52 52 7 24 24 8 43 43 8 34 34 7 34 34 7 52 52 7 40 40 6 68 68 8 82 82 9 74 74 8 64 64 8 78 78 9 68 68 8 52 52 7 68 68 8 58 58 7 82 82 9 88 88 9 74 74 8 78 78 9 82 82 9 68 68 8 72 72 9 78 78 9 64 64 8 68 68 8 74 74 8 58 58 7 64 64 8 68 68 8 52 52 7 52 52 7 58 58 7 40 40 6 59 59 8 60 60 9 42 42 8 74 74 8 75 75 9 59 59 8 58 58 7 59 59 8 41 41 7 42 42 8 60 60 9 44 44 9 59 59 8 75 75 9 60 60 9 74 74 8 88 88 9 75 75 9 41 41 7 59 59 8 42 42 8 58 58 7 74 74 8 59 59 8 40 40 6 58 58 7 41 41 7 7 7 0 9 9 4 2 2 0 12 12 0 13 13 4 7 7 0 5 5 5 7 7 0 1 1 5 2 2 0 9 9 4 3 3 4 7 7 0 13 13 4 9 9 4 12 12 0 19 19 4 13 13 4 1 1 5 7 7 0 2 2 0 5 5 5 12 12 0 7 7 0 0 0 9 5 5 5 1 1 5 31 31 4 37 37 0 22 22 0 16 16 4 22 22 0 8 8 0 22 22 0 25 25 5 11 11 5 31 31 4 47 47 4 37 37 0 16 16 4 31 31 4 22 22 0 3 3 4 16 16 4 8 8 0 22 22 0 37 37 0 25 25 5 8 8 0 22 22 0 11 11 5 11 11 5 25 25 5 18 18 9 61 61 4 70 70 0 55 55 0 70 70 0 79 79 5 65 65 5 76 76 4 86 86 0 70 70 0 47 47 4 61 61 4 55 55 0 55 55 0 70 70 0 65 65 5 65 65 5 79 79 5 72 72 9 61 61 4 76 76 4 70 70 0 70 70 0 86 86 0 79 79 5 76 76 4 91 91 4 86 86 0 80 80 0 85 85 0 81 81 4 85 85 0 90 90 0 87 87 4 83 83 5 89 89 5 85 85 0 80 80 0 81 81 4 73 73 4 85 85 0 87 87 4 81 81 4 90 90 0 91 91 4 87 87 4 83 83 5 85 85 0 80 80 0 89 89 5 90 90 0 85 85 0 88 88 9 89 89 5 83 83 5 26 26 0 46 46 0 38 38 4 46 46 0 66 66 0 56 56 4 36 36 5 54 54 5 46 46 0 26 26 0 38 38 4 19 19 4 46 46 0 56 56 4 38 38 4 66 66 0 73 73 4 56 56 4 36 36 5 46 46 0 26 26 0 54 54 5 66 66 0 46 46 0 44 44 9 54 54 5 36 36 5 79 79 5 84 84 5 78 78 9 84 84 5 89 89 5 82 82 9 86 86 0 90 90 0 84 84 5 72 72 9 79 79 5 78 78 9 78 78 9 84 84 5 82 82 9 82 82 9 89 89 5 88 88 9 79 79 5 86 86 0 84 84 5 84 84 5 90 90 0 89 89 5 86 86 0 91 91 4 90 90 0 75 75 9 83 83 5 69 69 5 60 60 9 69 69 5 54 54 5 69 69 5 80 80 0 66 66 0 75 75 9 88 88 9 83 83 5 60 60 9 75 75 9 69 69 5 44 44 9 60 60 9 54 54 5 69 69 5 83 83 5 80 80 0 54 54 5 69 69 5 66 66 0 66 66 0 80 80 0 73 73 4 30 30 9 36 36 5 21 21 5 15 15 9 21 21 5 5 5 5 21 21 5 26 26 0 12 12 0 30 30 9 44 44 9 36 36 5 15 15 9 30 30 9 21 21 5 0 0 9 15 15 9 5 5 5 21 21 5 36 36 5 26 26 0 5 5 5 21 21 5 12 12 0 12 12 0 26 26 0 19 19 4 1 1 5 6 6 5 4 4 9 6 6 5 11 11 5 10 10 9 2 2 0 8 8 0 6 6 5 1 1 5 4 4 9 0 0 9 6 6 5 10 10 9 4 4 9 11 11 5 18 18 9 10 10 9 2 2 0 6 6 5 1 1 5 8 8 0 11 11 5 6 6 5 3 3 4 8 8 0 2 2 0 25 25 5 45 45 5 35 35 9 45 45 5 65 65 5 53 53 9 37 37 0 55 55 0 45 45 5 25 25 5 35 35 9 18 18 9 45 45 5 53 53 9 35 35 9 65 65 5 72 72 9 53 53 9 37 37 0 45 45 5 25 25 5 55 55 0 65 65 5 45 45 5 47 47 4 55 55 0 37 37 0 71 71 3 87 87 4 77 77 3 67 67 3 81 81 4 71 71 3 57 57 2 71 71 3 63 63 2 87 87 4 91 91 4 77 77 3 81 81 4 87 87 4 71 71 3 73 73 4 81 81 4 67 67 3 71 71 3 77 77 3 63 63 2 67 67 3 71 71 3 57 57 2 57 57 2 63 63 2 51 51 1 56 56 4 67 67 3 48 48 3 38 38 4 48 48 3 27 27 3 48 48 3 57 57 2 39 39 2 56 56 4 73 73 4 67 67 3 38 38 4 56 56 4 48 48 3 19 19 4 38 38 4 27 27 3 48 48 3 67 67 3 57 57 2 27 27 3 48 48 3 39 39 2 39 39 2 57 57 2 51 51 1 13 13 4 27 27 3 23 23 3 9 9 4 23 23 3 17 17 3 23 23 3 39 39 2 33 33 2 19 19 4 27 27 3 13 13 4 13 13 4 23 23 3 9 9 4 9 9 4 17 17 3 3 3 4 27 27 3 39 39 2 23 23 3 23 23 3 33 33 2 17 17 3 39 39 2 51 51 1 33 33 2 32 32 3 49 49 3 31 31 4 33 33 2 50 50 2 32 32 3 17 17 3 32 32 3 16 16 4 31 31 4 49 49 3 47 47 4 32 32 3 50 50 2 49 49 3 33 33 2 51 51 1 50 50 2 16 16 4 32 32 3 31 31 4 17 17 3 33 33 2 32 32 3 3 3 4 17 17 3 16 16 4 49 49 3 62 62 3 61 61 4 62 62 3 77 77 3 76 76 4 50 50 2 63 63 2 62 62 3 49 49 3 61 61 4 47 47 4 62 62 3 76 76 4 61 61 4 77 77 3 91 91 4 76 76 4 50 50 2 62 62 3 49 49 3 63 63 2 77 77 3 62 62 3 51 51 1 63 63 2 50 50 2</p></polylist></mesh></geometry></library_geometries>
<library_visual_scenes><visual_scene id="Scene" name="Scene"><node layer="L1" id="F3:GeoDome1-0L1" name="F3:GeoDome1-0"><translate sid="translate">0.00000 0.00000 0.00000</translate>
<rotate sid="rotateZ">0 0 1 0.00000</rotate><rotate sid="rotateY">0 1 0 0.00000</rotate><rotate sid="rotateX">1 0 0 0.00000</rotate><scale sid="scale">1.0000 1.0000 1.0000</scale><instance_geometry url="#F3:GeoDome1-0"><bind_material><technique_common><instance_material symbol="white" target="#white"><bind_vertex_input input_semantic="TEXCOORD" input_set="1" semantic="CHANNEL1"/></instance_material></technique_common></bind_material></instance_geometry></node></visual_scene></library_visual_scenes>
<scene><instance_visual_scene url="#Scene"/></scene>
</COLLADA>