# Blender v3.4.1 OBJ File: '2018CastleRematerialBlend2.blend'
# www.blender.org
mtllib Castle.mtl
o Castle
v -37.514431 31.523067 11.336659
v -38.271984 31.523067 15.145123
v -40.429298 31.523067 18.373779
v -43.657970 31.523067 20.531107
v -47.466434 31.523067 21.288660
v -51.274899 31.523067 20.531107
v -54.503551 31.523067 18.373779
v -56.660881 31.523067 15.145123
v -57.418434 31.523067 11.336659
v -56.660881 31.523067 7.528196
v -54.503551 31.523067 4.299524
v -51.274899 31.523069 2.142212
v -47.466434 31.523069 1.384661
v -43.657970 31.523069 2.142212
v -40.429298 31.523067 4.299524
v -38.271984 31.523067 7.528196
v -38.271984 -0.000004 15.145123
v -40.429298 -0.000004 18.373779
v -43.657970 -0.000004 20.531105
v -47.466434 -0.000004 21.288658
v -51.274899 -0.000004 20.531105
v -54.503551 -0.000004 18.373779
v -56.660881 -0.000004 15.145123
v -57.418434 -0.000004 11.336658
v -56.660881 -0.000004 7.528194
v -54.503551 -0.000003 4.299522
v -51.274899 -0.000003 2.142210
v -47.466434 -0.000003 1.384659
v -37.573200 33.449245 15.434565
v -36.758080 33.449245 11.336660
v -37.573200 33.449245 7.238741
v -39.894482 33.449245 3.764708
v -43.368511 33.449245 1.443428
v -47.466434 33.449245 0.628307
v -51.564339 33.449245 1.443428
v -55.038383 33.449245 3.764708
v -57.359650 33.449245 7.238741
v -58.174786 33.449245 11.336660
v -57.359650 33.449245 15.434565
v -55.038383 33.449245 18.908611
v -51.564339 33.449245 21.229876
v -47.466434 33.449245 22.045012
v -43.368511 33.449245 21.229876
v -39.894482 33.449245 18.908611
v -37.573200 36.388729 15.434565
v -36.758080 36.388729 11.336660
v -37.573200 36.388729 7.238741
v -39.894482 36.388729 3.764708
v -43.368511 36.388729 1.443428
v -47.466434 36.388729 0.628307
v -51.564339 36.388729 1.443428
v -55.038383 36.388729 3.764708
v -57.359650 36.388729 7.238741
v -58.174786 36.388729 11.336660
v -57.359650 36.388729 15.434565
v -55.038383 36.388729 18.908611
v -51.564339 36.388729 21.229876
v -47.466434 36.388729 22.045012
v -43.368511 36.388729 21.229876
v -39.894482 36.388729 18.908611
v -39.215473 36.388729 14.754309
v -38.535664 36.388729 11.336660
v -39.215473 36.388729 7.918997
v -41.151424 36.388729 5.021652
v -44.048767 36.388729 3.085699
v -47.466434 36.388729 2.405891
v -50.884079 36.388729 3.085699
v -53.781441 36.388729 5.021652
v -55.717377 36.388729 7.918997
v -56.397202 36.388729 11.336660
v -55.717377 36.388729 14.754309
v -53.781441 36.388729 17.651667
v -50.884079 36.388729 19.587603
v -47.466434 36.388729 20.267427
v -44.048767 36.388729 19.587603
v -41.151424 36.388729 17.651667
v -41.151424 38.817371 17.651669
v -44.048767 38.817371 19.587605
v -43.368511 38.817371 21.229876
v -39.894482 38.817371 18.908611
v -47.466434 38.817371 20.267427
v -50.884079 38.817371 19.587605
v -51.564339 38.817371 21.229876
v -47.466434 38.817371 22.045012
v -53.781441 38.817371 17.651669
v -55.717377 38.817371 14.754309
v -57.359650 38.817371 15.434565
v -55.038383 38.817371 18.908611
v -56.397202 38.817371 11.336660
v -55.717377 38.817371 7.918997
v -57.359650 38.817371 7.238741
v -58.174786 38.817371 11.336660
v -53.781441 38.817371 5.021652
v -50.884079 38.817371 3.085699
v -51.564339 38.817371 1.443428
v -55.038383 38.817371 3.764708
v -47.466434 38.817371 2.405891
v -44.048767 38.817371 3.085699
v -43.368511 38.817371 1.443428
v -47.466434 38.817371 0.628307
v -41.151424 38.817371 5.021652
v -39.215473 38.817371 7.918997
v -37.573200 38.817371 7.238741
v -39.894482 38.817371 3.764708
v -38.535664 38.817371 11.336660
v -39.215473 38.817371 14.754309
v -37.573200 38.817371 15.434565
v -36.758080 38.817371 11.336660
v -38.271984 25.208363 7.528196
v -40.429298 25.208363 4.299524
v -43.657970 25.208364 2.142212
v -47.466434 25.208364 1.384661
v -37.514431 25.208363 11.336659
v 39.705856 -0.000004 15.145123
v 39.705856 25.208364 1.384661
v 39.705856 -0.000003 1.384659
v -19.135983 25.208364 1.384661
v -19.135983 -0.000004 15.145123
v 19.136000 -0.000004 15.145123
v 19.136000 25.208364 1.384661
v -20.207600 32.293468 21.659300
v 20.207615 32.293468 21.659300
v -19.135983 -0.000004 21.107075
v 20.207615 32.293468 0.832436
v 19.136000 -0.000004 21.107075
v -20.207600 32.293468 0.832436
v -18.312351 32.293468 2.727669
v -18.312351 32.293468 19.764051
v 18.312368 32.293468 19.764051
v 18.312368 32.293468 2.727669
v -15.155696 32.293468 19.764051
v -15.155696 32.293468 2.727669
v -15.155696 32.293468 0.832436
v -15.155696 32.293468 21.659300
v 15.155712 32.293468 2.727669
v 15.155712 32.293468 0.832436
v 15.155712 32.293468 21.659300
v 15.155712 32.293468 19.764051
v -20.207600 32.293468 6.039141
v -18.312351 32.293468 6.039141
v 18.312368 32.293468 6.039141
v 20.207615 32.293468 6.039141
v 20.207615 32.293468 16.452579
v 18.312368 32.293468 16.452579
v -18.312351 32.293468 16.452579
v -20.207600 32.293468 16.452579
v -12.629745 32.293468 21.659300
v -12.629745 32.293468 0.832436
v -12.629745 32.293468 2.727669
v -12.629745 32.293468 19.764051
v -7.577840 32.293468 19.764051
v -7.577840 32.293468 21.659300
v -7.577840 32.293468 0.832436
v -7.577840 32.293468 2.727669
v -2.525951 32.293468 2.727669
v -2.525951 32.293468 0.832436
v -2.525951 32.293468 21.659300
v -2.525951 32.293468 19.764051
v 2.525952 32.293468 19.764051
v 2.525952 32.293468 21.659300
v 2.525952 32.293468 0.832436
v 2.525952 32.293468 2.727669
v 7.577856 32.293468 2.727669
v 7.577856 32.293468 0.832436
v 7.577856 32.293468 21.659300
v 7.577856 32.293468 19.764051
v 12.629761 32.293468 19.764051
v 12.629761 32.293468 2.727669
v 12.629761 32.293468 0.832436
v 12.629761 32.293468 21.659300
v -20.207600 32.293468 13.849219
v -18.312351 32.293468 13.849219
v 20.207615 32.293468 13.849219
v 18.312368 32.293468 13.849219
v 20.207615 32.293468 8.642499
v 18.312368 32.293468 8.642499
v -20.207600 32.293468 8.642499
v -18.312351 32.293468 8.642499
v -18.312351 29.857883 19.764051
v 18.312368 29.857883 19.764051
v 18.312368 29.857883 2.727669
v -18.312351 29.857883 2.727669
v 20.207615 34.985485 0.832436
v 18.312368 34.985485 2.727669
v 18.312368 34.985485 6.039141
v 20.207615 34.985485 6.039141
v 15.155712 34.985485 0.832436
v 15.155712 34.985485 2.727669
v -20.207600 34.985485 0.832436
v -18.312351 34.985485 2.727669
v -20.207600 34.985485 6.039141
v -18.312351 34.985485 6.039141
v -15.155696 34.985485 2.727669
v -15.155696 34.985485 0.832436
v -20.207600 34.985485 21.659300
v -18.312351 34.985485 19.764051
v -15.155696 34.985485 21.659300
v -15.155696 34.985485 19.764051
v -18.312351 34.985485 16.452579
v -20.207600 34.985485 16.452579
v 20.207615 34.985485 21.659300
v 18.312368 34.985485 19.764051
v 15.155712 34.985485 19.764051
v 15.155712 34.985485 21.659300
v 20.207615 34.985485 16.452579
v 18.312368 34.985485 16.452579
v -12.629745 34.985485 0.832436
v -12.629745 34.985485 2.727669
v -7.577840 34.985485 2.727669
v -7.577840 34.985485 0.832436
v -12.629745 34.985485 19.764051
v -12.629745 34.985485 21.659300
v -7.577840 34.985485 21.659300
v -7.577840 34.985485 19.764051
v 2.525952 34.985485 21.659300
v 2.525952 34.985485 19.764051
v -2.525951 34.985485 19.764051
v -2.525951 34.985485 21.659300
v 2.525952 34.985485 2.727669
v 2.525952 34.985485 0.832436
v -2.525951 34.985485 0.832436
v -2.525951 34.985485 2.727669
v 7.577856 34.985485 19.764051
v 7.577856 34.985485 21.659300
v 12.629761 34.985485 21.659300
v 12.629761 34.985485 19.764051
v 12.629761 34.985485 2.727669
v 12.629761 34.985485 0.832436
v 7.577856 34.985485 0.832436
v 7.577856 34.985485 2.727669
v 20.207615 34.985485 8.642500
v 18.312368 34.985485 8.642500
v 18.312368 34.985485 13.849220
v 20.207615 34.985485 13.849220
v -20.207600 34.985485 13.849220
v -18.312351 34.985485 13.849220
v -18.312351 34.985485 8.642500
v -20.207600 34.985485 8.642500
v 62.165455 33.687145 23.380466
v 38.615997 33.687145 23.380466
v 61.075603 -0.000004 22.313122
v 62.165455 33.687145 0.317301
v 39.705856 -0.000004 22.313122
v 61.075603 -0.000003 1.384659
v 38.615997 33.687145 0.317301
v 60.089779 33.687145 21.304787
v 60.089779 33.687145 2.392996
v 40.691677 33.687145 2.392996
v 40.691677 33.687145 21.304787
v 60.089779 28.972300 21.304787
v 60.089779 28.972300 2.392996
v 40.691677 28.972300 2.392996
v 40.691677 28.972300 21.304787
v 44.503361 33.687145 21.304787
v 44.503361 33.687145 2.392996
v 44.503361 33.687145 0.317301
v 44.503361 33.687145 23.380466
v 56.278095 33.687145 23.380466
v 56.278095 33.687145 0.317301
v 56.278095 33.687145 2.392996
v 56.278095 33.687145 21.304787
v 62.165455 33.687145 6.083092
v 38.615997 33.687145 6.083092
v 40.691677 33.687145 6.083092
v 60.089779 33.687145 6.083092
v 60.089779 33.687145 17.614676
v 40.691677 33.687145 17.614676
v 38.615997 33.687145 17.614676
v 62.165455 33.687145 17.614676
v 47.447041 33.687145 23.380466
v 47.447041 33.687145 0.317301
v 47.447041 33.687145 2.392996
v 47.447041 33.687145 21.304787
v 53.334415 33.687145 21.304787
v 53.334415 33.687145 23.380466
v 53.334415 33.687145 0.317301
v 53.334415 33.687145 2.392996
v 62.165455 33.687145 14.731780
v 38.615997 33.687145 14.731780
v 40.691677 33.687145 14.731780
v 60.089779 33.687145 14.731780
v 60.089779 33.687145 8.965988
v 62.165455 33.687145 8.965988
v 38.615997 33.687145 8.965988
v 40.691677 33.687145 8.965988
v 38.615997 36.839321 0.317301
v 40.691677 36.839321 2.392996
v 44.503361 36.839321 2.392996
v 44.503361 36.839321 0.317301
v 38.615997 36.839321 6.083092
v 40.691677 36.839321 6.083092
v 62.165455 36.839321 0.317301
v 60.089779 36.839321 2.392996
v 56.278095 36.839321 0.317301
v 56.278095 36.839321 2.392996
v 60.089779 36.839321 6.083092
v 62.165455 36.839321 6.083092
v 62.165455 36.839321 23.380466
v 60.089779 36.839321 21.304787
v 62.165455 36.839321 17.614676
v 60.089779 36.839321 17.614676
v 56.278095 36.839321 21.304787
v 56.278095 36.839321 23.380466
v 38.615997 36.839321 23.380466
v 40.691677 36.839321 21.304787
v 44.503361 36.839321 23.380466
v 44.503361 36.839321 21.304787
v 40.691677 36.839321 17.614676
v 38.615997 36.839321 17.614676
v 53.334415 36.839321 2.392996
v 53.334415 36.839321 0.317301
v 47.447041 36.839321 0.317301
v 47.447041 36.839321 2.392996
v 47.447041 36.839321 21.304787
v 47.447041 36.839321 23.380466
v 53.334415 36.839321 23.380466
v 53.334415 36.839321 21.304787
v 40.691677 36.839321 8.965988
v 38.615997 36.839321 8.965988
v 38.615997 36.839321 14.731780
v 40.691677 36.839321 14.731780
v 60.089779 36.839321 14.731780
v 62.165455 36.839321 14.731780
v 62.165455 36.839321 8.965988
v 60.089779 36.839321 8.965988
v 39.705856 23.011532 22.313122
v 61.075603 23.011532 22.313122
v 62.165455 31.048876 23.380466
v 38.615997 31.048876 23.380466
v 38.615997 31.048878 0.317301
v 62.165455 31.048878 0.317301
v 61.075603 29.226957 1.384661
v 61.075603 29.226955 22.313124
v 39.705856 29.226955 22.313124
v 39.705856 29.226957 1.384661
v -20.207600 29.463503 0.832436
v 20.207615 29.463503 0.832436
v 20.207615 29.463501 21.659300
v -20.207600 29.463501 21.659300
v 19.136000 27.439629 21.107075
v -19.135983 27.439631 1.384661
v 19.136000 27.439631 1.384661
v -19.135983 27.439629 21.107075
v -47.466434 12.841998 -34.043793
v -47.466434 11.612878 -34.043793
v -51.274899 12.841996 2.142210
v -51.274899 11.612876 2.142210
v -54.503551 12.841996 4.299522
v -54.503551 11.612876 4.299522
v -56.660881 12.841996 7.528194
v -56.660881 11.612876 7.528194
v -57.418434 12.841996 11.336659
v -57.418434 11.612876 11.336659
v -56.660881 12.841995 15.145123
v -56.660881 11.612875 15.145123
v -54.503551 12.841995 18.373779
v -54.503551 11.612875 18.373779
v -51.274899 12.841995 20.531107
v -51.274899 11.612875 20.531107
v -47.466434 12.841995 21.288658
v -47.466434 11.612875 21.288658
v -43.657970 12.841995 20.531107
v -43.657970 11.612875 20.531107
v -40.429298 12.841995 18.373779
v -40.429298 11.612875 18.373779
v -38.271984 12.841995 15.145123
v -38.271984 11.612875 15.145123
v 39.705856 11.612875 15.145123
v 39.705856 12.841995 15.145123
v 0.000000 11.612875 21.107075
v -19.135983 12.841995 15.145123
v -19.135983 11.612875 15.145123
v 19.136000 12.841995 15.145123
v 19.136000 11.612875 15.145123
v -19.135983 12.841995 21.107075
v -19.135983 11.612875 21.107075
v 19.136000 12.841995 21.107075
v 19.136000 11.612875 21.107075
v 61.075603 12.841995 22.313122
v 61.075603 11.612875 22.313122
v 39.705856 11.612875 22.313122
v 39.705856 12.841995 22.313122
v 39.705856 12.841996 1.384659
v 39.705856 11.612876 1.384659
v 61.075603 12.841996 1.384659
v 61.075603 11.612876 1.384659
v -47.561169 12.841998 -35.005630
v -47.561169 11.612878 -35.005630
v -51.650192 12.841996 1.236162
v -51.650192 11.612876 1.236162
v -55.197010 12.841996 3.606066
v -55.197010 11.612876 3.606066
v -57.566929 12.841996 7.152899
v -57.566929 11.612876 7.152899
v -58.399120 12.841996 11.336659
v -58.399120 11.612876 11.336659
v -57.566929 12.841995 15.520419
v -57.566929 11.612875 15.520419
v -55.197010 12.841995 19.067234
v -55.197010 11.612875 19.067234
v -51.650192 12.841995 21.437155
v -51.650192 11.612875 21.437155
v -47.466434 12.841995 22.269346
v -47.466434 11.612875 22.269346
v -43.282673 12.841995 21.437155
v -43.282673 11.612875 21.437155
v -39.735840 12.841995 19.067234
v -39.735840 11.612875 19.067234
v -37.757858 12.841995 16.106979
v -37.757858 11.612875 16.106979
v 38.743999 11.612875 16.106979
v 38.743999 12.841995 16.106979
v 0.000000 11.612875 22.068930
v -20.097839 12.841995 16.106979
v -20.097839 11.612875 16.106979
v 20.097855 12.841995 16.106979
v 20.097855 11.612875 16.106979
v -20.097839 12.841995 22.068930
v -20.097839 11.612875 22.068930
v 20.097855 12.841995 22.068930
v 20.097855 11.612875 22.068930
v 62.037457 12.841995 23.274979
v 62.037457 11.612875 23.274979
v 38.743999 11.612875 23.274979
v 38.743999 12.841995 23.274979
v 39.705856 12.841996 0.422802
v 39.705856 11.612876 0.422802
v 62.037457 12.841996 0.422802
v 62.037457 11.612876 0.422802
v 0.000000 12.841995 22.068930
v -13.478095 27.439629 21.107075
v -5.657888 27.439629 21.107075
v -13.478095 12.841995 21.107075
v -5.657888 12.841995 21.107075
v 13.478111 12.841995 21.107075
v 5.657888 12.841995 21.107075
v 13.478111 27.439629 21.107075
v 5.657888 27.439629 21.107075
v -12.807792 13.140939 21.107075
v -6.328176 13.140939 21.107075
v 6.328192 13.140939 21.107075
v 12.807808 13.140939 21.107075
v -9.567984 13.140939 21.107075
v 9.568001 13.140939 21.107075
v -6.859296 22.753853 20.029554
v -12.276689 22.753853 20.029554
v -9.568016 14.218955 20.040897
v -9.568000 26.043228 20.040276
v -10.750448 26.064621 20.050659
v -8.385520 26.064621 20.050659
v -12.333632 14.172219 20.060131
v -6.802352 14.172219 20.060131
v 6.859312 22.753853 20.029554
v 12.276703 22.753853 20.029554
v 9.567984 26.043228 20.040276
v 9.567968 14.218955 20.040897
v 12.333649 14.172219 20.060131
v 6.802353 14.172219 20.060131
v 10.750463 26.064621 20.050659
v 8.385536 26.064621 20.050659
v 6.848400 18.469372 20.038483
v -12.287601 18.469372 20.038483
v -6.848384 18.469372 20.038483
v 12.287600 18.469372 20.038483
v 9.658768 18.578251 19.988979
v 12.219280 18.578251 19.988979
v 12.219616 22.693756 19.988979
v 9.658768 22.667292 19.988979
v -12.219264 18.578251 19.988979
v -9.658768 18.578251 19.988979
v -9.658768 22.667292 19.988979
v -12.219600 22.693756 19.988979
v -9.477216 25.942188 19.988979
v -9.477216 22.884796 19.988979
v -6.949824 22.805468 19.988979
v -8.449808 25.906252 19.970707
v 9.477232 22.884796 19.988979
v 9.477217 25.942348 19.988979
v 8.449808 25.906252 19.970707
v 6.949841 22.805468 19.988979
v -12.186160 22.805468 19.988979
v -9.658768 22.884796 19.988979
v -9.658784 25.942348 19.988979
v -10.686176 25.906252 19.970707
v -6.916704 18.360764 19.988979
v -9.477216 18.360764 19.988979
v -9.477216 14.333227 19.988977
v -6.917200 14.337883 19.986626
v -9.658768 18.360764 19.988979
v -12.219264 18.360764 19.988979
v -12.218783 14.337883 19.986626
v -9.658800 14.332603 19.988977
v 6.916719 18.578251 19.988979
v 9.477232 18.578251 19.988979
v 9.477232 22.667292 19.988979
v 6.916384 22.693756 19.988979
v 12.219280 18.360764 19.988979
v 9.658768 18.360764 19.988979
v 9.658768 14.333227 19.988977
v 12.218800 14.337883 19.986626
v 9.477232 18.360764 19.988979
v 6.916719 18.360764 19.988979
v 6.917200 14.337883 19.986626
v 9.477200 14.332603 19.988977
v 9.658768 22.884796 19.988979
v 12.186176 22.805468 19.988979
v 10.686192 25.906252 19.970707
v 9.658768 25.942188 19.988979
v -9.477216 18.578251 19.988979
v -6.916704 18.578251 19.988979
v -6.916368 22.693756 19.988979
v -9.477216 22.667292 19.988979
v -6.707120 22.813644 19.950323
v -12.428864 22.813644 19.950323
v -9.567984 14.049531 19.933762
v -9.567984 26.214779 19.942146
v -10.813984 26.214012 19.940914
v -8.322000 26.214012 19.940914
v -12.421712 14.053595 19.928514
v -6.714256 14.053595 19.928514
v 6.707119 22.813644 19.950323
v 12.428879 22.813644 19.950323
v 9.568001 26.214779 19.942146
v 9.568001 14.049531 19.933762
v 12.421728 14.053595 19.928514
v 6.714272 14.053595 19.928514
v 10.813999 26.214012 19.940914
v 8.322001 26.214012 19.940914
v 6.706240 18.469339 19.953026
v -12.429759 18.469339 19.953026
v -6.706223 18.469339 19.953026
v 12.429760 18.469339 19.953026
v 9.393568 18.260540 19.787266
v 6.934977 18.260540 19.787266
v 6.934977 14.371947 19.787266
v 9.393568 14.371947 19.787266
v 12.201023 18.260540 19.787266
v 9.742447 18.260540 19.787266
v 9.742447 14.371947 19.787266
v 12.201023 14.371947 19.787266
v -6.934976 18.260540 19.787266
v -9.393552 18.260540 19.787266
v -9.393552 14.371947 19.787266
v -6.934976 14.371947 19.787266
v 9.393568 22.985020 19.787266
v 9.393568 25.909660 19.787266
v 8.445520 25.909660 19.787266
v 7.060112 22.985020 19.787266
v 9.742447 18.678492 19.787266
v 12.201023 18.678492 19.787266
v 12.201023 22.567068 19.787266
v 9.742447 22.567068 19.787266
v 6.934977 18.678492 19.787266
v 9.393568 18.678492 19.787266
v 9.393568 22.567068 19.787266
v 6.934977 22.567068 19.787266
v 9.742447 22.985020 19.787266
v 12.075905 22.985020 19.787266
v 10.690479 25.909660 19.787266
v 9.742447 25.909660 19.787266
v -12.201009 18.678492 19.787266
v -9.742432 18.678492 19.787266
v -9.742432 22.567068 19.787266
v -12.201009 22.567068 19.787266
v -9.393552 25.909660 19.787266
v -9.393552 22.985020 19.787266
v -7.060096 22.985020 19.787266
v -8.445520 25.909660 19.787266
v -12.075889 22.985020 19.787266
v -9.742432 22.985020 19.787266
v -9.742432 25.909660 19.787266
v -10.690464 25.909660 19.787266
v -9.393552 18.678492 19.787266
v -6.934976 18.678492 19.787266
v -6.934976 22.567068 19.787266
v -9.393552 22.567068 19.787266
v -9.742432 18.260540 19.787266
v -12.201009 18.260540 19.787266
v -12.201009 14.371947 19.787266
v -9.742432 14.371947 19.787266
v -4.784000 11.612875 21.107075
v -4.784000 -0.000004 21.107075
v 4.784000 -0.000004 21.107075
v 4.784000 11.612875 21.107075
v 0.000000 -0.000004 24.600067
v 0.000000 12.768826 25.113794
v 4.784000 -0.000004 26.740723
v 4.784000 11.612875 24.600067
v -4.784000 11.612875 24.600067
v -4.784000 -0.000004 26.740723
v -4.784000 11.612875 22.853571
v 4.784000 11.612875 22.853571
v 0.000000 11.612875 22.853571
v 0.000000 17.884588 24.600067
v 0.000000 17.884588 22.853571
v 4.452016 13.330283 24.959843
v 4.452016 13.330283 22.493793
v -4.452000 13.330283 22.493793
v -4.452000 13.330283 24.959843
v 4.784000 -0.000004 22.853569
v -4.784000 -0.000004 22.853569
v 6.395617 11.612875 24.600067
v 6.395617 11.612875 22.853571
v 6.727615 13.330283 22.493793
v 6.727615 13.330283 24.959843
v 6.395617 -0.000004 26.740723
v 6.395617 -0.000004 22.853569
v -6.395600 11.612875 24.600067
v -6.395600 11.612875 22.853571
v -6.395600 -0.000004 22.853569
v -6.395600 -0.000004 26.740723
v -6.727600 13.330283 24.959843
v -6.727600 13.330283 22.493793
v -4.784000 14.814651 22.853571
v -6.395600 14.814651 22.853571
v -6.395600 14.814651 24.600067
v -4.784000 14.814651 24.600067
v 4.784000 14.814651 24.600067
v 6.395617 14.814651 24.600067
v 6.395617 14.814651 22.853571
v 4.784000 14.814651 22.853571
v 5.589808 17.067148 23.726818
v -5.589792 17.067148 23.726818
v -3.992000 0.000011 25.113792
v -2.392000 11.612875 25.113794
v 2.392000 11.612875 25.113794
v 3.992000 0.000011 25.113792
v 3.992000 9.468571 25.113794
v -3.992000 9.468571 25.113794
v -4.784000 9.468571 24.600067
v 4.784000 9.468571 24.600067
v 3.792560 9.412747 25.113794
v 2.275872 11.445403 25.113794
v 0.000000 12.545227 25.113794
v -2.275856 11.445403 25.113794
v -3.792560 9.412747 25.113794
v -3.792560 0.148475 25.113792
v 0.000000 0.148460 24.600067
v 3.792560 0.148475 25.113792
v 3.058752 7.770491 23.009666
v 1.835520 9.409867 23.009666
v 0.000000 10.296875 23.009666
v -1.835505 9.409867 23.009666
v -3.058752 7.770491 23.009666
v -3.058752 0.298732 23.009666
v 0.000000 0.298715 23.009666
v 3.058752 0.298732 23.009666
v 0.000000 12.877691 24.600067
v -3.901136 0.000011 24.600067
v -4.023536 0.000011 24.685299
v -4.001056 0.108331 24.600067
v -2.482864 11.612875 24.600067
v 2.482880 11.612875 24.600067
v 4.001056 0.108331 24.600067
v 4.023536 0.000011 24.685299
v 3.901136 0.000011 24.600067
v 4.082864 9.468571 24.600067
v -4.082864 9.468571 24.600067
v 3.783488 9.406587 24.509794
v 2.270416 11.434395 24.509827
v 0.000000 12.531595 24.509907
v -2.270416 11.434395 24.509827
v -3.783488 9.406587 24.509794
v -3.701696 0.148475 24.600067
v -3.783568 0.164331 24.510609
v 3.783568 0.164331 24.510609
v 3.701696 0.148475 24.600067
v 0.317120 9.733979 23.009666
v 0.317120 0.678635 23.009666
v 2.741632 0.678635 23.009666
v 2.741632 7.625435 23.009666
v 1.648336 9.090652 23.009666
v -0.317120 0.678635 23.009666
v -0.317120 9.733979 23.009666
v -1.648336 9.090652 23.009666
v -2.741632 7.625435 23.009666
v -2.741632 0.678635 23.009666
v -0.317120 0.678635 22.732002
v -0.317120 9.733979 22.732002
v -1.648336 9.090652 22.732002
v -2.741632 7.625435 22.732002
v -2.741632 0.678635 22.732002
v 0.317120 9.733979 22.732002
v 0.317120 0.678635 22.732002
v 2.741632 0.678635 22.732002
v 2.741632 7.625435 22.732002
v 1.648336 9.090652 22.732002
v -23.919983 12.841995 15.145123
v 24.278465 12.841995 15.145123
v -19.135983 23.004429 15.145123
v 39.705856 23.007980 15.145123
v 19.136000 23.004429 15.145123
v -38.271984 23.004429 15.145123
v -38.271984 13.597259 15.145123
v 19.136000 13.597259 15.145123
v -19.135983 13.597259 15.145123
v 39.705856 13.597259 15.145123
v 31.829327 21.955772 15.145123
v 34.563393 24.189676 15.145123
v 37.297440 21.955772 15.145123
v 27.012527 21.955772 15.145123
v 24.278465 24.189676 15.145123
v 21.544399 21.955772 15.145123
v -21.185921 22.063276 15.145123
v -23.919983 24.189676 15.145123
v -26.654049 22.063276 15.145123
v -36.222050 22.063276 15.145123
v -33.487984 24.189676 15.145123
v -30.753922 22.063276 15.145123
v -36.222050 13.240458 15.145123
v -33.487984 12.841995 15.145123
v -30.753922 13.240458 15.145123
v 31.829327 13.132971 15.145123
v 34.563393 12.841995 15.145123
v 37.297440 13.132971 15.145123
v 27.012527 13.132971 15.145123
v 21.544399 13.132971 15.145123
v -21.185921 13.240458 15.145123
v -26.654049 13.240458 15.145123
v 32.050465 21.706476 14.285331
v 34.563393 23.759691 14.285331
v 37.076302 21.706476 14.285331
v 32.050465 13.597259 14.285331
v 37.076302 13.597259 14.285331
v -36.000912 21.706476 14.285331
v -33.487984 23.759691 14.285331
v -30.975056 21.706476 14.285331
v -36.000912 13.597259 14.285331
v -30.975056 13.597259 14.285331
v 26.791393 21.706476 14.285331
v 24.278465 23.759691 14.285331
v 21.765537 21.706476 14.285331
v 26.791393 13.597259 14.285331
v 21.765537 13.597259 14.285331
v -21.407055 21.706476 14.285331
v -23.919983 23.759691 14.285331
v -26.432911 21.706476 14.285331
v -21.407055 13.597259 14.285331
v -26.432911 13.597259 14.285331
v -39.215473 33.483738 14.754309
v -38.535664 33.483738 11.336660
v -39.215473 33.483738 7.918997
v -41.151424 33.483738 5.021652
v -44.048767 33.483738 3.085699
v -47.466434 33.483738 2.405891
v -50.884079 33.483738 3.085699
v -53.781441 33.483738 5.021652
v -55.717377 33.483738 7.918997
v -56.397202 33.483738 11.336660
v -55.717377 33.483738 14.754309
v -53.781441 33.483738 17.651667
v -50.884079 33.483738 19.587603
v -47.466434 33.483738 20.267427
v -44.048767 33.483738 19.587603
v -41.151424 33.483738 17.651667
v 36.684879 21.458683 14.490947
v 34.563393 23.182924 14.490947
v 32.441902 21.458683 14.490947
v 32.461136 14.089243 14.490947
v 36.665630 14.089243 14.490947
v -31.366497 21.458683 14.490947
v -33.487984 23.182924 14.490947
v -35.609474 21.458683 14.490947
v -35.590240 14.089243 14.490947
v -31.385727 14.089243 14.490947
v 26.399952 21.458683 14.490947
v 24.278465 23.182924 14.490947
v 22.156975 21.458683 14.490947
v 22.176208 14.089243 14.490947
v 26.380718 14.089243 14.490947
v -21.798496 21.458683 14.490947
v -23.919983 23.182924 14.490947
v -26.041473 21.458683 14.490947
v -26.022240 14.089243 14.490947
v -21.817726 14.089243 14.490947
v -26.054066 18.204445 14.490947
v -21.785904 18.204445 14.490947
v 36.697472 18.204445 14.490947
v 24.278465 14.051115 14.490947
v 34.563393 14.051115 14.490947
v 26.412544 18.204445 14.490947
v 22.144382 18.204445 14.490947
v -23.919983 14.051115 14.490947
v -35.622066 18.204445 14.490947
v 32.429314 18.204445 14.490947
v -33.487984 14.051115 14.490947
v -31.353905 18.204445 14.490947
v -31.571232 21.329067 14.490947
v -33.379314 22.806396 14.490947
v -33.379314 18.334620 14.490947
v -31.571232 18.334620 14.490947
v 24.387119 14.311482 14.490947
v 26.195217 14.311482 14.490947
v 26.195217 18.074268 14.490947
v 24.387119 18.074268 14.490947
v -24.028641 22.806396 14.490947
v -25.836735 21.329067 14.490947
v -25.836735 18.334620 14.490947
v -24.028641 18.334620 14.490947
v -22.003231 21.329067 14.490947
v -23.811329 22.806396 14.490947
v -23.811329 18.334620 14.490947
v -22.003231 18.334620 14.490947
v 34.454720 22.806396 14.490947
v 32.646641 21.329067 14.490947
v 32.646641 18.334620 14.490947
v 34.454720 18.334620 14.490947
v 32.646641 18.074268 14.490947
v 32.646641 14.311482 14.490947
v 34.454720 14.311482 14.490947
v 34.454720 18.074268 14.490947
v 36.480145 21.329067 14.490947
v 34.672047 22.806396 14.490947
v 34.672047 18.334620 14.490947
v 36.480145 18.334620 14.490947
v 24.169792 22.806396 14.490947
v 22.361713 21.329067 14.490947
v 22.361713 18.334620 14.490947
v 24.169792 18.334620 14.490947
v -25.836735 18.074268 14.490947
v -25.836735 14.311482 14.490947
v -24.028641 14.311482 14.490947
v -24.028641 18.074268 14.490947
v -35.404736 18.074268 14.490947
v -35.404736 14.311482 14.490947
v -33.596642 14.311482 14.490947
v -33.596642 18.074268 14.490947
v 34.672047 14.311482 14.490947
v 36.480145 14.311482 14.490947
v 36.480145 18.074268 14.490947
v 34.672047 18.074268 14.490947
v -23.811329 14.311482 14.490947
v -22.003231 14.311482 14.490947
v -22.003231 18.074268 14.490947
v -23.811329 18.074268 14.490947
v 26.195217 21.329067 14.490947
v 24.387119 22.806396 14.490947
v 24.387119 18.334620 14.490947
v 26.195217 18.334620 14.490947
v -33.379314 14.311482 14.490947
v -31.571232 14.311482 14.490947
v -31.571232 18.074268 14.490947
v -33.379314 18.074268 14.490947
v -33.596642 22.806396 14.490947
v -35.404736 21.329067 14.490947
v -35.404736 18.334620 14.490947
v -33.596642 18.334620 14.490947
v 22.361713 18.074268 14.490947
v 22.361713 14.311482 14.490947
v 24.169792 14.311482 14.490947
v 24.169792 18.074268 14.490947
v 36.780945 21.519501 14.285331
v 34.563393 23.313099 14.285331
v 32.345825 21.519501 14.285331
v 32.384304 13.997195 14.285331
v 36.742477 13.997195 14.285331
v -31.270416 21.519501 14.285331
v -33.487984 23.313099 14.285331
v -35.705551 21.519501 14.285331
v -35.667072 13.997195 14.285331
v -31.308895 13.997195 14.285331
v 26.496033 21.519501 14.285331
v 24.278465 23.313099 14.285331
v 22.060898 21.519501 14.285331
v 22.099377 13.997195 14.285331
v 26.457554 13.997195 14.285331
v -21.702415 21.519501 14.285331
v -23.919983 23.313099 14.285331
v -26.137550 21.519501 14.285331
v -26.099072 13.997195 14.285331
v -21.740894 13.997195 14.285331
v -23.919983 13.920923 14.285331
v -35.730721 18.204140 14.285331
v -21.677246 18.204140 14.285331
v 34.563393 13.920923 14.285331
v -33.487984 13.920923 14.285331
v -26.162720 18.204140 14.285331
v 24.278465 13.920923 14.285331
v 36.806126 18.204140 14.285331
v 22.035713 18.204140 14.285331
v -31.245232 18.204140 14.285331
v 32.320641 18.204140 14.285331
v 26.521198 18.204140 14.285331
v 22.470367 17.944092 14.285331
v 22.470367 14.441659 14.285331
v 24.061134 14.441659 14.285331
v 24.061134 17.944092 14.285331
v 24.495792 14.441659 14.285331
v 26.086559 14.441659 14.285331
v 26.086559 17.944092 14.285331
v 24.495792 17.944092 14.285331
v 32.755295 17.944092 14.285331
v 32.755295 14.441659 14.285331
v 34.346066 14.441659 14.285331
v 34.346066 17.944092 14.285331
v -22.111889 21.260284 14.285331
v -23.702656 22.560043 14.285331
v -23.702656 18.464796 14.285331
v -22.111889 18.464796 14.285331
v -35.296082 17.944092 14.285331
v -35.296082 14.441659 14.285331
v -33.705315 14.441659 14.285331
v -33.705315 17.944092 14.285331
v -31.679890 21.260284 14.285331
v -33.270657 22.560043 14.285331
v -33.270657 18.464796 14.285331
v -31.679890 18.464796 14.285331
v -33.270657 14.441659 14.285331
v -31.679890 14.441659 14.285331
v -31.679890 17.944092 14.285331
v -33.270657 17.944092 14.285331
v -23.702656 14.441659 14.285331
v -22.111889 14.441659 14.285331
v -22.111889 17.944092 14.285331
v -23.702656 17.944092 14.285331
v -33.705315 22.560043 14.285331
v -35.296082 21.260284 14.285331
v -35.296082 18.464796 14.285331
v -33.705315 18.464796 14.285331
v 34.346066 22.560043 14.285331
v 32.755295 21.260284 14.285331
v 32.755295 18.464796 14.285331
v 34.346066 18.464796 14.285331
v 24.061134 22.560043 14.285331
v 22.470367 21.260284 14.285331
v 22.470367 18.464796 14.285331
v 24.061134 18.464796 14.285331
v 26.086559 21.260284 14.285331
v 24.495792 22.560043 14.285331
v 24.495792 18.464796 14.285331
v 26.086559 18.464796 14.285331
v 36.371471 21.260284 14.285331
v 34.780704 22.560043 14.285331
v 34.780704 18.464796 14.285331
v 36.371471 18.464796 14.285331
v -25.728081 17.944092 14.285331
v -25.728081 14.441659 14.285331
v -24.137310 14.441659 14.285331
v -24.137310 17.944092 14.285331
v 34.780704 14.441659 14.285331
v 36.371471 14.441659 14.285331
v 36.371471 17.944092 14.285331
v 34.780704 17.944092 14.285331
v -24.137310 22.560043 14.285331
v -25.728081 21.260284 14.285331
v -25.728081 18.464796 14.285331
v -24.137310 18.464796 14.285331
v -19.135983 22.641932 21.107075
v -19.135983 23.366909 21.107075
v 19.136000 23.366909 21.107075
v 19.136000 22.641932 21.107075
v 13.478111 23.366909 21.107075
v 13.478111 22.641932 21.107075
v 5.657888 22.641932 21.107075
v 5.657888 23.366909 21.107075
v -13.478095 22.641932 21.107075
v -13.478095 23.366909 21.107075
v -5.657888 23.366909 21.107075
v -5.657888 22.641932 21.107075
v -6.420832 23.015179 20.824226
v -6.328176 22.717932 21.107075
v -8.193504 26.772364 20.840548
v -7.857024 27.229725 21.107075
v -10.942480 26.772364 20.840548
v -11.278944 27.229725 21.107075
v -12.807792 22.717932 21.107075
v -12.715137 23.015179 20.824226
v 6.420849 23.015179 20.824226
v 6.328192 22.717932 21.107075
v 12.715153 23.015179 20.824226
v 12.807808 22.717932 21.107075
v 10.942495 26.772364 20.840548
v 11.278961 27.229725 21.107075
v 8.193520 26.772364 20.840548
v 7.857040 27.229725 21.107075
v -9.567984 26.771036 20.838419
v 9.568001 26.771036 20.838419
v -12.993184 23.423500 21.107075
v -6.142800 23.423500 21.107075
v -9.567984 27.300251 21.107075
v 6.142817 23.423500 21.107075
v 12.993183 23.423500 21.107075
v 9.568001 27.300251 21.107075
v 13.478111 23.366909 21.870211
v 13.478111 22.641932 21.870211
v 5.657888 22.641932 21.870211
v 5.657888 23.366909 21.870211
v -13.478095 22.641932 21.870211
v -13.478095 23.366909 21.870211
v -5.657888 23.366909 21.870211
v -5.657888 22.641932 21.870211
v -6.420832 23.015179 21.870211
v -6.328176 22.717932 21.870211
v -8.193504 26.772364 21.870211
v -7.857024 27.229725 21.870211
v -10.942480 26.772364 21.870211
v -11.278944 27.229725 21.870211
v -12.807792 22.717932 21.870211
v -12.715137 23.015179 21.870211
v 6.420849 23.015179 21.870211
v 6.328192 22.717932 21.870211
v 12.715153 23.015179 21.870211
v 12.807808 22.717932 21.870211
v 10.942495 26.772364 21.870211
v 11.278961 27.229725 21.870211
v 8.193520 26.772364 21.870211
v 7.857040 27.229725 21.870211
v -9.567984 26.771036 21.870211
v 9.568001 26.771036 21.870211
v -12.993184 23.423500 21.870211
v -6.142800 23.423500 21.870211
v -9.567984 27.300251 21.870211
v 6.142817 23.423500 21.870211
v 12.993183 23.423500 21.870211
v 9.568001 27.300251 21.870211
v -19.135983 23.366909 21.870211
v -19.135983 22.641932 21.870211
v 19.136000 22.641932 21.870211
v 19.136000 23.366909 21.870211
v -47.466434 -0.000002 -34.043793
v -47.466434 25.208364 -34.043793
v -51.274899 12.841998 -33.286240
v -51.274899 11.612878 -33.286240
v 39.705856 12.841998 -34.043793
v 39.705856 11.612878 -34.043793
v -51.650192 12.841998 -34.192287
v -51.650192 11.612878 -34.192287
v 39.705856 12.841998 -35.005630
v 39.705856 11.612878 -35.005630
v -51.274899 25.208364 -33.286240
v -51.274899 -0.000002 -33.286240
v 39.705856 -0.000002 -34.043793
v -19.135983 25.208364 -34.043793
v 19.136000 25.208364 -34.043793
v 39.705856 25.208364 -34.043793
v 19.136000 25.208363 12.798802
v -19.135983 25.208363 12.798802
v 39.705856 25.208363 12.798802
v -37.587696 25.208363 12.798802
v 39.705856 28.044250 12.798802
v 19.136000 28.044250 12.798802
v 19.136000 28.044250 15.145123
v 39.705856 28.044250 15.145123
v -19.135983 28.044250 12.798802
v -37.587696 28.044250 12.798802
v -38.271984 28.044250 15.145123
v -19.135983 28.044250 15.145123
v -51.274899 24.569311 2.142212
v -51.274899 25.208364 1.608772
v -50.751713 25.208364 2.038132
v -51.274899 25.847422 2.142212
v -54.503551 24.569309 4.299524
v -54.503551 25.847420 4.299524
v -56.660881 24.569309 7.528196
v -56.660881 25.847420 7.528196
v -57.418434 24.569309 11.336659
v -57.418434 25.847420 11.336659
v -56.660881 24.569309 15.145123
v -56.660881 25.847420 15.145123
v -54.503551 24.569309 18.373779
v -54.503551 25.847420 18.373779
v -51.274899 24.569309 20.531107
v -51.274899 25.847420 20.531107
v -47.466434 24.569309 21.288660
v -47.466434 25.847420 21.288660
v -43.657970 24.569309 20.531107
v -43.657970 25.847420 20.531107
v -40.429298 24.569309 18.373779
v -40.429298 25.847420 18.373779
v -38.271984 24.569309 15.145123
v -38.271984 25.847420 15.145123
v -38.122623 25.208363 14.633027
v -38.271984 25.847420 15.145123
v 39.705856 24.569309 15.145123
v 39.705856 25.847420 15.145123
v 39.705856 25.855164 14.611683
v -19.135983 24.569309 15.145123
v -19.135983 25.208363 14.611683
v -19.135983 25.847420 15.145123
v 19.136000 24.569309 15.145123
v 19.136000 25.208363 14.611683
v 19.136000 25.847420 15.145123
v -33.487984 24.569309 15.145123
v -23.919983 24.569309 15.145123
v 24.278465 24.569309 15.145123
v 34.563393 24.569309 15.145123
v 61.075603 24.569311 1.384661
v 61.075603 25.847422 1.384661
v 61.075603 24.569309 22.313124
v 61.075603 25.847420 22.313124
v 39.705856 24.569309 22.313124
v 39.705856 25.847420 22.313124
v 39.705856 24.569309 16.264883
v 39.705856 25.847420 16.264883
v 19.136000 25.847420 16.264883
v 19.136000 24.569309 16.264883
v 62.195362 24.569309 23.432882
v 62.195362 25.847420 23.432882
v 39.705856 25.847420 23.432882
v 39.705856 24.569309 23.432882
v 62.195362 24.569311 1.384661
v 62.195362 25.847422 1.384661
v -19.135983 24.569309 16.264883
v -19.135983 25.847420 16.264883
v -38.271984 25.847420 16.264883
v -38.271984 24.569309 16.264883
v -55.310863 24.569309 3.492228
v -55.310863 25.847420 3.492228
v -57.715664 24.569309 7.091284
v -57.715664 25.847420 7.091284
v -58.560127 24.569309 11.336659
v -58.560127 25.847420 11.336659
v -57.715664 24.569309 15.582035
v -57.715664 25.847420 15.582035
v -55.310863 24.569309 19.181091
v -55.310863 25.847420 19.181091
v -51.711807 24.569309 21.585892
v -51.711807 25.847420 21.585892
v -47.466434 24.569309 22.430355
v -47.466434 25.847420 22.430355
v -43.221058 24.569309 21.585892
v -43.221058 25.847420 21.585892
v -51.897007 25.847422 1.211157
v -51.897007 24.569311 1.211157
v -39.807201 24.569309 19.304834
v -39.807201 25.847420 19.304834
v -25.267887 11.612875 15.145123
v -32.140064 11.612875 15.145123
v -25.267887 -0.000004 15.145123
v -32.140064 -0.000004 15.145123
v 32.857006 11.612875 15.145123
v 25.984833 11.612875 15.145123
v 32.857006 -0.000004 15.145123
v 25.984833 -0.000004 15.145123
v 53.826817 11.612875 22.313122
v 46.954639 11.612875 22.313122
v 53.826817 -0.000004 22.313122
v 46.954639 -0.000004 22.313122
v 46.954639 12.841995 22.313122
v 53.826817 12.841995 22.313122
v 46.954639 23.011532 22.313122
v 53.826817 23.011532 22.313122
v 53.826817 3.625548 22.313122
v -32.140064 3.625548 15.145123
v 46.954639 3.625548 22.313122
v 25.984833 3.625548 15.145123
v -25.267887 3.625548 15.145123
v 32.857006 3.625548 15.145123
v 26.667248 4.443068 15.145123
v 32.174606 4.443068 15.145123
v 32.174606 10.795355 15.145123
v 26.667248 10.795355 15.145123
v -31.457664 4.443068 15.145123
v -25.950302 4.443068 15.145123
v -25.950302 10.795355 15.145123
v -31.457664 10.795355 15.145123
v 47.637039 22.194012 22.313122
v 47.637039 13.659531 22.313122
v 53.144398 13.659531 22.313122
v 53.144398 22.194012 22.313122
v 47.637039 4.443067 22.313122
v 53.144398 4.443067 22.313122
v 53.144398 10.795355 22.313122
v 47.637039 10.795355 22.313122
v 29.420929 10.883515 15.145123
v -28.703983 4.354908 15.145123
v 50.390720 22.282171 22.313122
v -28.703983 10.883515 15.145123
v 50.390720 10.883515 22.313122
v 50.390720 4.354908 22.313122
v 29.420929 4.354908 15.145123
v 50.390720 13.571371 22.313122
v -28.477615 10.345403 14.166225
v -28.477615 4.893020 14.166225
v -26.354336 4.893020 14.166225
v -26.354336 10.345403 14.166225
v 50.164352 14.083291 21.334227
v 50.164352 21.770252 21.334227
v 48.041088 21.770252 21.334227
v 48.041088 14.083291 21.334227
v 29.194546 4.893020 14.166225
v 29.194546 10.345403 14.166225
v 27.071281 10.345403 14.166225
v 27.071281 4.893020 14.166225
v -28.930351 4.893020 14.166225
v -28.930351 10.345403 14.166225
v -31.053635 10.345403 14.166225
v -31.053635 4.893020 14.166225
v 50.617104 21.770252 21.334227
v 50.617104 14.083291 21.334227
v 52.740368 14.083291 21.334227
v 52.740368 21.770252 21.334227
v 50.617104 10.345403 21.334227
v 50.617104 4.893019 21.334227
v 52.740368 4.893019 21.334227
v 52.740368 10.345403 21.334227
v 50.164352 4.893019 21.334227
v 50.164352 10.345403 21.334227
v 48.041088 10.345403 21.334227
v 48.041088 4.893019 21.334227
v 29.647297 10.345403 14.166225
v 29.647297 4.893020 14.166225
v 31.770561 4.893020 14.166225
v 31.770561 10.345403 14.166225
v 47.637039 22.194012 21.334227
v 47.637039 13.659531 21.334227
v 53.144398 13.659531 21.334227
v 53.144398 22.194012 21.334227
v 50.390720 22.282171 21.334227
v 50.390720 13.571371 21.334227
v -31.457664 4.443068 14.166225
v -25.950302 4.443068 14.166225
v -25.950302 10.795355 14.166225
v -31.457664 10.795355 14.166225
v -28.703983 4.354908 14.166225
v -28.703983 10.883515 14.166225
v 47.637039 4.443067 21.334227
v 53.144398 4.443067 21.334227
v 53.144398 10.795355 21.334227
v 47.637039 10.795355 21.334227
v 50.390720 10.883515 21.334227
v 50.390720 4.354908 21.334227
v 26.667248 4.443068 14.166225
v 32.174606 4.443068 14.166225
v 32.174606 10.795355 14.166225
v 26.667248 10.795355 14.166225
v 29.420929 10.883515 14.166225
v 29.420929 4.354908 14.166225
v -28.930351 4.893020 13.672850
v -28.930351 10.345403 13.672850
v -31.053635 10.345403 13.672850
v -31.053635 4.893020 13.672850
v 29.194546 4.893020 13.672850
v 29.194546 10.345403 13.672850
v 27.071281 10.345403 13.672850
v 27.071281 4.893020 13.672850
v 50.164352 4.893019 20.840851
v 50.164352 10.345403 20.840851
v 48.041088 10.345403 20.840851
v 48.041088 4.893019 20.840851
v 50.617104 21.770252 20.840851
v 50.617104 14.083291 20.840851
v 52.740368 14.083291 20.840851
v 52.740368 21.770252 20.840851
v 50.617104 10.345403 20.840851
v 50.617104 4.893019 20.840851
v 52.740368 4.893019 20.840851
v 52.740368 10.345403 20.840851
v 50.164352 14.083291 20.840851
v 50.164352 21.770252 20.840851
v 48.041088 21.770252 20.840851
v 48.041088 14.083291 20.840851
v -28.477615 10.345403 13.672850
v -28.477615 4.893020 13.672850
v -26.354336 4.893020 13.672850
v -26.354336 10.345403 13.672850
v 29.647297 10.345403 13.672850
v 29.647297 4.893020 13.672850
v 31.770561 4.893020 13.672850
v 31.770561 10.345403 13.672850
v -56.262367 13.283883 15.741539
v -54.902065 13.283883 17.777363
v -54.902065 24.127436 17.777363
v -56.262367 24.127436 15.741539
v -50.571377 13.283883 20.671041
v -48.169937 13.283883 21.148722
v -48.169937 24.127436 21.148724
v -50.571377 24.127436 20.671043
v -43.061554 13.283883 20.132595
v -41.025711 13.283883 18.772289
v -41.025711 24.127436 18.772289
v -43.061554 24.127436 20.132595
v -43.956657 14.098971 18.288403
v -42.386978 14.098971 17.239586
v -42.386978 23.312347 17.239586
v -43.956657 23.312347 18.288403
v -49.900272 14.098971 18.734066
v -48.048721 14.098971 19.102369
v -48.048721 23.312347 19.102371
v -49.900272 23.312347 18.734066
v -54.418179 14.098971 14.846435
v -53.369362 14.098971 16.416100
v -53.369362 23.312347 16.416100
v -54.418179 23.312347 14.846435
v 19.136000 23.366909 15.145123
v -19.135983 23.366909 15.145123
v 39.705856 25.847422 1.384661
vn 1.0000 0.0000 0.0000
vn -1.0000 0.0000 0.0000
vn -0.9600 -0.0000 -0.2800
vn 0.0000 0.0000 1.0000
vn 0.0000 0.0000 -1.0000
vn 0.0000 1.0000 0.0000
vn -0.3717 0.8944 -0.2488
vn -0.8315 0.0000 -0.5556
vn 0.4647 -0.7538 0.4647
vn 0.8315 0.0000 0.5556
vn 0.8643 0.0072 0.5030
vn 0.3718 -0.6148 0.6955
vn -0.5162 0.8536 -0.0700
vn 0.9807 0.0169 0.1947
vn 0.2567 -0.9279 0.2706
vn -0.0139 -0.9238 0.3827
vn -0.2844 -0.9197 -0.2706
vn -0.0139 -0.9238 -0.3827
vn -0.0283 -0.9996 0.0000
vn 0.0000 0.3343 0.9425
vn -0.0840 -0.1646 0.9828
vn 0.0840 -0.1646 0.9828
vn 0.7614 0.6476 0.0284
vn 0.1601 0.9867 0.0283
vn -0.7614 0.6476 0.0284
vn -0.1601 0.9867 0.0283
vn -0.4787 0.2551 -0.8401
vn -0.6831 0.4680 -0.5606
vn -0.5099 0.1664 -0.8440
vn -0.0980 0.0000 -0.9952
vn 0.9240 0.0087 0.3824
vn 0.9808 0.0170 0.1945
vn 1.0000 0.0087 -0.0003
vn 0.7071 -0.0000 0.7071
vn 0.7071 0.0001 0.7071
vn 0.3827 0.0000 0.9239
vn -0.3827 0.0000 0.9239
vn -0.7071 0.0000 0.7071
vn -0.9239 0.0000 0.3827
vn -0.9239 0.0000 -0.3827
vn -0.7071 0.0000 -0.7071
vn -0.3827 0.0000 -0.9239
vn 0.3827 0.0000 -0.9239
vn 0.7071 0.0000 -0.7071
vn 0.9239 0.0000 -0.3827
vn -0.5556 0.0000 -0.8315
vn -0.1951 0.0000 -0.9808
vn 0.0000 -1.0000 0.0000
vn 0.8315 0.0000 -0.5556
vn 0.0001 -1.0000 -0.0000
vn -0.0010 -1.0000 0.0000
vn -0.0001 -1.0000 -0.0000
vn 0.0010 -1.0000 0.0000
vn 0.5938 -0.7977 0.1050
vn -0.5938 -0.7977 0.1050
vn 0.8926 0.0000 0.4508
vn 0.7487 0.0000 0.6629
vn -0.3719 0.8944 -0.2485
vn -0.0581 0.9983 0.0000
vn 0.0581 0.9983 0.0000
vn -0.9318 -0.3630 0.0000
vn -0.9044 -0.4267 0.0000
vn -0.5600 0.8285 0.0000
vn 0.9044 -0.4267 0.0000
vn 0.9318 -0.3630 0.0000
vn 0.9318 -0.3630 0.0001
vn 0.9547 -0.2976 0.0000
vn -0.0564 -0.9984 0.0000
vn 0.0564 -0.9984 0.0000
vn 0.5907 0.8069 0.0000
vn -0.1127 -0.9936 0.0000
vn 0.5600 0.8285 0.0000
vn -0.9547 -0.2976 0.0000
vn -0.5907 0.8069 0.0000
vn 0.1127 -0.9936 0.0000
vn -0.6342 0.7603 0.1405
vn -0.9426 0.3097 0.1247
vn -0.9489 -0.3150 0.0174
vn -0.9490 -0.3149 0.0174
vn 0.0000 -0.9997 0.0226
vn -0.6365 -0.7711 0.0198
vn -0.6363 -0.7712 0.0198
vn -0.0000 0.9890 0.1482
vn 0.6342 0.7603 0.1405
vn 0.9883 0.1269 0.0844
vn 0.9426 0.3097 0.1247
vn -0.9883 0.1269 0.0844
vn -0.9641 0.2559 0.0710
vn 0.9489 -0.3150 0.0174
vn 0.9489 -0.3150 0.0172
vn 0.6363 -0.7712 0.0198
vn 0.9641 0.2559 0.0710
vn 0.9490 -0.3150 0.0142
vn 0.0320 0.9995 0.0000
vn -0.0320 0.9995 0.0000
vn -0.0320 -0.9995 0.0000
vn 0.0320 -0.9995 0.0000
vn 0.5707 -0.7165 0.4012
vn -0.9685 0.0000 0.2491
vn 0.0000 0.9236 0.3833
vn -0.5707 -0.7165 0.4012
vn 0.9685 0.0000 0.2491
vn 0.5900 -0.7221 0.3611
vn 0.0000 0.8799 0.4751
vn -0.5900 -0.7221 0.3611
vn -0.9005 0.0000 0.4349
vn -0.0000 0.9955 0.0945
vn -0.0011 0.9955 0.0945
vn 0.0001 0.9955 0.0945
vn 0.0011 0.9955 0.0945
vn 0.9005 0.0000 0.4349
vn -0.7151 0.6990 0.0000
vn 0.7151 0.6990 0.0000
vn 0.8406 -0.3982 0.3672
vn -0.0000 -0.8497 0.5273
vn -0.8406 -0.3982 0.3672
vn 0.0000 0.7907 0.6123
vn 0.9503 0.0000 0.3113
vn -0.9503 0.0000 0.3113
vn -0.8838 -0.4679 -0.0000
vn 0.0000 -0.5055 -0.8628
vn 0.8582 -0.5134 0.0000
vn -0.8582 -0.5134 0.0000
vn 0.0000 -0.5055 0.8628
vn 0.0000 -0.2632 -0.9647
vn 0.8838 -0.4679 -0.0000
vn 0.0000 -0.2632 0.9647
vn 0.4478 0.1016 0.8884
vn 0.2946 0.1482 0.9441
vn 0.4485 0.1238 0.8852
vn -0.2659 0.0647 0.9618
vn -0.4485 0.1238 0.8852
vn 0.0000 0.2205 0.9754
vn -0.3775 0.5209 0.7656
vn 0.0000 0.1813 0.9834
vn 0.4430 0.0000 0.8965
vn 0.5556 0.0000 0.8315
vn 0.6588 -0.0000 0.7523
vn -0.3207 0.0000 0.9472
vn -0.1951 0.0000 0.9808
vn -0.0662 -0.0000 0.9978
vn -0.8965 0.0000 0.4430
vn -0.8315 0.0000 0.5556
vn -0.7523 0.0000 0.6588
vn -0.3700 0.0310 0.9285
vn -0.5699 0.0477 0.8204
vn 0.5699 0.0477 0.8204
vn 0.3700 0.0310 0.9285
vn 0.4136 -0.4830 0.7718
vn 0.5557 -0.4146 0.7206
vn 0.0000 -0.5574 0.8303
vn -0.4136 -0.4830 0.7718
vn -0.5557 -0.4146 0.7206
vn -0.0013 -0.0025 1.0000
vn 0.0179 -0.0103 0.9998
vn 0.9350 0.0782 0.3459
vn -0.9350 0.0782 0.3459
vn 0.0341 -0.0260 0.9991
vn 0.0208 -0.0845 -0.9962
vn 0.0000 -0.1031 -0.9947
vn 0.8600 -0.3655 0.3562
vn 0.6582 -0.3655 0.6582
vn 0.3562 -0.3655 0.8600
vn -0.0000 -0.3655 0.9308
vn -0.3562 -0.3655 0.8600
vn -0.6582 -0.3655 0.6582
vn -0.8600 -0.3655 0.3562
vn -0.9308 -0.3655 0.0000
vn -0.8600 -0.3655 -0.3562
vn -0.6582 -0.3655 -0.6582
vn -0.3562 -0.3655 -0.8600
vn -0.0000 -0.3655 -0.9308
vn 0.3562 -0.3655 -0.8600
vn 0.6582 -0.3655 -0.6582
vn 0.8600 -0.3655 -0.3562
vn 0.9308 -0.3655 0.0000
vn -0.2763 -0.5411 0.7943
vn -0.5592 0.5344 0.6338
vn -0.2113 0.2019 0.9564
vn 0.5592 0.5344 0.6338
vn 0.2113 0.2019 0.9564
vn 0.7702 -0.3591 0.5271
vn 0.4239 -0.1977 0.8839
vn 0.5592 -0.5344 0.6338
vn 0.2113 -0.2019 0.9563
vn -0.5592 -0.5344 0.6338
vn -0.2113 -0.2019 0.9564
vn -0.2727 0.2606 0.9261
vn 0.2113 -0.2019 0.9564
vn -0.2113 0.2019 0.9563
vn 0.2727 0.2607 0.9261
vn -0.4240 -0.1977 0.8838
vn -0.7702 -0.3591 0.5271
vn 0.2113 0.2019 0.9563
vn 0.2763 -0.5411 0.7943
vn -0.4239 -0.1977 0.8839
vn 0.2112 0.2019 0.9564
vn -0.2113 -0.2019 0.9563
vn -0.2112 0.2019 0.9564
vn 0.2950 -0.2805 0.9134
vn 0.5960 -0.5666 0.5690
vn 0.9029 -0.0026 0.4298
vn 0.4238 -0.0012 0.9058
vn 0.7880 0.3775 0.4864
vn 0.4389 0.2103 0.8736
vn 0.0000 0.8370 0.5473
vn -0.7880 0.3775 0.4864
vn -0.4389 0.2103 0.8736
vn -0.9029 -0.0026 0.4298
vn -0.4237 -0.0012 0.9058
vn -0.5960 -0.5666 0.5690
vn -0.2950 -0.2805 0.9134
vn 0.4237 -0.0012 0.9058
vn 0.2951 -0.2805 0.9134
vn 0.5959 -0.5667 0.5690
vn 0.4388 0.2102 0.8736
vn 0.0000 -0.8779 0.4788
vn 0.0000 -0.4055 0.9141
vn -0.4238 -0.0012 0.9058
vn 0.0000 0.8370 0.5472
vn 0.7880 0.3775 0.4865
vn -0.9029 -0.0027 0.4298
vn -0.4351 -0.9004 0.0000
vn -0.6365 -0.7713 0.0000
vn -0.9491 -0.3151 0.0000
vn 0.9491 -0.3151 0.0000
vn 0.6365 -0.7713 0.0000
vn 0.4351 -0.9004 0.0000
vn -0.2287 -0.2218 0.9479
vn -0.6037 -0.5853 0.5412
vn -0.6314 0.6730 0.3852
vn -0.2342 0.4580 0.8576
vn 0.6990 0.6897 0.1889
vn 0.5363 0.4803 0.6940
vn 0.6907 -0.6210 0.3706
vn 0.5444 -0.2280 0.8073
vn 0.2287 0.2217 0.9479
vn 0.6037 0.5853 0.5412
vn 0.6012 -0.5642 0.5659
vn 0.2276 -0.2137 0.9500
vn -0.6873 -0.6041 0.4034
vn -0.5135 -0.2541 0.8196
vn -0.6903 0.6208 0.3715
vn -0.5508 0.2278 0.8030
vn 0.4867 0.0044 0.8735
vn 0.7740 0.3406 0.5338
vn 0.5397 -0.8392 0.0674
vn 0.4493 -0.6729 0.5877
vn -0.6372 -0.7012 0.3198
vn -0.2347 -0.4922 0.8382
vn -0.5974 0.5240 0.6071
vn -0.2261 0.1984 0.9537
vn 0.2345 -0.4923 0.8382
vn 0.6372 -0.7013 0.3196
vn -0.5396 -0.8392 0.0672
vn -0.4493 -0.6729 0.5876
vn -0.7740 0.3406 0.5338
vn -0.4867 0.0045 0.8735
vn 0.5974 0.5240 0.6071
vn 0.2261 0.1984 0.9537
vn 0.5508 0.2278 0.8030
vn 0.6903 0.6208 0.3715
vn 0.6873 -0.6041 0.4034
vn 0.5135 -0.2541 0.8196
vn -0.6012 -0.5642 0.5659
vn -0.2276 -0.2137 0.9500
vn -0.6037 0.5853 0.5412
vn -0.2287 0.2217 0.9479
vn 0.2261 0.1983 0.9537
vn -0.4493 -0.6729 0.5877
vn 0.2276 -0.2136 0.9500
vn 0.4868 0.0045 0.8735
vn 0.5396 -0.8392 0.0674
vn -0.5444 -0.2280 0.8072
vn -0.6907 -0.6210 0.3706
vn -0.6990 0.6900 0.1879
vn -0.5364 0.4804 0.6939
vn 0.6316 0.6734 0.3843
vn 0.2336 0.4581 0.8577
vn 0.6037 -0.5853 0.5412
vn 0.2287 -0.2218 0.9479
vn 0.2287 -0.2217 0.9479
vn 0.5444 -0.2280 0.8072
vn 0.0377 -0.0704 0.9968
vn 0.3859 -0.3613 0.8489
vn 0.5919 0.0023 0.8060
vn -0.1353 0.0009 0.9908
vn -0.1303 -0.0323 0.9909
vn 0.4988 0.1186 0.8586
vn 0.2592 0.4078 0.8755
vn 0.0007 0.0277 0.9996
vn -0.0000 0.5447 0.8386
vn -0.2592 0.4078 0.8755
vn -0.0007 0.0276 0.9996
vn -0.0001 -0.0611 0.9981
vn -0.2592 0.4079 0.8755
vn -0.4987 0.1186 0.8586
vn 0.1304 -0.0323 0.9909
vn 0.0008 0.0277 0.9996
vn 0.1303 -0.0324 0.9909
vn -0.4988 0.1186 0.8586
vn -0.1304 -0.0324 0.9909
vn -0.0003 -0.0107 0.9999
vn -0.0377 -0.0702 0.9968
vn -0.3859 -0.3613 0.8489
vn -0.0000 -0.6394 0.7689
vn -0.5919 0.0023 0.8060
vn 0.1353 0.0009 0.9908
vn 0.4366 0.0000 0.8996
vn -0.3097 -0.9280 0.2070
vn -0.6641 0.0000 -0.7477
vn -0.3097 0.9280 0.2069
vn 0.9449 0.0000 0.3274
vn -0.0727 -0.9280 0.3653
vn -0.9983 0.0000 -0.0591
vn -0.0727 0.9280 0.3653
vn 0.8996 0.0000 -0.4366
vn 0.2069 -0.9280 0.3097
vn -0.7477 0.0000 0.6641
vn 0.2069 0.9280 0.3097
vn 0.0000 -0.2050 0.9788
vn 0.0000 -0.2050 -0.9788
vn -0.9818 -0.1898 0.0000
vn 0.9818 -0.1898 0.0000
vn 0.9239 0.0000 0.3827
vn -0.9472 0.0000 -0.3207
vn -0.6588 0.0000 -0.7523
vn -0.4430 0.0000 -0.8965
vn 0.0662 0.0000 -0.9978
vn 0.3207 0.0000 -0.9472
vn 0.7523 0.0000 -0.6588
vn 0.8965 0.0000 -0.4430
vn 0.9978 0.0000 0.0662
vn 0.9472 0.0000 0.3207
vn -0.9978 0.0000 -0.0662
vn -0.9606 0.2781 0.0000
vn -0.9416 0.3368 0.0000
vn -0.9605 0.2781 -0.0000
vn -0.0000 0.2992 -0.9542
vn 0.0000 0.3615 -0.9324
vn 0.0000 0.2991 -0.9542
vn 0.9606 0.2781 -0.0000
vn 0.9416 0.3368 0.0000
vn 0.0000 0.2991 0.9542
vn 0.0000 0.3615 0.9324
vn -0.9759 0.2183 0.0000
vn 0.0000 0.2356 -0.9719
vn 0.9759 0.2183 0.0000
vn 0.0000 0.2356 0.9719
vn 0.0312 -0.1267 -0.9914
vn -0.0000 -0.0521 0.9986
vn 0.0681 -0.0520 0.9963
vn 0.0000 -0.0476 -0.9989
vn -0.0622 -0.0475 -0.9969
vn -0.0681 -0.0520 0.9963
vn -0.0601 -0.0328 0.9977
vn -0.0705 -0.0508 0.9962
vn 0.9808 0.0000 0.1951
vn -0.9808 0.0000 -0.1951
vn 0.1951 0.0000 -0.9808
g Castle_Castle_wall1
usemtl wall1
s off
f 1079//1 1104//1 1103//1 1077//1
f 1080//2 1096//2 1095//2 1082//2
f 1075//1 1094//1 1093//1 1074//1
f 1079//1 1077//1 1078//1
f 1075//1 1074//1 1076//1
f 1081//2 1080//2 1082//2
f 1044//1 1047//1 1079//1 1078//1 1037//1
f 1045//3 1039//3 1072//3 1073//3 1046//3
f 1040//1 1043//1 1075//1 1076//1 1038//1
f 1081//2 1082//2 1042//2 1041//2 1036//2
f 1147//4 1144//4 1130//4 1129//4
f 1148//4 1146//4 1134//4 1133//4
f 1137//4 1143//4 1145//4 1138//4
f 243//4 1138//4 1145//4 1136//4 381//4
f 1134//4 1146//4 1132//4 374//4 119//4
f 1130//4 1144//4 1128//4 367//4 17//4
f 332//1 333//1 1090//1 1088//1
f 115//2 1038//2 1076//2 1092//2 334//2 335//2 1287//2
f 334//4 1092//4 1090//4 333//4
f 1046//4 1073//4 1079//4 1047//4
f 1039//5 1045//5 1044//5 1037//5
f 1042//4 1082//4 1075//4 1043//4
f 1036//5 1041//5 1040//5 1038//5
f 1041//6 1042//6 1043//6 1040//6
f 1045//6 1046//6 1047//6 1044//6
f 116//1 1032//1 1025//1 384//1
f 347//2 1023//2 1031//2 27//2
f 378//4 584//4 583//4 125//4
f 123//4 582//4 581//4 376//4
f 432//4 963//4 979//4 958//4 955//4 981//4 975//4 438//4
f 438//4 975//4 983//4 973//4 437//4
f 340//4 437//4 973//4 982//4 952//4 950//4
f 343//4 949//4 957//4 978//4 965//4 431//4
f 431//4 965//4 980//4 963//4 432//4
f 116//5 384//5 386//5 244//5
f 241//1 244//1 386//1 380//1
f 117//2 1037//2 1078//2 1077//2 1286//2 949//2 343//2 341//2
f 117//5 341//5 342//5 120//5
f 342//1 340//1 950//1 1285//1 1080//1 1081//1 1036//1 120//1
f 1088//5 1287//5 335//5 332//5
f 114//2 243//2 381//2 368//2
f 380//4 1135//4 1143//4 1137//4 241//4
f 119//1 374//1 378//1 125//1
f 118//2 123//2 376//2 372//2
f 368//4 1131//4 1148//4 1133//4 114//4
f 372//4 1127//4 1147//4 1129//4 118//4
s 1
f 1069//6 1073//7 1070//8 1068//9
f 1068//9 1070//10 1071//10 1069//6
f 1071//11 1070//12 1073//13 1072//14
f 426//15 1028//16 1024//17 383//18
f 1025//19 1029//19 427//19 384//19
f 772//20 796//21 801//22
f 767//20 816//21 837//22
f 757//20 804//21 813//22
f 637//23 664//24 665//23
f 639//25 666//25 667//26
f 1050//27 1049//28 1048//28 1051//29
f 345//30 1025//5 1032//5 1020//30
f 2//31 1071//31 1072//32 1039//32 113//33 1//33
f 3//34 1069//35 1071//31 2//31
f 4//36 1067//36 1069//34 3//34
f 5//4 1065//4 1067//36 4//36
f 6//37 1063//37 1065//4 5//4
f 7//38 1061//38 1063//37 6//37
f 8//39 1059//39 1061//38 7//38
f 9//2 1057//2 1059//39 8//39
f 10//40 1055//40 1057//2 9//2
f 11//41 1053//41 1055//40 10//40
f 12//42 1051//29 1053//41 11//41
f 13//5 112//5 1050//27 1051//29 12//42
f 14//43 111//43 112//5 13//5
f 15//44 110//44 111//43 14//43
f 16//45 109//45 110//44 15//44
f 1//33 113//33 109//45 16//45
f 17//10 367//10 365//34 18//34
f 18//34 365//34 363//36 19//36
f 19//36 363//36 361//4 20//4
f 20//4 361//4 359//37 21//37
f 21//37 359//37 357//38 22//38
f 22//38 357//38 355//39 23//39
f 23//39 355//39 353//2 24//2
f 24//2 353//2 351//40 25//40
f 25//40 351//40 349//41 26//41
f 26//41 349//41 347//46 27//46
f 1020//30 1031//47 1023//47 345//30
g Castle_Castle_wall2
usemtl wall2
s off
f 1106//48 1125//48 1068//48 1070//48
f 1116//6 1118//6 1063//6 1061//6
f 1058//48 1113//48 1111//48 1056//48
f 1060//48 1115//48 1113//48 1058//48
f 1122//6 1126//6 1069//6 1067//6
f 1068//48 1125//48 1121//48 1066//48
f 1066//48 1121//48 1119//48 1064//48
f 1062//48 1117//48 1115//48 1060//48
f 1108//6 1110//6 1055//6 1053//6
f 1114//6 1116//6 1061//6 1059//6
f 1064//48 1119//48 1117//48 1062//48
f 1112//6 1114//6 1059//6 1057//6
f 1120//6 1122//6 1067//6 1065//6
f 1052//48 1107//48 1124//48 1048//48
f 1048//49 1124//49 1123//49 1051//49
f 1053//6 1051//6 1123//6 1108//6
f 1056//48 1111//48 1109//48 1054//48
f 1054//48 1109//48 1107//48 1052//48
f 1118//6 1120//6 1065//6 1063//6
f 1110//6 1112//6 1057//6 1055//6
f 1077//48 1103//48 1106//48 1070//48 1083//48 1084//48
f 1090//6 1098//6 1102//6 1088//6
f 1088//5 1102//5 1101//5 1087//5
f 1089//48 1087//48 1101//48 1097//48
f 1097//48 1100//48 1091//48 1089//48
f 1091//2 1100//2 1099//2 1092//2
f 1092//6 1099//6 1098//6 1090//6
f 1085//48 1086//48 1074//48 1093//48 1096//48 1080//48
f 1082//6 1095//6 1094//6 1075//6
f 1092//2 1076//2 1074//2 1091//2
f 1104//4 1105//4 1106//4 1103//4
f 1098//4 1099//4 1100//4 1097//4
f 1094//4 1095//4 1096//4 1093//4
f 1097//1 1101//1 1102//1 1098//1
f 389//2 1026//2 1027//2 390//2
f 390//48 1027//48 1023//48 347//48
f 427//1 1029//1 1028//1 426//1
f 346//6 1022//6 1026//6 389//6
f 1009//50 1006//51 974//51 977//50
f 976//52 962//53 994//53 1008//52
f 972//53 1004//53 1009//48 977//48
f 1008//48 996//51 964//51 976//48
f 950//1 1019//1 1018//1 951//1
f 948//2 1017//2 1016//2 949//2
f 1014//4 1002//4 1003//4
f 1013//4 1001//4 1000//4
f 1010//4 998//4 999//4
f 990//4 1011//4 993//4 991//4
f 1005//4 1015//4 1009//4 1004//4
f 1006//4 1009//4 1015//4 1007//4
f 1004//4 1002//4 1014//4 1005//4
f 1000//4 1006//4 1007//4 1013//4
f 986//4 1001//4 1013//4 987//4
f 1011//4 992//4 993//4
f 987//4 990//4 991//4 986//4
f 984//4 1014//4 1003//4 985//4
f 995//4 1012//4 1008//4 994//4
f 996//4 1008//4 1012//4 997//4
f 994//4 992//4 1011//4 995//4
f 985//4 1018//4 1019//4 984//4
f 989//4 1016//4 1017//4 988//4
f 997//4 1010//4 999//4 996//4
f 988//4 998//4 1010//4 989//4
f 624//54 649//54 664//54 637//54
f 627//55 639//55 667//55 656//55
f 656//48 655//48 627//48
f 650//48 649//48 624//48
f 628//4 632//4 639//4 627//4
f 585//4 656//4 667//4 638//4
f 585//4 638//4 664//4 649//4
f 624//4 637//4 636//4 629//4
f 629//4 636//4 635//4 625//4
f 625//4 635//4 634//4 586//4
f 586//4 634//4 633//4 626//4
f 626//4 633//4 632//4 628//4
f 367//48 410//48 408//48 365//48
f 344//6 1024//6 1028//6 387//6
f 419//48 415//48 372//48 376//48
f 374//48 417//48 421//48 378//48
f 405//6 407//6 364//6 362//6
f 415//48 410//48 367//48 1128//48 1127//48 372//48
f 355//48 398//48 396//48 353//48
f 363//48 406//48 404//48 361//48
f 351//48 394//48 392//48 349//48
f 423//48 424//48 381//48 1136//48 1135//48 380//48
f 428//6 426//6 383//6 385//6
f 397//6 399//6 356//6 354//6
f 353//48 396//48 394//48 351//48
f 393//6 395//6 352//6 350//6
f 376//48 581//48 370//48 413//48 419//48
f 349//48 392//48 390//48 347//48
f 369//6 412//6 425//6 382//6
f 385//6 379//6 422//6 428//6
f 391//6 393//6 350//6 348//6
f 1140//6 1139//6 382//6 425//6 422//6 379//6
f 409//6 414//6 371//6 688//6 711//6 366//6
f 401//6 403//6 360//6 358//6
f 357//48 400//48 398//48 355//48
f 416//6 412//6 369//6 714//6 689//6 373//6
f 377//6 435//6 436//6 434//6 433//6 375//6 418//6 430//6 420//6
f 370//48 584//48 378//48 421//48 413//48
f 371//6 414//6 418//6 375//6
f 395//6 397//6 354//6 352//6
f 373//6 377//6 420//6 416//6
f 384//48 427//48 429//48 386//48
f 403//6 405//6 362//6 360//6
f 361//48 404//48 402//48 359//48
f 387//6 1026//6 1022//6 344//6
f 1023//48 1027//48 388//48 345//48
f 359//48 402//48 400//48 357//48
f 365//48 408//48 406//48 363//48
f 399//6 401//6 358//6 356//6
f 389//6 391//6 348//6 346//6
f 388//48 1029//48 1025//48 345//48
f 368//48 381//48 424//48 411//48
f 407//6 409//6 366//6 364//6
f 380//48 386//48 429//48 423//48
f 411//48 417//48 374//48 1132//48 1131//48 368//48
f 412//4 416//4 417//4 411//4
f 423//1 429//1 428//1 422//1
f 410//4 415//4 414//4 409//4
f 426//5 428//5 429//5 427//5
f 430//4 418//4 419//4 413//4
f 413//4 421//4 420//4 430//4
f 416//1 420//1 421//1 417//1
f 422//4 425//4 424//4 423//4
f 411//2 424//2 425//2 412//2
f 415//2 419//2 418//2 414//2
s 1
f 1105//56 1126//57 1125//57 1106//56
f 1073//7 1069//6 1126//6 1105//6
f 1073//58 1105//6 1104//6 1079//6
f 1115//38 1117//37 1118//37 1116//38
f 1113//39 1115//38 1116//38 1114//39
f 1119//4 1121//36 1122//36 1120//4
f 1108//41 1123//46 1124//46 1107//41
f 1121//36 1125//57 1126//57 1122//36
f 1111//2 1113//39 1114//39 1112//2
f 1107//41 1109//40 1110//40 1108//41
f 1117//37 1119//4 1120//4 1118//37
f 1109//40 1111//2 1112//2 1110//40
f 955//59 958//60 990//60 987//59
f 960//61 992//61 994//62 962//62
f 997//63 1012//6 980//6 965//63
f 964//64 996//64 999//65 967//66
f 968//66 1000//65 1001//67 969//67
f 959//68 954//69 986//69 991//68
f 979//70 1011//70 990//60 958//60
f 991//68 993//71 961//71 959//68
f 963//72 980//6 1012//6 995//72
f 961//73 993//73 992//61 960//61
f 974//64 1006//64 1000//65 968//66
f 970//61 1002//61 1004//62 972//62
f 989//59 1010//74 978//74 957//59
f 995//72 1011//70 979//70 963//72
f 973//72 983//6 1015//6 1005//72
f 987//59 1013//74 981//74 955//59
f 965//63 978//74 1010//74 997//63
f 1007//63 1015//6 983//6 975//63
f 966//75 998//75 988//69 956//69
f 952//60 984//60 1019//6 950//6
f 953//68 951//48 1018//48 985//68
f 967//66 999//65 998//67 966//67
f 975//63 981//74 1013//74 1007//63
f 969//75 1001//75 986//69 954//69
f 1005//72 1014//70 982//70 973//72
f 982//70 1014//70 984//60 952//60
f 956//69 988//69 1017//48 948//48
f 957//59 949//6 1016//6 989//59
f 971//73 1003//73 1002//61 970//61
f 985//68 1003//71 971//71 953//68
f 625//76 652//76 658//77 629//77
f 632//78 659//79 666//25 639//25
f 634//80 661//80 660//81 633//82
f 586//83 626//84 653//84 648//83
f 627//85 654//85 657//86 628//86
f 624//87 651//87 650//88
f 636//89 663//90 662//91 635//91
f 629//77 658//77 651//87 624//87
f 648//83 652//76 625//76 586//83
f 635//91 662//91 661//80 634//80
f 627//85 655//92 654//85
f 633//82 660//81 659//79 632//78
f 626//84 628//86 657//86 653//84
f 637//23 665//23 663//89 636//93
f 408//34 410//10 409//10 407//34
f 400//38 402//37 401//37 399//38
f 396//2 398//39 397//39 395//2
f 392//41 394//40 393//40 391//41
f 404//4 406//36 405//36 403//4
f 394//40 396//2 395//2 393//40
f 387//30 1028//5 1029//5 388//30
f 390//46 392//41 391//41 389//46
f 398//39 400//38 399//38 397//39
f 406//36 408//34 407//34 405//36
f 402//37 404//4 403//4 401//37
f 388//30 1027//47 1026//47 387//30
g Castle_Castle_wall3
usemtl wall3
s off
f 1287//5 1088//5 1087//5 385//5 383//5 115//5
f 371//2 375//2 948//2 949//2 1286//2 690//2 696//2
f 373//1 695//1 692//1 1285//1 950//1 951//1 377//1
f 1151//2 1225//2 1224//2 1150//2
f 1171//94 1228//94 1223//94 1149//94
f 1149//1 1223//1 1226//1 1152//1
f 1150//95 1224//95 1228//95 1171//95
f 1165//96 1227//96 1225//96 1151//96
f 1152//97 1226//97 1227//97 1165//97
f 1161//1 1217//1 1220//1 1164//1
f 1164//97 1220//97 1221//97 1169//97
f 1169//96 1221//96 1219//96 1163//96
f 1170//94 1222//94 1217//94 1161//94
f 1162//95 1218//95 1222//95 1170//95
f 1163//2 1219//2 1218//2 1162//2
f 1156//97 1214//97 1216//97 1168//97
f 1154//95 1212//95 1215//95 1166//95
f 1155//2 1213//2 1212//2 1154//2
f 1153//1 1211//1 1214//1 1156//1
f 1168//96 1216//96 1213//96 1155//96
f 1166//94 1215//94 1211//94 1153//94
f 1158//1 1206//1 1205//1 1157//1
f 1160//2 1208//2 1207//2 1159//2
f 1145//4 1161//4 1164//4 1136//4
f 1136//4 1164//4 1169//4 1163//4 1135//4
f 1135//4 1163//4 1162//4 1143//4
f 1143//4 1162//4 1170//4 1161//4 1145//4
f 1141//4 1157//4 1167//4 1160//4 1142//4
f 1142//4 1160//4 1159//4 1140//4
f 1140//4 1159//4 1172//4 1158//4 1139//4
f 1139//4 1158//4 1157//4 1141//4
f 1144//4 1153//4 1156//4 1128//4
f 1128//4 1156//4 1168//4 1155//4 1127//4
f 1127//4 1155//4 1154//4 1147//4
f 1147//4 1154//4 1166//4 1153//4 1144//4
f 1146//4 1149//4 1152//4 1132//4
f 1132//4 1152//4 1165//4 1151//4 1131//4
f 1131//4 1151//4 1150//4 1148//4
f 1148//4 1150//4 1171//4 1149//4 1146//4
f 1142//4 1140//4 379//4 327//4
f 383//1 1024//1 1035//1 115//1
f 28//48 1020//48 1032//48 116//48
f 27//48 1031//48 1020//48 28//48
f 346//2 1048//2 1049//2 1030//2 1022//2
f 706//98 737//98 736//98 705//98
f 704//99 735//99 738//99 718//99
f 718//100 738//100 739//100 719//100
f 705//101 736//101 735//101 704//101
f 719//102 739//102 737//102 706//102
f 701//99 730//99 733//99 716//99
f 703//103 732//103 731//103 702//103
f 716//104 733//104 734//104 717//104
f 702//105 731//105 730//105 701//105
f 717//102 734//102 732//102 703//102
f 712//100 729//100 728//100 710//100
f 707//98 725//98 726//98 708//98
f 709//99 727//99 729//99 712//99
f 708//101 726//101 727//101 709//101
f 710//102 728//102 725//102 707//102
f 699//105 721//105 722//105 700//105
f 698//103 720//103 721//103 699//103
f 700//99 722//99 724//99 715//99
f 715//104 724//104 723//104 713//104
f 713//102 723//102 720//102 698//102
f 688//4 718//4 719//4
f 714//4 715//4 713//4
f 712//4 710//4 711//4
f 689//4 716//4 717//4
f 689//4 717//4 695//4 373//4
f 688//4 719//4 706//4 705//4 1084//4 1083//4 708//4 709//4 712//4 711//4
f 714//4 713//4 698//4 699//4 1086//4 1085//4 702//4 701//4 716//4 689//4
f 711//4 710//4 694//4 366//4
f 697//4 715//4 714//4 369//4
f 696//4 718//4 688//4 371//4
f 1074//4 1086//4 699//4 700//4 691//4
f 695//4 717//4 703//4 692//4
f 1286//4 1077//4 1084//4 705//4 704//4 690//4
f 694//4 710//4 707//4 693//4
f 691//4 700//4 715//4 697//4
f 1085//4 1080//4 1285//4 692//4 703//4 702//4
f 690//4 704//4 718//4 696//4
f 647//106 666//106 659//106 640//106
f 646//107 638//107 667//108 666//108 647//108
f 638//109 646//109 645//110 665//110 664//110
f 644//111 663//111 665//111 645//111
f 590//48 611//48 610//48 601//48
f 603//5 607//5 600//5 592//5
f 600//48 607//48 606//48 587//48
f 609//2 610//2 611//2 608//2
f 602//1 606//1 607//1 603//1
f 581//6 591//6 593//6 370//6
f 370//6 593//6 592//6 584//6
f 583//48 600//48 587//48 655//48 656//48 585//48 649//48 650//48 590//48 601//48 582//48
f 582//2 601//2 591//2 581//2
f 595//112 598//112 599//112 594//112
f 594//113 596//113 597//113 595//113
f 584//1 592//1 600//1 583//1
f 528//114 974//114 968//114 521//114
f 977//115 974//115 528//115 523//115
f 523//115 527//115 972//115 977//115
f 970//116 972//116 527//116 522//116
f 444//117 524//117 526//117 441//117
f 441//118 526//118 529//118 521//118 968//118 969//118
f 442//119 971//119 970//119 522//119 532//119 525//119
f 442//117 525//117 524//117 444//117
f 440//119 961//119 960//119 513//119 531//119 520//119
f 440//117 520//117 515//117 443//117
f 443//117 515//117 519//117 439//117
f 439//118 519//118 530//118 514//118 967//118 966//118
f 516//115 518//115 962//115 976//115
f 513//116 960//116 962//116 518//116
f 514//114 517//114 964//114 967//114
f 976//115 964//115 517//115 516//115
f 377//4 951//4 953//4 971//4 442//4 435//4
f 435//4 442//4 444//4 441//4 436//4
f 436//4 441//4 969//4 954//4 959//4 961//4 440//4 434//4
f 434//4 440//4 443//4 439//4 433//4
f 375//4 433//4 439//4 966//4 956//4 948//4
f 336//120 341//120 343//120 339//120
f 1087//1 1089//1 327//1 379//1 385//1
f 1091//2 1074//2 691//2 326//2
f 326//4 1141//4 1142//4 327//4 1089//4 1091//4
f 691//2 697//2 369//2 382//2 326//2
f 332//121 335//121 330//121 331//121
f 382//4 1139//4 1141//4 326//4
f 331//122 328//122 333//122 332//122
f 330//123 335//123 334//123 329//123
f 116//48 244//48 241//48 1137//48 1138//48 243//48 114//48
f 329//124 334//124 333//124 328//124
f 337//125 342//125 341//125 336//125
f 340//126 342//126 337//126 338//126
f 119//48 125//48 583//48 582//48 123//48 118//48
f 707//4 708//4 1083//4 1070//4 693//4
f 338//127 339//127 343//127 431//127 432//127 438//127 437//127 340//127
f 28//48 116//48 114//48 1133//48 1134//48 119//48 118//48 1129//48 1130//48 17//48
f 18//48 19//48 20//48 21//48 22//48 23//48 24//48 25//48 26//48 27//48 28//48 17//48
s 1
f 589//128 611//129 630//130
f 606//131 631//132 587//133
f 588//134 606//131 602//135
f 608//135 611//129 589//128
f 362//136 1269//137 1272//137 1066//136
f 1066//136 1272//137 1271//137 1068//138
f 1068//138 1271//137 1270//137 364//138
f 364//138 1270//137 1269//137 362//136
f 358//139 1265//140 1268//140 1062//139
f 1062//139 1268//140 1267//140 1064//141
f 1064//141 1267//140 1266//140 360//141
f 360//141 1266//140 1265//140 358//139
f 354//142 1261//143 1264//143 1058//142
f 1058//142 1264//143 1263//143 1060//144
f 1060//144 1263//143 1262//143 356//144
f 356//144 1262//143 1261//143 354//142
f 1167//48 1209//48 1208//96 1160//96
f 1159//95 1207//95 1210//6 1172//6
f 1157//97 1205//97 1209//48 1167//48
f 1172//6 1210//6 1206//94 1158//94
f 631//145 657//4 654//146
f 651//147 658//4 630//148
f 643//149 662//149 663//150 644//150
f 642//151 661//151 662//149 643//149
f 641//152 660//152 661//151 642//151
f 640//153 659//153 660//152 641//152
f 588//154 653//155 657//4 631//145
f 590//156 650//156 651//147 630//148
f 587//157 631//145 654//146 655//157
f 589//158 630//148 658//4 652//158
f 630//130 611//129 590//133
f 591//159 601//5 610//5 609//160
f 631//132 606//131 588//134
f 344//30 1021//30 1033//5 1034//5 1035//5 1024//5
f 2//161 29//161 44//162 3//162
f 3//162 44//162 43//163 4//163
f 4//163 43//163 42//164 5//164
f 5//164 42//164 41//165 6//165
f 6//165 41//165 40//166 7//166
f 7//166 40//166 39//167 8//167
f 8//167 39//167 38//168 9//168
f 9//168 38//168 37//169 10//169
f 10//169 37//169 36//170 11//170
f 11//170 36//170 35//171 12//171
f 12//171 35//171 34//172 13//172
f 13//172 34//172 33//173 14//173
f 14//173 33//173 32//174 15//174
f 15//174 32//174 31//175 16//175
f 16//175 31//175 30//176 1//176
f 1//176 30//176 29//161 2//161
f 366//10 694//10 693//10 1070//10 1068//138 364//138
f 362//136 1066//136 1064//141 360//141
f 358//139 1062//139 1060//144 356//144
f 354//142 1058//142 1056//2 352//2
f 352//2 1056//2 1054//40 350//40
f 350//40 1054//40 1052//41 348//41
f 348//41 1052//41 1048//46 346//46
f 344//30 1022//47 1030//47 1021//30
g Castle_Castle_wood
usemtl wood
s off
f 1201//48 1257//48 1260//48 1204//48
f 1204//2 1260//2 1259//2 1203//2
f 1203//6 1259//6 1258//6 1202//6
f 1202//1 1258//1 1257//1 1201//1
f 1173//48 1253//48 1256//48 1176//48
f 1176//2 1256//2 1255//2 1175//2
f 1175//6 1255//6 1254//6 1174//6
f 1174//1 1254//1 1253//1 1173//1
f 1177//6 1249//6 1252//6 1180//6
f 1180//1 1252//1 1251//1 1179//1
f 1179//48 1251//48 1250//48 1178//48
f 1178//2 1250//2 1249//2 1177//2
f 1193//48 1245//48 1248//48 1196//48
f 1196//2 1248//2 1247//2 1195//2
f 1195//6 1247//6 1246//6 1194//6
f 1194//1 1246//1 1245//1 1193//1
f 1189//48 1241//48 1244//48 1192//48
f 1192//2 1244//2 1243//2 1191//2
f 1191//6 1243//6 1242//6 1190//6
f 1190//1 1242//1 1241//1 1189//1
f 1197//6 1237//6 1240//6 1200//6
f 1200//1 1240//1 1239//1 1199//1
f 1199//48 1239//48 1238//48 1198//48
f 1198//2 1238//2 1237//2 1197//2
f 1181//6 1233//6 1236//6 1184//6
f 1184//1 1236//1 1235//1 1183//1
f 1183//48 1235//48 1234//48 1182//48
f 1182//2 1234//2 1233//2 1181//2
f 1185//6 1229//6 1232//6 1188//6
f 1188//1 1232//1 1231//1 1187//1
f 1187//48 1231//48 1230//48 1186//48
f 1186//2 1230//2 1229//2 1185//2
f 1215//4 1174//4 1185//4
f 1216//4 1186//4 1173//4
f 1228//4 1202//4 1181//4
f 1227//4 1182//4 1201//4
f 1210//4 1190//4 1177//4
f 1209//4 1178//4 1189//4
f 1222//4 1194//4 1197//4
f 1221//4 1198//4 1193//4
f 1193//4 1198//4 1197//4 1194//4
f 1177//4 1190//4 1189//4 1178//4
f 1173//4 1186//4 1185//4 1174//4
f 1181//4 1202//4 1201//4 1182//4
f 1183//4 1226//4 1223//4 1184//4
f 1180//4 1206//4 1210//4 1177//4
f 1190//4 1210//4 1207//4 1191//4
f 1184//4 1223//4 1228//4 1181//4
f 1202//4 1228//4 1224//4 1203//4
f 1199//4 1220//4 1217//4 1200//4
f 1200//4 1217//4 1222//4 1197//4
f 1194//4 1222//4 1218//4 1195//4
f 1175//4 1212//4 1213//4 1176//4
f 1196//4 1219//4 1221//4 1193//4
f 1198//4 1221//4 1220//4 1199//4
f 1176//4 1213//4 1216//4 1173//4
f 1186//4 1216//4 1214//4 1187//4
f 1192//4 1208//4 1209//4 1189//4
f 1178//4 1209//4 1205//4 1179//4
f 1203//4 1224//4 1225//4 1204//4
f 1188//4 1211//4 1215//4 1185//4
f 1174//4 1215//4 1212//4 1175//4
f 1195//4 1218//4 1219//4 1196//4
f 1187//4 1214//4 1211//4 1188//4
f 1191//4 1207//4 1208//4 1192//4
f 1204//4 1225//4 1227//4 1201//4
f 1182//4 1227//4 1226//4 1183//4
f 1179//4 1205//4 1206//4 1180//4
f 867//4 874//4 871//4 738//4 735//4
f 871//4 872//4 870//4 739//4 738//4
f 737//4 739//4 870//4 877//4 869//4
f 736//4 737//4 869//4 868//4
f 735//4 736//4 868//4 867//4
f 862//4 883//4 866//4 733//4 730//4
f 866//4 878//4 865//4 734//4 733//4
f 732//4 734//4 865//4 880//4 864//4
f 731//4 732//4 864//4 863//4
f 730//4 731//4 863//4 862//4
f 857//4 881//4 861//4 729//4 727//4
f 728//4 729//4 861//4 876//4 860//4
f 725//4 728//4 860//4 873//4 859//4
f 859//4 858//4 726//4 725//4
f 858//4 857//4 727//4 726//4
f 852//4 879//4 856//4 724//4 722//4
f 723//4 724//4 856//4 875//4 855//4
f 720//4 723//4 855//4 882//4 854//4
f 854//4 853//4 721//4 720//4
f 853//4 852//4 722//4 721//4
f 670//6 685//6 684//6 669//6
f 669//1 684//1 683//1 668//1
f 673//6 678//6 682//6 677//6
f 674//2 679//2 678//2 673//2
f 646//4 673//4 677//4 645//4
f 645//4 677//4 676//4 644//4
f 644//4 676//4 675//4 643//4
f 643//4 675//4 674//4 642//4
f 642//4 674//4 673//4 646//4
f 642//4 668//4 672//4 641//4
f 641//4 672//4 671//4 640//4
f 640//4 671//4 670//4 647//4
f 647//4 670//4 669//4 646//4
f 646//4 669//4 668//4 642//4
f 679//4 680//4 681//4 682//4 678//4
f 684//4 685//4 686//4 687//4 683//4
s 1
f 796//21 944//177 947//178 799//179
f 799//179 947//178 946//180 798//181
f 798//181 946//180 945//182 797//183
f 797//183 945//182 944//177 796//21
f 828//181 940//180 943//184 831//185
f 831//185 943//184 942//186 830//187
f 830//187 942//186 941//178 829//188
f 829//188 941//178 940//180 828//181
f 820//189 936//184 939//186 823//187
f 823//187 939//186 938//178 822//190
f 822//190 938//178 937//180 821//191
f 821//191 937//180 936//184 820//189
f 812//192 932//193 935//178 815//179
f 815//179 935//178 934//180 814//194
f 814//194 934//180 933//195 813//22
f 813//22 933//195 932//193 812//192
f 836//196 928//193 931//178 839//179
f 839//179 931//178 930//180 838//181
f 838//181 930//180 929//195 837//22
f 837//22 929//195 928//193 836//196
f 816//21 924//177 927//178 819//190
f 819//190 927//178 926//180 818//181
f 818//181 926//180 925//182 817//183
f 817//183 925//182 924//177 816//21
f 804//21 920//177 923//178 807//190
f 807//190 923//178 922//180 806//181
f 806//181 922//180 921//182 805//183
f 805//183 921//182 920//177 804//21
f 844//21 916//177 919//178 847//179
f 847//179 919//178 918//180 846//181
f 846//181 918//180 917//182 845//183
f 845//183 917//182 916//177 844//21
f 832//194 912//180 915//184 835//189
f 835//189 915//184 914//186 834//187
f 834//187 914//186 913//178 833//188
f 833//188 913//178 912//180 832//194
f 840//197 908//180 911//184 843//185
f 843//185 911//184 910//186 842//187
f 842//187 910//186 909//178 841//188
f 841//188 909//178 908//180 840//197
f 788//196 904//193 907//178 791//179
f 791//179 907//178 906//180 790//194
f 790//194 906//180 905//195 789//22
f 789//22 905//195 904//193 788//196
f 824//189 900//184 903//186 827//187
f 827//187 903//186 902//178 826//190
f 826//190 902//178 901//180 825//191
f 825//191 901//180 900//184 824//189
f 800//196 896//193 899//178 803//179
f 803//179 899//178 898//180 802//181
f 802//181 898//180 897//195 801//22
f 801//22 897//195 896//193 800//196
f 808//189 892//184 895//186 811//198
f 811//198 895//186 894//178 810//179
f 810//179 894//178 893//180 809//191
f 809//191 893//180 892//184 808//189
f 792//194 888//180 891//184 795//189
f 795//189 891//184 890//186 794//187
f 794//187 890//186 889//178 793//188
f 793//188 889//178 888//180 792//194
f 848//189 884//184 887//186 851//198
f 851//198 887//186 886//178 850//199
f 850//199 886//178 885//180 849//191
f 849//191 885//180 884//184 848//189
f 770//200 866//201 883//202 781//203
f 781//203 883//202 862//204 766//205
f 772//20 868//206 869//207 773//208
f 758//208 854//207 882//209 785//210
f 785//210 882//209 855//211 759//212
f 765//200 861//201 881//202 787//213
f 787//213 881//202 857//204 761//205
f 761//205 857//204 858//206 762//20
f 768//208 864//207 880//209 782//210
f 782//210 880//209 865//211 769//212
f 760//214 856//215 879//202 778//203
f 778//203 879//202 852//204 756//216
f 769//212 865//211 878//217 779//218
f 779//218 878//217 866//201 770//200
f 773//208 869//207 877//209 776//219
f 776//219 877//209 870//211 774//212
f 764//212 860//211 876//217 786//218
f 786//218 876//217 861//201 765//200
f 756//216 852//204 853//220 757//20
f 759//212 855//211 875//217 780//218
f 780//218 875//217 856//215 760//214
f 757//20 853//220 854//207 758//208
f 771//205 867//221 868//206 772//20
f 766//205 862//204 863//206 767//20
f 762//20 858//206 859//207 763//208
f 775//200 871//201 874//202 777//203
f 777//203 874//202 867//221 771//205
f 767//20 863//206 864//207 768//208
f 763//208 859//207 873//222 784//219
f 784//219 873//222 860//211 764//212
f 774//212 870//211 872//217 783//218
f 783//218 872//217 871//201 775//200
f 828//181 810//179 780//218
f 811//198 831//185 814//194 807//190
f 792//194 850//199 779//218
f 838//181 819//190 851//198 795//189
f 832//194 822//190 783//218
f 823//187 835//189 802//181 799//179
f 840//197 826//190 786//218
f 847//179 827//187 843//185 790//194
f 808//189 806//181 785//210
f 815//179 830//187 778//203
f 824//189 846//181 784//219
f 791//179 842//187 787//213
f 848//189 818//181 782//210
f 839//179 794//187 781//203
f 820//189 798//181 776//219
f 803//179 834//187 777//203
f 762//20 844//21 789//22
f 818//181 848//189 851//198 819//190
f 789//22 844//21 847//179 790//194
f 826//190 840//197 843//185 827//187
f 790//194 843//185 842//187 791//179
f 819//190 838//181 837//22 816//21
f 822//190 832//194 835//189 823//187
f 802//181 835//189 834//187 803//179
f 810//179 828//181 831//185 811//198
f 814//194 831//185 830//187 815//179
f 827//187 847//179 846//181 824//189
f 798//181 820//189 823//187 799//179
f 807//190 814//194 813//22 804//21
f 806//181 808//189 811//198 807//190
f 799//179 802//181 801//22 796//21
f 795//189 851//198 850//199 792//194
f 794//187 839//179 838//181 795//189
f 787//213 842//187 841//188 765//200
f 761//205 788//196 791//179 787//213
f 762//20 789//22 788//196 761//205
f 786//218 826//190 825//191 764//212
f 765//200 841//188 840//197 786//218
f 785//210 806//181 805//183 758//208
f 759//212 809//191 808//189 785//210
f 758//208 805//183 804//21 757//20
f 784//219 846//181 845//183 763//208
f 764//212 825//191 824//189 784//219
f 783//218 822//190 821//191 774//212
f 775//200 833//188 832//194 783//218
f 782//210 818//181 817//183 768//208
f 769//212 849//191 848//189 782//210
f 781//203 794//187 793//188 770//200
f 766//205 836//196 839//179 781//203
f 780//218 810//179 809//191 759//212
f 760//214 829//188 828//181 780//218
f 757//20 813//22 812//192 756//216
f 779//218 850//199 849//191 769//212
f 770//200 793//188 792//194 779//218
f 778//203 830//187 829//188 760//214
f 756//216 812//192 815//179 778//203
f 777//203 834//187 833//188 775//200
f 771//205 800//196 803//179 777//203
f 772//20 801//22 800//196 771//205
f 767//20 837//22 836//196 766//205
f 776//219 798//181 797//183 773//208
f 774//212 821//191 820//189 776//219
f 768//208 817//183 816//21 767//20
f 763//208 845//183 844//21 762//20
f 773//208 797//183 796//21 772//20
f 668//223 683//223 687//224 672//224
f 672//224 687//224 686//225 671//225
f 671//225 686//225 685//2 670//2
f 677//1 682//1 681//226 676//226
f 676//226 681//226 680//227 675//227
f 675//227 680//227 679//228 674//228
f 489//229 577//230 580//231 492//232
f 492//232 580//231 579//233 491//234
f 491//234 579//233 578//235 490//236
f 490//236 578//235 577//230 489//229
f 509//237 573//238 576//239 512//240
f 512//240 576//239 575//241 511//242
f 511//242 575//241 574//243 510//244
f 510//244 574//243 573//238 509//237
f 481//245 569//246 572//247 484//248
f 484//248 572//247 571//249 483//250
f 483//250 571//249 570//251 482//252
f 482//252 570//251 569//246 481//245
f 473//253 565//254 568//255 476//256
f 476//256 568//255 567//257 475//258
f 475//258 567//257 566//259 474//260
f 474//260 566//259 565//254 473//253
f 469//261 561//262 564//263 472//264
f 472//264 564//263 563//265 471//266
f 471//266 563//265 562//267 470//268
f 470//268 562//267 561//262 469//261
f 505//269 557//259 560//254 508//253
f 508//253 560//254 559//255 507//270
f 507//270 559//255 558//257 506//258
f 506//258 558//257 557//259 505//269
f 493//261 553//262 556//263 496//264
f 496//264 556//263 555//265 495//266
f 495//266 555//265 554//267 494//268
f 494//268 554//267 553//262 493//261
f 465//237 549//238 552//239 468//271
f 468//271 552//239 551//241 467//242
f 467//242 551//241 550//243 466//244
f 466//244 550//243 549//238 465//237
f 477//252 545//251 548//246 480//272
f 480//272 548//246 547//273 479//248
f 479//248 547//273 546//249 478//250
f 478//250 546//249 545//251 477//252
f 485//274 541//275 544//276 488//277
f 488//277 544//276 543//278 487//279
f 487//279 543//278 542//280 486//281
f 486//281 542//280 541//275 485//274
f 497//274 537//275 540//276 500//277
f 500//277 540//276 539//278 499//279
f 499//279 539//278 538//280 498//282
f 498//282 538//280 537//275 497//274
f 501//229 533//230 536//231 504//232
f 504//232 536//231 535//233 503//234
f 503//234 535//233 534//235 502//283
f 502//283 534//235 533//230 501//229
f 457//284 525//285 532//286 464//287
f 454//288 464//287 532//286 522//289
f 522//289 527//290 459//291 454//288
f 516//292 517//293 449//294 448//295
f 460//294 528//296 521//297 453//298
f 523//292 528//296 460//294 455//295
f 448//295 450//299 518//290 516//292
f 446//300 449//294 517//293 514//301
f 452//284 520//285 531//286 463//287
f 463//287 531//286 513//289 445//302
f 447//303 451//304 519//305 515//306
f 455//295 459//291 527//290 523//292
f 445//302 513//289 518//290 450//299
f 524//306 525//285 457//284 456//303
f 456//303 458//304 526//305 524//306
f 514//301 530//307 462//308 446//300
f 462//308 530//307 519//305 451//304
f 515//306 520//285 452//284 447//303
f 453//298 521//297 529//307 461//308
f 461//308 529//307 526//305 458//304
f 489//229 486//281 509//237 470//268
f 494//268 501//229 498//282 465//237
f 490//236 469//261 462//308
f 510//244 485//274 463//287
f 466//244 497//274 464//287
f 502//283 493//261 461//308
f 499//279 504//232 456//303
f 478//250 508//253 455//295
f 506//258 467//242 454//288
f 453//298 496//264 480//272
f 483//250 473//253 448//295
f 487//279 492//232 447//303
f 472//264 481//245 446//300
f 445//302 475//258 511//242
f 505//269 477//252 495//266 468//271
f 482//252 471//266 512//240 474//260
f 470//268 509//237 512//240 471//266
f 474//260 512//240 511//242 475//258
f 485//274 510//244 509//237 486//281
f 467//242 506//258 505//269 468//271
f 493//261 502//283 501//229 494//268
f 498//282 501//229 504//232 499//279
f 465//237 498//282 497//274 466//244
f 469//261 490//236 489//229 470//268
f 486//281 489//229 492//232 487//279
f 473//253 483//250 482//252 474//260
f 480//272 496//264 495//266 477//252
f 477//252 505//269 508//253 478//250
f 471//266 482//252 481//245 472//264
f 468//271 495//266 494//268 465//237
f 464//287 497//274 500//277 457//284
f 454//288 467//242 466//244 464//287
f 459//291 507//270 506//258 454//288
f 450//299 476//256 475//258 445//302
f 463//287 485//274 488//277 452//284
f 445//302 511//242 510//244 463//287
f 449//294 484//248 483//250 448//295
f 453//298 480//272 479//248 460//294
f 460//294 479//248 478//250 455//295
f 446//300 481//245 484//248 449//294
f 448//295 473//253 476//256 450//299
f 455//295 508//253 507//270 459//291
f 457//284 500//277 499//279 456//303
f 456//303 504//232 503//234 458//304
f 447//303 492//232 491//234 451//304
f 462//308 469//261 472//264 446//300
f 451//304 491//234 490//236 462//308
f 452//284 488//277 487//279 447//303
f 461//308 493//261 496//264 453//298
f 458//304 503//234 502//283 461//308
g Castle_Castle_glass
usemtl glass
s off
f 1230//4 1231//4 1232//4 1229//4
f 1234//4 1235//4 1236//4 1233//4
f 1238//4 1239//4 1240//4 1237//4
f 1242//4 1243//4 1244//4 1241//4
f 1246//4 1247//4 1248//4 1245//4
f 1250//4 1251//4 1252//4 1249//4
f 1254//4 1255//4 1256//4 1253//4
f 1258//4 1259//4 1260//4 1257//4
f 941//4 942//4 943//4 940//4
f 933//4 934//4 935//4 932//4
f 889//4 890//4 891//4 888//4
f 929//4 930//4 931//4 928//4
f 913//4 914//4 915//4 912//4
f 945//4 946//4 947//4 944//4
f 909//4 910//4 911//4 908//4
f 917//4 918//4 919//4 916//4
f 937//4 938//4 939//4 936//4
f 885//4 886//4 887//4 884//4
f 901//4 902//4 903//4 900//4
f 893//4 894//4 895//4 892//4
f 897//4 898//4 899//4 896//4
f 925//4 926//4 927//4 924//4
f 905//4 906//4 907//4 904//4
f 921//4 922//4 923//4 920//4
f 538//4 539//4 540//4 537//4
f 574//4 575//4 576//4 573//4
f 578//4 579//4 580//4 577//4
f 534//4 535//4 536//4 533//4
f 546//4 547//4 548//4 545//4
f 550//4 551//4 552//4 549//4
f 542//4 543//4 544//4 541//4
f 570//4 571//4 572//4 569//4
f 558//4 559//4 560//4 557//4
f 562//4 563//4 564//4 561//4
f 554//4 555//4 556//4 553//4
f 566//4 567//4 568//4 565//4
g Castle_Castle_top
usemtl top
f 120//6 1036//6 1038//6 115//6
f 113//6 1039//6 1037//6 117//6 112//6 111//6 110//6 109//6
f 115//6 1035//6 1034//6 120//6
f 120//6 1034//6 1033//6 117//6
f 112//6 117//6 1033//6 1021//6
f 1021//6 1030//6 1049//6 1050//6 112//6
f 1261//309 1281//309 1284//309 1264//309
f 1264//310 1284//310 1283//310 1263//310
f 1263//311 1283//311 1282//311 1262//311
f 1262//312 1282//312 1281//312 1261//312
f 1265//313 1277//313 1280//313 1268//313
f 1268//314 1280//314 1279//314 1267//314
f 1267//315 1279//315 1278//315 1266//315
f 1266//316 1278//316 1277//316 1265//316
f 1269//317 1273//317 1276//317 1272//317
f 1272//318 1276//318 1275//318 1271//318
f 1271//319 1275//319 1274//319 1270//319
f 1270//320 1274//320 1273//320 1269//320
f 599//321 612//321 608//321 589//321
f 588//321 602//321 605//321 596//321
f 592//322 597//322 604//322 603//322
f 608//323 612//323 613//323 609//323
f 603//324 604//324 605//324 602//324
f 133//5 148//5 153//5 156//5 161//5 164//5 169//5 136//5 124//5 337//5 336//5 126//5
f 338//1 337//1 124//1 142//1 175//1 173//1 143//1 122//1
f 121//4 339//4 338//4 122//4 137//4 170//4 165//4 160//4 157//4 152//4 147//4 134//4
f 331//5 330//5 245//5 256//5 271//5 276//5 259//5 242//5
f 239//1 328//1 331//1 242//1 262//1 283//1 278//1 269//1
f 268//2 279//2 284//2 263//2 245//2 330//2 329//2 240//2
f 240//4 329//4 328//4 239//4 258//4 275//4 270//4 257//4
f 281//2 322//2 325//2 282//2
f 282//5 325//5 324//5 283//5
f 283//1 324//1 323//1 278//1
f 278//4 323//4 322//4 281//4
f 285//1 318//1 321//1 280//1
f 280//4 321//4 320//4 279//4
f 279//2 320//2 319//2 284//2
f 284//5 319//5 318//5 285//5
f 273//5 314//5 317//5 274//5
f 274//1 317//1 316//1 275//1
f 275//4 316//4 315//4 270//4
f 270//2 315//2 314//2 273//2
f 277//4 310//4 313//4 272//4
f 272//2 313//2 312//2 271//2
f 271//5 312//5 311//5 276//5
f 276//1 311//1 310//1 277//1
f 240//2 304//2 309//2 268//2
f 268//5 309//5 308//5 267//5
f 267//1 308//1 305//1 249//1
f 249//5 305//5 307//5 254//5
f 254//1 307//1 306//1 257//1
f 257//4 306//4 304//4 240//4
f 298//4 303//4 258//4 239//4
f 258//2 303//2 302//2 261//2
f 261//5 302//5 299//5 246//5
f 246//2 299//2 301//2 266//2
f 266//5 301//5 300//5 269//5
f 269//1 300//1 298//1 239//1
f 292//1 297//1 262//1 242//1
f 262//4 297//4 296//4 265//4
f 265//2 296//2 293//2 247//2
f 247//4 293//4 295//4 260//4
f 260//2 295//2 294//2 259//2
f 242//5 259//5 294//5 292//5
f 248//1 287//1 291//1 264//1
f 264//4 291//4 290//4 263//4
f 245//2 263//2 290//2 286//2
f 245//5 286//5 289//5 256//5
f 256//1 289//1 288//1 255//1
f 255//4 288//4 287//4 248//4
f 322//6 323//6 324//6 325//6
f 318//6 319//6 320//6 321//6
f 314//6 315//6 316//6 317//6
f 310//6 311//6 312//6 313//6
f 305//6 308//6 309//6 304//6
f 298//6 300//6 301//6 299//6
f 293//6 296//6 297//6 292//6
f 286//6 290//6 291//6 287//6
f 299//6 302//6 303//6 298//6
f 292//6 294//6 295//6 293//6
f 287//6 288//6 289//6 286//6
f 304//6 306//6 307//6 305//6
f 280//6 279//6 268//6 267//6
f 282//6 283//6 262//6 265//6
f 274//6 275//6 258//6 261//6
f 272//6 271//6 256//6 255//6
f 246//5 250//5 253//5 249//5 254//5 273//5 274//5 261//5
f 249//1 253//1 252//1 248//1 264//1 285//1 280//1 267//1
f 248//4 252//4 251//4 247//4 260//4 277//4 272//4 255//4
f 247//2 251//2 250//2 246//2 266//2 281//2 282//2 265//2
f 270//6 273//6 254//6 257//6
f 263//6 284//6 285//6 264//6
f 259//6 276//6 277//6 260//6
f 278//6 281//6 266//6 269//6
f 251//6 252//6 253//6 250//6
f 171//2 235//2 238//2 177//2
f 177//5 238//5 237//5 178//5
f 178//1 237//1 236//1 172//1
f 172//4 236//4 235//4 171//4
f 175//1 231//1 234//1 173//1
f 173//4 234//4 233//4 174//4
f 174//2 233//2 232//2 176//2
f 176//5 232//5 231//5 175//5
f 163//2 230//2 229//2 164//2
f 164//5 229//5 228//5 169//5
f 169//1 228//1 227//1 168//1
f 168//4 227//4 230//4 163//4
f 166//5 223//5 226//5 167//5
f 167//1 226//1 225//1 170//1
f 170//4 225//4 224//4 165//4
f 165//2 224//2 223//2 166//2
f 155//2 222//2 221//2 156//2
f 156//5 221//5 220//5 161//5
f 161//1 220//1 219//1 162//1
f 162//4 219//4 222//4 155//4
f 160//4 215//4 218//4 157//4
f 157//2 218//2 217//2 158//2
f 158//5 217//5 216//5 159//5
f 159//1 216//1 215//1 160//1
f 151//1 214//1 213//1 152//1
f 152//4 213//4 212//4 147//4
f 147//2 212//2 211//2 150//2
f 150//5 211//5 214//5 151//5
f 153//1 210//1 209//1 154//1
f 154//4 209//4 208//4 149//4
f 149//2 208//2 207//2 148//2
f 148//5 207//5 210//5 153//5
f 129//2 202//2 206//2 144//2
f 144//5 206//5 205//5 143//5
f 122//1 143//1 205//1 201//1
f 201//4 204//4 137//4 122//4
f 137//2 204//2 203//2 138//2
f 138//5 203//5 202//5 129//5
f 121//2 195//2 200//2 146//2
f 146//5 200//5 199//5 145//5
f 145//1 199//1 196//1 128//1
f 128//5 196//5 198//5 131//5
f 131//1 198//1 197//1 134//1
f 134//4 197//4 195//4 121//4
f 126//5 189//5 194//5 133//5
f 133//1 194//1 193//1 132//1
f 132//4 193//4 190//4 127//4
f 127//1 190//1 192//1 140//1
f 140//4 192//4 191//4 139//4
f 126//2 139//2 191//2 189//2
f 130//4 184//4 188//4 135//4
f 135//2 188//2 187//2 136//2
f 124//5 136//5 187//5 183//5
f 124//1 183//1 186//1 142//1
f 142//4 186//4 185//4 141//4
f 141//2 185//2 184//2 130//2
f 128//1 179//1 182//1 127//1 140//1 178//1 172//1 145//1
f 127//4 182//4 181//4 130//4 135//4 168//4 163//4 162//4 155//4 154//4 149//4 132//4
f 130//2 181//2 180//2 129//2 144//2 174//2 176//2 141//2
f 129//5 180//5 179//5 128//5 131//5 150//5 151//5 158//5 159//5 166//5 167//5 138//5
f 235//6 236//6 237//6 238//6
f 231//6 232//6 233//6 234//6
f 228//6 229//6 230//6 227//6
f 223//6 224//6 225//6 226//6
f 219//6 220//6 221//6 222//6
f 215//6 216//6 217//6 218//6
f 211//6 212//6 213//6 214//6
f 208//6 209//6 210//6 207//6
f 201//6 205//6 206//6 202//6
f 196//6 199//6 200//6 195//6
f 189//6 191//6 192//6 190//6
f 184//6 185//6 186//6 183//6
f 143//6 173//6 174//6 144//6
f 139//6 177//6 178//6 140//6
f 183//6 187//6 188//6 184//6
f 202//6 203//6 204//6 201//6
f 163//6 164//6 161//6 162//6
f 159//6 160//6 165//6 166//6
f 157//6 158//6 151//6 152//6
f 155//6 156//6 153//6 154//6
f 195//6 197//6 198//6 196//6
f 190//6 193//6 194//6 189//6
f 136//6 169//6 168//6 135//6
f 167//6 170//6 137//6 138//6
f 147//6 150//6 131//6 134//6
f 149//6 148//6 133//6 132//6
f 176//6 175//6 142//6 141//6
f 172//6 171//6 146//6 145//6
f 146//2 171//2 177//2 139//2 126//2 336//2 339//2 121//2
f 180//6 181//6 182//6 179//6
f 62//5 105//5 108//5 46//5
f 45//37 107//37 106//37 61//37
f 64//41 101//41 104//41 48//41
f 47//36 103//36 102//36 63//36
f 66//2 97//2 100//2 50//2
f 49//325 99//325 98//325 65//325
f 68//38 93//38 96//38 52//38
f 51//45 95//45 94//45 67//45
f 70//4 89//4 92//4 54//4
f 53//43 91//43 90//43 69//43
f 72//34 85//34 88//34 56//34
f 55//42 87//42 86//42 71//42
f 74//1 81//1 84//1 58//1
f 57//40 83//40 82//40 73//40
f 76//44 77//44 80//44 60//44
f 59//39 79//39 78//39 75//39
f 45//6 61//6 76//6 60//6
f 78//6 79//6 80//6 77//6
f 59//6 75//6 74//6 58//6
f 82//6 83//6 84//6 81//6
f 57//6 73//6 72//6 56//6
f 86//6 87//6 88//6 85//6
f 55//6 71//6 70//6 54//6
f 90//6 91//6 92//6 89//6
f 53//6 69//6 68//6 52//6
f 94//6 95//6 96//6 93//6
f 51//6 67//6 66//6 50//6
f 98//6 99//6 100//6 97//6
f 49//6 65//6 64//6 48//6
f 102//6 103//6 104//6 101//6
f 47//6 63//6 62//6 46//6
f 106//6 107//6 108//6 105//6
f 1274//137 1275//137 1276//137 1273//137
f 1278//140 1279//140 1280//140 1277//140
f 1282//143 1283//143 1284//143 1281//143
f 741//6 742//6 743//6 744//6 745//6 746//6 747//6 748//6 749//6 750//6 751//6 752//6 753//6 754//6 755//6 740//6
s 1
f 61//326 740//40 755//41 76//327
f 76//327 755//41 754//42 75//328
f 75//328 754//42 753//5 74//329
f 74//329 753//5 752//43 73//330
f 73//330 752//43 751//44 72//331
f 72//331 751//44 750//45 71//332
f 71//332 750//45 749//1 70//333
f 70//333 749//1 748//325 69//334
f 69//334 748//325 747//34 68//138
f 68//138 747//34 746//36 67//136
f 67//136 746//36 745//4 66//141
f 66//141 745//4 744//37 65//139
f 65//139 744//37 743//38 64//144
f 64//144 743//38 742//39 63//142
f 63//142 742//39 741//2 62//335
f 62//335 741//2 740//40 61//326
f 618//336 622//337 621//338
f 621//339 622//340 620//341
f 620//342 622//343 619//342
f 619//344 622//345 618//344
f 614//342 623//343 617//342
f 617//344 623//345 616//344
f 616//336 623//337 615//336
f 615//339 623//340 614//339
f 596//346 618//336 621//338 597//346
f 597//347 621//339 620//341 604//347
f 604//348 620//342 619//342 605//348
f 605//349 619//344 618//344 596//349
f 598//348 614//342 617//342 599//348
f 599//349 617//344 616//344 612//349
f 612//346 616//336 615//336 613//346
f 613//347 615//339 614//339 598//347
f 609//160 613//322 598//350 591//159
f 652//158 648//351 594//351 599//352 589//158
f 591//159 598//350 595//353 593//353
f 593//353 595//353 597//354 592//354
f 596//355 594//351 648//351 653//356 588//357
f 46//333 108//358 107//358 45//334
f 61//326 106//359 105//359 62//335
f 48//331 104//49 103//49 47//332
f 63//142 102//143 101//143 64//144
f 50//329 100//360 99//360 49//330
f 65//139 98//140 97//140 66//141
f 52//327 96//46 95//46 51//328
f 67//136 94//137 93//137 68//138
f 54//335 92//359 91//359 53//326
f 69//334 90//358 89//358 70//333
f 56//144 88//143 87//143 55//142
f 71//332 86//49 85//49 72//331
f 58//141 84//140 83//140 57//139
f 73//330 82//360 81//360 74//329
f 60//138 80//137 79//137 59//136
f 75//328 78//46 77//46 76//327
f 29//325 45//334 60//138 44//34
f 44//34 60//138 59//136 43//36
f 43//36 59//136 58//141 42//4
f 42//4 58//141 57//139 41//37
f 41//37 57//139 56//144 40//38
f 40//38 56//144 55//142 39//39
f 39//39 55//142 54//335 38//2
f 38//2 54//335 53//326 37//40
f 37//40 53//326 52//327 36//41
f 36//41 52//327 51//328 35//42
f 35//42 51//328 50//329 34//5
f 34//5 50//329 49//330 33//43
f 33//43 49//330 48//331 32//44
f 32//44 48//331 47//332 31//45
f 31//45 47//332 46//333 30//1
f 30//1 46//333 45//334 29//325
