<?xml version="1.0" encoding="utf-8"?>
<COLLADA xmlns="http://www.collada.org/2005/11/COLLADASchema" version="1.4.1" xmlns:xsi="http://www.w3.org/2001/XMLSchema-instance">
  <asset>
    <contributor>
      <author>Blender User</author>
      <authoring_tool>Blender 3.4.1 commit date:2022-12-19, commit time:17:00, hash:55485cb379f7</authoring_tool>
    </contributor>
    <created>2023-01-26T14:21:36</created>
    <modified>2023-01-26T14:21:36</modified>
    <unit name="meter" meter="1"/>
    <up_axis>Z_UP</up_axis>
  </asset>
  <library_effects>
    <effect id="Metal-effect">
      <profile_COMMON>
        <technique sid="common">
          <lambert>
            <emission>
              <color sid="emission">0 0 0 1</color>
            </emission>
            <diffuse>
              <color sid="diffuse">0.5704694 0.5704694 0.5704694 1</color>
            </diffuse>
            <index_of_refraction>
              <float sid="ior">1.45</float>
            </index_of_refraction>
          </lambert>
        </technique>
      </profile_COMMON>
    </effect>
    <effect id="Black-effect">
      <profile_COMMON>
        <technique sid="common">
          <lambert>
            <emission>
              <color sid="emission">0 0 0 1</color>
            </emission>
            <diffuse>
              <color sid="diffuse">0 0 0 1</color>
            </diffuse>
            <index_of_refraction>
              <float sid="ior">1.45</float>
            </index_of_refraction>
          </lambert>
        </technique>
      </profile_COMMON>
    </effect>
  </library_effects>
  <library_images/>
  <library_materials>
    <material id="Metal-material" name="Metal">
      <instance_effect url="#Metal-effect"/>
    </material>
    <material id="Black-material" name="Black">
      <instance_effect url="#Black-effect"/>
    </material>
  </library_materials>
  <library_geometries>
    <geometry id="Cylinder-mesh" name="Cylinder">
      <mesh>
        <source id="Cylinder-mesh-positions">
          <float_array id="Cylinder-mesh-positions-array" count="1056">0 0.7500001 -0.6924244 0 0.7500001 0.7575759 0.1463177 0.735589 -0.6924244 0.1463177 0.735589 0.7575759 0.2870126 0.6929097 -0.6924244 0.2870126 0.6929097 0.7575759 0.4166777 0.6236023 -0.6924244 0.4166777 0.6236023 0.7575759 0.5303301 0.5303301 -0.6924244 0.5303301 0.5303301 0.7575759 0.6236023 0.4166777 -0.6924244 0.6236023 0.4166777 0.7575759 0.6929097 0.2870126 -0.6924244 0.6929097 0.2870126 0.7575759 0.735589 0.1463177 -0.6924244 0.735589 0.1463177 0.7575759 0.7500001 0 -0.6924244 0.7500001 0 0.7575759 0.735589 -0.1463177 -0.6924244 0.735589 -0.1463177 0.7575759 0.6929097 -0.2870126 -0.6924244 0.6929097 -0.2870126 0.7575759 0.6236023 -0.4166777 -0.6924244 0.6236023 -0.4166777 0.7575759 0.5303301 -0.5303301 -0.6924244 0.5303301 -0.5303301 0.7575759 0.4166777 -0.6236023 -0.6924244 0.4166777 -0.6236023 0.7575759 0.2870126 -0.6929097 -0.6924244 0.2870126 -0.6929097 0.7575759 0.1463177 -0.735589 -0.6924244 0.1463177 -0.735589 0.7575759 0 -0.7500001 -0.6924244 0 -0.7500001 0.7575759 -0.1463177 -0.735589 -0.6924244 -0.1463177 -0.735589 0.7575759 -0.2870126 -0.6929097 -0.6924244 -0.2870126 -0.6929097 0.7575759 -0.4166777 -0.6236023 -0.6924244 -0.4166777 -0.6236023 0.7575759 -0.5303301 -0.5303301 -0.6924244 -0.5303301 -0.5303301 0.7575759 -0.6236023 -0.4166777 -0.6924244 -0.6236023 -0.4166777 0.7575759 -0.6929097 -0.2870126 -0.6924244 -0.6929097 -0.2870126 0.7575759 -0.735589 -0.1463177 -0.6924244 -0.735589 -0.1463177 0.7575759 -0.7500001 0 -0.6924244 -0.7500001 0 0.7575759 -0.735589 0.1463177 -0.6924244 -0.735589 0.1463177 0.7575759 -0.6929097 0.2870126 -0.6924244 -0.6929097 0.2870126 0.7575759 -0.6236023 0.4166777 -0.6924244 -0.6236023 0.4166777 0.7575759 -0.5303301 0.5303301 -0.6924244 -0.5303301 0.5303301 0.7575759 -0.4166777 0.6236023 -0.6924244 -0.4166777 0.6236023 0.7575759 -0.2870126 0.6929097 -0.6924244 -0.2870126 0.6929097 0.7575759 -0.1463177 0.735589 -0.6924244 -0.1463177 0.735589 0.7575759 0 0.7500001 -0.7424244 0.1463177 0.735589 -0.7424244 0.1463177 0.735589 0.7575759 0 0.7500001 0.7575759 0.2870126 0.6929097 -0.7424244 0.2870126 0.6929097 0.7575759 0.4166777 0.6236023 -0.7424244 0.4166777 0.6236023 0.7575759 0.5303301 0.5303301 -0.7424244 0.5303301 0.5303301 0.7575759 0.6236023 0.4166777 -0.7424244 0.6236023 0.4166777 0.7575759 0.6929097 0.2870126 -0.7424244 0.6929097 0.2870126 0.7575759 0.735589 0.1463177 -0.7424244 0.735589 0.1463177 0.7575759 0.7500001 0 -0.7424244 0.7500001 0 0.7575759 0.735589 -0.1463177 -0.7424244 0.735589 -0.1463177 0.7575759 0.6929097 -0.2870126 -0.7424244 0.6929097 -0.2870126 0.7575759 0.6236023 -0.4166777 -0.7424244 0.6236023 -0.4166777 0.7575759 0.5303301 -0.5303301 -0.7424244 0.5303301 -0.5303301 0.7575759 0.4166777 -0.6236023 -0.7424244 0.4166777 -0.6236023 0.7575759 0.2870126 -0.6929097 -0.7424244 0.2870126 -0.6929097 0.7575759 0.1463177 -0.735589 -0.7424244 0.1463177 -0.735589 0.7575759 0 -0.7500001 -0.7424244 0 -0.7500001 0.7575759 -0.1463177 -0.735589 -0.7424244 -0.1463177 -0.735589 0.7575759 -0.2870126 -0.6929097 -0.7424244 -0.2870126 -0.6929097 0.7575759 -0.4166777 -0.6236023 -0.7424244 -0.4166777 -0.6236023 0.7575759 -0.5303301 -0.5303301 -0.7424244 -0.5303301 -0.5303301 0.7575759 -0.6236023 -0.4166777 -0.7424244 -0.6236023 -0.4166777 0.7575759 -0.6929097 -0.2870126 -0.7424244 -0.6929097 -0.2870126 0.7575759 -0.735589 -0.1463177 -0.7424244 -0.735589 -0.1463177 0.7575759 -0.7500001 0 -0.7424244 -0.7500001 0 0.7575759 -0.735589 0.1463177 -0.7424244 -0.735589 0.1463177 0.7575759 -0.6929097 0.2870126 -0.7424244 -0.6929097 0.2870126 0.7575759 -0.6236023 0.4166777 -0.7424244 -0.6236023 0.4166777 0.7575759 -0.5303301 0.5303301 -0.7424244 -0.5303301 0.5303301 0.7575759 -0.4166777 0.6236023 -0.7424244 -0.4166777 0.6236023 0.7575759 -0.2870126 0.6929097 -0.7424244 -0.2870126 0.6929097 0.7575759 -0.1463177 0.735589 -0.7424244 -0.1463177 0.735589 0.7575759 0 0.7500001 -0.7424244 0.1463177 0.735589 -0.7424244 0.1463177 0.735589 0.7575759 0 0.7500001 0.7575759 0.2870126 0.6929097 -0.7424244 0.2870126 0.6929097 0.7575759 0.4166777 0.6236023 -0.7424244 0.4166777 0.6236023 0.7575759 0.5303301 0.5303301 -0.7424244 0.5303301 0.5303301 0.7575759 0.6236023 0.4166777 -0.7424244 0.6236023 0.4166777 0.7575759 0.6929097 0.2870126 -0.7424244 0.6929097 0.2870126 0.7575759 0.735589 0.1463177 -0.7424244 0.735589 0.1463177 0.7575759 0.7500001 0 -0.7424244 0.7500001 0 0.7575759 0.735589 -0.1463177 -0.7424244 0.735589 -0.1463177 0.7575759 0.6929097 -0.2870126 -0.7424244 0.6929097 -0.2870126 0.7575759 0.6236023 -0.4166777 -0.7424244 0.6236023 -0.4166777 0.7575759 0.5303301 -0.5303301 -0.7424244 0.5303301 -0.5303301 0.7575759 0.4166777 -0.6236023 -0.7424244 0.4166777 -0.6236023 0.7575759 0.2870126 -0.6929097 -0.7424244 0.2870126 -0.6929097 0.7575759 0.1463177 -0.735589 -0.7424244 0.1463177 -0.735589 0.7575759 0 -0.7500001 -0.7424244 0 -0.7500001 0.7575759 -0.1463177 -0.735589 -0.7424244 -0.1463177 -0.735589 0.7575759 -0.2870126 -0.6929097 -0.7424244 -0.2870126 -0.6929097 0.7575759 -0.4166777 -0.6236023 -0.7424244 -0.4166777 -0.6236023 0.7575759 -0.5303301 -0.5303301 -0.7424244 -0.5303301 -0.5303301 0.7575759 -0.6236023 -0.4166777 -0.7424244 -0.6236023 -0.4166777 0.7575759 -0.6929097 -0.2870126 -0.7424244 -0.6929097 -0.2870126 0.7575759 -0.735589 -0.1463177 -0.7424244 -0.735589 -0.1463177 0.7575759 -0.7500001 0 -0.7424244 -0.7500001 0 0.7575759 -0.735589 0.1463177 -0.7424244 -0.735589 0.1463177 0.7575759 -0.6929097 0.2870126 -0.7424244 -0.6929097 0.2870126 0.7575759 -0.6236023 0.4166777 -0.7424244 -0.6236023 0.4166777 0.7575759 -0.5303301 0.5303301 -0.7424244 -0.5303301 0.5303301 0.7575759 -0.4166777 0.6236023 -0.7424244 -0.4166777 0.6236023 0.7575759 -0.2870126 0.6929097 -0.7424244 -0.2870126 0.6929097 0.7575759 -0.1463177 0.735589 -0.7424244 -0.1463177 0.735589 0.7575759 0 0.9000001 -0.7424244 0.1755813 0.8827068 -0.7424244 0.1755813 0.8827068 0.7575759 0 0.9000001 0.7575759 0.3444151 0.8314917 -0.7424244 0.3444151 0.8314917 0.7575759 0.5000133 0.7483227 -0.7424244 0.5000133 0.7483227 0.7575759 0.6363962 0.6363962 -0.7424244 0.6363962 0.6363962 0.7575759 0.7483227 0.5000133 -0.7424244 0.7483227 0.5000133 0.7575759 0.8314917 0.3444151 -0.7424244 0.8314917 0.3444151 0.7575759 0.8827068 0.1755813 -0.7424244 0.8827068 0.1755813 0.7575759 0.9000001 0 -0.7424244 0.9000001 0 0.7575759 0.8827068 -0.1755813 -0.7424244 0.8827068 -0.1755813 0.7575759 0.8314917 -0.3444151 -0.7424244 0.8314917 -0.3444151 0.7575759 0.7483227 -0.5000133 -0.7424244 0.7483227 -0.5000133 0.7575759 0.6363962 -0.6363962 -0.7424244 0.6363962 -0.6363962 0.7575759 0.5000133 -0.7483227 -0.7424244 0.5000133 -0.7483227 0.7575759 0.3444151 -0.8314917 -0.7424244 0.3444151 -0.8314917 0.7575759 0.1755813 -0.8827068 -0.7424244 0.1755813 -0.8827068 0.7575759 0 -0.9000001 -0.7424244 0 -0.9000001 0.7575759 -0.1755813 -0.8827068 -0.7424244 -0.1755813 -0.8827068 0.7575759 -0.3444151 -0.8314917 -0.7424244 -0.3444151 -0.8314917 0.7575759 -0.5000133 -0.7483227 -0.7424244 -0.5000133 -0.7483227 0.7575759 -0.6363962 -0.6363962 -0.7424244 -0.6363962 -0.6363962 0.7575759 -0.7483227 -0.5000133 -0.7424244 -0.7483227 -0.5000133 0.7575759 -0.8314917 -0.3444151 -0.7424244 -0.8314917 -0.3444151 0.7575759 -0.8827068 -0.1755813 -0.7424244 -0.8827068 -0.1755813 0.7575759 -0.9000001 0 -0.7424244 -0.9000001 0 0.7575759 -0.8827068 0.1755813 -0.7424244 -0.8827068 0.1755813 0.7575759 -0.8314917 0.3444151 -0.7424244 -0.8314917 0.3444151 0.7575759 -0.7483227 0.5000133 -0.7424244 -0.7483227 0.5000133 0.7575759 -0.6363962 0.6363962 -0.7424244 -0.6363962 0.6363962 0.7575759 -0.5000133 0.7483227 -0.7424244 -0.5000133 0.7483227 0.7575759 -0.3444151 0.8314917 -0.7424244 -0.3444151 0.8314917 0.7575759 -0.1755813 0.8827068 -0.7424244 -0.1755813 0.8827068 0.7575759 0.1463177 0.735589 0.7575759 0 0.7500001 0.7575759 0.2870126 0.6929097 0.7575759 0.4166777 0.6236023 0.7575759 0.5303301 0.5303301 0.7575759 0.6236023 0.4166777 0.7575759 0.6929097 0.2870126 0.7575759 0.735589 0.1463177 0.7575759 0.7500001 0 0.7575759 0.735589 -0.1463177 0.7575759 0.6929097 -0.2870126 0.7575759 0.6236023 -0.4166777 0.7575759 0.5303301 -0.5303301 0.7575759 0.4166777 -0.6236023 0.7575759 0.2870126 -0.6929097 0.7575759 0.1463177 -0.735589 0.7575759 0 -0.7500001 0.7575759 -0.1463177 -0.735589 0.7575759 -0.2870126 -0.6929097 0.7575759 -0.4166777 -0.6236023 0.7575759 -0.5303301 -0.5303301 0.7575759 -0.6236023 -0.4166777 0.7575759 -0.6929097 -0.2870126 0.7575759 -0.735589 -0.1463177 0.7575759 -0.7500001 0 0.7575759 -0.735589 0.1463177 0.7575759 -0.6929097 0.2870126 0.7575759 -0.6236023 0.4166777 0.7575759 -0.5303301 0.5303301 0.7575759 -0.4166777 0.6236023 0.7575759 -0.2870126 0.6929097 0.7575759 -0.1463177 0.735589 0.7575759 0.1463175 0.735589 -0.4924244 -2.18561e-7 0.7500001 -0.4924244 0.2870124 0.6929097 -0.4924244 0.4166775 0.6236023 -0.4924244 0.5303299 0.5303301 -0.4924244 0.623602 0.4166777 -0.4924244 0.6929095 0.2870126 -0.4924244 0.7355888 0.1463177 -0.4924244 0.7499998 0 -0.4924244 0.7355888 -0.1463177 -0.4924244 0.6929095 -0.2870126 -0.4924244 0.623602 -0.4166777 -0.4924244 0.5303299 -0.5303301 -0.4924244 0.4166775 -0.6236023 -0.4924244 0.2870124 -0.6929097 -0.4924244 0.1463175 -0.735589 -0.4924244 -2.18561e-7 -0.7500001 -0.4924244 -0.146318 -0.735589 -0.4924244 -0.2870128 -0.6929097 -0.4924244 -0.416678 -0.6236023 -0.4924244 -0.5303304 -0.5303301 -0.4924244 -0.6236025 -0.4166777 -0.4924244 -0.6929099 -0.2870126 -0.4924244 -0.7355892 -0.1463177 -0.4924244 -0.7500002 0 -0.4924244 -0.7355892 0.1463177 -0.4924244 -0.6929099 0.2870126 -0.4924244 -0.6236025 0.4166777 -0.4924244 -0.5303304 0.5303301 -0.4924244 -0.416678 0.6236023 -0.4924244 -0.2870128 0.6929097 -0.4924244 -0.146318 0.735589 -0.4924244 0 1.071 0.00757569 0.2089418 1.050421 0.00757569 0.409854 0.9894751 0.00757569 0.5950158 0.890504 0.00757569 0.7573115 0.7573115 0.00757569 0.8905041 0.5950158 0.00757569 0.9894751 0.4098541 0.00757569 1.050421 0.2089418 0.00757569 1.071 0 0.00757569 1.050421 -0.2089418 0.00757569 0.9894751 -0.4098541 0.00757569 0.8905041 -0.5950158 0.00757569 0.7573115 -0.7573115 0.00757569 0.5950158 -0.890504 0.00757569 0.409854 -0.9894751 0.00757569 0.2089418 -1.050421 0.00757569 0 -1.071 0.00757569 -0.2089418 -1.050421 0.00757569 -0.4098541 -0.9894751 0.00757569 -0.5950158 -0.890504 0.00757569 -0.7573114 -0.7573115 0.00757569 -0.890504 -0.5950158 0.00757569 -0.9894751 -0.4098541 0.00757569 -1.050421 -0.2089418 0.00757569 -1.071 0 0.00757569 -1.050421 0.2089418 0.00757569 -0.9894751 0.4098541 0.00757569 -0.890504 0.5950158 0.00757569 -0.7573114 0.7573115 0.00757569 -0.5950158 0.890504 0.00757569 -0.4098541 0.9894751 0.00757569 -0.2089418 1.050421 0.00757569</float_array>
          <technique_common>
            <accessor source="#Cylinder-mesh-positions-array" count="352" stride="3">
              <param name="X" type="float"/>
              <param name="Y" type="float"/>
              <param name="Z" type="float"/>
            </accessor>
          </technique_common>
        </source>
        <source id="Cylinder-mesh-normals">
          <float_array id="Cylinder-mesh-normals-array" count="1017">0 0 1 -0.5555703 -0.8314696 0 -0.707107 -0.7071067 0 -0.7071071 -0.7071065 0 0.5555705 -0.8314695 0 0.3826835 -0.9238796 0 0.3826838 -0.9238795 0 0.7071071 0.7071065 0 0.8314698 0.55557 0 0.8314699 0.55557 0 -0.8314696 0.5555703 0 -0.7071068 0.7071068 0 -0.7071071 0.7071065 0 -0.3826836 -0.9238795 0 -0.5555701 -0.8314697 0 0.7071071 -0.7071065 0 0.5555703 -0.8314696 0 0.5555703 0.8314696 0 0.707107 0.7071067 0 -0.9238798 0.3826828 0 -0.8314695 0.5555705 0 -0.1950906 -0.9807853 0 -0.3826835 -0.9238796 0 0.8314696 -0.5555703 0 0.7071068 -0.7071068 0 0.3826836 0.9238795 0 0.5555701 0.8314697 0 -0.9807853 0.1950908 0 -0.9238798 0.3826829 0 0.9238796 -0.3826833 0 0.8314695 -0.5555705 0 2.07327e-7 -1 0 -0.1950905 -0.9807853 0 0.1950906 0.9807853 0 0.3826835 0.9238796 0 -1 4.02739e-7 0 -0.9807852 0.1950909 0 0 0 -1 0 0 -1 0 0 -1 -1.31159e-7 0 1 -1.74879e-7 0 1 1.34555e-7 0 1 0 0 1 0 0 1 1.74879e-7 0 1 0 0 1 0 0 1 0 0 1 0 0 1 -1.74869e-7 0 1 0 0 1 -0.5555703 0.8314696 0 -0.5555705 0.8314695 0 0.9238796 0.3826834 0 0.9238796 0.3826833 0 0.1950905 -0.9807853 0 0.1950907 -0.9807853 0 -0.8314698 -0.55557 0 -0.8314699 -0.55557 0 -0.3826835 0.9238796 0 -0.3826838 0.9238795 0 0.9807853 0.1950907 0 0.9807854 0.1950904 0 2.00178e-7 -1 0 -0.9238796 -0.3826834 0 -0.9238796 -0.3826833 0 -0.1950905 0.9807853 0 -0.1950906 0.9807853 0 1 0 0 1 1.28686e-7 0 -0.9807853 -0.1950907 0 -0.9807853 -0.1950904 0 -1.93029e-7 1 0 -2.02561e-7 1 0 0.9807853 -0.1950904 0 0.9807853 -0.1950907 0 -1 2.12093e-7 0 0.1950905 0.9807853 0 0.9238796 -0.3826834 0 0 0 -1 0 0 -1 0 0 -1 0 0 -1 0 0 -1 0 0 1 -1.25732e-7 0 1 -1.34556e-7 0 1 0 0 1 0 0 -1 5.23873e-7 0 -1 1.43189e-7 0 1 1.43189e-7 0 -1 0 0 1 0 0 1 2.45541e-7 0 -1 -1.69735e-7 0 -1 0 0 -1 0 0 1 0 0 -1 0 0 -1 0 0 1 1.56548e-7 0 -1 0 0 1 0 0 -1 0 0 -1 -1.43189e-7 0 1 -1.43189e-7 0 -1 -2.45541e-7 0 -1 -5.09205e-7 0 -1 1.39702e-7 0 -1 0 0 1 -2.82892e-7 0 -1 0 0 1 -1.56548e-7 0 -1 0 0 -1 0 0 -1 0 0 1 1.31159e-7 0 1 -1.31159e-7 0 1 0 0 1 1.31159e-7 0 1 1.74869e-7 0 1 -1.34556e-7 0 1 0 0 1 0 0.9749794 0.2222952 0.1950902 0.9807853 0 0 1 0 0.190209 0.9562455 0.2222952 0.3826835 0.9238796 0 0.3731085 0.9007635 0.2222952 0.5555701 0.8314697 0 0.6894146 0.6894146 0.2222953 0.7071065 0.7071071 0 0.8314698 0.5555701 0 0.8106658 0.5416696 0.2222954 0.9238798 0.382683 0 0.9007635 0.3731085 0.2222952 0.9807853 0.1950902 0 0.9562455 0.1902092 0.2222952 1 0 0 0.9749794 0 0.2222952 0.9807853 -0.1950902 0 0.9562455 -0.190209 0.2222953 0.9238798 -0.382683 0 0.9007636 -0.3731084 0.2222955 0.8314698 -0.55557 0 0.8106657 -0.5416696 0.2222954 0.7071065 -0.7071071 0 0.6894145 -0.6894146 0.2222954 0.5555701 -0.8314698 0 0.3731085 -0.9007635 0.2222954 0.3826835 -0.9238796 0 0.1950902 -0.9807853 0 0.1902091 -0.9562455 0.2222954 0 -1 0 0 -0.9749795 0.2222953 -0.1950902 -0.9807853 0 -0.1902091 -0.9562455 0.2222953 -0.3826835 -0.9238795 0 -0.3731085 -0.9007635 0.2222954 -0.5555704 -0.8314697 0 -0.5416697 -0.8106656 0.2222954 -0.7071066 -0.707107 0 -0.6894147 -0.6894143 0.2222954 -0.8314695 -0.5555706 0 -0.8106659 -0.5416693 0.2222953 -0.9238795 -0.3826835 0 -0.9007636 -0.3731084 0.2222953 -0.9807853 -0.1950902 0 -0.9562455 -0.1902091 0.2222952 -1 0 0 -0.9749795 0 0.2222953 -0.9807853 0.1950902 0 -0.9562455 0.1902091 0.2222953 -0.9238796 0.3826836 0 -0.9007635 0.3731085 0.2222953 -0.8314694 0.5555705 0 -0.6894147 0.6894143 0.2222953 -0.7071066 0.7071071 0 -0.5555703 0.8314696 0 -0.5416697 0.8106657 0.2222953 -0.3826835 0.9238795 0 -0.3731085 0.9007636 0.2222953 -0.1950902 0.9807853 0 -0.190209 0.9562455 0.2222953 0 0 -1 0 0 -1 0 0 1 -1.25732e-7 0 1 0 0 -1 0 0 -1 1.25732e-7 0 1 0 0 -1 1.69735e-7 0 -1 0 0 1 -5.23873e-7 0 -1 0 0 -1 -1.43189e-7 0 -1 0 0 1 0 0 1 0 0 -1 5.09205e-7 0 -1 -1.56548e-7 0 -1 -1.39702e-7 0 -1 2.82892e-7 0 -1 1.43189e-7 0 -1 1.56548e-7 0 -1 0.7071067 0.7071068 0 0.8314697 0.5555701 -1.22209e-7 0.8314696 0.5555703 -1.43522e-7 0 0 1 0 0 1 0 0 1 -0.9807853 -0.1950906 1.64536e-7 -1 5.95767e-7 1.69157e-7 -1 -5.76703e-7 1.69006e-7 0.9238796 0.3826832 -1.54479e-7 0.9238796 0.3826833 -1.73647e-7 -0.9807853 0.1950906 1.59905e-7 -0.9807853 0.19509 1.43173e-7 0.9807853 0.1950904 -1.86959e-7 0.9807853 0.1950903 -1.6242e-7 -0.9238795 0.3826835 1.27721e-7 -0.9238796 0.3826833 1.5494e-7 1 0 -1.64962e-7 1 0 -1.64761e-7 -0.8314695 0.5555706 1.23982e-7 -0.8314697 0.5555701 1.63727e-7 0.9807853 -0.1950903 -1.69824e-7 0.9807854 -0.1950904 -1.84822e-7 -0.7071067 0.7071069 0 -0.7071069 0.7071067 1.62946e-7 0.9238796 -0.3826833 -1.77643e-7 0.9238796 -0.3826833 -1.51618e-7 -0.5555703 0.8314697 0 -0.5555703 0.8314697 0 0.8314696 -0.5555703 -1.20692e-7 0.8314697 -0.5555702 -1.38442e-7 -0.3826833 0.9238796 0 -0.3826833 0.9238796 0 0 -1 0 -0.1950904 -0.9807854 0 -0.1950904 -0.9807853 0 0.7071067 -0.7071068 -1.25156e-7 0.707107 -0.7071067 -1.2236e-7 -0.1950904 0.9807853 0 -0.1950904 0.9807854 0 -0.3826833 -0.9238796 0 -0.3826833 -0.9238796 0 0.5555702 -0.8314697 0 0.5555702 -0.8314697 0 0 1 0 0 1 0 -0.5555703 -0.8314697 0 -0.5555703 -0.8314697 0 0.3826832 -0.9238796 0 0.3826833 -0.9238796 0 0.1950904 0.9807853 0 0.1950904 0.9807853 0 -0.707107 -0.7071067 0 -0.7071068 -0.7071068 1.51565e-7 0.1950904 -0.9807853 0 0.1950904 -0.9807853 0 0.3826833 0.9238796 0 0.3826832 0.9238796 0 -0.8314695 -0.5555704 1.61933e-7 -0.8314696 -0.5555703 1.34713e-7 0 -1 0 0.5555702 0.8314697 0 0.5555702 0.8314697 0 -0.9238795 -0.3826835 1.46491e-7 -0.9238796 -0.3826833 1.36126e-7 0.7071069 0.7071067 -1.42578e-7 -0.9807854 -0.19509 1.38466e-7 0 0.9749795 -0.2222953 -0.190209 0.9562455 -0.2222953 -0.3731085 0.9007635 -0.2222954 -0.5416697 0.8106657 -0.2222954 -0.6894147 0.6894143 -0.2222954 -0.8106659 0.5416693 -0.2222953 -0.9007635 0.3731085 -0.2222953 -0.9562455 0.1902091 -0.2222952 -0.9749794 0 -0.2222952 -0.9562455 -0.190209 -0.2222953 -0.9007635 -0.3731085 -0.2222954 -0.8106659 -0.5416694 -0.2222953 -0.6894147 -0.6894144 -0.2222953 -0.5416697 -0.8106657 -0.2222952 -0.3731084 -0.9007636 -0.2222952 -0.1902091 -0.9562455 -0.2222953 0 -0.9749794 -0.2222952 0.190209 -0.9562455 -0.2222952 0.3731085 -0.9007635 -0.2222953 0.5416697 -0.8106656 -0.2222954 0.6894145 -0.6894146 -0.2222954 0.8106658 -0.5416696 -0.2222954 0.9007635 -0.3731085 -0.2222953 0.9562455 -0.1902091 -0.2222952 0.9749795 0 -0.2222953 0.9562455 0.1902091 -0.2222954 0.9007635 0.3731084 -0.2222954 0.8106657 0.5416696 -0.2222954 0.6894146 0.6894146 -0.2222953 0.5416697 0.8106656 -0.2222953 0.3731085 0.9007635 -0.2222954 0.1902091 0.9562455 -0.2222953 0 0 -1 3.53346e-6 0 -1 -7.45968e-7 0 -1 2.27075e-6 0 -1 0 0 -1 1.91363e-7 0 -1 -4.31875e-7 0 -1 1.05583e-6 0 -1 -1.06499e-6 0 -1 2.65009e-6 0 -1 0 0 -1 -3.53342e-6 0 -1 7.45972e-7 0 -1 -2.27075e-6 0 -1 -1.91363e-7 0 -1 5.53522e-7 0 -1 0.5416697 0.8106656 0.2222953 0.5416697 -0.8106656 0.2222954 -0.8106659 0.5416694 0.2222953 -6.62516e-7 0 1 2.66248e-7 0 1 0 0 1 0 0 1 0 0 1 2.04655e-7 0 1 0 0 1 6.62521e-7 0 1 -2.66246e-7 0 1 0 0 1 4.24389e-7 0 1 -5.53522e-7 0 1 0 0 1</float_array>
          <technique_common>
            <accessor source="#Cylinder-mesh-normals-array" count="339" stride="3">
              <param name="X" type="float"/>
              <param name="Y" type="float"/>
              <param name="Z" type="float"/>
            </accessor>
          </technique_common>
        </source>
        <source id="Cylinder-mesh-map-0">
          <float_array id="Cylinder-mesh-map-0-array" count="4200">0.1581559 0.4717311 0.1166631 0.4495527 0.1166631 0.4495527 0.8833369 0.4495527 0.9197056 0.4197056 0.9197056 0.4197056 0.05044728 0.1166631 0.08029437 0.08029437 0.08029437 0.08029437 0.6166632 0.4495527 0.658156 0.4717311 0.658156 0.4717311 0.4197056 0.08029437 0.4495527 0.1166631 0.4495527 0.1166631 0.5802944 0.08029437 0.5504473 0.1166631 0.5504473 0.1166631 0.3833369 0.4495527 0.341844 0.4717311 0.341844 0.4717311 0.9495527 0.1166631 0.9197056 0.08029437 0.9197056 0.08029437 0.1166631 0.4495527 0.08029437 0.4197056 0.08029437 0.4197056 0.841844 0.4717311 0.8833369 0.4495527 0.8833369 0.4495527 0.08029437 0.08029437 0.1166631 0.05044728 0.1166631 0.05044728 0.5802944 0.4197056 0.6166632 0.4495527 0.6166632 0.4495527 0.4495527 0.1166631 0.4717311 0.1581559 0.4717311 0.1581559 0.6166632 0.05044728 0.5802944 0.08029437 0.5802944 0.08029437 0.341844 0.4717311 0.2968217 0.4853885 0.2968217 0.4853885 0.9717311 0.1581559 0.9495527 0.1166631 0.9495527 0.1166631 0.08029437 0.4197056 0.05044728 0.3833369 0.05044728 0.3833369 0.7968217 0.4853885 0.841844 0.4717311 0.841844 0.4717311 0.1166631 0.05044728 0.1581559 0.02826887 0.1581559 0.02826887 0.5504473 0.3833369 0.5802944 0.4197056 0.5802944 0.4197056 0.4717311 0.1581559 0.4853885 0.2031783 0.4853885 0.2031783 0.658156 0.02826887 0.6166632 0.05044728 0.6166632 0.05044728 0.9853885 0.2031783 0.9717311 0.1581559 0.9717311 0.1581559 0.05044728 0.3833369 0.02826887 0.341844 0.02826887 0.341844 0.2968217 0.4853885 0.25 0.49 0.25 0.49 0.1581559 0.02826887 0.2031783 0.01461154 0.2031783 0.01461154 0.5282689 0.341844 0.5504473 0.3833369 0.5504473 0.3833369 0.75 0.49 0.7968217 0.4853885 0.7968217 0.4853885 0.4853885 0.2031783 0.49 0.25 0.49 0.25 0.7031784 0.01461154 0.658156 0.02826887 0.658156 0.02826887 0.01461154 0.2031783 0.00999999 0.25 0.00999999 0.25 0.99 0.25 0.9853885 0.2031783 0.9853885 0.2031783 0.02826887 0.341844 0.01461154 0.2968217 0.01461154 0.2968217 0.7968217 0.01461154 0.5146116 0.2031783 0.7031784 0.4853885 0.9717311 0.341844 0.9853885 0.2968217 0.9853885 0.2968217 0.00999999 0.25 0.01461154 0.2031783 0.01461154 0.2031783 0.2968217 0.01461154 0.341844 0.02826887 0.341844 0.02826887 0.5146116 0.2031783 0.51 0.25 0.51 0.25 0.4717311 0.341844 0.4495527 0.3833369 0.4495527 0.3833369 0.841844 0.02826887 0.7968217 0.01461154 0.7968217 0.01461154 0.25 0.49 0.2031783 0.4853885 0.2031783 0.4853885 0.9495527 0.3833369 0.9717311 0.341844 0.9717311 0.341844 0.01461154 0.2031783 0.02826887 0.1581559 0.02826887 0.1581559 0.7031784 0.4853885 0.75 0.49 0.75 0.49 0.341844 0.02826887 0.3833369 0.05044728 0.3833369 0.05044728 0.5282689 0.1581559 0.5146116 0.2031783 0.5146116 0.2031783 0.4495527 0.3833369 0.4197056 0.4197056 0.4197056 0.4197056 0.8833369 0.05044728 0.841844 0.02826887 0.841844 0.02826887 0.2031783 0.4853885 0.1581559 0.4717311 0.1581559 0.4717311 0.9197056 0.4197056 0.9495527 0.3833369 0.9495527 0.3833369 0.02826887 0.1581559 0.05044728 0.1166631 0.05044728 0.1166631 0.658156 0.4717311 0.7031784 0.4853885 0.7031784 0.4853885 0.3833369 0.05044728 0.4197056 0.08029437 0.4197056 0.08029437 0.5504473 0.1166631 0.5282689 0.1581559 0.5282689 0.1581559 0.4197056 0.4197056 0.3833369 0.4495527 0.3833369 0.4495527 0.9197056 0.08029437 0.8833369 0.05044728 0.8833369 0.05044728 0.1581559 0.4717311 0.1166631 0.4495527 0.1166631 0.4495527 0.8833369 0.4495527 0.9197056 0.4197056 0.9197056 0.4197056 0.05044728 0.1166631 0.08029437 0.08029437 0.08029437 0.08029437 0.6166632 0.4495527 0.658156 0.4717311 0.658156 0.4717311 0.4197056 0.08029437 0.4495527 0.1166631 0.4495527 0.1166631 0.5802944 0.08029437 0.5504473 0.1166631 0.5504473 0.1166631 0.3833369 0.4495527 0.341844 0.4717311 0.341844 0.4717311 0.9495527 0.1166631 0.9197056 0.08029437 0.9197056 0.08029437 0.1166631 0.4495527 0.08029437 0.4197056 0.08029437 0.4197056 0.841844 0.4717311 0.8833369 0.4495527 0.8833369 0.4495527 0.9197056 0.08029437 0.8833369 0.05044728 0.8833369 0.05044728 0.4197056 0.4197056 0.3833369 0.4495527 0.3833369 0.4495527 0.5504473 0.1166631 0.5282689 0.1581559 0.5282689 0.1581559 0.3833369 0.05044728 0.4197056 0.08029437 0.4197056 0.08029437 0.658156 0.4717311 0.7031784 0.4853885 0.7031784 0.4853885 0.02826887 0.1581559 0.05044728 0.1166631 0.05044728 0.1166631 0.9197056 0.4197056 0.9495527 0.3833369 0.9495527 0.3833369 0.2031783 0.4853885 0.1581559 0.4717311 0.1581559 0.4717311 0.8833369 0.05044728 0.841844 0.02826887 0.841844 0.02826887 0.4495527 0.3833369 0.4197056 0.4197056 0.4197056 0.4197056 0.5282689 0.1581559 0.5146116 0.2031783 0.5146116 0.2031783 0.341844 0.02826887 0.3833369 0.05044728 0.3833369 0.05044728 0.7031784 0.4853885 0.75 0.49 0.75 0.49 0.01461154 0.2031783 0.02826887 0.1581559 0.02826887 0.1581559 0.9495527 0.3833369 0.9717311 0.341844 0.9717311 0.341844 0.25 0.49 0.2031783 0.4853885 0.2031783 0.4853885 0.841844 0.02826887 0.7968217 0.01461154 0.7968217 0.01461154 0.4717311 0.341844 0.4495527 0.3833369 0.4495527 0.3833369 0.5146116 0.2031783 0.51 0.25 0.51 0.25 0.2968217 0.01461154 0.341844 0.02826887 0.341844 0.02826887 0.00999999 0.25 0.01461154 0.2031783 0.01461154 0.2031783 0.9717311 0.341844 0.9853885 0.2968217 0.9853885 0.2968217 0.7968217 0.01461154 0.75 0.00999999 0.75 0.00999999 0.4853885 0.2968217 0.4717311 0.341844 0.4717311 0.341844 0.5146116 0.2968217 0.51 0.25 0.5146116 0.2968217 0.25 0.00999999 0.2968217 0.01461154 0.2968217 0.01461154 0.01461154 0.2968217 0.00999999 0.25 0.00999999 0.25 0.9853885 0.2968217 0.99 0.25 0.99 0.25 0.75 0.00999999 0.7031784 0.01461154 0.7031784 0.01461154 0.49 0.25 0.4853885 0.2968217 0.4853885 0.2968217 0.5282689 0.341844 0.5146116 0.2968217 0.5282689 0.341844 0.2031783 0.01461154 0.25 0.00999999 0.25 0.00999999 0.75 0.00999999 0.7968217 0.01461154 0.75 0.00999999 0.9853885 0.2968217 0.9717311 0.341844 0.9853885 0.2968217 0.00999999 0.25 0.01461154 0.2031783 0.01461154 0.2031783 0.2968217 0.01461154 0.341844 0.02826887 0.341844 0.02826887 0.51 0.25 0.5146116 0.2031783 0.51 0.25 0.4495527 0.3833369 0.4717311 0.341844 0.4495527 0.3833369 0.7968217 0.01461154 0.841844 0.02826887 0.7968217 0.01461154 0.25 0.49 0.2031783 0.4853885 0.2031783 0.4853885 0.9495527 0.3833369 0.9717311 0.341844 0.9717311 0.341844 0.01461154 0.2031783 0.02826887 0.1581559 0.02826887 0.1581559 0.75 0.49 0.7031784 0.4853885 0.75 0.49 0.3833369 0.05044728 0.341844 0.02826887 0.3833369 0.05044728 0.5146116 0.2031783 0.5282689 0.1581559 0.5146116 0.2031783 0.4197056 0.4197056 0.4495527 0.3833369 0.4197056 0.4197056 0.8833369 0.05044728 0.841844 0.02826887 0.841844 0.02826887 0.2031783 0.4853885 0.1581559 0.4717311 0.1581559 0.4717311 0.9197056 0.4197056 0.9495527 0.3833369 0.9495527 0.3833369 0.05044728 0.1166631 0.02826887 0.1581559 0.05044728 0.1166631 0.7031784 0.4853885 0.658156 0.4717311 0.7031784 0.4853885 0.4197056 0.08029437 0.3833369 0.05044728 0.4197056 0.08029437 0.5504473 0.1166631 0.5282689 0.1581559 0.5282689 0.1581559 0.4197056 0.4197056 0.3833369 0.4495527 0.3833369 0.4495527 0.9197056 0.08029437 0.8833369 0.05044728 0.8833369 0.05044728 0.1166631 0.4495527 0.1581559 0.4717311 0.1166631 0.4495527 0.9197056 0.4197056 0.8833369 0.4495527 0.9197056 0.4197056 0.08029437 0.08029437 0.05044728 0.1166631 0.08029437 0.08029437 0.6166632 0.4495527 0.658156 0.4717311 0.658156 0.4717311 0.4197056 0.08029437 0.4495527 0.1166631 0.4495527 0.1166631 0.5802944 0.08029437 0.5504473 0.1166631 0.5504473 0.1166631 0.3833369 0.4495527 0.341844 0.4717311 0.341844 0.4717311 0.9197056 0.08029437 0.9495527 0.1166631 0.9197056 0.08029437 0.08029437 0.4197056 0.1166631 0.4495527 0.08029437 0.4197056 0.7968217 0.01461154 0.75 0.00999999 0.75 0.00999999 0.4853885 0.2968217 0.4717311 0.341844 0.4717311 0.341844 0.51 0.25 0.5146116 0.2968217 0.5146116 0.2968217 0.25 0.00999999 0.2968217 0.01461154 0.2968217 0.01461154 0.01461154 0.2968217 0.00999999 0.25 0.00999999 0.25 0.9853885 0.2968217 0.99 0.25 0.99 0.25 0.75 0.00999999 0.7031784 0.01461154 0.7031784 0.01461154 0.49 0.25 0.4853885 0.2968217 0.4853885 0.2968217 0.5146116 0.2968217 0.5282689 0.341844 0.5282689 0.341844 0.2031783 0.01461154 0.25 0.00999999 0.25 0.00999999 0.02826887 0.341844 0.01461154 0.2968217 0.01461154 0.2968217 0.99 0.25 0.9853885 0.2031783 0.9853885 0.2031783 0.7031784 0.01461154 0.658156 0.02826887 0.658156 0.02826887 0.4853885 0.2031783 0.49 0.25 0.49 0.25 0.75 0.49 0.7968217 0.4853885 0.7968217 0.4853885 0.5282689 0.341844 0.5504473 0.3833369 0.5504473 0.3833369 0.1581559 0.02826887 0.2031783 0.01461154 0.2031783 0.01461154 0.2968217 0.4853885 0.25 0.49 0.25 0.49 0.05044728 0.3833369 0.02826887 0.341844 0.02826887 0.341844 0.9853885 0.2031783 0.9717311 0.1581559 0.9717311 0.1581559 0.658156 0.02826887 0.6166632 0.05044728 0.6166632 0.05044728 0.4717311 0.1581559 0.4853885 0.2031783 0.4853885 0.2031783 0.5504473 0.3833369 0.5802944 0.4197056 0.5802944 0.4197056 0.1166631 0.05044728 0.1581559 0.02826887 0.1581559 0.02826887 0.7968217 0.4853885 0.841844 0.4717311 0.841844 0.4717311 0.08029437 0.4197056 0.05044728 0.3833369 0.05044728 0.3833369 0.9717311 0.1581559 0.9495527 0.1166631 0.9495527 0.1166631 0.341844 0.4717311 0.2968217 0.4853885 0.2968217 0.4853885 0.6166632 0.05044728 0.5802944 0.08029437 0.5802944 0.08029437 0.4495527 0.1166631 0.4717311 0.1581559 0.4717311 0.1581559 0.5802944 0.4197056 0.6166632 0.4495527 0.6166632 0.4495527 0.08029437 0.08029437 0.1166631 0.05044728 0.1166631 0.05044728 1 1 0.96875 0.75 1 0.75 0.96875 1 0.9375 0.75 0.96875 0.75 0.9375 1 0.90625 0.75 0.9375 0.75 0.90625 0.75 0.875 1 0.875 0.75 0.875 1 0.84375 0.75 0.875 0.75 0.84375 1 0.8125 0.75 0.84375 0.75 0.8125 1 0.78125 0.75 0.8125 0.75 0.78125 1 0.75 0.75 0.78125 0.75 0.75 1 0.71875 0.75 0.75 0.75 0.71875 1 0.6875 0.75 0.71875 0.75 0.6875 1 0.65625 0.75 0.6875 0.75 0.65625 1 0.625 0.75 0.65625 0.75 0.625 1 0.59375 0.75 0.625 0.75 0.59375 0.75 0.5625 1 0.5625 0.75 0.5625 1 0.53125 0.75 0.5625 0.75 0.53125 1 0.5 0.75 0.53125 0.75 0.5 1 0.46875 0.75 0.5 0.75 0.46875 1 0.4375 0.75 0.46875 0.75 0.4375 1 0.40625 0.75 0.4375 0.75 0.40625 1 0.375 0.75 0.40625 0.75 0.375 1 0.34375 0.75 0.375 0.75 0.34375 1 0.3125 0.75 0.34375 0.75 0.3125 1 0.28125 0.75 0.3125 0.75 0.28125 1 0.25 0.75 0.28125 0.75 0.25 1 0.21875 0.75 0.25 0.75 0.21875 1 0.1875 0.75 0.21875 0.75 0.1875 1 0.15625 0.75 0.1875 0.75 0.15625 0.75 0.125 1 0.125 0.75 0.125 1 0.09375 0.75 0.125 0.75 0.09375 1 0.0625 0.75 0.09375 0.75 0.0625 1 0.03125 0.75 0.0625 0.75 0.03125 1 0 0.75 0.03125 0.75 0.4853885 0.2968217 0.4717311 0.341844 0.4717311 0.341844 0.51 0.25 0.5146116 0.2968217 0.5146116 0.2968217 0.25 0.00999999 0.2968217 0.01461154 0.2968217 0.01461154 0.00999999 0.25 0.01461154 0.2968217 0.00999999 0.25 0.99 0.25 0.9853885 0.2968217 0.99 0.25 0.75 0.00999999 0.7031784 0.01461154 0.7031784 0.01461154 0.49 0.25 0.4853885 0.2968217 0.4853885 0.2968217 0.5146116 0.2968217 0.5282689 0.341844 0.5282689 0.341844 0.25 0.00999999 0.2031783 0.01461154 0.25 0.00999999 0.01461154 0.2968217 0.02826887 0.341844 0.01461154 0.2968217 0.99 0.25 0.9853885 0.2031783 0.9853885 0.2031783 0.7031784 0.01461154 0.658156 0.02826887 0.658156 0.02826887 0.49 0.25 0.4853885 0.2031783 0.49 0.25 0.75 0.49 0.7968217 0.4853885 0.7968217 0.4853885 0.5504473 0.3833369 0.5282689 0.341844 0.5504473 0.3833369 0.2031783 0.01461154 0.1581559 0.02826887 0.2031783 0.01461154 0.25 0.49 0.2968217 0.4853885 0.25 0.49 0.05044728 0.3833369 0.02826887 0.341844 0.02826887 0.341844 0.9853885 0.2031783 0.9717311 0.1581559 0.9717311 0.1581559 0.6166632 0.05044728 0.658156 0.02826887 0.6166632 0.05044728 0.4853885 0.2031783 0.4717311 0.1581559 0.4853885 0.2031783 0.5802944 0.4197056 0.5504473 0.3833369 0.5802944 0.4197056 0.1166631 0.05044728 0.1581559 0.02826887 0.1581559 0.02826887 0.7968217 0.4853885 0.841844 0.4717311 0.841844 0.4717311 0.08029437 0.4197056 0.05044728 0.3833369 0.05044728 0.3833369 0.9495527 0.1166631 0.9717311 0.1581559 0.9495527 0.1166631 0.2968217 0.4853885 0.341844 0.4717311 0.2968217 0.4853885 0.5802944 0.08029437 0.6166632 0.05044728 0.5802944 0.08029437 0.4495527 0.1166631 0.4717311 0.1581559 0.4717311 0.1581559 0.5802944 0.4197056 0.6166632 0.4495527 0.6166632 0.4495527 0.08029437 0.08029437 0.1166631 0.05044728 0.1166631 0.05044728 0.8833369 0.4495527 0.841844 0.4717311 0.8833369 0.4495527 0.08029437 0.08029437 0.05044728 0.1166631 0.05044728 0.1166631 0.2968217 0.4853885 0.341844 0.4717311 0.341844 0.4717311 0.4717311 0.1581559 0.4495527 0.1166631 0.4495527 0.1166631 0.1166631 0.05044728 0.08029437 0.08029437 0.08029437 0.08029437 0.08029437 0.4197056 0.1166631 0.4495527 0.1166631 0.4495527 0.4717311 0.341844 0.4853885 0.2968217 0.4853885 0.2968217 0.2968217 0.01461154 0.25 0.00999999 0.25 0.00999999 0.00999999 0.25 0.01461154 0.2968217 0.01461154 0.2968217 0.341844 0.4717311 0.3833369 0.4495527 0.3833369 0.4495527 0.4495527 0.1166631 0.4197056 0.08029437 0.4197056 0.08029437 0.08029437 0.08029437 0.05044728 0.1166631 0.05044728 0.1166631 0.1166631 0.4495527 0.1581559 0.4717311 0.1581559 0.4717311 0.4853885 0.2968217 0.49 0.25 0.49 0.25 0.25 0.00999999 0.2031783 0.01461154 0.2031783 0.01461154 0.01461154 0.2968217 0.02826887 0.341844 0.02826887 0.341844 0.3833369 0.4495527 0.4197056 0.4197056 0.4197056 0.4197056 0.4197056 0.08029437 0.3833369 0.05044728 0.3833369 0.05044728 0.05044728 0.1166631 0.02826887 0.1581559 0.02826887 0.1581559 0.1581559 0.4717311 0.2031783 0.4853885 0.2031783 0.4853885 0.49 0.25 0.4853885 0.2031783 0.4853885 0.2031783 0.2031783 0.01461154 0.1581559 0.02826887 0.1581559 0.02826887 0.02826887 0.341844 0.05044728 0.3833369 0.05044728 0.3833369 0.4197056 0.4197056 0.4495527 0.3833369 0.4495527 0.3833369 0.3833369 0.05044728 0.341844 0.02826887 0.341844 0.02826887 0.02826887 0.1581559 0.01461154 0.2031783 0.01461154 0.2031783 0.25 0.49 0.2968217 0.4853885 0.2968217 0.4853885 0.2031783 0.4853885 0.25 0.49 0.25 0.49 0.4853885 0.2031783 0.4717311 0.1581559 0.4717311 0.1581559 0.1581559 0.02826887 0.1166631 0.05044728 0.1166631 0.05044728 0.05044728 0.3833369 0.08029437 0.4197056 0.08029437 0.4197056 0.4495527 0.3833369 0.4717311 0.341844 0.4717311 0.341844 0.341844 0.02826887 0.2968217 0.01461154 0.2968217 0.01461154 0.341844 0.02826887 0.4717311 0.1581559 0.341844 0.4717311 0.4853885 0.2968217 0.49 0.25 0.49 0.25 0.05044728 0.1166631 0.02826887 0.1581559 0.02826887 0.1581559 0.49 0.25 0.4853885 0.2031783 0.4853885 0.2031783 0.02826887 0.1581559 0.01461154 0.2031783 0.01461154 0.2031783 0.4853885 0.2031783 0.4717311 0.1581559 0.4717311 0.1581559 0.01461154 0.2031783 0.00999999 0.25 0.00999999 0.25 0.4717311 0.1581559 0.4495527 0.1166631 0.4495527 0.1166631 0.00999999 0.25 0.01461154 0.2968217 0.01461154 0.2968217 0.4495527 0.1166631 0.4197056 0.08029437 0.4197056 0.08029437 0.01461154 0.2968217 0.02826887 0.341844 0.02826887 0.341844 0.3833369 0.05044728 0.4197056 0.08029437 0.3833369 0.05044728 0.02826887 0.341844 0.05044728 0.3833369 0.05044728 0.3833369 0.341844 0.02826887 0.3833369 0.05044728 0.341844 0.02826887 0.25 0.49 0.2968217 0.4853885 0.2968217 0.4853885 0.05044728 0.3833369 0.08029437 0.4197056 0.08029437 0.4197056 0.2968217 0.01461154 0.341844 0.02826887 0.2968217 0.01461154 0.2968217 0.4853885 0.341844 0.4717311 0.341844 0.4717311 0.08029437 0.4197056 0.1166631 0.4495527 0.1166631 0.4495527 0.25 0.00999999 0.2968217 0.01461154 0.25 0.00999999 0.341844 0.4717311 0.3833369 0.4495527 0.3833369 0.4495527 0.1166631 0.4495527 0.1581559 0.4717311 0.1581559 0.4717311 0.2031783 0.01461154 0.25 0.00999999 0.2031783 0.01461154 0.3833369 0.4495527 0.4197056 0.4197056 0.4197056 0.4197056 0.1581559 0.4717311 0.2031783 0.4853885 0.2031783 0.4853885 0.1581559 0.02826887 0.2031783 0.01461154 0.1581559 0.02826887 0.4197056 0.4197056 0.4495527 0.3833369 0.4495527 0.3833369 0.2031783 0.4853885 0.25 0.49 0.25 0.49 0.1166631 0.05044728 0.1581559 0.02826887 0.1166631 0.05044728 0.4495527 0.3833369 0.4717311 0.341844 0.4717311 0.341844 0.08029437 0.08029437 0.1166631 0.05044728 0.08029437 0.08029437 0.4717311 0.341844 0.4853885 0.2968217 0.4853885 0.2968217 0.03125 0.75 0 0.5 0.03125 0.5 0.0625 0.75 0.03125 0.5 0.0625 0.5 0.09375 0.75 0.0625 0.5 0.09375 0.5 0.125 0.75 0.09375 0.5 0.125 0.5 0.15625 0.75 0.125 0.5 0.15625 0.5 0.1875 0.75 0.15625 0.5 0.1875 0.5 0.21875 0.75 0.1875 0.5 0.21875 0.5 0.25 0.75 0.21875 0.5 0.25 0.5 0.28125 0.75 0.25 0.5 0.28125 0.5 0.3125 0.75 0.28125 0.5 0.3125 0.5 0.34375 0.75 0.3125 0.5 0.34375 0.5 0.375 0.5 0.34375 0.75 0.34375 0.5 0.40625 0.75 0.375 0.5 0.40625 0.5 0.4375 0.75 0.40625 0.5 0.4375 0.5 0.46875 0.75 0.4375 0.5 0.46875 0.5 0.5 0.75 0.46875 0.5 0.5 0.5 0.53125 0.75 0.5 0.5 0.53125 0.5 0.5625 0.75 0.53125 0.5 0.5625 0.5 0.59375 0.75 0.5625 0.5 0.59375 0.5 0.625 0.5 0.59375 0.75 0.59375 0.5 0.65625 0.75 0.625 0.5 0.65625 0.5 0.6875 0.75 0.65625 0.5 0.6875 0.5 0.71875 0.75 0.6875 0.5 0.71875 0.5 0.75 0.75 0.71875 0.5 0.75 0.5 0.78125 0.75 0.75 0.5 0.78125 0.5 0.8125 0.75 0.78125 0.5 0.8125 0.5 0.84375 0.75 0.8125 0.5 0.84375 0.5 0.875 0.75 0.84375 0.5 0.875 0.5 0.90625 0.75 0.875 0.5 0.90625 0.5 0.9375 0.5 0.90625 0.75 0.90625 0.5 0.96875 0.75 0.9375 0.5 0.96875 0.5 1 0.75 0.96875 0.5 1 0.5 0.1581559 0.4717311 0.1581559 0.4717311 0.1166631 0.4495527 0.8833369 0.4495527 0.8833369 0.4495527 0.9197056 0.4197056 0.05044728 0.1166631 0.05044728 0.1166631 0.08029437 0.08029437 0.6166632 0.4495527 0.6166632 0.4495527 0.658156 0.4717311 0.4197056 0.08029437 0.4197056 0.08029437 0.4495527 0.1166631 0.5802944 0.08029437 0.5802944 0.08029437 0.5504473 0.1166631 0.3833369 0.4495527 0.3833369 0.4495527 0.341844 0.4717311 0.9495527 0.1166631 0.9495527 0.1166631 0.9197056 0.08029437 0.1166631 0.4495527 0.1166631 0.4495527 0.08029437 0.4197056 0.841844 0.4717311 0.841844 0.4717311 0.8833369 0.4495527 0.08029437 0.08029437 0.08029437 0.08029437 0.1166631 0.05044728 0.5802944 0.4197056 0.5802944 0.4197056 0.6166632 0.4495527 0.4495527 0.1166631 0.4495527 0.1166631 0.4717311 0.1581559 0.6166632 0.05044728 0.6166632 0.05044728 0.5802944 0.08029437 0.341844 0.4717311 0.341844 0.4717311 0.2968217 0.4853885 0.9717311 0.1581559 0.9717311 0.1581559 0.9495527 0.1166631 0.08029437 0.4197056 0.08029437 0.4197056 0.05044728 0.3833369 0.7968217 0.4853885 0.7968217 0.4853885 0.841844 0.4717311 0.1166631 0.05044728 0.1166631 0.05044728 0.1581559 0.02826887 0.5504473 0.3833369 0.5504473 0.3833369 0.5802944 0.4197056 0.4717311 0.1581559 0.4717311 0.1581559 0.4853885 0.2031783 0.658156 0.02826887 0.658156 0.02826887 0.6166632 0.05044728 0.9853885 0.2031783 0.9853885 0.2031783 0.9717311 0.1581559 0.05044728 0.3833369 0.05044728 0.3833369 0.02826887 0.341844 0.2968217 0.4853885 0.2968217 0.4853885 0.25 0.49 0.1581559 0.02826887 0.1581559 0.02826887 0.2031783 0.01461154 0.5282689 0.341844 0.5282689 0.341844 0.5504473 0.3833369 0.75 0.49 0.75 0.49 0.7968217 0.4853885 0.4853885 0.2031783 0.4853885 0.2031783 0.49 0.25 0.7031784 0.01461154 0.7031784 0.01461154 0.658156 0.02826887 0.01461154 0.2031783 0.01461154 0.2031783 0.00999999 0.25 0.99 0.25 0.99 0.25 0.9853885 0.2031783 0.02826887 0.341844 0.02826887 0.341844 0.01461154 0.2968217 0.7031784 0.4853885 0.75 0.49 0.7968217 0.4853885 0.7968217 0.4853885 0.841844 0.4717311 0.8833369 0.4495527 0.8833369 0.4495527 0.9197056 0.4197056 0.9853885 0.2968217 0.9197056 0.4197056 0.9495527 0.3833369 0.9853885 0.2968217 0.9495527 0.3833369 0.9717311 0.341844 0.9853885 0.2968217 0.9853885 0.2968217 0.99 0.25 0.9853885 0.2031783 0.9853885 0.2031783 0.9717311 0.1581559 0.9495527 0.1166631 0.9495527 0.1166631 0.9197056 0.08029437 0.7968217 0.01461154 0.9197056 0.08029437 0.8833369 0.05044728 0.7968217 0.01461154 0.8833369 0.05044728 0.841844 0.02826887 0.7968217 0.01461154 0.7968217 0.01461154 0.75 0.00999999 0.7031784 0.01461154 0.7031784 0.01461154 0.658156 0.02826887 0.6166632 0.05044728 0.6166632 0.05044728 0.5802944 0.08029437 0.5146116 0.2031783 0.5802944 0.08029437 0.5504473 0.1166631 0.5146116 0.2031783 0.5504473 0.1166631 0.5282689 0.1581559 0.5146116 0.2031783 0.5146116 0.2031783 0.51 0.25 0.5146116 0.2968217 0.5146116 0.2968217 0.5282689 0.341844 0.5504473 0.3833369 0.5504473 0.3833369 0.5802944 0.4197056 0.6166632 0.4495527 0.6166632 0.4495527 0.658156 0.4717311 0.5504473 0.3833369 0.658156 0.4717311 0.7031784 0.4853885 0.5504473 0.3833369 0.7031784 0.4853885 0.7968217 0.4853885 0.9853885 0.2968217 0.7968217 0.4853885 0.8833369 0.4495527 0.9853885 0.2968217 0.9853885 0.2968217 0.9853885 0.2031783 0.7968217 0.01461154 0.9853885 0.2031783 0.9495527 0.1166631 0.7968217 0.01461154 0.7968217 0.01461154 0.7031784 0.01461154 0.5146116 0.2031783 0.7031784 0.01461154 0.6166632 0.05044728 0.5146116 0.2031783 0.5146116 0.2031783 0.5146116 0.2968217 0.7031784 0.4853885 0.5146116 0.2968217 0.5504473 0.3833369 0.7031784 0.4853885 0.7031784 0.4853885 0.9853885 0.2968217 0.7968217 0.01461154 0.9717311 0.341844 0.9717311 0.341844 0.9853885 0.2968217 0.00999999 0.25 0.00999999 0.25 0.01461154 0.2031783 0.2968217 0.01461154 0.2968217 0.01461154 0.341844 0.02826887 0.5146116 0.2031783 0.5146116 0.2031783 0.51 0.25 0.4717311 0.341844 0.4717311 0.341844 0.4495527 0.3833369 0.841844 0.02826887 0.841844 0.02826887 0.7968217 0.01461154 0.25 0.49 0.25 0.49 0.2031783 0.4853885 0.9495527 0.3833369 0.9495527 0.3833369 0.9717311 0.341844 0.01461154 0.2031783 0.01461154 0.2031783 0.02826887 0.1581559 0.7031784 0.4853885 0.7031784 0.4853885 0.75 0.49 0.341844 0.02826887 0.341844 0.02826887 0.3833369 0.05044728 0.5282689 0.1581559 0.5282689 0.1581559 0.5146116 0.2031783 0.4495527 0.3833369 0.4495527 0.3833369 0.4197056 0.4197056 0.8833369 0.05044728 0.8833369 0.05044728 0.841844 0.02826887 0.2031783 0.4853885 0.2031783 0.4853885 0.1581559 0.4717311 0.9197056 0.4197056 0.9197056 0.4197056 0.9495527 0.3833369 0.02826887 0.1581559 0.02826887 0.1581559 0.05044728 0.1166631 0.658156 0.4717311 0.658156 0.4717311 0.7031784 0.4853885 0.3833369 0.05044728 0.3833369 0.05044728 0.4197056 0.08029437 0.5504473 0.1166631 0.5504473 0.1166631 0.5282689 0.1581559 0.4197056 0.4197056 0.4197056 0.4197056 0.3833369 0.4495527 0.9197056 0.08029437 0.9197056 0.08029437 0.8833369 0.05044728 0.1581559 0.4717311 0.1581559 0.4717311 0.1166631 0.4495527 0.8833369 0.4495527 0.8833369 0.4495527 0.9197056 0.4197056 0.05044728 0.1166631 0.05044728 0.1166631 0.08029437 0.08029437 0.6166632 0.4495527 0.6166632 0.4495527 0.658156 0.4717311 0.4197056 0.08029437 0.4197056 0.08029437 0.4495527 0.1166631 0.5802944 0.08029437 0.5802944 0.08029437 0.5504473 0.1166631 0.3833369 0.4495527 0.3833369 0.4495527 0.341844 0.4717311 0.9495527 0.1166631 0.9495527 0.1166631 0.9197056 0.08029437 0.1166631 0.4495527 0.1166631 0.4495527 0.08029437 0.4197056 0.841844 0.4717311 0.841844 0.4717311 0.8833369 0.4495527 0.9197056 0.08029437 0.9197056 0.08029437 0.8833369 0.05044728 0.4197056 0.4197056 0.4197056 0.4197056 0.3833369 0.4495527 0.5504473 0.1166631 0.5504473 0.1166631 0.5282689 0.1581559 0.3833369 0.05044728 0.3833369 0.05044728 0.4197056 0.08029437 0.658156 0.4717311 0.658156 0.4717311 0.7031784 0.4853885 0.02826887 0.1581559 0.02826887 0.1581559 0.05044728 0.1166631 0.9197056 0.4197056 0.9197056 0.4197056 0.9495527 0.3833369 0.2031783 0.4853885 0.2031783 0.4853885 0.1581559 0.4717311 0.8833369 0.05044728 0.8833369 0.05044728 0.841844 0.02826887 0.4495527 0.3833369 0.4495527 0.3833369 0.4197056 0.4197056 0.5282689 0.1581559 0.5282689 0.1581559 0.5146116 0.2031783 0.341844 0.02826887 0.341844 0.02826887 0.3833369 0.05044728 0.7031784 0.4853885 0.7031784 0.4853885 0.75 0.49 0.01461154 0.2031783 0.01461154 0.2031783 0.02826887 0.1581559 0.9495527 0.3833369 0.9495527 0.3833369 0.9717311 0.341844 0.25 0.49 0.25 0.49 0.2031783 0.4853885 0.841844 0.02826887 0.841844 0.02826887 0.7968217 0.01461154 0.4717311 0.341844 0.4717311 0.341844 0.4495527 0.3833369 0.5146116 0.2031783 0.5146116 0.2031783 0.51 0.25 0.2968217 0.01461154 0.2968217 0.01461154 0.341844 0.02826887 0.00999999 0.25 0.00999999 0.25 0.01461154 0.2031783 0.9717311 0.341844 0.9717311 0.341844 0.9853885 0.2968217 0.7968217 0.01461154 0.7968217 0.01461154 0.75 0.00999999 0.4853885 0.2968217 0.4853885 0.2968217 0.4717311 0.341844 0.5146116 0.2968217 0.51 0.25 0.51 0.25 0.25 0.00999999 0.25 0.00999999 0.2968217 0.01461154 0.01461154 0.2968217 0.01461154 0.2968217 0.00999999 0.25 0.9853885 0.2968217 0.9853885 0.2968217 0.99 0.25 0.75 0.00999999 0.75 0.00999999 0.7031784 0.01461154 0.49 0.25 0.49 0.25 0.4853885 0.2968217 0.5282689 0.341844 0.5146116 0.2968217 0.5146116 0.2968217 0.2031783 0.01461154 0.2031783 0.01461154 0.25 0.00999999 0.75 0.00999999 0.7968217 0.01461154 0.7968217 0.01461154 0.9853885 0.2968217 0.9717311 0.341844 0.9717311 0.341844 0.00999999 0.25 0.00999999 0.25 0.01461154 0.2031783 0.2968217 0.01461154 0.2968217 0.01461154 0.341844 0.02826887 0.51 0.25 0.5146116 0.2031783 0.5146116 0.2031783 0.4495527 0.3833369 0.4717311 0.341844 0.4717311 0.341844 0.7968217 0.01461154 0.841844 0.02826887 0.841844 0.02826887 0.25 0.49 0.25 0.49 0.2031783 0.4853885 0.9495527 0.3833369 0.9495527 0.3833369 0.9717311 0.341844 0.01461154 0.2031783 0.01461154 0.2031783 0.02826887 0.1581559 0.75 0.49 0.7031784 0.4853885 0.7031784 0.4853885 0.3833369 0.05044728 0.341844 0.02826887 0.341844 0.02826887 0.5146116 0.2031783 0.5282689 0.1581559 0.5282689 0.1581559 0.4197056 0.4197056 0.4495527 0.3833369 0.4495527 0.3833369 0.8833369 0.05044728 0.8833369 0.05044728 0.841844 0.02826887 0.2031783 0.4853885 0.2031783 0.4853885 0.1581559 0.4717311 0.9197056 0.4197056 0.9197056 0.4197056 0.9495527 0.3833369 0.05044728 0.1166631 0.02826887 0.1581559 0.02826887 0.1581559 0.7031784 0.4853885 0.658156 0.4717311 0.658156 0.4717311 0.4197056 0.08029437 0.3833369 0.05044728 0.3833369 0.05044728 0.5504473 0.1166631 0.5504473 0.1166631 0.5282689 0.1581559 0.4197056 0.4197056 0.4197056 0.4197056 0.3833369 0.4495527 0.9197056 0.08029437 0.9197056 0.08029437 0.8833369 0.05044728 0.1166631 0.4495527 0.1581559 0.4717311 0.1581559 0.4717311 0.9197056 0.4197056 0.8833369 0.4495527 0.8833369 0.4495527 0.08029437 0.08029437 0.05044728 0.1166631 0.05044728 0.1166631 0.6166632 0.4495527 0.6166632 0.4495527 0.658156 0.4717311 0.4197056 0.08029437 0.4197056 0.08029437 0.4495527 0.1166631 0.5802944 0.08029437 0.5802944 0.08029437 0.5504473 0.1166631 0.3833369 0.4495527 0.3833369 0.4495527 0.341844 0.4717311 0.9197056 0.08029437 0.9495527 0.1166631 0.9495527 0.1166631 0.08029437 0.4197056 0.1166631 0.4495527 0.1166631 0.4495527 0.7968217 0.01461154 0.7968217 0.01461154 0.75 0.00999999 0.4853885 0.2968217 0.4853885 0.2968217 0.4717311 0.341844 0.51 0.25 0.51 0.25 0.5146116 0.2968217 0.25 0.00999999 0.25 0.00999999 0.2968217 0.01461154 0.01461154 0.2968217 0.01461154 0.2968217 0.00999999 0.25 0.9853885 0.2968217 0.9853885 0.2968217 0.99 0.25 0.75 0.00999999 0.75 0.00999999 0.7031784 0.01461154 0.49 0.25 0.49 0.25 0.4853885 0.2968217 0.5146116 0.2968217 0.5146116 0.2968217 0.5282689 0.341844 0.2031783 0.01461154 0.2031783 0.01461154 0.25 0.00999999 0.02826887 0.341844 0.02826887 0.341844 0.01461154 0.2968217 0.99 0.25 0.99 0.25 0.9853885 0.2031783 0.7031784 0.01461154 0.7031784 0.01461154 0.658156 0.02826887 0.4853885 0.2031783 0.4853885 0.2031783 0.49 0.25 0.75 0.49 0.75 0.49 0.7968217 0.4853885 0.5282689 0.341844 0.5282689 0.341844 0.5504473 0.3833369 0.1581559 0.02826887 0.1581559 0.02826887 0.2031783 0.01461154 0.2968217 0.4853885 0.2968217 0.4853885 0.25 0.49 0.05044728 0.3833369 0.05044728 0.3833369 0.02826887 0.341844 0.9853885 0.2031783 0.9853885 0.2031783 0.9717311 0.1581559 0.658156 0.02826887 0.658156 0.02826887 0.6166632 0.05044728 0.4717311 0.1581559 0.4717311 0.1581559 0.4853885 0.2031783 0.5504473 0.3833369 0.5504473 0.3833369 0.5802944 0.4197056 0.1166631 0.05044728 0.1166631 0.05044728 0.1581559 0.02826887 0.7968217 0.4853885 0.7968217 0.4853885 0.841844 0.4717311 0.08029437 0.4197056 0.08029437 0.4197056 0.05044728 0.3833369 0.9717311 0.1581559 0.9717311 0.1581559 0.9495527 0.1166631 0.341844 0.4717311 0.341844 0.4717311 0.2968217 0.4853885 0.6166632 0.05044728 0.6166632 0.05044728 0.5802944 0.08029437 0.4495527 0.1166631 0.4495527 0.1166631 0.4717311 0.1581559 0.5802944 0.4197056 0.5802944 0.4197056 0.6166632 0.4495527 0.08029437 0.08029437 0.08029437 0.08029437 0.1166631 0.05044728 1 1 0.96875 1 0.96875 0.75 0.96875 1 0.9375 1 0.9375 0.75 0.9375 1 0.90625 1 0.90625 0.75 0.90625 0.75 0.90625 1 0.875 1 0.875 1 0.84375 1 0.84375 0.75 0.84375 1 0.8125 1 0.8125 0.75 0.8125 1 0.78125 1 0.78125 0.75 0.78125 1 0.75 1 0.75 0.75 0.75 1 0.71875 1 0.71875 0.75 0.71875 1 0.6875 1 0.6875 0.75 0.6875 1 0.65625 1 0.65625 0.75 0.65625 1 0.625 1 0.625 0.75 0.625 1 0.59375 1 0.59375 0.75 0.59375 0.75 0.59375 1 0.5625 1 0.5625 1 0.53125 1 0.53125 0.75 0.53125 1 0.5 1 0.5 0.75 0.5 1 0.46875 1 0.46875 0.75 0.46875 1 0.4375 1 0.4375 0.75 0.4375 1 0.40625 1 0.40625 0.75 0.40625 1 0.375 1 0.375 0.75 0.375 1 0.34375 1 0.34375 0.75 0.34375 1 0.3125 1 0.3125 0.75 0.3125 1 0.28125 1 0.28125 0.75 0.28125 1 0.25 1 0.25 0.75 0.25 1 0.21875 1 0.21875 0.75 0.21875 1 0.1875 1 0.1875 0.75 0.1875 1 0.15625 1 0.15625 0.75 0.15625 0.75 0.15625 1 0.125 1 0.125 1 0.09375 1 0.09375 0.75 0.09375 1 0.0625 1 0.0625 0.75 0.0625 1 0.03125 1 0.03125 0.75 0.03125 1 0 1 0 0.75 0.4853885 0.2968217 0.4853885 0.2968217 0.4717311 0.341844 0.51 0.25 0.51 0.25 0.5146116 0.2968217 0.25 0.00999999 0.25 0.00999999 0.2968217 0.01461154 0.00999999 0.25 0.01461154 0.2968217 0.01461154 0.2968217 0.99 0.25 0.9853885 0.2968217 0.9853885 0.2968217 0.75 0.00999999 0.75 0.00999999 0.7031784 0.01461154 0.49 0.25 0.49 0.25 0.4853885 0.2968217 0.5146116 0.2968217 0.5146116 0.2968217 0.5282689 0.341844 0.25 0.00999999 0.2031783 0.01461154 0.2031783 0.01461154 0.01461154 0.2968217 0.02826887 0.341844 0.02826887 0.341844 0.99 0.25 0.99 0.25 0.9853885 0.2031783 0.7031784 0.01461154 0.7031784 0.01461154 0.658156 0.02826887 0.49 0.25 0.4853885 0.2031783 0.4853885 0.2031783 0.75 0.49 0.75 0.49 0.7968217 0.4853885 0.5504473 0.3833369 0.5282689 0.341844 0.5282689 0.341844 0.2031783 0.01461154 0.1581559 0.02826887 0.1581559 0.02826887 0.25 0.49 0.2968217 0.4853885 0.2968217 0.4853885 0.05044728 0.3833369 0.05044728 0.3833369 0.02826887 0.341844 0.9853885 0.2031783 0.9853885 0.2031783 0.9717311 0.1581559 0.6166632 0.05044728 0.658156 0.02826887 0.658156 0.02826887 0.4853885 0.2031783 0.4717311 0.1581559 0.4717311 0.1581559 0.5802944 0.4197056 0.5504473 0.3833369 0.5504473 0.3833369 0.1166631 0.05044728 0.1166631 0.05044728 0.1581559 0.02826887 0.7968217 0.4853885 0.7968217 0.4853885 0.841844 0.4717311 0.08029437 0.4197056 0.08029437 0.4197056 0.05044728 0.3833369 0.9495527 0.1166631 0.9717311 0.1581559 0.9717311 0.1581559 0.2968217 0.4853885 0.341844 0.4717311 0.341844 0.4717311 0.5802944 0.08029437 0.6166632 0.05044728 0.6166632 0.05044728 0.4495527 0.1166631 0.4495527 0.1166631 0.4717311 0.1581559 0.5802944 0.4197056 0.5802944 0.4197056 0.6166632 0.4495527 0.08029437 0.08029437 0.08029437 0.08029437 0.1166631 0.05044728 0.8833369 0.4495527 0.841844 0.4717311 0.841844 0.4717311 0.08029437 0.08029437 0.08029437 0.08029437 0.05044728 0.1166631 0.2968217 0.4853885 0.2968217 0.4853885 0.341844 0.4717311 0.4717311 0.1581559 0.4717311 0.1581559 0.4495527 0.1166631 0.1166631 0.05044728 0.1166631 0.05044728 0.08029437 0.08029437 0.08029437 0.4197056 0.08029437 0.4197056 0.1166631 0.4495527 0.4717311 0.341844 0.4717311 0.341844 0.4853885 0.2968217 0.2968217 0.01461154 0.2968217 0.01461154 0.25 0.00999999 0.00999999 0.25 0.00999999 0.25 0.01461154 0.2968217 0.341844 0.4717311 0.341844 0.4717311 0.3833369 0.4495527 0.4495527 0.1166631 0.4495527 0.1166631 0.4197056 0.08029437 0.08029437 0.08029437 0.08029437 0.08029437 0.05044728 0.1166631 0.1166631 0.4495527 0.1166631 0.4495527 0.1581559 0.4717311 0.4853885 0.2968217 0.4853885 0.2968217 0.49 0.25 0.25 0.00999999 0.25 0.00999999 0.2031783 0.01461154 0.01461154 0.2968217 0.01461154 0.2968217 0.02826887 0.341844 0.3833369 0.4495527 0.3833369 0.4495527 0.4197056 0.4197056 0.4197056 0.08029437 0.4197056 0.08029437 0.3833369 0.05044728 0.05044728 0.1166631 0.05044728 0.1166631 0.02826887 0.1581559 0.1581559 0.4717311 0.1581559 0.4717311 0.2031783 0.4853885 0.49 0.25 0.49 0.25 0.4853885 0.2031783 0.2031783 0.01461154 0.2031783 0.01461154 0.1581559 0.02826887 0.02826887 0.341844 0.02826887 0.341844 0.05044728 0.3833369 0.4197056 0.4197056 0.4197056 0.4197056 0.4495527 0.3833369 0.3833369 0.05044728 0.3833369 0.05044728 0.341844 0.02826887 0.02826887 0.1581559 0.02826887 0.1581559 0.01461154 0.2031783 0.25 0.49 0.25 0.49 0.2968217 0.4853885 0.2031783 0.4853885 0.2031783 0.4853885 0.25 0.49 0.4853885 0.2031783 0.4853885 0.2031783 0.4717311 0.1581559 0.1581559 0.02826887 0.1581559 0.02826887 0.1166631 0.05044728 0.05044728 0.3833369 0.05044728 0.3833369 0.08029437 0.4197056 0.4495527 0.3833369 0.4495527 0.3833369 0.4717311 0.341844 0.341844 0.02826887 0.341844 0.02826887 0.2968217 0.01461154 0.341844 0.4717311 0.2968217 0.4853885 0.25 0.49 0.25 0.49 0.2031783 0.4853885 0.341844 0.4717311 0.2031783 0.4853885 0.1581559 0.4717311 0.341844 0.4717311 0.1581559 0.4717311 0.1166631 0.4495527 0.08029437 0.4197056 0.08029437 0.4197056 0.05044728 0.3833369 0.1581559 0.4717311 0.05044728 0.3833369 0.02826887 0.341844 0.1581559 0.4717311 0.02826887 0.341844 0.01461154 0.2968217 0.00999999 0.25 0.00999999 0.25 0.01461154 0.2031783 0.02826887 0.1581559 0.02826887 0.1581559 0.05044728 0.1166631 0.1581559 0.02826887 0.05044728 0.1166631 0.08029437 0.08029437 0.1581559 0.02826887 0.08029437 0.08029437 0.1166631 0.05044728 0.1581559 0.02826887 0.1581559 0.02826887 0.2031783 0.01461154 0.25 0.00999999 0.25 0.00999999 0.2968217 0.01461154 0.1581559 0.02826887 0.2968217 0.01461154 0.341844 0.02826887 0.1581559 0.02826887 0.341844 0.02826887 0.3833369 0.05044728 0.4197056 0.08029437 0.4197056 0.08029437 0.4495527 0.1166631 0.4717311 0.1581559 0.4717311 0.1581559 0.4853885 0.2031783 0.49 0.25 0.49 0.25 0.4853885 0.2968217 0.4717311 0.341844 0.4717311 0.341844 0.4495527 0.3833369 0.4197056 0.4197056 0.4197056 0.4197056 0.3833369 0.4495527 0.341844 0.4717311 0.02826887 0.341844 0.00999999 0.25 0.02826887 0.1581559 0.341844 0.02826887 0.4197056 0.08029437 0.4717311 0.1581559 0.4717311 0.1581559 0.49 0.25 0.4717311 0.341844 0.4717311 0.341844 0.4197056 0.4197056 0.4717311 0.1581559 0.4197056 0.4197056 0.341844 0.4717311 0.4717311 0.1581559 0.341844 0.4717311 0.1581559 0.4717311 0.1581559 0.02826887 0.1581559 0.4717311 0.02826887 0.341844 0.1581559 0.02826887 0.02826887 0.341844 0.02826887 0.1581559 0.1581559 0.02826887 0.1581559 0.02826887 0.341844 0.02826887 0.341844 0.4717311 0.4853885 0.2968217 0.4853885 0.2968217 0.49 0.25 0.05044728 0.1166631 0.05044728 0.1166631 0.02826887 0.1581559 0.49 0.25 0.49 0.25 0.4853885 0.2031783 0.02826887 0.1581559 0.02826887 0.1581559 0.01461154 0.2031783 0.4853885 0.2031783 0.4853885 0.2031783 0.4717311 0.1581559 0.01461154 0.2031783 0.01461154 0.2031783 0.00999999 0.25 0.4717311 0.1581559 0.4717311 0.1581559 0.4495527 0.1166631 0.00999999 0.25 0.00999999 0.25 0.01461154 0.2968217 0.4495527 0.1166631 0.4495527 0.1166631 0.4197056 0.08029437 0.01461154 0.2968217 0.01461154 0.2968217 0.02826887 0.341844 0.3833369 0.05044728 0.4197056 0.08029437 0.4197056 0.08029437 0.02826887 0.341844 0.02826887 0.341844 0.05044728 0.3833369 0.341844 0.02826887 0.3833369 0.05044728 0.3833369 0.05044728 0.25 0.49 0.25 0.49 0.2968217 0.4853885 0.05044728 0.3833369 0.05044728 0.3833369 0.08029437 0.4197056 0.2968217 0.01461154 0.341844 0.02826887 0.341844 0.02826887 0.2968217 0.4853885 0.2968217 0.4853885 0.341844 0.4717311 0.08029437 0.4197056 0.08029437 0.4197056 0.1166631 0.4495527 0.25 0.00999999 0.2968217 0.01461154 0.2968217 0.01461154 0.341844 0.4717311 0.341844 0.4717311 0.3833369 0.4495527 0.1166631 0.4495527 0.1166631 0.4495527 0.1581559 0.4717311 0.2031783 0.01461154 0.25 0.00999999 0.25 0.00999999 0.3833369 0.4495527 0.3833369 0.4495527 0.4197056 0.4197056 0.1581559 0.4717311 0.1581559 0.4717311 0.2031783 0.4853885 0.1581559 0.02826887 0.2031783 0.01461154 0.2031783 0.01461154 0.4197056 0.4197056 0.4197056 0.4197056 0.4495527 0.3833369 0.2031783 0.4853885 0.2031783 0.4853885 0.25 0.49 0.1166631 0.05044728 0.1581559 0.02826887 0.1581559 0.02826887 0.4495527 0.3833369 0.4495527 0.3833369 0.4717311 0.341844 0.08029437 0.08029437 0.1166631 0.05044728 0.1166631 0.05044728 0.4717311 0.341844 0.4717311 0.341844 0.4853885 0.2968217 0.03125 0.75 0 0.75 0 0.5 0.0625 0.75 0.03125 0.75 0.03125 0.5 0.09375 0.75 0.0625 0.75 0.0625 0.5 0.125 0.75 0.09375 0.75 0.09375 0.5 0.15625 0.75 0.125 0.75 0.125 0.5 0.1875 0.75 0.15625 0.75 0.15625 0.5 0.21875 0.75 0.1875 0.75 0.1875 0.5 0.25 0.75 0.21875 0.75 0.21875 0.5 0.28125 0.75 0.25 0.75 0.25 0.5 0.3125 0.75 0.28125 0.75 0.28125 0.5 0.34375 0.75 0.3125 0.75 0.3125 0.5 0.375 0.5 0.375 0.75 0.34375 0.75 0.40625 0.75 0.375 0.75 0.375 0.5 0.4375 0.75 0.40625 0.75 0.40625 0.5 0.46875 0.75 0.4375 0.75 0.4375 0.5 0.5 0.75 0.46875 0.75 0.46875 0.5 0.53125 0.75 0.5 0.75 0.5 0.5 0.5625 0.75 0.53125 0.75 0.53125 0.5 0.59375 0.75 0.5625 0.75 0.5625 0.5 0.625 0.5 0.625 0.75 0.59375 0.75 0.65625 0.75 0.625 0.75 0.625 0.5 0.6875 0.75 0.65625 0.75 0.65625 0.5 0.71875 0.75 0.6875 0.75 0.6875 0.5 0.75 0.75 0.71875 0.75 0.71875 0.5 0.78125 0.75 0.75 0.75 0.75 0.5 0.8125 0.75 0.78125 0.75 0.78125 0.5 0.84375 0.75 0.8125 0.75 0.8125 0.5 0.875 0.75 0.84375 0.75 0.84375 0.5 0.90625 0.75 0.875 0.75 0.875 0.5 0.9375 0.5 0.9375 0.75 0.90625 0.75 0.96875 0.75 0.9375 0.75 0.9375 0.5 1 0.75 0.96875 0.75 0.96875 0.5</float_array>
          <technique_common>
            <accessor source="#Cylinder-mesh-map-0-array" count="2100" stride="2">
              <param name="S" type="float"/>
              <param name="T" type="float"/>
            </accessor>
          </technique_common>
        </source>
        <vertices id="Cylinder-mesh-vertices">
          <input semantic="POSITION" source="#Cylinder-mesh-positions"/>
        </vertices>
        <triangles material="Metal-material" count="542">
          <input semantic="VERTEX" source="#Cylinder-mesh-vertices" offset="0"/>
          <input semantic="NORMAL" source="#Cylinder-mesh-normals" offset="1"/>
          <input semantic="TEXCOORD" source="#Cylinder-mesh-map-0" offset="2" set="0"/>
          <p>61 0 0 123 0 1 59 0 2 6 1 3 72 2 4 8 3 5 43 0 6 105 0 7 41 0 8 58 4 9 124 5 10 60 6 11 25 0 12 87 0 13 23 0 14 7 0 18 69 0 19 5 0 20 22 10 21 88 11 22 24 12 23 59 0 24 121 0 25 57 0 26 41 0 30 103 0 31 39 0 32 23 0 36 85 0 37 21 0 38 38 17 39 104 18 40 40 7 41 5 0 42 66 0 43 3 0 44 57 0 48 119 0 49 55 0 50 2 21 51 68 22 52 4 13 53 39 0 54 101 0 55 37 0 56 54 23 57 120 24 58 56 15 59 21 0 60 83 0 61 19 0 62 18 27 66 84 28 67 20 19 68 55 0 69 117 0 70 53 0 71 3 0 72 67 0 73 1 0 74 37 0 75 99 0 76 35 0 77 19 0 84 81 0 85 17 0 86 34 33 87 100 34 88 36 25 89 47 0 90 280 0 91 49 0 92 53 0 96 115 0 97 51 0 98 30 37 99 46 38 100 62 39 101 76 0 102 142 0 103 78 0 104 113 0 105 175 40 106 111 0 107 95 0 108 157 41 109 93 0 110 110 0 111 176 0 112 112 0 113 77 0 114 139 0 115 75 0 116 92 0 117 158 0 118 94 0 119 67 0 120 191 42 121 127 0 122 74 0 123 140 0 124 76 0 125 111 0 126 173 0 127 109 0 128 126 0 129 128 0 130 64 0 131 93 0 132 155 43 133 91 0 134 108 0 135 174 0 136 110 0 137 75 0 138 137 44 139 73 0 140 90 0 141 156 0 142 92 0 143 127 0 144 189 45 145 125 0 146 72 0 147 138 0 148 74 0 149 109 0 150 171 0 151 107 0 152 124 0 153 190 0 154 126 0 155 91 0 156 153 46 157 89 0 158 106 0 159 172 0 160 108 0 161 73 0 162 135 47 163 71 0 164 88 0 165 154 0 166 90 0 167 125 0 168 187 48 169 123 0 170 70 0 171 136 0 172 72 0 173 107 0 174 169 49 175 105 0 176 122 0 177 188 0 178 124 0 179 89 0 180 151 0 181 87 0 182 104 0 183 170 0 184 106 0 185 71 0 186 133 50 187 69 0 188 86 0 189 152 0 190 88 0 191 123 0 192 185 51 193 121 0 194 68 0 195 134 0 196 70 0 197 9 0 201 71 0 202 7 0 203 42 9 204 108 54 205 44 55 206 27 0 207 89 0 208 25 0 209 45 0 213 107 0 214 43 0 215 63 0 219 125 0 220 61 0 221 26 53 222 92 60 223 28 61 224 11 0 225 73 0 226 9 0 227 29 0 231 91 0 232 27 0 233 62 57 234 64 64 235 0 31 236 47 0 237 109 0 238 45 0 239 10 59 240 76 65 241 12 66 242 1 0 243 127 0 244 63 0 245 13 0 249 75 0 250 11 0 251 46 63 252 112 69 253 48 70 254 31 0 255 93 0 256 29 0 257 49 0 258 111 0 259 47 0 260 30 68 264 96 73 265 32 74 266 15 0 267 77 0 268 13 0 269 33 0 273 95 0 274 31 0 275 51 0 276 113 0 277 49 0 278 14 72 279 80 77 280 16 35 281 17 0 285 79 0 286 15 0 287 52 29 288 114 76 289 116 79 290 35 0 291 97 0 292 33 0 293 160 80 294 222 81 295 224 80 296 177 85 300 239 86 301 175 40 302 159 87 303 221 88 304 157 41 305 176 89 306 238 90 307 240 80 308 139 0 309 205 0 310 203 91 311 131 93 315 255 94 316 191 42 317 138 95 318 204 83 319 140 96 320 175 40 321 237 0 322 173 0 323 128 80 324 254 97 325 192 80 326 155 43 327 221 88 328 219 98 329 137 44 333 203 91 334 201 101 335 154 102 336 220 92 337 156 80 338 191 42 339 253 103 340 189 45 341 171 0 345 237 0 346 235 106 347 153 46 351 219 98 352 217 101 353 170 108 354 236 100 355 172 109 356 137 44 357 199 98 358 135 47 359 187 48 363 253 103 364 251 111 365 136 104 366 198 110 367 200 112 368 169 49 369 235 106 370 233 113 371 186 114 372 252 107 373 188 80 374 153 46 375 215 91 376 151 0 377 135 47 381 197 117 382 133 50 383 152 104 384 214 105 385 216 112 386 185 51 387 251 111 388 249 113 389 94 0 390 160 0 391 96 0 392 79 0 393 141 0 394 77 0 395 112 0 396 178 0 397 114 0 398 97 0 399 159 87 400 95 0 401 115 0 402 177 85 403 113 0 404 78 0 405 144 0 406 80 0 407 96 0 408 162 0 409 98 0 410 81 0 411 143 118 412 79 0 413 114 0 414 180 0 415 116 0 416 99 0 417 161 93 418 97 0 419 117 0 420 179 119 421 115 0 422 80 0 423 146 0 424 82 0 425 98 0 426 164 0 427 100 0 428 83 0 429 145 120 430 81 0 431 64 0 432 129 0 433 65 0 434 116 0 435 182 0 436 118 0 437 101 0 438 163 42 439 99 0 440 66 0 441 131 93 442 67 0 443 119 0 444 181 0 445 117 0 446 82 0 447 148 0 448 84 0 449 100 0 450 166 0 451 102 0 452 85 0 453 147 121 454 83 0 455 118 0 456 184 0 457 120 0 458 103 0 459 165 122 460 101 0 461 65 0 462 132 0 463 68 0 464 121 0 465 183 0 466 119 0 467 84 0 468 150 0 469 86 0 470 69 0 471 130 123 472 66 0 473 102 0 474 168 0 475 104 0 476 87 0 477 149 0 478 85 0 479 120 0 480 186 0 481 122 0 482 105 0 483 167 124 484 103 0 485 195 125 486 321 126 487 320 127 488 194 128 489 322 129 490 321 126 491 197 130 492 323 131 493 322 129 494 323 131 495 201 132 496 324 133 497 201 132 498 325 134 499 324 133 500 203 135 501 326 136 502 325 134 503 205 137 504 327 138 505 326 136 506 207 139 507 328 140 508 327 138 509 209 141 510 329 142 511 328 140 512 211 143 513 330 144 514 329 142 515 213 145 516 331 146 517 330 144 518 215 147 519 332 148 520 331 146 521 217 149 522 333 150 523 332 148 524 333 150 525 221 151 526 334 152 527 221 151 528 335 153 529 334 152 530 223 154 531 336 155 532 335 153 533 225 156 534 337 157 535 336 155 536 227 158 537 338 159 538 337 157 539 229 160 540 339 161 541 338 159 542 231 162 543 340 163 544 339 161 545 233 164 546 341 165 547 340 163 548 235 166 549 342 167 550 341 165 551 237 168 552 343 169 553 342 167 554 239 170 555 344 171 556 343 169 557 241 172 558 345 173 559 344 171 560 243 174 561 346 175 562 345 173 563 245 176 564 347 177 565 346 175 566 347 177 567 249 178 568 348 179 569 249 178 570 349 180 571 348 179 572 251 181 573 350 182 574 349 180 575 253 183 576 351 184 577 350 182 578 255 185 579 320 127 580 351 184 581 143 118 582 205 0 583 141 0 584 161 93 588 223 188 589 159 87 590 177 85 591 243 189 592 241 0 593 144 190 594 206 84 595 208 80 596 145 120 600 207 192 601 143 118 602 178 187 603 244 193 604 180 194 605 161 93 606 227 195 607 225 0 608 179 119 609 245 0 610 243 189 611 162 80 615 228 198 616 164 80 617 145 120 618 211 192 619 209 0 620 163 42 627 229 199 628 227 195 629 131 93 630 194 200 631 195 0 632 183 0 633 245 0 634 181 0 635 146 197 636 212 201 637 148 202 638 147 121 642 213 0 643 211 192 644 184 115 645 246 116 646 248 205 647 167 124 648 229 199 649 165 122 650 129 80 651 196 206 652 132 80 653 185 51 654 247 106 655 183 0 656 130 123 660 197 117 661 194 200 662 168 115 663 230 204 664 232 205 665 151 0 666 213 0 667 149 0 668 169 49 672 231 111 673 167 124 674 3 0 681 258 0 682 5 0 683 21 0 684 267 0 685 23 0 686 39 0 687 276 0 688 41 0 689 57 0 690 285 0 691 59 0 692 13 0 693 263 0 694 15 0 695 31 0 696 272 0 697 33 0 698 49 0 699 281 0 700 51 0 701 5 0 702 259 0 703 7 0 704 23 0 705 268 0 706 25 0 707 41 0 708 277 0 709 43 0 710 59 0 711 286 0 712 61 0 713 15 0 714 264 0 715 17 0 716 33 0 717 273 0 718 35 0 719 51 0 720 282 0 721 53 0 722 7 0 723 260 0 724 9 0 725 25 0 726 269 0 727 27 0 728 43 0 729 278 0 730 45 0 731 61 0 732 287 0 733 63 0 734 17 0 735 265 0 736 19 0 737 35 0 738 274 0 739 37 0 740 53 0 741 283 0 742 55 0 743 9 0 744 261 0 745 11 0 746 27 0 747 270 0 748 29 0 749 45 0 750 279 0 751 47 0 752 1 0 753 256 0 754 3 0 755 63 0 756 257 0 757 1 0 758 19 0 759 266 0 760 21 0 761 37 0 762 275 0 763 39 0 764 55 0 765 284 0 766 57 0 767 11 0 768 262 0 769 13 0 770 29 0 771 271 0 772 31 0 773 351 184 870 192 275 871 254 276 872 350 182 873 254 276 874 252 277 875 349 180 876 252 277 877 250 278 878 348 179 879 250 278 880 248 279 881 347 177 882 248 279 883 246 280 884 346 175 885 246 280 886 244 281 887 345 173 888 244 281 889 242 282 890 344 171 891 242 282 892 240 283 893 343 169 894 240 283 895 238 284 896 342 167 897 238 284 898 236 285 899 341 165 900 236 285 901 234 286 902 232 287 903 341 165 904 234 286 905 339 161 906 232 287 907 230 288 908 338 159 909 230 288 910 228 289 911 337 157 912 228 289 913 226 290 914 336 155 915 226 290 916 224 291 917 335 153 918 224 291 919 222 292 920 334 152 921 222 292 922 220 293 923 333 150 924 220 293 925 218 294 926 216 295 927 333 150 928 218 294 929 331 146 930 216 295 931 214 296 932 330 144 933 214 296 934 212 297 935 329 142 936 212 297 937 210 298 938 328 140 939 210 298 940 208 299 941 327 138 942 208 299 943 206 300 944 326 136 945 206 300 946 204 301 947 325 134 948 204 301 949 202 302 950 324 133 951 202 302 952 200 303 953 323 131 954 200 303 955 198 304 956 196 305 957 323 131 958 198 304 959 321 126 960 196 305 961 193 306 962 320 127 963 193 306 964 192 275 965 61 0 966 125 0 967 123 0 968 6 1 969 70 14 970 72 2 971 43 0 972 107 0 973 105 0 974 58 4 975 122 16 976 124 5 977 25 0 978 89 0 979 87 0 980 7 0 984 71 0 985 69 0 986 22 10 987 86 20 988 88 11 989 59 0 990 123 0 991 121 0 992 41 0 996 105 0 997 103 0 998 23 0 1002 87 0 1003 85 0 1004 38 17 1005 102 26 1006 104 18 1007 5 0 1008 69 0 1009 66 0 1010 57 0 1014 121 0 1015 119 0 1016 2 21 1017 65 32 1018 68 22 1019 39 0 1020 103 0 1021 101 0 1022 54 23 1023 118 30 1024 120 24 1025 21 0 1026 85 0 1027 83 0 1028 18 27 1032 82 36 1033 84 28 1034 55 0 1035 119 0 1036 117 0 1037 3 0 1038 66 0 1039 67 0 1040 37 0 1041 101 0 1042 99 0 1043 19 0 1050 83 0 1051 81 0 1052 34 33 1053 98 78 1054 100 34 1055 47 0 1056 279 0 1057 280 0 1058 53 0 1062 117 0 1063 115 0 1064 62 39 1065 0 80 1066 2 307 1067 2 307 1068 4 308 1069 6 309 1070 6 309 1071 8 310 1072 14 311 1073 8 310 1074 10 80 1075 14 311 1076 10 80 1077 12 80 1078 14 311 1079 14 311 1080 16 80 1081 18 312 1082 18 312 1083 20 80 1084 22 313 1085 22 313 1086 24 314 1087 30 37 1088 24 314 1089 26 315 1090 30 37 1091 26 315 1092 28 316 1093 30 37 1094 30 37 1095 32 80 1096 34 317 1097 34 317 1098 36 318 1099 38 319 1100 38 319 1101 40 320 1102 46 38 1103 40 320 1104 42 80 1105 46 38 1106 42 80 1107 44 80 1108 46 38 1109 46 38 1110 48 80 1111 50 321 1112 50 321 1113 52 80 1114 54 322 1115 54 322 1116 56 80 1117 58 80 1118 58 80 1119 60 80 1120 54 322 1121 60 80 1122 62 39 1123 54 322 1124 62 39 1125 2 307 1126 14 311 1127 2 307 1128 6 309 1129 14 311 1130 14 311 1131 18 312 1132 30 37 1133 18 312 1134 22 313 1135 30 37 1136 30 37 1137 34 317 1138 46 38 1139 34 317 1140 38 319 1141 46 38 1142 46 38 1143 50 321 1144 62 39 1145 50 321 1146 54 322 1147 62 39 1148 62 39 1149 14 311 1150 30 37 1151 76 0 1152 140 0 1153 142 0 1154 113 0 1155 177 85 1156 175 40 1157 95 0 1158 159 87 1159 157 41 1160 110 0 1161 174 0 1162 176 0 1163 77 0 1164 141 0 1165 139 0 1166 92 0 1167 156 0 1168 158 0 1169 67 0 1170 131 93 1171 191 42 1172 74 0 1173 138 0 1174 140 0 1175 111 0 1176 175 40 1177 173 0 1178 126 0 1179 190 0 1180 128 0 1181 93 0 1182 157 41 1183 155 43 1184 108 0 1185 172 0 1186 174 0 1187 75 0 1188 139 0 1189 137 44 1190 90 0 1191 154 0 1192 156 0 1193 127 0 1194 191 42 1195 189 45 1196 72 0 1197 136 0 1198 138 0 1199 109 0 1200 173 0 1201 171 0 1202 124 0 1203 188 0 1204 190 0 1205 91 0 1206 155 43 1207 153 46 1208 106 0 1209 170 0 1210 172 0 1211 73 0 1212 137 44 1213 135 47 1214 88 0 1215 152 0 1216 154 0 1217 125 0 1218 189 45 1219 187 48 1220 70 0 1221 134 0 1222 136 0 1223 107 0 1224 171 0 1225 169 49 1226 122 0 1227 186 0 1228 188 0 1229 89 0 1230 153 46 1231 151 0 1232 104 0 1233 168 0 1234 170 0 1235 71 0 1236 135 47 1237 133 50 1238 86 0 1239 150 0 1240 152 0 1241 123 0 1242 187 48 1243 185 51 1244 68 0 1245 132 0 1246 134 0 1247 9 0 1251 73 0 1252 71 0 1253 42 9 1254 106 8 1255 108 54 1256 27 0 1257 91 0 1258 89 0 1259 45 0 1263 109 0 1264 107 0 1265 63 0 1269 127 0 1270 125 0 1271 26 53 1272 90 52 1273 92 60 1274 11 0 1275 75 0 1276 73 0 1277 29 0 1281 93 0 1282 91 0 1283 62 57 1284 126 56 1285 64 64 1286 47 0 1287 111 0 1288 109 0 1289 10 59 1290 74 58 1291 76 65 1292 1 0 1293 67 0 1294 127 0 1295 13 0 1299 77 0 1300 75 0 1301 46 63 1302 110 62 1303 112 69 1304 31 0 1305 95 0 1306 93 0 1307 49 0 1308 113 0 1309 111 0 1310 30 68 1314 94 67 1315 96 73 1316 15 0 1317 79 0 1318 77 0 1319 33 0 1323 97 0 1324 95 0 1325 51 0 1326 115 0 1327 113 0 1328 14 72 1329 78 71 1330 80 77 1331 17 0 1335 81 0 1336 79 0 1337 52 29 1338 50 75 1339 114 76 1340 35 0 1341 99 0 1342 97 0 1343 160 80 1344 158 80 1345 222 81 1346 177 85 1350 241 0 1351 239 86 1352 159 87 1353 223 188 1354 221 88 1355 176 89 1356 174 99 1357 238 90 1358 139 0 1359 141 0 1360 205 0 1361 131 93 1365 195 0 1366 255 94 1367 138 95 1368 202 105 1369 204 83 1370 175 40 1371 239 86 1372 237 0 1373 128 80 1374 190 80 1375 254 97 1376 155 43 1377 157 41 1378 221 88 1379 137 44 1383 139 0 1384 203 91 1385 154 102 1386 218 110 1387 220 92 1388 191 42 1389 255 94 1390 253 103 1391 171 0 1395 173 0 1396 237 0 1397 153 46 1401 155 43 1402 219 98 1403 170 108 1404 234 116 1405 236 100 1406 137 44 1407 201 101 1408 199 98 1409 187 48 1413 189 45 1414 253 103 1415 136 104 1416 134 207 1417 198 110 1418 169 49 1419 171 0 1420 235 106 1421 186 114 1422 250 204 1423 252 107 1424 153 46 1425 217 101 1426 215 91 1427 135 47 1431 199 98 1432 197 117 1433 152 104 1434 150 95 1435 214 105 1436 185 51 1437 187 48 1438 251 111 1439 94 0 1440 158 0 1441 160 0 1442 79 0 1443 143 118 1444 141 0 1445 112 0 1446 176 0 1447 178 0 1448 97 0 1449 161 93 1450 159 87 1451 115 0 1452 179 119 1453 177 85 1454 78 0 1455 142 0 1456 144 0 1457 96 0 1458 160 0 1459 162 0 1460 81 0 1461 145 120 1462 143 118 1463 114 0 1464 178 0 1465 180 0 1466 99 0 1467 163 42 1468 161 93 1469 117 0 1470 181 0 1471 179 119 1472 80 0 1473 144 0 1474 146 0 1475 98 0 1476 162 0 1477 164 0 1478 83 0 1479 147 121 1480 145 120 1481 64 0 1482 128 0 1483 129 0 1484 116 0 1485 180 0 1486 182 0 1487 101 0 1488 165 122 1489 163 42 1490 66 0 1491 130 123 1492 131 93 1493 119 0 1494 183 0 1495 181 0 1496 82 0 1497 146 0 1498 148 0 1499 100 0 1500 164 0 1501 166 0 1502 85 0 1503 149 0 1504 147 121 1505 118 0 1506 182 0 1507 184 0 1508 103 0 1509 167 124 1510 165 122 1511 65 0 1512 129 0 1513 132 0 1514 121 0 1515 185 51 1516 183 0 1517 84 0 1518 148 0 1519 150 0 1520 69 0 1521 133 50 1522 130 123 1523 102 0 1524 166 0 1525 168 0 1526 87 0 1527 151 0 1528 149 0 1529 120 0 1530 184 0 1531 186 0 1532 105 0 1533 169 49 1534 167 124 1535 195 125 1536 194 128 1537 321 126 1538 194 128 1539 197 130 1540 322 129 1541 197 130 1542 199 323 1543 323 131 1544 323 131 1545 199 323 1546 201 132 1547 201 132 1548 203 135 1549 325 134 1550 203 135 1551 205 137 1552 326 136 1553 205 137 1554 207 139 1555 327 138 1556 207 139 1557 209 141 1558 328 140 1559 209 141 1560 211 143 1561 329 142 1562 211 143 1563 213 145 1564 330 144 1565 213 145 1566 215 147 1567 331 146 1568 215 147 1569 217 149 1570 332 148 1571 217 149 1572 219 324 1573 333 150 1574 333 150 1575 219 324 1576 221 151 1577 221 151 1578 223 154 1579 335 153 1580 223 154 1581 225 156 1582 336 155 1583 225 156 1584 227 158 1585 337 157 1586 227 158 1587 229 160 1588 338 159 1589 229 160 1590 231 162 1591 339 161 1592 231 162 1593 233 164 1594 340 163 1595 233 164 1596 235 166 1597 341 165 1598 235 166 1599 237 168 1600 342 167 1601 237 168 1602 239 170 1603 343 169 1604 239 170 1605 241 172 1606 344 171 1607 241 172 1608 243 174 1609 345 173 1610 243 174 1611 245 176 1612 346 175 1613 245 176 1614 247 325 1615 347 177 1616 347 177 1617 247 325 1618 249 178 1619 249 178 1620 251 181 1621 349 180 1622 251 181 1623 253 183 1624 350 182 1625 253 183 1626 255 185 1627 351 184 1628 255 185 1629 195 125 1630 320 127 1631 143 118 1632 207 192 1633 205 0 1634 161 93 1638 225 0 1639 223 188 1640 177 85 1641 179 119 1642 243 189 1643 144 190 1644 142 82 1645 206 84 1646 145 120 1650 209 0 1651 207 192 1652 178 187 1653 242 186 1654 244 193 1655 161 93 1656 163 42 1657 227 195 1658 179 119 1659 181 0 1660 245 0 1661 162 80 1665 226 191 1666 228 198 1667 145 120 1668 147 121 1669 211 192 1670 163 42 1677 165 122 1678 229 199 1679 131 93 1680 130 123 1681 194 200 1682 183 0 1683 247 106 1684 245 0 1685 146 197 1686 210 196 1687 212 201 1688 147 121 1692 149 0 1693 213 0 1694 184 115 1695 182 108 1696 246 116 1697 167 124 1698 231 111 1699 229 199 1700 129 80 1701 193 81 1702 196 206 1703 185 51 1704 249 113 1705 247 106 1706 130 123 1710 133 50 1711 197 117 1712 168 115 1713 166 203 1714 230 204 1715 151 0 1716 215 91 1717 213 0 1718 169 49 1722 233 113 1723 231 111 1724 3 0 1731 256 0 1732 258 0 1733 21 0 1734 266 0 1735 267 0 1736 39 0 1737 275 0 1738 276 0 1739 57 0 1740 284 0 1741 285 0 1742 13 0 1743 262 0 1744 263 0 1745 31 0 1746 271 0 1747 272 0 1748 49 0 1749 280 0 1750 281 0 1751 5 0 1752 258 0 1753 259 0 1754 23 0 1755 267 0 1756 268 0 1757 41 0 1758 276 0 1759 277 0 1760 59 0 1761 285 0 1762 286 0 1763 15 0 1764 263 0 1765 264 0 1766 33 0 1767 272 0 1768 273 0 1769 51 0 1770 281 0 1771 282 0 1772 7 0 1773 259 0 1774 260 0 1775 25 0 1776 268 0 1777 269 0 1778 43 0 1779 277 0 1780 278 0 1781 61 0 1782 286 0 1783 287 0 1784 17 0 1785 264 0 1786 265 0 1787 35 0 1788 273 0 1789 274 0 1790 53 0 1791 282 0 1792 283 0 1793 9 0 1794 260 0 1795 261 0 1796 27 0 1797 269 0 1798 270 0 1799 45 0 1800 278 0 1801 279 0 1802 1 0 1803 257 0 1804 256 0 1805 63 0 1806 287 0 1807 257 0 1808 19 0 1809 265 0 1810 266 0 1811 37 0 1812 274 0 1813 275 0 1814 55 0 1815 283 0 1816 284 0 1817 11 0 1818 261 0 1819 262 0 1820 29 0 1821 270 0 1822 271 0 1823 351 184 2004 320 127 2005 192 275 2006 350 182 2007 351 184 2008 254 276 2009 349 180 2010 350 182 2011 252 277 2012 348 179 2013 349 180 2014 250 278 2015 347 177 2016 348 179 2017 248 279 2018 346 175 2019 347 177 2020 246 280 2021 345 173 2022 346 175 2023 244 281 2024 344 171 2025 345 173 2026 242 282 2027 343 169 2028 344 171 2029 240 283 2030 342 167 2031 343 169 2032 238 284 2033 341 165 2034 342 167 2035 236 285 2036 232 287 2037 340 163 2038 341 165 2039 339 161 2040 340 163 2041 232 287 2042 338 159 2043 339 161 2044 230 288 2045 337 157 2046 338 159 2047 228 289 2048 336 155 2049 337 157 2050 226 290 2051 335 153 2052 336 155 2053 224 291 2054 334 152 2055 335 153 2056 222 292 2057 333 150 2058 334 152 2059 220 293 2060 216 295 2061 332 148 2062 333 150 2063 331 146 2064 332 148 2065 216 295 2066 330 144 2067 331 146 2068 214 296 2069 329 142 2070 330 144 2071 212 297 2072 328 140 2073 329 142 2074 210 298 2075 327 138 2076 328 140 2077 208 299 2078 326 136 2079 327 138 2080 206 300 2081 325 134 2082 326 136 2083 204 301 2084 324 133 2085 325 134 2086 202 302 2087 323 131 2088 324 133 2089 200 303 2090 196 305 2091 322 129 2092 323 131 2093 321 126 2094 322 129 2095 196 305 2096 320 127 2097 321 126 2098 193 306 2099</p>
        </triangles>
        <triangles material="Black-material" count="158">
          <input semantic="VERTEX" source="#Cylinder-mesh-vertices" offset="0"/>
          <input semantic="NORMAL" source="#Cylinder-mesh-normals" offset="1"/>
          <input semantic="TEXCOORD" source="#Cylinder-mesh-map-0" offset="2" set="0"/>
          <p>40 7 15 106 8 16 42 9 17 4 13 27 70 14 28 6 1 29 56 15 33 122 16 34 58 4 35 20 19 45 86 20 46 22 10 47 36 25 63 102 26 64 38 17 65 52 29 78 118 30 79 54 23 80 0 31 81 65 32 82 2 21 83 16 35 93 82 36 94 18 27 95 24 12 198 90 52 199 26 53 200 60 6 210 126 56 211 62 57 212 8 3 216 74 58 217 10 59 218 44 55 228 110 62 229 46 63 230 28 61 246 94 67 247 30 68 248 12 66 261 78 71 262 14 72 263 50 75 270 112 69 271 114 76 272 32 74 282 98 78 283 34 33 284 142 82 297 204 83 298 206 84 299 158 80 312 220 92 313 222 81 314 174 99 330 236 100 331 238 90 332 136 104 342 202 105 343 138 95 344 190 80 348 252 107 349 254 97 350 152 104 360 218 110 361 154 102 362 168 115 378 234 116 379 170 108 380 176 89 585 242 186 586 178 187 587 160 80 597 226 191 598 162 80 599 144 190 612 210 196 613 146 197 614 128 80 621 193 81 622 129 80 623 182 108 624 244 193 625 246 116 626 166 203 639 228 198 640 230 204 641 150 95 657 212 201 658 214 105 659 184 115 669 250 204 670 186 114 671 134 207 675 196 206 676 198 110 677 276 208 678 309 209 679 277 210 680 302 211 774 298 212 775 290 213 776 263 214 777 296 215 778 264 216 779 277 210 780 310 217 781 278 218 782 264 216 783 297 219 784 265 220 785 278 218 786 311 221 787 279 222 788 265 220 789 298 223 790 266 224 791 279 222 792 312 225 793 280 226 794 266 224 795 299 227 796 267 228 797 280 226 798 313 229 799 281 230 800 267 228 801 300 231 802 268 232 803 281 230 804 314 233 805 282 234 806 269 235 807 300 231 808 301 236 809 282 234 810 315 237 811 283 238 812 270 239 813 301 236 814 302 240 815 257 241 816 288 242 817 256 243 818 283 238 819 316 244 820 284 245 821 271 246 822 302 240 823 303 247 824 256 243 825 290 248 826 258 249 827 284 245 828 317 250 829 285 251 830 272 252 831 303 247 832 304 253 833 258 249 834 291 254 835 259 255 836 285 251 837 318 256 838 286 257 839 273 258 840 304 253 841 305 259 842 259 255 843 292 260 844 260 261 845 286 257 846 319 262 847 287 263 848 274 264 849 305 259 850 306 265 851 260 261 852 293 266 853 261 267 854 287 263 855 289 268 856 257 241 857 275 269 858 306 265 859 307 270 860 261 267 861 294 271 862 262 272 863 276 208 864 307 270 865 308 273 866 262 272 867 295 274 868 263 214 869 40 7 981 104 18 982 106 8 983 4 13 993 68 22 994 70 14 995 56 15 999 120 24 1000 122 16 1001 20 19 1011 84 28 1012 86 20 1013 36 25 1029 100 34 1030 102 26 1031 52 29 1044 116 79 1045 118 30 1046 0 31 1047 64 64 1048 65 32 1049 16 35 1059 80 77 1060 82 36 1061 24 12 1248 88 11 1249 90 52 1250 60 6 1260 124 5 1261 126 56 1262 8 3 1266 72 2 1267 74 58 1268 44 55 1278 108 54 1279 110 62 1280 28 61 1296 92 60 1297 94 67 1298 12 66 1311 76 65 1312 78 71 1313 50 75 1320 48 70 1321 112 69 1322 32 74 1332 96 73 1333 98 78 1334 142 82 1347 140 96 1348 204 83 1349 158 80 1362 156 80 1363 220 92 1364 174 99 1380 172 109 1381 236 100 1382 136 104 1392 200 112 1393 202 105 1394 190 80 1398 188 80 1399 252 107 1400 152 104 1410 216 112 1411 218 110 1412 168 115 1428 232 205 1429 234 116 1430 176 89 1635 240 80 1636 242 186 1637 160 80 1647 224 80 1648 226 191 1649 144 190 1662 208 80 1663 210 196 1664 128 80 1671 192 80 1672 193 81 1673 182 108 1674 180 194 1675 244 193 1676 166 203 1689 164 80 1690 228 198 1691 150 95 1707 148 202 1708 212 201 1709 184 115 1719 248 205 1720 250 204 1721 134 207 1725 132 80 1726 196 206 1727 276 208 1728 308 273 1729 309 209 1730 290 213 1824 288 326 1825 289 327 1826 289 327 1827 319 328 1828 290 213 1829 319 328 1830 318 329 1831 290 213 1832 318 329 1833 317 0 1834 316 0 1835 316 0 1836 315 0 1837 318 329 1838 315 0 1839 314 330 1840 318 329 1841 314 330 1842 313 0 1843 312 0 1844 312 0 1845 311 0 1846 310 331 1847 310 331 1848 309 0 1849 306 332 1850 309 0 1851 308 0 1852 306 332 1853 308 0 1854 307 0 1855 306 332 1856 306 332 1857 305 333 1858 304 334 1859 304 334 1860 303 335 1861 306 332 1862 303 335 1863 302 211 1864 306 332 1865 302 211 1866 301 0 1867 300 336 1868 300 336 1869 299 0 1870 298 212 1871 298 212 1872 297 0 1873 296 0 1874 296 0 1875 295 0 1876 294 337 1877 294 337 1878 293 0 1879 292 338 1880 292 338 1881 291 0 1882 290 213 1883 314 330 1884 312 0 1885 310 331 1886 302 211 1887 300 336 1888 298 212 1889 298 212 1890 296 0 1891 294 337 1892 294 337 1893 292 338 1894 298 212 1895 292 338 1896 290 213 1897 298 212 1898 290 213 1899 318 329 1900 306 332 1901 318 329 1902 314 330 1903 306 332 1904 314 330 1905 310 331 1906 306 332 1907 306 332 1908 302 211 1909 290 213 1910 263 214 1911 295 274 1912 296 215 1913 277 210 1914 309 209 1915 310 217 1916 264 216 1917 296 215 1918 297 219 1919 278 218 1920 310 217 1921 311 221 1922 265 220 1923 297 219 1924 298 223 1925 279 222 1926 311 221 1927 312 225 1928 266 224 1929 298 223 1930 299 227 1931 280 226 1932 312 225 1933 313 229 1934 267 228 1935 299 227 1936 300 231 1937 281 230 1938 313 229 1939 314 233 1940 269 235 1941 268 232 1942 300 231 1943 282 234 1944 314 233 1945 315 237 1946 270 239 1947 269 235 1948 301 236 1949 257 241 1950 289 268 1951 288 242 1952 283 238 1953 315 237 1954 316 244 1955 271 246 1956 270 239 1957 302 240 1958 256 243 1959 288 242 1960 290 248 1961 284 245 1962 316 244 1963 317 250 1964 272 252 1965 271 246 1966 303 247 1967 258 249 1968 290 248 1969 291 254 1970 285 251 1971 317 250 1972 318 256 1973 273 258 1974 272 252 1975 304 253 1976 259 255 1977 291 254 1978 292 260 1979 286 257 1980 318 256 1981 319 262 1982 274 264 1983 273 258 1984 305 259 1985 260 261 1986 292 260 1987 293 266 1988 287 263 1989 319 262 1990 289 268 1991 275 269 1992 274 264 1993 306 265 1994 261 267 1995 293 266 1996 294 271 1997 276 208 1998 275 269 1999 307 270 2000 262 272 2001 294 271 2002 295 274 2003</p>
        </triangles>
      </mesh>
    </geometry>
  </library_geometries>
  <library_visual_scenes>
    <visual_scene id="Scene" name="Scene">
      <node id="Cylinder" name="Cylinder" type="NODE">
        <matrix sid="transform">1.94707e-7 1 1.31134e-7 0 0 -4.37114e-8 3 0 1 -1.94707e-7 -2.55328e-14 0 0 0 0 1</matrix>
        <instance_geometry url="#Cylinder-mesh" name="Cylinder">
          <bind_material>
            <technique_common>
              <instance_material symbol="Metal-material" target="#Metal-material">
                <bind_vertex_input semantic="UVMap" input_semantic="TEXCOORD" input_set="0"/>
              </instance_material>
              <instance_material symbol="Black-material" target="#Black-material">
                <bind_vertex_input semantic="UVMap" input_semantic="TEXCOORD" input_set="0"/>
              </instance_material>
            </technique_common>
          </bind_material>
        </instance_geometry>
      </node>
    </visual_scene>
  </library_visual_scenes>
  <scene>
    <instance_visual_scene url="#Scene"/>
  </scene>
</COLLADA>